<?xml version="1.0" encoding="UTF-8"?>
<svg xmlns="http://www.w3.org/2000/svg" xmlns:xlink="http://www.w3.org/1999/xlink" width="243.78pt" height="153.071pt" viewBox="0 0 243.78 153.071" version="1.1">
<defs>
<clipPath id="clip1">
  <path d="M 125 111 L 242 111 L 242 153.070312 L 125 153.070312 Z M 125 111 "/>
</clipPath>
<clipPath id="clip2">
  <path d="M 0 0 L 164 0 L 164 153.070312 L 0 153.070312 Z M 0 0 "/>
</clipPath>
</defs>
<g id="surface1">
<g clip-path="url(#clip1)" clip-rule="nonzero">
<path style="fill:none;stroke-width:1;stroke-linecap:butt;stroke-linejoin:miter;stroke:rgb(16.316223%,58.680725%,24.954224%);stroke-opacity:1;stroke-miterlimit:10;" d="M 0.00123125 0.00181875 C 0.677012 0.790881 1.872325 1.119006 2.876231 0.794787 C 3.880137 0.470569 4.634044 -0.486463 4.688731 -1.513806 C 4.747325 -2.607556 4.040294 -3.673963 3.036387 -4.177869 C 1.942637 -4.72865 0.649669 -4.29115 0.649669 -4.29115 C 0.0363875 -4.084119 -0.447988 -3.400525 -0.42455 -2.771619 L 0.204356 0.232287 C 0.438731 0.818225 0.427012 0.826037 0.177012 0.244006 C 0.177012 0.244006 -0.553456 -1.470838 -1.23705 -2.814588 C -1.4558 -3.244275 -1.690175 -3.685681 -2.076894 -3.986463 C -2.459706 -4.287244 -3.033925 -4.412244 -3.451894 -4.158338 C -4.065175 -3.787244 -4.002675 -2.931775 -3.951894 -2.232556 C -3.858144 -1.005994 -4.037831 0.2401 -4.463613 1.39635 C -4.584706 1.724475 -4.776113 2.087756 -5.127675 2.154162 C -5.502675 2.228381 -5.834706 1.9276 -6.057363 1.626819 C -7.287831 -0.0528688 -7.17455 -3.201306 -7.17455 -3.201306 C -7.151113 -3.830213 -7.119863 -3.830213 -7.100331 -3.201306 L -7.42455 0.693225 C -7.545644 1.310412 -7.936269 1.388537 -8.291738 0.861194 C -8.291738 0.861194 -9.291738 -0.623181 -9.682363 -2.025525 C -9.885488 -2.767713 -10.0183 -3.552869 -10.467519 -4.181775 C -10.916738 -4.814588 -11.334706 -4.826306 -11.334706 -4.826306 C -11.983144 -4.849744 -12.561269 -4.35365 -12.619863 -3.724744 C -12.619863 -3.724744 -12.850331 -1.279431 -13.420644 0.341662 C -13.670644 1.044787 -15.756581 2.681506 -16.510488 1.638537 C -16.850331 1.165881 -17.190175 0.693225 -17.530019 0.220569 C -17.713613 -0.0372438 -17.897206 -0.295056 -18.033925 -0.576306 C -18.471425 -1.470838 -18.369863 -2.595838 -17.772206 -3.400525 C -17.17455 -4.209119 -16.11205 -4.66615 -15.096425 -4.552869 C -14.873769 -4.529431 -14.651113 -4.47865 -14.471425 -4.35365 C -14.326894 -4.252088 -14.221425 -4.115369 -14.127675 -3.974744 C -13.709706 -3.334119 -13.510488 -2.588025 -13.369863 -1.845838 C -13.221425 -1.060681 -13.1433 -0.216931 -13.48705 0.509631 C -13.510488 0.560412 -13.537831 0.611194 -13.565175 0.658069 M 4.9192 7.900256 C 4.915294 5.216662 4.911387 2.533069 4.907481 -0.150525 C 4.903575 -1.017713 4.907481 -1.900525 5.20045 -2.720838 C 5.493419 -3.537244 6.13795 -4.29115 7.009044 -4.486463 C 7.884044 -4.685681 8.821544 -4.275525 9.407481 -3.615369 C 9.997325 -2.959119 10.278575 -2.091931 10.415294 -1.232556 C 10.532481 -0.5099 10.540294 0.27135 10.161387 0.904162 C 9.782481 1.533069 8.903575 1.9276 8.239512 1.579944 C 7.555919 1.224475 7.427012 0.349475 7.376231 -0.400525 C 7.302012 -1.474744 7.270762 -2.681775 8.024669 -3.474744 C 8.684825 -4.177869 9.747325 -4.330213 10.719981 -4.439588 C 11.087169 -4.482556 11.485606 -4.517713 11.798106 -4.326306 C 12.040294 -4.181775 12.184825 -3.927869 12.305919 -3.673963 C 13.091075 -1.994275 12.532481 0.568225 12.532481 0.568225 C 12.395762 1.185412 12.809825 1.595569 13.45045 1.482287 L 14.868419 1.232287 C 15.509044 1.119006 15.766856 0.579944 15.442637 0.0330687 L 14.497325 -2.783338 C 14.427012 -3.412244 14.895762 -4.0099 15.536387 -4.119275 C 15.536387 -4.119275 16.423106 -4.267713 17.462169 -4.240369 C 17.743419 -4.232556 18.040294 -4.209119 18.278575 -4.060681 C 18.520762 -3.904431 18.661387 -3.6349 18.778575 -3.373181 C 19.520762 -1.736463 19.743419 0.701037 19.743419 0.701037 C 19.802012 1.326037 20.20045 1.451037 20.626231 0.978381 C 20.626231 0.978381 21.692637 -0.201306 22.641856 -1.283338 C 23.259044 -1.990369 23.493419 -3.099744 22.923106 -3.845838 C 22.352794 -4.588025 20.891856 -4.521619 20.610606 -3.6349 M 69.071544 -2.841931 C 67.51295 -3.959119 65.505137 -4.482556 63.57545 -4.275525 C 63.360606 -4.248181 63.126231 -4.209119 62.9817 -4.056775 C 62.813731 -3.877088 62.817637 -3.607556 62.82545 -3.361463 C 63.009044 0.392444 63.317637 6.759631 63.317637 6.759631 C 63.348887 7.388537 63.321544 7.388537 63.259044 6.763537 C 63.259044 6.763537 62.591075 0.0916625 60.579356 -3.232556 C 60.161387 -3.91615 59.489512 -4.650525 58.680919 -4.502088 C 57.958262 -4.369275 57.587169 -3.615369 57.2317 -2.994275 C 56.872325 -2.373181 56.641856 -2.306775 56.641856 -2.306775 C 56.016856 -2.130994 55.872325 -1.795056 56.321544 -1.560681 C 56.770762 -1.326306 57.927012 -0.267713 57.88795 0.27135 C 57.852794 0.806506 56.9192 1.599475 56.540294 1.087756 L 54.8567 -3.205213 C 54.786387 -3.830213 54.641856 -3.834119 54.528575 -3.213025 C 54.528575 -3.213025 53.126231 4.685412 54.571544 8.908069 C 54.630137 9.076037 54.696544 9.247912 54.821544 9.376819 C 55.083262 9.638537 55.524669 9.638537 55.880137 9.509631 C 57.251231 9.017444 57.540294 7.263537 57.415294 5.853381 C 57.259044 4.08385 56.809825 2.341662 56.083262 0.712756 C 55.489512 -0.630994 54.684825 -1.927869 53.4817 -2.806775 C 52.278575 -3.689588 50.626231 -4.088025 49.223887 -3.552869 C 48.8567 -3.412244 48.493419 -3.189588 48.337169 -2.838025 C 48.2317 -2.607556 48.2317 -2.345838 48.239512 -2.091931 C 48.26295 -1.2599 48.372325 -0.435681 48.567637 0.376819 C 48.821544 1.439319 49.622325 2.697131 50.716075 2.435412 C 51.680919 2.204944 51.899669 0.818225 51.270762 0.0721312 C 50.641856 -0.677869 49.548106 -0.877088 48.555919 -0.85365 C 47.587169 -0.830213 47.184825 -0.314588 47.184825 -0.314588 C 46.790294 0.185412 46.587169 0.0916625 46.727794 -0.521619 C 46.727794 -0.521619 46.969981 -1.560681 46.528575 -2.545056 C 46.091075 -3.529431 45.005137 -4.283338 43.907481 -4.1349 C 42.958262 -4.002088 42.196544 -3.244275 41.829356 -2.3849 C 41.462169 -1.525525 41.427012 -0.568494 41.430919 0.361194 C 41.434825 2.982287 41.70045 5.603381 42.219981 8.1776 C 42.348887 8.8026 42.505137 9.462756 42.958262 9.931506 C 43.407481 10.400256 44.243419 10.58385 44.727794 10.14635 C 45.055919 9.849475 45.126231 9.376819 45.165294 8.939319 C 45.489512 5.251819 44.876231 1.404162 42.876231 -1.748181 C 41.723887 -3.564588 39.751231 -5.248181 37.57545 -4.912244 C 36.184825 -4.693494 35.001231 -3.615369 34.587169 -2.310681 C 34.173106 -1.002088 34.848887 0.533069 34.848887 0.533069 C 35.102794 1.111194 35.790294 1.447131 36.376231 1.279162 C 36.962169 1.111194 38.063731 -0.162244 37.778575 -0.72865 C 37.778575 -0.72865 36.559825 -3.154431 34.872325 -4.189588 C 33.184825 -5.22865 31.282481 -6.060681 30.055919 -7.591931 C 28.716075 -9.255994 28.427012 -11.654431 29.32545 -13.576306 C 29.438731 -13.8224 29.583262 -14.0724 29.82545 -14.205213 C 30.0442 -14.326306 30.313731 -14.330213 30.555919 -14.271619 C 31.7942 -13.974744 32.110606 -12.435681 32.180919 -11.201306 C 32.368419 -7.869275 32.833262 -4.431775 32.751231 -1.095838 C 32.696544 1.0526 30.122325 2.611194 28.571544 0.388537 C 28.145762 -0.220838 27.712169 -0.841931 27.501231 -1.548963 C 27.290294 -2.252088 27.333262 -3.0724 27.7942 -3.654431 C 28.266856 -4.244275 29.079356 -4.490369 29.848887 -4.529431 C 30.266856 -4.552869 30.696544 -4.521619 31.079356 -4.361463 C 31.688731 -4.10365 32.118419 -3.537244 32.344981 -2.931775 C 32.571544 -2.3224 32.626231 -1.670056 32.673106 -1.029431 C 32.723887 -0.431775 32.7317 0.251819 32.3567 0.693225 M 61.188731 4.568225 C 63.110606 4.798694 65.009044 5.216662 66.848887 5.810412 " transform="matrix(1,0,0,-1,158.2683,136.4276)"/>
</g>
<path style=" stroke:none;fill-rule:nonzero;fill:rgb(15.193176%,58.828735%,23.498535%);fill-opacity:1;" d="M 72.539062 26.453125 C 73.3125 27.5625 75.179688 27.371094 76.015625 26.308594 C 76.851562 25.246094 76.796875 23.691406 76.257812 22.449219 C 75.171875 21.949219 73.785156 22.230469 72.96875 23.105469 C 72.152344 23.984375 71.972656 25.394531 72.539062 26.453125 "/>
<path style="fill:none;stroke-width:2;stroke-linecap:butt;stroke-linejoin:miter;stroke:rgb(15.193176%,58.828735%,23.498535%);stroke-opacity:1;stroke-miterlimit:10;" d="M -0.0001375 0.000675 C 0.7733 -1.1087 2.640487 -0.917294 3.476425 0.145206 C 4.312362 1.207706 4.257675 2.762394 3.718612 4.004581 C 2.632675 4.504581 1.245956 4.223331 0.42955 3.348331 C -0.386856 2.469425 -0.566544 1.059269 -0.0001375 0.000675 Z M -0.0001375 0.000675 " transform="matrix(1,0,0,-1,72.5392,26.4538)"/>
<g clip-path="url(#clip2)" clip-rule="nonzero">
<path style="fill:none;stroke-width:2;stroke-linecap:butt;stroke-linejoin:miter;stroke:rgb(15.193176%,58.828735%,23.498535%);stroke-opacity:1;stroke-miterlimit:10;" d="M -0.00184375 -0.00124375 L 32.552844 -0.00124375 C 46.685656 -0.00124375 57.740344 1.252662 57.11925 2.780006 C 56.49425 4.311256 55.271594 6.9636 54.396594 8.674537 C 53.5255 10.389381 52.248156 12.940162 51.564563 14.350319 C 50.877063 15.756569 49.959094 18.05735 49.5255 19.467506 C 49.088 20.873756 48.783313 23.225319 48.845813 24.694069 C 48.908313 26.162819 47.2755 26.561256 45.216906 25.584694 C 43.162219 24.604225 39.845813 23.002662 37.853625 22.0261 C 35.857531 21.045631 33.076281 19.545631 31.673938 18.686256 C 30.271594 17.830787 27.826281 16.354225 26.236438 15.405006 C 24.646594 14.459694 24.111438 18.514381 25.045031 24.416725 C 25.982531 30.319069 27.279406 37.655006 27.935656 40.7136 C 28.591906 43.772194 29.713 48.5261 30.427844 51.280006 C 31.146594 54.033912 32.498156 58.787819 33.43175 61.846412 C 34.365344 64.908912 36.048938 70.061256 37.173938 73.303444 C 38.295031 76.549537 40.689563 81.502662 42.498156 84.319069 C 44.30675 87.131569 47.111438 91.737037 48.732531 94.549537 C 50.353625 97.365944 52.9005 101.018287 54.396594 102.670631 C 55.892688 104.322975 57.884875 106.475319 58.818469 107.455787 C 59.752063 108.43235 61.384875 109.885475 62.443469 110.68235 C 63.502063 111.475319 64.982531 112.377662 65.732531 112.68235 C 66.478625 112.990944 67.091906 114.0886 67.091906 115.131569 C 67.091906 116.170631 67.548937 117.772194 68.111437 118.690162 C 68.673937 119.608131 69.642687 121.108131 70.263781 122.0261 C 70.888781 122.944069 71.959094 124.147194 72.642687 124.697975 C 73.330187 125.248756 74.552844 126.049537 75.365344 126.475319 C 76.173937 126.905006 77.654406 127.604225 78.6505 128.033912 C 79.646594 128.4636 81.177844 128.811256 82.048937 128.811256 L 85.111437 128.811256 C 85.920031 128.811256 87.193469 128.510475 87.943469 128.143287 C 88.689562 127.7761 89.763781 127.127662 90.322375 126.697975 C 90.884875 126.272194 91.701281 125.518287 92.134875 125.030006 C 92.572375 124.541725 93.185656 123.740944 93.49425 123.252662 C 93.80675 122.760475 94.318469 121.858131 94.630969 121.248756 C 94.939562 120.635475 95.197375 119.635475 95.197375 119.022194 C 95.197375 118.412819 95.705187 117.862037 96.330187 117.799537 C 96.951281 117.740944 98.138781 117.690162 98.966906 117.690162 C 99.795031 117.690162 101.068469 117.639381 101.802844 117.576881 C 102.533312 117.514381 103.943469 117.365944 104.943469 117.24485 C 105.939562 117.11985 107.470812 117.022194 108.341906 117.022194 C 109.216906 117.022194 110.642687 116.971412 111.517687 116.908912 C 112.388781 116.850319 113.713 116.647194 114.463 116.4636 C 115.209094 116.283912 115.209094 115.830787 114.463 115.4636 C 113.713 115.096412 112.134875 114.694069 110.947375 114.572975 C 109.763781 114.451881 107.841906 114.100319 106.673937 113.795631 C 105.505969 113.490944 103.634875 113.139381 102.513781 113.018287 C 101.392687 112.893287 99.795031 112.643287 98.966906 112.459694 C 98.138781 112.2761 96.697375 112.127662 95.763781 112.127662 C 94.826281 112.127662 94.673937 111.877662 95.423937 111.569069 C 96.170031 111.264381 97.611437 110.7136 98.627062 110.346412 C 99.642687 109.979225 100.970812 109.580787 101.572375 109.455787 C 102.18175 109.334694 103.099719 109.135475 103.615344 109.010475 C 104.130969 108.889381 105.252062 108.740944 106.107531 108.678444 C 106.963 108.615944 108.2755 108.416725 109.021594 108.233131 C 109.771594 108.049537 110.380969 107.9011 110.380969 107.9011 M 93.154406 110.123756 C 93.154406 110.123756 92.748156 109.424537 92.248156 108.565162 C 91.752062 107.709694 91.341906 106.510475 91.341906 105.897194 C 91.341906 105.287819 91.752062 104.233131 92.248156 103.561256 C 92.748156 102.889381 93.615344 101.287819 94.177844 100.002662 C 94.736437 98.717506 95.502062 96.4636 95.877062 94.99485 C 96.248156 93.5261 96.861437 91.0261 97.236437 89.43235 C 97.611437 87.842506 97.916125 85.440162 97.916125 84.096412 L 97.916125 71.303444 C 97.916125 69.162819 97.560656 65.658912 97.123156 63.514381 C 96.685656 61.373756 95.947375 57.319069 95.478625 54.506569 C 95.013781 51.690162 94.146594 47.186256 93.552844 44.49485 C 92.959094 41.803444 91.966906 37.799537 91.341906 35.596412 C 90.720812 33.393287 89.341906 29.287819 88.283312 26.475319 C 87.224719 23.658912 85.541125 19.756569 84.541125 17.799537 C 83.545031 15.8386 82.11925 12.787819 81.36925 11.010475 C 80.623156 9.237037 79.447375 6.733131 78.763781 5.451881 C 78.076281 4.166725 77.771594 2.815162 78.084094 2.447975 C 78.396594 2.080787 79.568469 0.979225 80.689562 -0.00124375 C 82.048937 0.666725 144.697375 -0.00124375 144.697375 -0.00124375 " transform="matrix(1,0,0,-1,-9.963,141.1511)"/>
</g>
</g>
</svg>
