<?xml version="1.0" standalone="no"?>
<!DOCTYPE svg PUBLIC "-//W3C//DTD SVG 20010904//EN"
 "http://www.w3.org/TR/2001/REC-SVG-20010904/DTD/svg10.dtd">
<svg version="1.0" xmlns="http://www.w3.org/2000/svg"
 width="1044.000000pt" height="1044.000000pt" viewBox="0 0 1044.000000 1044.000000"
 preserveAspectRatio="xMidYMid meet">
<metadata>
Created by potrace 1.11, written by Peter Selinger 2001-2013
</metadata>
<g transform="translate(0.000000,1044.000000) scale(0.100000,-0.100000)"
fill="#000000" stroke="none">
<path d="M6447 10104 c-4 -4 -39 -8 -79 -10 -129 -5 -277 -18 -328 -29 -14 -3
-41 -8 -60 -11 -19 -3 -38 -8 -41 -10 -3 -2 -21 -6 -40 -9 -19 -4 -38 -8 -44
-9 -5 -2 -23 -6 -40 -10 -48 -12 -175 -57 -230 -81 -27 -12 -70 -30 -95 -41
-76 -32 -230 -113 -289 -151 -130 -83 -311 -213 -356 -256 -7 -6 -32 -28 -56
-47 -23 -19 -48 -41 -55 -47 -7 -7 -15 -13 -18 -13 -5 0 -22 -16 -172 -161
-125 -121 -236 -241 -325 -349 -33 -41 -70 -85 -80 -98 -10 -12 -19 -26 -19
-31 0 -5 -4 -11 -8 -13 -4 -1 -37 -41 -72 -88 -35 -47 -67 -87 -70 -90 -6 -5
-95 -138 -115 -171 -5 -10 -58 -93 -116 -186 -123 -196 -239 -391 -239 -403 0
-5 -3 -10 -7 -12 -5 -1 -17 -21 -29 -43 -11 -22 -41 -77 -66 -122 -25 -45 -43
-84 -40 -87 3 -3 1 -6 -5 -6 -6 0 -16 -15 -24 -32 -7 -18 -23 -50 -36 -70 -13
-21 -21 -38 -19 -38 3 0 -12 -35 -33 -77 -85 -171 -132 -276 -132 -293 0 -3
-6 -12 -13 -20 -13 -15 -249 -560 -305 -705 -18 -44 -36 -89 -41 -100 -11 -22
-125 -327 -145 -390 -8 -22 -30 -85 -50 -140 -20 -55 -38 -104 -39 -110 -14
-55 -20 -72 -30 -84 -6 -8 -10 -16 -8 -18 4 -5 -39 -146 -49 -158 -4 -5 -8
-14 -8 -20 -2 -14 -6 -28 -74 -240 -33 -104 -61 -197 -62 -205 0 -9 -4 -20 -7
-25 -3 -6 -22 -68 -43 -140 -20 -71 -41 -141 -47 -155 -6 -14 -12 -36 -14 -50
-3 -14 -9 -36 -14 -50 -7 -20 -34 -110 -46 -155 -2 -5 -17 -59 -34 -120 -81
-289 -88 -317 -92 -352 -1 -7 -5 -13 -9 -13 -4 0 -6 -8 -4 -17 1 -10 -2 -29
-7 -43 -6 -14 -12 -36 -14 -50 -3 -14 -8 -34 -11 -45 -4 -11 -8 -23 -9 -27 -1
-5 -2 -9 -3 -10 -2 -2 -4 -14 -7 -26 -2 -13 -18 -78 -35 -145 -17 -67 -33
-131 -35 -142 -2 -11 -15 -67 -30 -125 -14 -58 -27 -116 -29 -130 -2 -14 -4
-25 -5 -25 -1 0 -3 -7 -5 -15 -2 -8 -6 -26 -9 -40 -3 -14 -7 -34 -10 -45 -13
-57 -25 -113 -30 -135 -2 -14 -10 -47 -16 -75 -6 -27 -13 -61 -15 -75 -2 -14
-4 -25 -5 -25 -2 0 -4 -12 -13 -55 -3 -14 -15 -65 -26 -115 -12 -49 -24 -101
-27 -115 -7 -35 -82 -409 -88 -440 -2 -14 -12 -59 -21 -100 -8 -41 -17 -86
-19 -100 -2 -14 -6 -32 -9 -40 -4 -8 -9 -33 -11 -55 -3 -22 -7 -52 -10 -66 -3
-14 -7 -42 -8 -62 -2 -20 -5 -37 -8 -37 -3 0 -6 -12 -7 -27 -1 -16 -4 -41 -7
-58 -2 -16 -7 -52 -11 -80 -3 -27 -8 -60 -10 -71 -8 -52 -19 -140 -17 -146 1
-5 -1 -8 -5 -8 -5 0 -8 -21 -9 -48 0 -26 -4 -63 -7 -82 -3 -19 -9 -57 -12 -85
-4 -27 -8 -61 -11 -75 -2 -14 -6 -45 -9 -70 -3 -25 -8 -54 -10 -65 -2 -11 -7
-42 -10 -70 -3 -27 -8 -59 -10 -71 -2 -11 -7 -45 -10 -75 -6 -55 -23 -150 -31
-181 -4 -15 7 -17 96 -20 l100 -3 10 30 c8 28 23 127 24 168 0 9 3 17 6 17 3
0 5 15 6 33 1 17 4 50 7 72 4 22 9 56 11 75 3 19 8 55 12 80 10 67 10 70 19
140 4 36 9 74 11 85 4 21 8 49 24 171 6 44 12 89 14 100 2 10 7 42 10 69 4 28
10 66 12 85 3 19 7 46 10 60 2 14 9 54 14 90 6 36 14 79 17 95 3 17 6 40 6 53
-1 12 3 22 7 22 5 0 9 8 9 17 0 19 4 51 14 98 4 17 9 46 12 65 4 19 11 55 16
80 6 25 13 56 15 70 2 14 7 36 10 50 3 14 8 36 10 50 2 14 9 45 14 70 5 25 12
56 14 70 2 14 10 48 16 75 6 28 13 57 15 65 2 8 13 58 25 110 12 52 23 104 24
115 2 11 6 27 9 35 3 8 13 49 22 90 8 41 17 84 20 95 3 11 8 36 11 55 11 59
21 105 24 105 2 0 4 11 14 65 11 57 15 72 31 135 8 33 17 69 19 80 2 11 9 38
14 60 6 22 13 51 16 65 3 14 21 88 41 165 20 77 39 150 41 162 2 12 9 35 15
50 6 16 10 30 10 33 0 3 4 23 10 45 6 22 13 48 14 57 2 10 6 22 9 26 3 5 7 19
10 33 7 33 12 55 31 119 9 30 17 62 19 70 2 8 10 35 17 60 7 25 13 50 15 55 1
6 14 49 28 97 15 48 29 95 31 105 2 10 18 65 36 123 17 58 32 110 33 115 2 9
15 52 32 105 3 8 5 16 5 17 0 2 7 22 15 45 9 24 17 50 19 58 11 51 241 753
272 830 4 8 7 17 8 20 7 30 30 88 38 98 5 6 6 12 1 12 -4 0 -3 5 4 12 7 7 12
20 12 30 0 10 4 26 9 36 5 9 37 89 71 177 34 88 68 174 75 190 7 17 30 71 50
120 20 50 45 108 55 130 10 22 57 130 105 240 48 110 97 218 108 240 12 22 22
45 23 50 3 21 227 470 240 483 8 7 14 17 14 21 0 7 31 64 121 221 8 14 16 27
19 30 3 3 16 26 29 53 13 26 28 47 32 47 5 0 9 7 9 15 0 9 5 21 10 28 9 10 30
43 135 212 73 118 161 251 167 253 5 2 8 10 8 17 0 7 4 15 8 17 7 3 141 173
212 269 14 19 36 45 50 60 14 14 26 29 27 33 2 6 26 33 140 155 29 31 53 59
53 64 0 4 4 7 8 7 4 0 46 37 93 83 47 45 104 98 128 117 23 19 55 46 70 60 31
28 40 35 131 105 36 28 67 52 70 55 48 48 420 265 473 276 4 1 10 3 15 4 4 1
10 2 15 1 4 0 7 3 7 7 0 5 19 15 43 22 23 8 44 17 47 20 5 6 102 37 143 46 40
9 52 12 52 15 0 1 9 3 20 5 11 2 38 7 60 13 51 13 88 19 150 26 28 3 73 8 100
11 79 10 343 12 420 3 39 -4 99 -11 135 -14 73 -7 112 -16 220 -50 321 -100
564 -254 753 -476 35 -41 107 -124 165 -189 26 -29 58 -54 80 -61 20 -6 42
-15 47 -19 6 -4 26 -12 45 -18 19 -5 148 -50 285 -99 250 -91 466 -161 518
-170 15 -3 30 -9 33 -14 3 -5 14 -9 25 -9 10 0 19 -4 19 -9 0 -11 -86 -71
-101 -71 -5 0 -9 -4 -9 -9 0 -5 -15 -16 -32 -25 -18 -9 -40 -21 -48 -26 -37
-23 -150 -89 -200 -117 -73 -40 -89 -49 -335 -193 -115 -67 -226 -131 -245
-142 -19 -11 -73 -43 -119 -71 -148 -88 -152 -97 -166 -334 -3 -57 -8 -111
-10 -121 -2 -10 -6 -52 -10 -93 -3 -41 -8 -92 -11 -114 -3 -22 -6 -55 -7 -72
-1 -18 -4 -33 -7 -33 -3 0 -6 -19 -7 -43 -2 -46 -10 -142 -18 -197 -2 -19 -7
-60 -11 -90 -7 -63 -10 -85 -19 -155 -4 -27 -8 -59 -10 -70 -1 -11 -3 -20 -4
-20 -1 0 -3 -25 -5 -55 -2 -30 -7 -75 -10 -100 -7 -44 -33 -211 -41 -260 -2
-14 -13 -81 -24 -150 -11 -69 -23 -135 -25 -146 -2 -12 -7 -38 -10 -59 -4 -20
-8 -41 -11 -45 -2 -4 -7 -26 -10 -50 -3 -23 -8 -46 -11 -51 -3 -5 -8 -24 -11
-42 -8 -54 -11 -67 -43 -207 -17 -74 -33 -146 -36 -160 -2 -14 -7 -36 -11 -50
-4 -14 -8 -32 -9 -40 -4 -32 -66 -275 -105 -412 -23 -79 -43 -150 -45 -158
-12 -50 -36 -137 -41 -150 -8 -18 -7 -17 -17 -60 -5 -19 -11 -39 -14 -45 -4
-5 -7 -19 -9 -30 -1 -11 -18 -74 -38 -140 -20 -66 -38 -127 -40 -135 -2 -8
-22 -73 -45 -145 -22 -71 -43 -138 -45 -149 -9 -37 -102 -298 -129 -361 -7
-16 -40 -97 -72 -180 -32 -82 -62 -153 -67 -156 -4 -3 -9 -16 -10 -27 -1 -12
-6 -22 -11 -22 -5 0 -6 -3 -3 -6 3 -4 0 -16 -8 -28 -8 -11 -15 -28 -15 -37 0
-10 -5 -19 -10 -21 -6 -2 -12 -12 -14 -23 -7 -35 -250 -544 -265 -555 -4 -3
-15 -23 -25 -45 -29 -65 -69 -140 -79 -146 -5 -3 -8 -9 -7 -13 1 -6 -48 -91
-95 -166 -12 -19 -37 -60 -56 -90 -99 -161 -352 -527 -383 -555 -6 -5 -34 -40
-61 -77 -27 -38 -52 -68 -57 -68 -4 0 -8 -5 -8 -10 0 -6 -10 -21 -22 -34 -13
-12 -34 -37 -48 -55 -73 -94 -299 -331 -474 -496 -17 -16 -98 -86 -173 -150
-6 -5 -26 -21 -44 -35 -18 -14 -37 -30 -43 -35 -17 -16 -175 -129 -197 -140
-10 -5 -19 -13 -19 -17 0 -5 -4 -8 -10 -8 -15 0 -125 -86 -152 -119 -29 -34
-53 -89 -44 -98 4 -4 55 -8 113 -8 l106 -1 101 71 c151 106 171 119 176 125 3
3 21 17 40 30 19 12 40 28 45 34 6 6 30 27 55 46 25 18 52 41 61 49 9 9 52 48
95 86 94 84 324 315 403 405 31 35 71 79 89 98 17 19 32 36 32 39 0 3 11 17
24 31 80 87 291 368 399 532 42 63 80 120 85 125 7 10 181 290 220 355 11 19
50 92 86 162 36 71 77 146 91 168 14 22 25 46 25 54 0 7 7 19 15 26 8 7 15 16
15 21 0 5 13 36 29 68 16 33 26 62 23 65 -3 4 0 6 6 6 7 0 12 4 12 10 0 5 15
40 32 77 18 38 33 70 33 73 1 3 8 21 17 40 9 19 28 62 43 95 26 58 46 105 50
115 2 6 17 42 40 95 9 22 18 45 19 50 2 6 9 24 16 40 7 17 14 35 16 40 1 6 35
91 74 190 39 99 72 187 74 195 2 8 6 22 9 30 14 37 29 87 33 110 3 13 10 30
16 37 6 7 8 13 5 13 -4 0 0 18 8 39 7 22 11 42 8 45 -4 3 0 6 7 6 7 0 11 3 8
6 -3 3 3 33 13 67 11 34 49 166 85 292 36 127 72 253 81 280 8 28 16 57 18 65
2 8 13 51 25 95 25 88 29 103 30 110 1 3 6 19 11 37 6 18 12 40 14 48 7 25 76
313 81 340 3 14 9 41 14 60 5 19 11 46 14 60 2 14 16 75 30 135 14 61 27 122
30 138 4 15 8 37 11 50 3 12 7 33 10 47 10 51 25 126 31 155 3 17 7 44 9 60 5
33 13 86 21 125 3 14 7 34 8 45 2 11 4 20 5 20 2 0 4 16 5 35 1 19 6 55 10 80
4 25 9 56 11 70 2 14 7 45 11 70 3 25 8 56 9 70 6 49 16 125 20 150 3 14 7 45
10 70 8 75 16 143 21 180 2 19 6 55 9 80 2 25 6 59 9 75 2 17 7 61 11 98 3 37
8 76 10 85 2 10 6 47 10 82 3 36 8 83 11 105 5 52 14 143 19 225 11 139 13
151 31 165 11 8 23 15 28 15 4 0 28 14 53 30 24 17 48 30 53 30 5 0 15 6 22
13 7 6 31 21 53 32 22 11 42 23 45 26 7 8 146 88 188 108 17 8 32 19 32 23 0
4 4 8 9 8 6 0 60 29 122 65 61 36 114 65 117 65 3 0 13 6 21 14 9 7 36 24 61
37 25 13 52 29 60 35 8 7 22 14 30 16 8 2 17 5 20 8 3 3 39 27 80 52 165 102
245 174 253 226 2 12 6 24 9 27 13 13 -5 82 -31 120 -29 44 -113 93 -170 100
-19 2 -38 10 -42 17 -5 7 -9 10 -9 5 0 -4 -16 0 -36 8 -20 8 -46 17 -58 19
-11 2 -34 10 -51 16 -16 7 -37 14 -45 16 -46 8 -76 17 -128 36 -31 12 -61 23
-67 24 -5 2 -91 33 -190 69 -99 37 -204 75 -233 84 -57 19 -73 30 -112 78
-102 125 -265 294 -345 358 -27 22 -51 43 -53 48 -2 4 -10 7 -18 7 -8 0 -14 5
-14 10 0 6 -7 10 -15 10 -8 0 -15 4 -15 8 0 4 -25 21 -55 37 -30 17 -55 33
-55 38 0 4 -5 7 -11 7 -5 0 -47 18 -92 39 -46 22 -116 53 -157 69 -41 16 -84
33 -95 37 -11 4 -24 9 -30 10 -5 0 -17 4 -25 7 -13 6 -52 15 -72 18 -4 1 -22
6 -40 11 -18 5 -53 12 -78 15 -25 3 -58 8 -75 10 -56 8 -160 16 -245 17 -47 1
-88 5 -91 10 -3 4 -8 4 -12 1z"/>
<path d="M6794 9040 c-40 -16 -112 -107 -119 -150 0 -3 -6 -21 -13 -40 -6 -19
-14 -48 -17 -65 -2 -16 -7 -41 -10 -54 -7 -36 10 -58 70 -92 30 -17 57 -35 60
-39 3 -5 19 -11 35 -15 17 -4 30 -11 30 -16 0 -5 6 -9 13 -9 6 0 57 -22 112
-49 l100 -49 29 27 c82 75 110 188 80 324 -29 132 -258 273 -370 227z"/>
<path d="M5140 5788 c-33 -11 -57 -52 -64 -108 -3 -25 -8 -61 -11 -80 -3 -19
-7 -57 -10 -85 -3 -27 -8 -61 -11 -75 -3 -14 -7 -36 -9 -50 -3 -30 -14 -98
-19 -125 -2 -11 -7 -40 -11 -65 -8 -50 -10 -62 -26 -140 -6 -30 -13 -68 -15
-85 -3 -16 -14 -67 -25 -113 -10 -45 -18 -86 -17 -90 1 -4 -2 -14 -5 -22 -6
-16 -36 -131 -43 -165 -2 -11 -20 -74 -39 -140 -20 -66 -37 -127 -39 -135 -13
-49 -70 -217 -77 -224 -5 -6 -9 -16 -9 -24 0 -8 -6 -28 -14 -45 -8 -18 -30
-72 -49 -122 -20 -49 -48 -117 -63 -150 -15 -33 -28 -62 -29 -65 -7 -30 -163
-340 -262 -520 -89 -162 -446 -737 -466 -751 -14 -10 -22 -99 -8 -99 6 0 11
-7 11 -15 0 -17 49 -45 79 -45 46 0 73 26 159 159 134 204 262 411 262 422 0
5 4 9 8 9 4 0 13 12 19 28 7 15 17 34 22 42 12 17 74 125 108 185 12 22 29 57
39 78 9 20 20 37 25 37 5 0 9 4 9 10 0 8 85 185 117 245 31 57 133 292 140
323 3 12 9 22 14 22 5 0 9 7 9 16 0 9 6 30 14 47 17 38 77 197 80 212 2 12 45
144 53 165 8 18 7 15 22 70 7 25 12 45 11 45 -1 0 3 12 9 28 6 15 13 38 15 50
3 12 13 49 22 82 9 33 17 65 18 70 1 6 5 16 9 23 5 6 6 12 4 12 -2 0 2 26 10
58 8 31 16 66 17 77 2 11 4 20 6 20 1 0 3 9 5 20 2 18 6 36 20 105 13 63 64
350 70 393 4 27 8 57 10 67 6 30 14 82 20 135 4 28 8 61 10 75 21 135 14 178
-33 200 -36 17 -62 19 -92 8z"/>
</g>
</svg>
