<?xml version="1.0" standalone="no"?>
<!DOCTYPE svg PUBLIC "-//W3C//DTD SVG 1.1//EN" "http://www.w3.org/Graphics/SVG/1.1/DTD/svg11.dtd" >
<svg xmlns="http://www.w3.org/2000/svg" xmlns:xlink="http://www.w3.org/1999/xlink" version="1.1">
<metadata></metadata>
<defs>
<font id="oldnewspapertypesregular" horiz-adv-x="962" >
<font-face units-per-em="2048" ascent="1638" descent="-410" />
<missing-glyph horiz-adv-x="720" />
<glyph horiz-adv-x="0" />
<glyph horiz-adv-x="682" />
<glyph horiz-adv-x="1069" d="M227 1441.5q-4 -22.5 1 -60.5t13.5 -68.5t37 -55t51.5 -47.5q12 -14 20 -17t13.5 -2t8.5 2t9 -5q16 -16 17 -32.5t23.5 -29t47.5 -13.5t49 1q12 0 19.5 -6t16.5 -12t24.5 -8.5t44.5 4.5q35 8 84 41.5t93 76.5t73.5 91t29.5 85q0 12 -2 29t-6 32t-13.5 28.5t-21.5 17.5 q-12 -18 -24.5 -35.5t-28.5 -32t-39 -14.5t-39 -12q-18 -12 -48 -31.5t-52.5 -24t-71.5 -4.5q-47 0 -97 6.5t-93 17.5t-56 30q-41 59 -60.5 65t-23.5 -16.5z" />
<glyph horiz-adv-x="565" d="M173 1337.5q-1 -10.5 1 -25t0 -34.5q-6 -31 0 -49.5t18.5 -31.5t31 -25.5t37 -31t47 -7t56 34t48 52.5t22.5 48q4 45 -17.5 75.5t-55 46t-74.5 14.5t-74 -22q-23 -14 -31 -24t-9 -20.5z" />
<glyph horiz-adv-x="663" d="M150.5 1352q-9.5 -39 1.5 -64q4 -14 12 -21t12 -24q6 -35 13.5 -60.5t39.5 -47.5q25 0 50.5 -8.5t48.5 -16.5q25 8 49 9t49 4t47.5 11.5t40.5 30.5q23 27 34 66t10 81t-11.5 80.5t-30.5 67.5q-12 18 -31.5 29.5t-41 20t-40 15.5t-26.5 17q-20 2 -51 3t-50 -7 q-25 -10 -51 -40t-45.5 -68.5t-29 -77.5zM254 1311q-4 12 0 25.5t4 25.5q2 4 0 10t-2 10q0 2 2 4.5t0 -0.5q8 12 22.5 14.5t22.5 12.5q2 4 5 11.5t9 7.5q57 4 94.5 -35t42.5 -86t-26 -84t-111 -31q-12 31 -34.5 55.5t-28.5 59.5z" />
<glyph unicode="&#xa;" horiz-adv-x="972" d="M231 1116q16 -16 28.5 -14t23 13t19.5 25.5t20 24.5q16 45 47.5 87t63.5 83t59.5 83t37.5 87t-6 72t-45.5 30t-63.5 -17.5t-59 -69.5q-16 -12 -40.5 -73t-47 -131.5t-35 -130t-2.5 -69.5zM496 1129.5q2 -19.5 24 -29.5q18 -8 58 30.5t83.5 93t78 106.5t42.5 73 q10 23 17.5 40t11.5 42q4 27 -4 54.5t-23.5 43.5t-39 17.5t-50.5 -25.5q-8 -8 -23.5 -37t-36 -70t-43 -88t-42 -90t-32.5 -75.5t-17 -45.5q-6 -20 -4 -39.5z" />
<glyph horiz-adv-x="722" d="M198 -243q5 -46 26.5 -86t56.5 -56q16 -8 50 -7t74.5 7t81.5 18.5t71 27.5t43 35t-3 40q-10 10 -27.5 0t-27.5 -15q-4 -2 -25.5 1.5t-48.5 8.5t-51.5 9t-30.5 6q-16 4 -24.5 16.5t-12.5 28.5q-14 51 10.5 84t56.5 56.5t52 41t-2 35.5q-6 4 -23.5 7t-37.5 3t-38 -2t-22 -6 q-27 -23 -54.5 -45t-51.5 -45q-27 -27 -37 -72t-5 -91z" />
<glyph horiz-adv-x="872" d="M204 1478.5q1 -26.5 11 -59.5t24.5 -62.5t20.5 -41.5q8 -18 23.5 -24.5t23.5 -20.5q10 -18 17.5 -42t16.5 -45.5t22.5 -39t37.5 -27.5q74 -33 125.5 -16.5t77.5 96.5q4 16 14.5 24.5t20.5 20.5q27 37 37 79t33 81q6 10 14 15t12 16q10 16 10 38q0 25 9 43q4 10 13 25 t1 27q-18 29 -46 20.5t-60.5 -36t-69.5 -66.5t-72 -73t-65.5 -53.5t-51.5 -8.5q-8 4 -33.5 26.5t-54 50t-55.5 52t-37 34.5q-20 -6 -19 -32.5z" />
<glyph unicode="&#xd;" horiz-adv-x="632" d="M94 997q0 -2 20.5 -21.5t46 -47t50.5 -60t33 -59.5q2 -6 4 -37t4 -75t5 -95t4 -97t2 -79t1 -41q-2 -16 -8 -36.5t-12 -42t-9.5 -41t1.5 -34.5q-10 -33 -21.5 -73.5t-38.5 -63.5q-16 -14 -34.5 -27.5t-14.5 -37.5q4 -29 27.5 -42.5t54.5 -16.5t61.5 3.5t48.5 16.5 q20 10 62.5 2t86.5 -11.5t78 11t36 69.5q0 33 -14.5 48.5t-33 34t-34 52t-15.5 103.5q0 41 -15 81t-15 81q2 31 11 59.5t11 59.5q0 29 -7 54t-5 54q0 31 8 61.5t8 61.5q-2 29 -14 52.5t-12 51.5v48t-6.5 46t-21.5 36.5t-46 17.5q-39 4 -75 -5t-73 -14q-18 -2 -42.5 2.5 t-47.5 4.5q-20 0 -34.5 -11.5t-14.5 -42.5z" />
<glyph horiz-adv-x="196" d="M-301 20q2 -29 19.5 -47t42 -24t49 2t40.5 31q18 27 23.5 56.5t13.5 57.5q8 35 24.5 67t35 62.5t38 61t33.5 63.5q33 78 54.5 158t56.5 156q49 109 105.5 213t99.5 215q6 14 21.5 48t36 77t42 90t38.5 87t27.5 68.5t6.5 32.5q-18 31 -40 35t-44.5 -6.5t-41 -30.5 t-30.5 -41q-10 -16 -43 -84t-80 -169t-105.5 -227t-116.5 -254t-113.5 -251t-98.5 -220t-68.5 -158.5t-25.5 -68.5z" />
<glyph horiz-adv-x="1296" d="M125 942.5q-2 -18.5 22 -35.5q61 0 99.5 -38t59 -98t24.5 -136t0 -149.5t-13.5 -138t-19.5 -105.5q-12 -51 -21.5 -84t-33.5 -80q-2 -4 -2 -23q0 -16 2 -34.5t7 -34t11 -15.5q27 0 88.5 -2t127 1t117.5 15.5t60 39.5q6 18 -5 41.5t-27.5 49t-32 50t-19.5 45.5 q-6 37 -14 101.5t-11 141t-1 158.5t15 149.5t40 115t72 57.5q14 2 25.5 -1t21.5 -7t20.5 -6t26.5 2q66 20 112 -22t71.5 -121t29.5 -183t-13.5 -208.5t-57.5 -197t-101 -147.5q-8 -27 23.5 -45t85 -28.5t117 -11.5t120.5 5t98 19.5t47 33.5q8 31 -4 51.5t-32.5 39t-42 39 t-29.5 51.5q-27 92 -33 185t-4 187.5t8 188.5t4 190q-2 61 -13 91t-23.5 46.5t-22.5 28.5t-8 41q2 41 18 68.5t28.5 57.5t13.5 71t-26 108q-18 45 -65 60.5t-97 6.5t-91 -42t-46 -82q-25 23 -63.5 46.5t-65 36.5t-30.5 15q-41 10 -78 15.5t-66 -11.5q-70 -43 -100.5 -93 t-44.5 -102.5t-24.5 -104.5t-39.5 -101q-6 -12 -28.5 -25.5t-49 -30t-54 -34t-44 -35.5t-18.5 -36.5zM569 1270q12 41 32 87t67 75l20 -14q21 -15 50.5 -35.5t59 -46t48.5 -46.5q6 -18 33.5 -35.5t58.5 -34t58.5 -31t35.5 -22.5q14 -16 7 -25t-29.5 -17.5t-53 -18.5 t-61.5 -27q-45 -25 -109.5 -23.5t-119 27t-86 72.5t-11.5 115z" />
<glyph horiz-adv-x="1212" d="M98.5 1066q-12.5 -24 20.5 -52q53 -49 83.5 -82t47 -61.5t19.5 -56.5t3 -64v-88q0 -49 7 -121q2 -29 3 -80t-4.5 -104.5t-15.5 -99.5t-31 -67q-10 -8 -28.5 -25.5t-38 -36.5t-33.5 -37.5t-14 -29.5q2 -53 35.5 -73.5t80.5 -18.5q23 0 72 -3t102.5 -4t98.5 3t57 21 q31 37 24 71.5t-28.5 67.5t-46.5 66.5t-29 68.5q-6 51 -8 133t3 170t17.5 168t30.5 127q23 57 43.5 87t36 43t25.5 18.5t16 15.5q8 16 -8 28.5t-27 18.5q-37 27 -57 48.5t-25 70.5q-6 57 1.5 111.5t3.5 109.5q23 16 46 30.5t48 14.5q47 0 87 -36t77 -72q2 -14 3 -26.5 t1 -25.5q0 -33 8 -64.5t10 -60t-8 -52t-47 -40.5q-12 -6 -31.5 -12t-34 -14.5t-17.5 -20.5t19 -33q16 -16 32.5 -17t33 -5t34 -18.5t35.5 -57.5q18 -45 32 -113.5t18 -149.5t0 -167t-20.5 -163t-44.5 -137t-71 -93l5 -60q18 -6 59 -14t90 -15t100.5 -11.5t94.5 3t69.5 25.5 t26.5 53q0 10 -17.5 48t-38 85.5t-39 93.5t-24.5 72q-14 82 -18 166t-3 168t4 168t3 168q0 53 11 126t13 145.5t-13 136t-71 100.5q-25 16 -42 15t-46 3q-80 6 -104.5 -24.5t-22.5 -77.5q-31 29 -66.5 50.5t-86.5 21.5q-35 0 -60.5 -12.5t-48.5 -28.5l-4 6 q-57 -20 -93 -68.5t-61.5 -101.5t-48 -99.5t-53.5 -60.5q-16 -8 -53 -20.5t-66.5 -29.5t-42 -41z" />
<glyph unicode=" "  horiz-adv-x="720" />
<glyph unicode="&#x09;" horiz-adv-x="720" />
<glyph unicode="&#xa0;" horiz-adv-x="720" />
<glyph unicode="!" horiz-adv-x="538" d="M131 168q-12 -55 3.5 -97t46 -69t68.5 -36t72.5 2.5t58 47.5t23.5 99q0 39 -6 64.5t-21.5 43t-39 29.5t-57.5 22q-16 4 -25.5 12.5t-26.5 2.5q-47 -16 -66.5 -46t-29.5 -75zM140 1233q1 -47 12 -74q31 -76 43 -164t17 -178t9 -179t17 -165l30 -184q6 8 22.5 89t36 200.5 t39 258t35 262.5t24.5 214t5 110q-10 59 -49 88t-82 35t-80 -6t-45 -35q-10 -27 -18.5 -75t-12.5 -99t-3 -98z" />
<glyph unicode="&#x22;" horiz-adv-x="675" d="M123 1424.5q-4 -64.5 4 -139.5t21.5 -144.5t21.5 -102.5q-10 -27 0 -50t25.5 -34.5t31 -1t15.5 51.5q-2 29 2 60t8 60q2 16 9 62.5t13.5 101.5t7.5 111.5t-11.5 93.5t-40 46t-76.5 -30q-27 -20 -31 -84.5zM390 1355.5q-1 -20.5 13 -52.5q10 -27 12.5 -72t2.5 -92t3 -89 t17 -63q23 -37 47.5 -26.5t32.5 47.5q6 31 13.5 78t13.5 97t11 97t5 76q2 80 -21.5 125t-54 53t-58.5 -22.5t-34 -100.5q-2 -35 -3 -55.5z" />
<glyph unicode="#" d="M64 554.5q-3 -26.5 29 -48t85 -32.5t103 -5q0 -49 -9.5 -112.5t-20.5 -126t-18.5 -121t-1.5 -97.5q2 -16 14.5 -22t27 -5t28.5 7t23 14l5 33t12 81t16.5 105.5t16.5 109.5t12 90t7 48l189 -2q-2 -49 -13.5 -100.5t-24 -102.5t-22.5 -101t-12 -99q0 -49 15.5 -75t35.5 -26 t41 26.5t31 80.5q18 96 39.5 200.5t23.5 200.5q20 4 46 1t51.5 -7t49 -6t42 2t26 27.5t5 47t-14.5 37t-35 -1.5q-39 14 -80 13.5t-81 3.5q6 76 16 149.5t24 147.5h140q35 0 48 21.5t11 47t-15.5 46t-29.5 18.5q-31 -4 -61.5 -2t-61.5 -2l-18 8q2 37 13 103.5t20.5 136 t10.5 131t-16 90.5q-27 43 -47 30.5t-35.5 -57.5t-27.5 -110.5t-20.5 -130t-12.5 -115.5t-6 -68q-6 -4 -30.5 -2t-53.5 4t-55.5 4t-36.5 2q33 115 41 211.5t-1 159t-29.5 83t-46.5 -18.5t-51.5 -145.5t-41.5 -295.5q-45 10 -92 7t-93 -13q-25 -53 -15.5 -79.5t38.5 -39 t70 -14.5t84 -6q-4 -72 -10.5 -145.5t-16.5 -145.5q-16 -2 -38.5 0t-46.5 4t-44 2t-35 -4q-66 -23 -69 -49.5zM412 612q4 72 18 142.5t14 142.5q14 -4 26.5 -1t27.5 7q14 2 22 0t15.5 -6t15.5 -5t24 5l50 -14q0 -72 -16.5 -139.5t-16.5 -139.5q-14 0 -27.5 -9t-23.5 -5 q-6 2 -12.5 7t-12.5 9q-25 10 -51.5 8t-52.5 -2z" />
<glyph unicode="$" horiz-adv-x="1067" d="M113.5 349q7.5 -42 44.5 -87q2 -25 21.5 -34t29.5 -29q31 -61 57.5 -87t57 -36t66.5 -17.5t85 -31.5q12 -6 20.5 -23.5t14.5 -37t13 -38t19.5 -29t27 4t29.5 36t28.5 44t21.5 28.5q39 29 65.5 39t49 20.5t47.5 32t61 72.5q100 141 127 247.5t-8 192.5t-126 158t-226 146 q-8 4 -13 39.5t-8.5 88t-2.5 112t5.5 111.5t12.5 88t22 40q35 8 46.5 -1t10.5 -30.5t-10.5 -50.5t-17.5 -58.5t-11 -56t11 -41.5q23 -27 57.5 -45t70.5 -21t63.5 14.5t37.5 64.5q12 63 -1 125.5t-49 112.5t-89 81t-121 31q-25 0 -38 27.5t-21 61.5t-16.5 62.5t-22.5 30.5 q-23 -12 -27 -44t-4 -67q0 -33 -3 -58.5t-25 -25.5q-182 -131 -252 -233t-66 -186t58.5 -151t120 -124t118.5 -107.5t55 -101.5q2 -41 -6 -77.5t-15 -74.5t-10 -79t7 -86q4 -27 11 -52.5t-1 -52.5q-12 -41 -59 -50t-96.5 6.5t-83 50t-21.5 83.5q6 20 18.5 35t25.5 28 t24.5 30.5t15.5 46.5q2 23 -4 49.5t-19.5 45.5t-34 28.5t-46.5 -2.5q-41 -18 -71 -46t-44.5 -64t-7 -78zM332 1210.5q4 59.5 28 89.5q14 16 34 44t44 32q27 4 41.5 -42t18.5 -107.5t2 -118t-6 -74.5q-4 -27 -12.5 -34t-32.5 -17q-37 -16 -65 19.5t-42 92t-10 116zM610 420 q0 45 3 86t10 69q10 43 27.5 55.5t37 5.5t41 -28.5t39.5 -49.5t30.5 -55.5t14.5 -45.5q4 -27 -5 -72t-28.5 -88t-46 -75t-59.5 -32q-18 0 -27.5 5.5t-14.5 14.5t-9.5 21.5t-10.5 24.5q0 33 -1 76t-1 88z" />
<glyph unicode="%" horiz-adv-x="1378" d="M141 1227q0 -63 4.5 -124t22.5 -113t56 -95t106 -70q18 -8 29.5 -14t21.5 -10t21.5 -3t31.5 9q16 6 23.5 3t21.5 -9q41 -16 81 -1t76 52t65.5 90t47 110.5t21.5 113t-8 98.5q-12 45 -26.5 92t-49.5 80q-31 31 -73 58.5t-88 42.5t-93 13t-86 -34q-29 -25 -64.5 -58 t-66.5 -70.5t-52.5 -78.5t-21.5 -82zM231 61q-6 -74 18.5 -77.5t63.5 33t87.5 102t91.5 130t74.5 116t37.5 61.5q74 117 171 250t196.5 270t186.5 274.5t138 262.5q-29 25 -59.5 15.5t-63 -39t-64.5 -74t-58.5 -87.5t-47 -79.5t-30.5 -53.5q-18 -29 -60.5 -87t-97.5 -136 t-119.5 -169t-129 -183t-125 -180t-106.5 -160t-74 -122t-30 -67zM313 1181q2 36 8.5 72.5t13.5 72.5t7 73q16 10 27.5 33.5t21.5 40.5l66 -7q39 -4 66.5 -71.5t41 -153.5t9.5 -165.5t-29 -108.5q-12 -12 -15.5 -32t-9.5 -36t-19.5 -28.5t-43.5 -12.5q-6 0 -18.5 6t-27 14.5 t-26.5 16.5l-18 12q-14 8 -21.5 35t-12.5 57.5t-7 61.5t-7 47q-8 37 -6 73zM698 289q2 -29 14.5 -56.5t18.5 -56.5q10 -66 59.5 -114t115 -72.5t140 -21.5t138 42t106.5 119t47 207q2 68 -22.5 134.5t-70.5 118.5t-108.5 85t-134.5 33q-23 0 -40 -13.5t-33 -23.5 q-35 -16 -63.5 -28.5t-51 -30t-40 -42t-25.5 -65.5q-4 -16 -8.5 -20.5t-8.5 -9.5t-7 -17.5t-3 -42.5q0 -33 -12.5 -62.5t-10.5 -62.5zM882 250q-3 61 5 125.5t26.5 120t47.5 73.5q6 4 18 4q14 0 30.5 -1t31 -3t22.5 -2q2 -8 21.5 -21.5t29.5 -39.5q6 -14 13.5 -68.5 t11.5 -116t4 -114.5q0 -52 -8 -62q-10 -12 -20.5 -31.5t-22 -39t-24.5 -34.5t-27.5 -21.5t-31 -2.5t-30.5 13.5t-25.5 23t-15.5 27.5q-8 29 -17.5 42t-21.5 38q-14 29 -17 90z" />
<glyph unicode="&#x26;" horiz-adv-x="1521" d="M154 451q6 -57 14 -114.5t24.5 -111t47 -101.5t79.5 -85q70 -53 147 -72.5t152.5 -13.5t147.5 35.5t129 77.5q80 -80 131 -102.5t94 -16.5t89 26.5t116 30.5q14 2 37.5 4t47.5 7t44.5 12.5t30.5 19.5q23 29 19.5 47.5t-22 28.5t-47 14t-58 7t-55.5 4.5t-38 7.5 q-29 12 -54.5 29.5t-53.5 31.5l-11 33q29 47 48.5 114.5t38 136t40 129t56.5 93.5q14 14 41.5 30.5t51 35t37 41t1.5 49.5q-12 23 -64.5 39t-120 23t-140.5 5t-124 -15t-67.5 -40t24.5 -68q14 -14 33 -14q20 0 41.5 1t42 -3t39.5 -29q6 -10 6 -47q0 -35 -5 -84t-14.5 -103.5 t-20.5 -101.5t-24.5 -79.5t-23.5 -36.5q-12 18 -46 60t-70 88t-64.5 85t-34.5 55q-31 82 -58.5 152t-72.5 145q29 18 55.5 28.5t52 21t53 22.5t56.5 31q59 39 92 95t41 117.5t-8.5 122t-54 107.5t-97 77t-137.5 30q-37 0 -66.5 -14.5t-60.5 -30.5q-27 -14 -51.5 -16.5 t-47 -5.5t-42 -13t-35.5 -43q-43 -86 -59.5 -150.5t-13.5 -124t21.5 -124t47.5 -152.5q-10 -31 -39 -51.5t-67 -41t-76.5 -45t-69.5 -63.5t-48.5 -96t-6.5 -141zM356 547q-2 39 9.5 70.5t33 57t49 47t58.5 40.5q23 -8 37 -25.5t22 -38.5q12 -29 15.5 -49t19.5 -49 q16 -25 23.5 -52.5t25.5 -49.5q70 -92 116 -191.5t105 -195.5q-111 -57 -203 -33t-158.5 96t-106.5 173.5t-46 199.5zM608 1251q-6 49 0 76q18 68 56 94.5t76 20.5t68 -37t30 -76q0 -27 10 -68.5t16 -84.5t1 -80t-34 -54q-20 -10 -40.5 -22t-30.5 -33l-39 -20l-23 20 q-18 18 -37.5 64.5t-33 98.5t-19.5 101z" />
<glyph unicode="'" horiz-adv-x="446" d="M148 1387.5q2 -56.5 10 -112.5t19 -112.5t16 -111.5q2 -18 -3.5 -45t5.5 -43q2 -25 14 -37.5t25.5 -8t22.5 30t5 78.5q0 10 8.5 58.5t18.5 105.5t19 110.5t9 73.5q4 74 -16 116t-48 56.5t-55.5 1t-35.5 -48.5q-16 -55 -14 -111.5z" />
<glyph unicode="(" horiz-adv-x="708" d="M211 673.5q-10 -149.5 9.5 -291.5t74.5 -279.5t151 -268.5q14 -20 24.5 -42.5l21 -45t21.5 -44t28 -40.5q59 -63 101 -50t30 105q-6 43 -22.5 87t-38 88.5t-45 87.5t-44.5 81q-18 31 -40.5 106t-41 158t-30 158.5t-7.5 108.5q8 57 16.5 121.5t17.5 130t22.5 129 t34.5 119.5q14 39 42.5 80.5t57.5 82.5t53.5 82t28.5 76q8 63 -5.5 92t-38 30t-55 -24.5t-53.5 -70.5q-12 -27 -26.5 -40.5t-28.5 -23.5t-28.5 -20t-26.5 -29q-4 -6 -17.5 -32.5t-31 -63.5t-36 -79t-34.5 -79t-27.5 -62.5t-13.5 -31.5q-33 -156 -43 -305.5z" />
<glyph unicode=")" horiz-adv-x="737" d="M69 -300q-1 -34 23 -56q20 -16 28.5 -18.5t31.5 16.5q72 61 122 116.5t84.5 108.5t59 109.5t46 118t43 131t52.5 153.5q4 12 8 50t6 89t3.5 109.5t0 108.5t-4.5 87t-7 45q-31 59 -63.5 116.5t-50.5 123.5q-8 25 -25.5 67t-42.5 92t-54.5 100t-61 92t-64.5 68.5t-62 26.5 q-35 0 -45 -27.5t-7 -64.5t16.5 -72.5t25.5 -50.5q31 -41 57.5 -83t55.5 -82q16 -23 34.5 -86.5t35 -148.5t29.5 -180t19.5 -179t2 -147.5t-22.5 -84.5q-29 -35 -44 -67.5t-23.5 -66.5t-12.5 -71t-10 -77q-4 -23 -23.5 -57t-46 -72.5t-53.5 -81.5t-43 -82t-17 -73z" />
<glyph unicode="*" horiz-adv-x="710" d="M154 1090q-4 -25 4 -38.5t22.5 -17.5t32.5 2t33 23q6 6 12 11t16 9q18 -10 28.5 -38.5t18 -60.5t13.5 -56.5t16 -26.5q23 -4 35 8.5t19.5 32.5t10.5 44t8 43t14 28.5t30 1.5q20 -10 36.5 -25.5t41.5 -15.5q27 0 46 16.5t27.5 40t2.5 49t-31 43.5q-12 10 -27.5 21.5 t-21.5 25.5q-2 2 9 16.5t25.5 37t27.5 48t15.5 48t-10 38t-49.5 19.5q-12 0 -31.5 -9t-40 -18.5t-38 -15.5t-23.5 0q-14 16 -13 41t2 48.5t-4 43t-30 25.5q-33 8 -42 -21.5t-12 -68.5t-7.5 -71t-26.5 -28q-10 2 -26.5 9.5t-34 13.5t-33 9t-23.5 -3q-14 -12 -7 -35.5 t23.5 -48t34 -46t25.5 -32.5q-2 -4 -3 -7t-3 -7q-27 -27 -54.5 -46.5t-37.5 -59.5z" />
<glyph unicode="+" d="M109 571q0 -20 20 -32q72 -2 158 -7.5t157 11.5q0 -59 11.5 -120t1.5 -120q-6 -29 -7 -56.5t3 -56.5q4 -35 16 -48t51 -9q16 2 26.5 28.5t16.5 66.5t7 88.5t-1 92.5t-7 79.5t-9 52.5q16 -6 75.5 -7.5t124 3t116 17.5t53.5 36q2 20 -29 36.5t-71 27t-77.5 12.5t-52.5 -7 q-31 4 -65.5 10.5t-67.5 2.5q8 80 3 167t-5 169q0 27 -18.5 43t-40 17t-38 -13.5t-11.5 -48.5q16 -170 0 -338q-31 -16 -64 -18.5t-66.5 1.5t-67.5 8.5t-65 -0.5q-16 -2 -35.5 -16t-30.5 -32.5t-11 -39.5z" />
<glyph unicode="," horiz-adv-x="534" d="M142 129q3 -43 24.5 -67.5t48.5 -43t39 -55.5q8 -31 1 -62.5t-21.5 -62.5t-32 -60.5t-27.5 -55t-9 -46t23 -34.5q18 -12 44 6t52.5 53t53.5 81t47.5 89t33.5 77t13 46q2 47 1 100t-15.5 99.5t-47 81t-89.5 44.5q-10 2 -26.5 -4t-32 -15t-29 -20.5t-17.5 -21.5 q-37 -86 -34 -129z" />
<glyph unicode="-" horiz-adv-x="665" d="M74 584q-2 -37 6 -40t43 -12q29 -8 97.5 -12t144.5 -4q78 0 145.5 4t96 14.5t33.5 15.5t3 34q-2 51 -22.5 84.5t-75.5 38.5q-45 4 -89 -6.5t-89 -10.5q-33 0 -82 2t-95.5 -6t-80 -30.5t-35.5 -71.5z" />
<glyph unicode="." horiz-adv-x="495" d="M139 37q4 -12 22.5 -40t26.5 -40q4 -8 10.5 -14t12.5 -13q18 6 34.5 5l33 -2t34 1.5t35.5 14.5q35 23 46.5 64.5t4 87.5t-28 89t-48.5 68q-10 10 -16.5 17.5t-20.5 11.5q-33 8 -62.5 -21.5t-50 -72.5t-30 -87.5t-3.5 -68.5z" />
<glyph unicode="/" horiz-adv-x="870" d="M78 -168q16 -25 45 -33t57 2q23 8 32 28.5t11 45.5t3 50.5t10 43.5q47 104 97 204.5t91 207.5q12 31 47 118t82 200.5t97 239.5t92 232.5t69 179.5t27 81q-4 29 -10.5 66.5t-41.5 47.5q-29 8 -51 -15.5t-38.5 -59t-27 -73.5t-12.5 -57q-4 -20 -28.5 -82.5t-60.5 -147.5 t-77.5 -180t-79.5 -184.5t-70 -160t-44 -103.5q-8 -20 -28.5 -74.5t-47 -123t-54.5 -145.5t-49.5 -142.5t-33.5 -111.5t-6 -54z" />
<glyph unicode="0" horiz-adv-x="1153" d="M172 806.5q-4 -63.5 2 -116.5t31 -86q-6 -53 8 -130t42 -153.5t65.5 -143t80.5 -97.5q8 -37 43 -57.5t78 -28.5t86 -3t70 17q18 -12 42.5 -15t43.5 13q59 55 90 112.5t51.5 113t38.5 105.5t53 93q23 29 32 93.5t6 145.5t-14 172t-25.5 175t-32 153.5t-31.5 106.5 q-10 29 -23.5 44t-27 25.5t-28.5 21.5t-30 34q-20 29 -43.5 56.5t-50.5 46t-59.5 25.5t-71.5 -5q-27 -31 -72 -51.5t-93 -43t-91 -56.5t-61 -91q-12 -37 -30 -92t-34 -119.5t-28.5 -132.5t-16.5 -131.5zM418 549q0 74 4 133t10 90q10 49 6 104.5t-10 113t-9 117.5t6 117.5 t35.5 111t82.5 100.5q10 8 39.5 -12.5t61.5 -52.5t56.5 -65.5t28.5 -52.5q6 -33 8 -49t7.5 -28.5t12.5 -26.5t21 -43q14 -31 20.5 -111t5.5 -185t-8.5 -222t-21.5 -220.5t-33.5 -180t-44.5 -101.5q-49 -49 -93 -58.5t-107 25.5h4q-23 20 -39.5 73.5t-25.5 123t-13 148.5 t-4 151z" />
<glyph unicode="1" horiz-adv-x="1153" d="M206.5 1246.5q6.5 -23.5 31 -36t60.5 -15.5t73 -3h69q33 0 49 -6q33 -12 40.5 -41t2 -65t-12.5 -72.5t-1 -63.5q4 -23 6 -80t3 -131t-1 -155.5t-5 -153.5t-9 -125t-14 -70q-16 -35 -53 -42t-76 -13t-67 -22.5t-26 -67.5q2 -63 40 -87t89.5 -25t105.5 14.5t91 31.5 q12 -8 37 -9t51.5 1t51 7.5t38.5 9.5q31 10 53.5 3t40 -16.5t32 -14.5t28.5 7q31 0 42 17.5t11 39.5q0 25 -11.5 50t-27.5 37q-39 31 -70.5 44t-56 21t-42 20.5t-28 42t-12.5 82t2 144.5q2 23 2 65q0 45 1 99.5t1 109.5v105q0 49 1.5 82.5t3.5 42.5q4 20 12 70t12 111.5 t2 127t-13 119t-37 85t-69 27.5q-31 -4 -52 -21.5t-37.5 -40t-34 -47t-37.5 -40.5q-20 -14 -59.5 -17.5t-80.5 -8.5t-78.5 -16t-54.5 -44q-23 -43 -16.5 -66.5z" />
<glyph unicode="2" horiz-adv-x="1155" d="M148.5 1121q-9.5 -79 27.5 -152q37 -76 73 -105.5t66.5 -27.5t53 29.5t35 64.5t10.5 77t-23 68q-51 70 -59 104.5t9 56t52 43t72 64.5q43 53 86 64.5t81 -8t69.5 -61.5t51 -93t26.5 -106.5t-1 -98.5q-6 -27 -18 -49t-17 -49q-12 -92 -51 -168t-91 -142.5t-110.5 -129 t-109.5 -127t-88 -133t-47 -148.5q-4 -23 0 -49.5t33 -30.5q31 -4 67.5 9.5t69.5 15.5q29 2 92 -7t127.5 -21.5t114 -21.5t51.5 -9q16 4 47 9t61.5 12t54 19.5t29.5 30.5q6 20 8.5 41t10.5 41q6 16 10 25.5t5 17.5t-1 18.5t-10 26.5q-18 39 -16.5 68.5t9 54.5t12.5 44.5 t-7 35.5q-20 31 -40 14.5t-38 -50.5t-35.5 -71.5t-36.5 -50.5q-23 -16 -75 -33.5t-108 -23.5t-103.5 4t-59.5 47q-8 27 35 78t109.5 118.5t144.5 151.5t139.5 178.5t93.5 195t7 202.5q-27 111 -55.5 162t-64.5 73.5t-79 33.5t-100 42q-72 39 -152 36t-155.5 -37t-140 -93.5 t-103.5 -130t-48.5 -149.5z" />
<glyph unicode="3" horiz-adv-x="1153" d="M139 346q2 -94 43 -163.5t104.5 -114.5t145.5 -63.5t167 -7.5t169 52t152 115q31 33 61.5 99.5t49 139t14 139t-45.5 101.5q-43 35 -73.5 83t-53.5 99q18 39 42 86t46.5 97.5t40 99.5t25.5 92q8 47 -13.5 98.5t-63.5 98.5t-99 85t-116.5 60.5t-117.5 22.5q-57 0 -102 -29 q-43 -29 -95 -45t-97.5 -44t-76 -79t-30.5 -149q0 -57 27.5 -91t64.5 -45.5t73 0t52 41.5q25 45 19.5 91.5t-9.5 91.5t6.5 87t65.5 79q131 -47 191.5 -116t73 -142.5t-10.5 -147.5t-54.5 -132t-59.5 -94l-27 -36q2 -8 29.5 -26.5t61.5 -51.5t62.5 -81t33.5 -115.5 t-25.5 -156.5t-116.5 -202q-14 -18 -36 -24.5t-46 -6.5q-25 0 -49.5 3t-44.5 3q-37 0 -49.5 20.5t-12.5 51.5t5 64.5t1 60.5q-23 131 -73 178t-102 34t-90 -71.5t-36 -138.5z" />
<glyph unicode="4" horiz-adv-x="1150" d="M102 428q119 -4 237 -6t234 -2q8 -18 20.5 -49t22 -65t11.5 -64.5t-11 -48.5q-10 -18 -42.5 -46t-61.5 -57t-41 -58.5t16 -51.5q2 -2 30 0t59.5 7t59.5 10t34 9q14 12 55 11t86 -5t81 -9t42 -1q39 23 47 40t-3 35.5t-33.5 38t-44 47t-37 64.5t-9.5 88q2 8 0 22.5t-3 29 t0 27t7 18.5q12 10 30.5 5t37 -10.5t35 2t22.5 42.5l4 45l-4 55q-4 47 -18.5 59.5t-33 11.5t-36.5 -8.5t-27 0.5q-6 8 -3 11.5t7.5 5.5t6.5 4t-11 8l-30 121q-6 18 0 55t13 78t10 83t-9 73q-8 18 -13 28.5t-7.5 19.5t1 21.5t11.5 30.5t14 55t7 82t-3 91t-15 84t-31.5 61.5 t-51.5 21.5q-25 -2 -30 -9t-15 -26q-16 -33 -54 -60.5t-67 -51.5q-96 -90 -169 -208t-130 -247t-104.5 -262t-92.5 -256zM362 604q25 63 57 142t65.5 164t68 169t63.5 162v-65q0 -47 -1 -112t-1 -136q0 -70 -1 -130.5t-2 -101.5t-1 -43q-6 -25 -38.5 -37t-72.5 -15t-78 -1 t-59 4z" />
<glyph unicode="5" horiz-adv-x="1153" d="M131 420q-8 -53 1 -115.5t30.5 -118t52.5 -95.5t67.5 -48t74.5 -20.5t76 -24.5t77 -18.5t78 -2.5q49 6 105.5 41t111.5 87.5t104 117t85 131t56.5 130t16.5 112.5q-2 23 -19.5 59.5t-43 77.5t-57.5 85t-64.5 81t-63.5 63.5t-51 36.5q-23 10 -42 11.5t-38.5 3.5t-40 9 t-41.5 32q-29 0 -73 -17.5t-87 -27t-74.5 5t-35.5 76.5q-4 45 19.5 83.5t45.5 73.5q12 18 43 20.5t74 -0.5t94.5 -7.5t103.5 3t101 30t86 69.5q45 55 54.5 100t-9 66.5t-61.5 14.5t-103 -56q-55 -8 -122.5 4t-133 24.5t-121 14.5t-85.5 -25q-23 -20 -36.5 -72.5 t-20.5 -113.5t-8 -118.5t3 -88.5q4 -37 -8 -93t-27.5 -112.5t-27 -103.5t-0.5 -68q33 -25 73.5 -3t81.5 62t83 85t79 65q12 -4 17.5 -10t10.5 -12t14 -8.5t30 4.5q53 14 94 -30t65.5 -119t32.5 -169t-3 -182t-43 -155.5t-85 -90.5q-41 -16 -81 -39.5t-79 -46.5 q-18 2 -32.5 11.5t-24.5 23.5q-23 25 -36 22.5t-24.5 -6.5t-21.5 1t-24 46q-6 18 1 53t17 74t17.5 80t1 75t-32 54.5t-80.5 20.5q-53 0 -81 -35t-36 -88z" />
<glyph unicode="6" horiz-adv-x="1155" d="M185.5 568.5q7.5 -148.5 49 -268.5t123.5 -175q20 -14 38 -38t35.5 -45.5t37.5 -37.5t51 -16q27 0 54.5 6t54 12t54.5 8t54 -6q72 29 131.5 100.5t97.5 164t50 194.5t-9.5 193.5t-81 158t-163.5 86.5q-35 6 -75 8t-83 2q-41 0 -82 -1t-78 -1q4 82 -5 152t-6 133.5 t31 122.5t101 125q47 -4 72 -23.5t35 -48t13 -62.5t9 -67t20.5 -60.5t49.5 -43.5q45 -20 89 -10t81 38q18 12 29.5 56.5t14.5 94.5t-4.5 93t-27.5 53q-39 23 -77 47.5t-77.5 38t-81.5 8t-87 -41.5q-31 4 -62 -13.5t-55 -34.5l-37 3q-61 -4 -115.5 -90.5t-94.5 -218.5 t-60.5 -289.5t-13 -306zM393 471q0 53 13 96q10 35 7 70t9 70q8 27 24.5 34t35 8t33.5 3t24 16q37 10 71 12q4 -25 25.5 -36t46.5 -21t48.5 -22.5t33.5 -36.5q10 -29 21.5 -80.5t15.5 -107.5t-0.5 -106t-22.5 -75q-23 -27 -47 -48.5t-47 -47.5q-10 -10 -19.5 -21.5 t-25.5 -11.5q-10 0 -31.5 1t-46 2t-45 5t-24.5 10q-29 33 -51.5 82t-35 101.5t-12.5 103.5zM569 1454l2 2v-2h-2z" />
<glyph unicode="7" horiz-adv-x="1167" d="M205 1100q0 -55 6 -70q16 -33 31.5 -26.5t31 33t32 68.5t34.5 83t39.5 74.5t48.5 44.5q33 12 90 13t112.5 -12.5t96.5 -42t39 -75.5q-61 -94 -93 -180t-52.5 -163t-37 -144.5t-42.5 -124.5q-31 -66 -57.5 -122.5t-40 -111.5t-13.5 -115q0 -57 21 -127q10 -29 11 -57.5 t19 -52.5q20 -27 58.5 -19.5t76 32t66.5 58t33 58.5q6 33 5 67.5t-4 68.5t-6 68.5t-1 69.5q2 57 8 110.5t13 106t12.5 106.5t5.5 113q0 18 9 38t21.5 40.5t20.5 40t6 37.5q10 23 10 49q0 27 19 49q25 31 61.5 75t70 91t56 94.5t17.5 84t-45 59t-132 22.5q-16 0 -35.5 -5 t-38 -9t-36 -2t-31.5 16q-10 10 -22.5 20.5t-30.5 6.5q-23 -6 -47.5 -14t-49.5 -4q-18 10 -34.5 12t-32 1t-31.5 -4t-34.5 -1t-34 9t-30 10t-28.5 0t-33 -23q-12 -14 -25.5 -22.5t-25.5 -16.5t-21.5 -19.5t-13.5 -32t-9 -81t-9 -128t-4 -124.5z" />
<glyph unicode="8" horiz-adv-x="1173" d="M154 391.5q-2 -57.5 18 -84.5q25 -35 45.5 -73.5t43 -76.5t53 -69t73.5 -45q80 -29 161 -36t152.5 13.5t129 72.5t88.5 143q12 33 28.5 59.5t33.5 52t32.5 55t21.5 68.5q6 41 -7 80t-17 78q-6 49 -41 74.5t-79 44t-86 39t-61 59.5q23 39 60 89t73.5 104.5t65.5 111.5 t36 112.5t-15.5 106.5t-88.5 92q-47 29 -119.5 55.5t-150.5 37t-151.5 -2t-118.5 -59.5q-47 -49 -77 -110.5t-41 -129t-6 -137t28 -133.5q10 -31 32.5 -53.5t45 -41t41 -34.5t22.5 -33q0 -6 -17.5 -19.5t-41 -29.5t-45 -31.5t-29.5 -25.5q-20 -27 -42 -83.5t-35 -119.5 t-15 -120.5zM328 424q-4 20 9 61t34.5 84t47 76t46 37t30 1t15.5 -7t13 -9t22 -5q51 0 99 -17.5t87 -48.5t68 -73t43 -91q23 -78 -11 -147.5t-104 -108.5q-8 -4 -31.5 -12t-50.5 -15.5t-49.5 -12.5t-28.5 -1q-14 6 -20 9t-10 3t-10.5 -2t-22.5 -4q-45 -8 -73 9.5t-45 48 t-24.5 69.5t-9.5 72q-2 25 -11 43t-13 41zM355.5 1161.5q-9.5 57.5 2 107.5t43 87t80.5 49q25 6 49 6h52q16 0 31.5 7t31.5 9q10 0 25.5 -8t31 -20.5t28.5 -24.5t20 -20q35 -41 33.5 -91.5t0.5 -99.5q2 -39 -2 -58.5t-14 -32.5t-24.5 -27.5t-30.5 -45.5q-18 -33 -52 -63.5 t-63 -52.5q-74 25 -124 69.5t-79.5 98t-39 111z" />
<glyph unicode="9" horiz-adv-x="1150" d="M115 1120q-14 -82 5 -167t62 -160.5t104.5 -133t133.5 -82t148.5 -10t150.5 83.5l47 2q-4 -25 -8 -71.5t-11.5 -104t-16.5 -118t-20.5 -113.5t-27.5 -92t-37 -52q-16 -10 -28.5 -9t-28.5 5q-72 18 -108 31.5t-48 39.5t-7 71t17 127q-78 51 -127 49t-74.5 -36t-31.5 -89 t5 -108.5t35.5 -96.5t57.5 -51q29 -8 57.5 -14.5t57.5 -16.5q41 23 97 26t115.5 7t114 20.5t91.5 65.5q16 23 24 49.5t13.5 53t11.5 54t18 52.5q31 61 46.5 91t20.5 43t4 18t-2 14.5t2 32t17 71.5q35 123 41 207t-6 158.5t-38.5 154.5t-59.5 195q-6 20 -23.5 43.5t-38 46.5 t-40 46.5t-29.5 47.5q-18 6 -51 18.5t-68 24.5t-66.5 22.5t-48.5 10.5q-33 -18 -77 -34.5t-88 -35t-81.5 -42t-58.5 -54.5q-43 -70 -88 -138.5t-59 -152.5zM395 972.5q-2 59.5 3 124t16.5 121t30 97.5t44.5 55q8 4 28 10t42.5 11.5t42 7.5t27.5 -2q33 -18 62.5 -79 t49 -131.5t27.5 -136t-2 -98.5q-12 -35 -10 -67.5t-4 -67.5q-4 -12 -10.5 -22.5t-10.5 -20.5t-4 -24q0 -12 -2 -25q-31 -23 -84 -41t-92 -18q-41 0 -59.5 7t-28.5 22.5t-17.5 39t-21.5 56.5q-12 25 -18.5 73.5t-8.5 108z" />
<glyph unicode=":" horiz-adv-x="540" d="M137 899q-6 -31 3.5 -47t27.5 -39q8 -10 9 -18.5t2 -16.5t9.5 -19t32.5 -26q27 -16 65 -9t72.5 28.5t57 52t20.5 61.5q-4 39 -32.5 85t-66.5 72t-79 21.5t-70 -63.5q-10 -18 -28.5 -42t-22.5 -40zM165 185q-5 -46 8 -91t44 -65q8 -6 22.5 -16.5t30 -19.5t28.5 -17.5 t24 -8.5q29 -4 57.5 19.5t47.5 59.5t27.5 73.5t-3.5 62.5q-31 18 -46.5 40t-31 38t-39 27.5t-70.5 11.5q-45 0 -69.5 -34t-29.5 -80z" />
<glyph unicode=";" horiz-adv-x="534" d="M140 908q-7 -42 3.5 -85t42.5 -75q6 -6 17.5 -7.5t26 -0.5t26.5 2t20 1q29 0 43.5 2.5t35 25t31 33.5t20.5 40q12 35 -1.5 69.5t-40 63.5t-61.5 47t-67 20q-37 -23 -63 -58.5t-33 -77.5zM142 129q3 -43 24.5 -67.5t48.5 -43t39 -55.5q8 -31 1 -62.5t-21.5 -62.5 t-32 -60.5t-27.5 -55t-9 -46t23 -34.5q18 -12 44 6t52.5 53t53.5 81t47.5 89t33.5 77t13 46q2 47 1 100t-15.5 99.5t-47 81t-89.5 44.5q-10 2 -26.5 -4t-32 -15t-29 -20.5t-17.5 -21.5q-37 -86 -34 -129z" />
<glyph unicode="&#x3c;" d="M107.5 582.5q-3.5 -21.5 1 -40t22.5 -24.5q6 -8 42 -27.5t88 -47t113.5 -59.5t120 -63.5t108.5 -62.5t77 -53q23 -20 53.5 -22.5t54.5 -18.5q23 -16 50.5 -34.5t52.5 -31.5q10 -6 18.5 1t13.5 19.5t7 25t2 18.5q0 41 -19.5 68.5t-56.5 45.5q-12 6 -19.5 14.5t-14.5 15.5 t-16 13.5t-26 8.5q-41 6 -99 31.5t-87 56.5q-18 20 -36.5 42.5t-49.5 22.5q-8 0 -37 14.5t-62.5 33t-63.5 37t-42 24.5q35 14 61.5 37.5t61.5 38.5q74 29 130 61.5t124 67.5q53 27 103.5 57.5t99.5 60.5q29 18 34 43t-4.5 45.5t-29 34t-37.5 6.5q-12 -4 -51 -24.5t-94.5 -51 t-120 -67.5t-126 -70.5t-113.5 -61.5t-83 -40q-57 -25 -96 -72l-23 -2q-10 -10 -19 -29.5t-12.5 -41z" />
<glyph unicode="=" d="M76 394.5q2 -21.5 16 -37t39 -15.5q129 0 254 2t254 2q49 2 105.5 -3t103.5 -1q31 2 48 19.5t18 39t-14 42t-46 30.5q-16 6 -41 6t-51.5 -2t-53 -3t-44.5 -1q-14 0 -58.5 1t-103.5 1h-123h-119q-55 0 -91 -1t-40 -1q-29 -12 -42 -34.5t-11 -44zM86 696q0 -20 15.5 -40.5 t45.5 -30.5q18 -6 52 -7q35 0 71.5 3.5t71.5 6.5t57 1q12 -2 51 -3t90.5 -2t106.5 -1h105h82q35 0 38 2q37 12 52.5 33.5t15.5 41.5t-11.5 35t-27.5 15l-547 2q-47 0 -101 4t-101 0q-35 -4 -50.5 -20.5t-15.5 -39.5z" />
<glyph unicode="&#x3e;" d="M95 209q-5 -39 20.5 -61.5t78 -15.5t119.5 69q23 20 87.5 51t144.5 69.5t163 80.5t142 84t84 81t-14 70q-20 16 -81 53t-141 82t-170 93t-168.5 88t-138 64.5t-80.5 24.5q-12 0 -22 -11t-15.5 -26.5t-6.5 -31t5 -25.5q12 -18 40 -38.5t61 -38t65.5 -27.5t53.5 -8 q80 -47 153.5 -103.5t159.5 -95.5q27 -12 53.5 -22.5t50.5 -26.5l-24 -13q-16 2 -19.5 -5t-11.5 -15q-16 -18 -46 -27.5t-52 -19.5q-51 -18 -109.5 -45t-117 -57.5t-112.5 -63.5t-100 -63q-47 -31 -52 -70z" />
<glyph unicode="?" horiz-adv-x="851" d="M129 1362q-2 -37 14 -68q18 -37 50 -58.5t66 -23.5t64.5 16.5t49.5 61.5q18 45 19 90t14 93q74 -12 111.5 -77t47.5 -148t-3 -165t-42 -131q-31 -49 -66.5 -116.5t-64.5 -140t-43 -145.5t-2 -130q8 -37 13 -75t10 -75q-74 -10 -109 -49t-39 -86t17.5 -93t58.5 -71.5 t85 -18.5t99 64q27 31 32 80t-10.5 92t-49 69t-84.5 13l30 160q16 84 52 141.5t79 103.5t88.5 87t84 95t64.5 128.5t28 185.5q2 82 -34 155t-93.5 127t-131 86t-145.5 33t-136.5 -32t-105.5 -110q-16 -31 -18 -68z" />
<glyph unicode="@" horiz-adv-x="1431" d="M128 610q13 -129 76.5 -248.5t198.5 -240.5q25 -23 52.5 -35t56.5 -20.5t59.5 -16.5t59.5 -20q47 -23 114.5 -25t138 7t137 28.5t112.5 42.5q20 10 52 33.5t67.5 54.5t70.5 65.5t59.5 69.5t36 65.5t0.5 53.5q-14 31 -53 16.5t-82 -46.5t-80 -67.5t-47 -50.5 q-39 -55 -112.5 -93t-157.5 -57.5t-169 -18t-147 25.5q-113 45 -179 143.5t-92 222.5t-12.5 262t59.5 262t122 220t176 139q68 29 150 19t160.5 -54t146 -117t105.5 -168t40 -209t-51 -239q-10 -27 -28.5 -47t-47.5 -30q-16 -20 -27.5 -42t-39.5 -32q-41 -14 -56.5 6 t-15.5 59q0 41 11.5 92.5t24.5 98.5t24.5 85t11.5 50q0 29 15 52.5t32.5 46t33 45t15.5 51.5q0 45 -9.5 63t-25.5 25.5t-37.5 10.5t-48.5 19q-16 -2 -27.5 -9t-21.5 -14t-21.5 -15.5t-25.5 -10.5q-33 -6 -68 -1t-69.5 12.5t-70.5 13.5t-69 2q-70 -72 -111.5 -128 t-69.5 -114.5t-45 -127t-36 -163.5q14 -35 32.5 -87t43.5 -102t57.5 -89t73.5 -47q39 -8 76 11t69.5 43t61.5 40t53 2q20 -12 39 -29.5t37 -33t38.5 -24.5t49.5 -5q55 10 98 44t80 77t72 85t76 68q14 45 30.5 85t30.5 80t21.5 83t1.5 96q-4 29 -31 94.5t-61.5 136t-69.5 133 t-55 87.5q-61 72 -153.5 114t-197 53t-212 -6.5t-200 -60.5t-159 -112.5t-88.5 -161.5q-41 -164 -66.5 -305.5t-12.5 -270.5zM566 519.5q1 15.5 8.5 32.5t7.5 52q0 20 18 80.5t43 128.5t49.5 125t38.5 68q31 25 55.5 12.5t42 -43.5t25.5 -67.5t8 -59.5q0 -20 -9 -66.5 t-25.5 -102.5t-39 -112.5t-50 -95.5t-58.5 -51t-63.5 18.5t-42 48t-8.5 33z" />
<glyph unicode="A" horiz-adv-x="1796" d="M98 43.5q-6 -18.5 6 -31.5q12 -12 42 -19q23 -5 53 -5h18q90 4 177 14t173 10q33 0 81 5.5t97.5 10.5t92.5 8q18 1 33 1q19 0 32 -2q31 -6 57.5 -11.5t59.5 -7.5q16 -18 47 -16t64.5 11t66.5 20.5t55 11.5l252 -37q18 -10 37 -6t37 10t39.5 9.5t46.5 -11.5q18 -10 48 1 t54.5 32.5t34.5 50t-10 53.5q-18 20 -50 26.5t-69 6.5t-73.5 -2t-61.5 4t-50.5 49t-49 107.5t-46 139.5t-44 145.5t-40 127t-32.5 82.5q-27 45 -39 94.5t-18.5 100.5t-10.5 102.5t-12 100.5q-4 29 -17.5 56.5t-29.5 54t-32.5 54t-26.5 58.5q-12 35 -37 59.5t-54.5 33.5 t-59.5 -1t-52 -45q-25 -39 -43.5 -88t-31.5 -102.5t-22.5 -106.5t-15.5 -98q-31 -39 -66.5 -119t-73.5 -178t-76 -202.5t-75 -195t-69.5 -152.5t-61.5 -77q8 4 -15.5 -5t-60 -25.5t-76.5 -35t-63 -32.5q-33 -20 -39 -38.5zM644 321q5 46 26.5 85.5t56.5 66.5q33 25 72 25h6 q14 0 24.5 -6.5t24.5 -6.5q20 0 29.5 14.5t36.5 14.5q57 0 102 -5t76.5 -25.5t48 -58.5t16.5 -106q0 -78 -10 -110.5t-32.5 -42.5t-61.5 -9h-11q-35 0 -83 -5q-16 -2 -25.5 -30t-14.5 -55.5t-9.5 -42t-12.5 10.5q-10 29 -48 57.5t-81 54t-79 49t-44 42.5q-8 26 -8 57 q0 12 1 26zM751 700.5q-1 12.5 5 28.5t16 37l4 20q4 21 10.5 45.5t10.5 45t4 22.5q16 18 27.5 48t26.5 49.5t36.5 17.5t58.5 -47q4 -35 20 -73t26 -76q5 -21 6 -41q0 -17 -4 -31q-8 -34 -48 -58q-16 -10 -43.5 -20.5t-46.5 -12.5q-4 0 -26.5 4.5t-28.5 4.5q-29 6 -41 15 t-13 21.5z" />
<glyph unicode="B" horiz-adv-x="1519" d="M115 16q0 -20 10 -39.5t33 -29.5q5 -3 23.5 -3t50.5 3q64 6 154.5 16t197 21.5t204.5 15.5q49 2 92 2q42 0 80 -2q76 -4 105 -25q57 20 127 49t130 70t101 96t45 129q1 31 1 65v34q-1 52 -12 101.5t-36.5 91.5t-70.5 69q-23 12 -50.5 18.5t-54 13.5t-48 21.5t-30.5 44.5 q-8 33 12.5 59.5t55.5 52t75 56.5t70 73q30 43 40 99q3 18 3 37q0 44 -16 98q-8 29 -46 64t-84 70.5t-93 69.5t-74 59q-45 -16 -90 -16h-12q-52 2 -97 13t-81.5 22t-57.5 11q-16 0 -55 -5t-79 -10t-73 -9t-39 -4q-82 16 -156 20q-37 2 -77 2t-82 -2q-51 -37 -63.5 -60.5 t-1 -41t41 -29.5t63.5 -25.5t63.5 -30t43.5 -40.5q46 -79 54 -177q5 -61 5 -125q0 -37 -2 -75q-5 -102 -9 -204q-1 -18 -1 -35q0 -82 17 -156q6 -35 0 -56.5t-16.5 -38t-19.5 -33t-9 -40.5q0 -92 -8.5 -145.5t-23.5 -80t-35.5 -34t-45.5 -7.5t-52.5 -1t-53.5 -15 q-23 -10 -33 -29.5t-10 -42.5zM653 422q0 59 2 116.5t7 102.5q4 39 18 57.5t41 40.5q25 0 43 -8q12 -6 20.5 -4t17.5 6t19 7t27 1l217 -41q43 -29 78 -72.5t55 -95.5q18 -52 22 -108q1 -9 1 -18q0 -46 -15 -87q-10 -31 -15 -64.5t-28 -57.5q-39 -45 -95 -77t-97 -75 q-31 4 -63 4q-16 0 -32 -1q-20 -1 -40 -1q-27 0 -54 2q-29 41 -63.5 75t-46.5 83q-10 43 -14.5 99t-4.5 116zM662 1184q4 72 10 100q2 12 11 29.5t21.5 34t24.5 32t23 23.5q6 29 41 29q37 0 79.5 -12.5t84 -31t55.5 -26.5q31 -18 53 -62.5t33.5 -99.5t11.5 -117 q0 -61 -14.5 -112t-44 -84t-78.5 -35q-12 0 -19.5 3t-13.5 6t-13 4t-22 -5q-12 -6 -36.5 -15t-50 -17.5t-50.5 -11.5t-39 1q-31 10 -45 73.5t-20 142.5q-3 48 -3 94q0 29 1 57z" />
<glyph unicode="C" horiz-adv-x="1382" d="M130 850v-29q0 -80 13 -182q12 -106 56.5 -203.5t110 -181.5t147.5 -153.5t174 -118.5q20 -12 58 -9.5t80 11t80 18.5t62 16q72 14 102.5 24.5t48 25t37 41t68.5 75.5l9 -4q35 2 61.5 45t38.5 97q10 47 10 90v14q-2 49 -22 61q-16 -12 -34 -44.5t-33 -71.5t-26.5 -76 t-13.5 -57q-109 -106 -203 -137q-52 -17 -98 -18q-38 1 -72 13q-76 26 -135 97t-94 167q-35 98 -43 208q-2 32 -2 62q0 78 14 152q5 22 5 45q0 17 -3 33q-6 39 -12 79q-7 47 -7 83q0 37 17 72q49 104 106 172q56 68 122 92q34 13 72 12q36 0 76 -12q81 -24 181 -98 q2 -23 13.5 -41.5t26 -36t29.5 -33.5t26 -35q10 -16 10 -37q0 -18 10 -35q31 -55 53 -55q3 0 5 1q22 7 35.5 53t16.5 118q1 25 1 51q1 46 -3 92q-6 70 -17 126.5t-30 68.5h-36q-18 -14 -38 -36.5t-36.5 -49.5t-31.5 -54.5t-25 -47.5q-51 41 -94.5 85t-88.5 78q-45 36 -99 56 q-45 17 -106 17q-12 0 -24 -1q-18 -12 -59 -33.5t-92.5 -52.5t-104.5 -70.5t-92 -87.5q-66 -78 -108 -144t-65.5 -141t-26.5 -165z" />
<glyph unicode="D" horiz-adv-x="1656" d="M113 1466q35 -66 57.5 -81t40.5 -12t36.5 8t45.5 -15q37 -29 57 -113q19 -85 25 -197q4 -68 4 -140q0 -49 -2 -100q-4 -128 -12.5 -246.5t-19.5 -214t-21 -140.5q-10 -57 -40 -72.5t-60 -18.5q-31 -2 -57 -10q-30 -9 -30 -53q-1 -35 57 -53q62 -18 158 -26q60 -5 129 -4 q41 0 83 2q116 4 223.5 13t192.5 19.5t116 18.5q22 -7 44 -7q46 0 94 28q72 40 139 119t123 181.5t93 208t47 199.5q2 23 2 44q0 64 -22 109q-39 82 -75 151t-76 131t-85 123.5t-102 129.5q-86 28 -156 48q-46 13 -100 13q-29 0 -59 -4q-14 12 -65.5 21.5t-122 13.5 t-152.5 5h-54q-53 0 -102 -1q-74 -2 -129 -7t-76 -13q-18 6 -43.5 8t-48.5 -3t-39 -19.5t-18 -43.5zM627 1068q-2 17 -2 33.5t2 31.5q4 37 14 85t24.5 82.5t47 49t61.5 34.5q8 -6 54 -12t102.5 -9t105.5 -5q24 -1 40 -1t24 1q33 -16 55 -39q8 -35 24.5 -62.5t35 -55 t36 -56.5t23.5 -62q8 -12 15 -63t11 -123q3 -71 4 -153v-46q0 -56 -2 -108q-2 -72 -8 -124.5t-14 -64.5q-18 -27 -34.5 -57.5t-32 -61t-35 -59t-43.5 -49.5q-20 -18 -43 -37.5t-37 -46.5q-43 -9 -79 -9h-7q-39 1 -86 5q-29 29 -55.5 28t-61.5 -16q-33 20 -64.5 45t-35.5 66 l-31 409q19 63 23 122q2 28 2 57q0 33 -3 67q0 31 -7 66t-13 69.5t-10 68.5z" />
<glyph unicode="E" horiz-adv-x="1533" d="M96 1442q0 -59 19.5 -72.5t46.5 -13.5q30 0 62 1h2q31 0 55 -26q25 -29 42 -121t27 -215t11 -260v-39q0 -115 -5 -218q-6 -120 -19 -205t-33.5 -103t-44 -23.5t-49.5 -10.5t-51.5 -16t-49.5 -40v-8q-1 -36 31 -52q32 -15 74 -14h10q48 2 97.5 15.5t71.5 31.5 q39 -10 103 -20q64 -9 132 -15q31 -3 61 -3q35 -1 67 3q60 6 94 31l47 -18q27 4 71 6t91 2q49 0 95 -1t75 -3q18 -2 30.5 -14.5t25.5 -24.5t32.5 -19.5t52.5 0.5q8 20 27.5 74.5t38 123.5t32.5 141q10 56 10 103q0 15 -1 27q-4 56 -32 86q-19 20 -52 20q-16 0 -35 -5 q-29 -53 -53.5 -99.5t-50 -88.5t-56.5 -84t-70 -85q-20 -6 -45.5 -13t-51 -17t-49.5 -22.5t-40 -24.5q-20 4 -52 2t-63.5 -4t-60.5 1t-43 17q-29 27 -52.5 92.5t-39 143t-18.5 155.5q-1 14 -1 28q0 60 12 106q14 56 46 78q12 7 26 7q26 0 62 -24h55q8 -10 33.5 -35 t55.5 -51.5t54.5 -48t34.5 -27.5l53 8q1 15 1 29q0 22 -2 43q-3 35 -8 67.5t-9 65.5t-4 68q2 31 12 79t16 97q4 30 5 58q0 17 -2 34q-4 43 -35 63q-29 20 -46.5 -9.5t-28.5 -75.5t-20.5 -91t-23.5 -55q-18 -12 -55 -34q-37 -24 -76 -38q-32 -12 -60 -11h-12q-32 3 -39 40 q-29 147 -33 249v15q0 93 41 145q44 56 147 67q26 3 58 3q92 0 230 -24q41 -53 87 -102.5t87 -102.5q12 -16 19 -39t14.5 -45.5t16.5 -45t26 -40.5q4 -4 12 -9.5t17.5 -8.5t16.5 0.5t11 13.5q2 10 3 50v28q0 30 -1 66q-2 54 -5 115.5t-7 115t-10.5 89t-10.5 42.5 q-39 37 -66.5 45t-53.5 2q-26 -7 -52 -17q-22 -8 -51 -8h-12q-20 0 -41 7t-41.5 15.5t-41 12.5t-42.5 -2q-53 -14 -103.5 -25.5t-98.5 -12.5h-8l-88 10q-48 11 -95 42q-25 -4 -70 -4h-98t-109.5 -2t-102.5 -11t-76 -28.5t-30 -54.5z" />
<glyph unicode="F" horiz-adv-x="1542" d="M98 92q0 -29 29 -48t79 -28.5t107 -9.5t114.5 10.5t100.5 30.5q35 -6 58.5 -12t58.5 8q18 -6 57 -12q40 -5 86 -9q27 -2 54 -3q19 -1 39 1q47 2 82.5 12.5t56 32t10.5 58.5l-61 59q-7 0 -14 -1q-68 0 -114 36q-50 39 -78 101t-35 134q-4 39 -4 75q0 31 3 61 q6 64 24.5 112t41.5 56q31 11 56 11q27 0 49 -14q40 -26 64.5 -75t41 -109.5t34.5 -109.5q20 -49 46 -73q12 -11 29 -11q19 0 44 14q-6 33 -6 92q0 61 1 133t2 148v30q0 58 -3 110q-4 64 -16.5 109.5t-36.5 53.5q-23 8 -34 2t-19.5 -18.5t-15.5 -26.5t-19 -25 q-23 -66 -66 -92q-41 -25 -83 -25h-3q-43 1 -78 25.5t-41 63.5q-2 10 -2 29.5t2 47.5q4 58 13.5 121.5t21.5 118.5t23 72q23 35 53.5 53.5t64 26.5t69.5 9t73 1q20 -23 51 -45.5t63.5 -46t65.5 -47t59 -43.5q14 -12 36 -48t44.5 -75t41 -70t28.5 -29q23 4 37 38t20 83 q5 42 5 90v15q-1 56 -8 106.5t-20.5 87.5t-31.5 47q-8 4 -49 7.5t-98.5 4.5t-124.5 1q-66 0 -124.5 -1t-101.5 -4t-51 -8q-29 8 -81 13.5t-117.5 7.5t-139.5 2h-143q-68 0 -127.5 1t-95.5 5q-29 -14 -47 -48q-12 -22 -13 -44q0 -12 4 -23q8 -29 41 -39t73 -14t79 -6t61 -12 q45 -22 57 -90q9 -50 8 -109q0 -20 -1 -41q-5 -82 -15 -160q-9 -65 -8 -105v-15q1 -15 1 -30q0 -38 -4 -74l-10 -100t-6 -100v-8q0 -47 11 -94q6 -25 8 -53.5t-8 -52.5q-27 -76 -63.5 -100.5t-76.5 -30t-79 -5.5q-37 0 -66 -26q-43 -39 -43 -68z" />
<glyph unicode="G" horiz-adv-x="1585" d="M145 752q-1 -18 -1 -36q0 -40 6 -85q8 -66 26.5 -132.5t48 -126t70.5 -98.5q74 -74 111.5 -114.5t60 -64t39 -36t48.5 -27t89 -38t160 -70.5q31 14 75 16.5t85 8.5t74.5 22.5t43.5 59.5q16 0 28.5 11t24 24.5t23.5 22.5t31 7q14 -2 4 -4t-27 -2q-14 0 -24.5 1t6.5 5 q4 -43 25.5 -67.5t50 -34.5t60.5 -6t54.5 22.5t31.5 47.5q3 11 3 23q0 22 -10 48q12 25 16 60.5t6 74.5t4.5 78t12.5 70q-12 45 -12 77q0 26 9 43q19 35 56 48.5t80 17.5t70 25q23 16 21.5 43.5t-13.5 50.5t-52 32t-87 9q-45 0 -89.5 -5t-66.5 -14q-53 20 -73.5 22.5 t-31 -5.5t-24.5 -20.5t-58 -18.5q-14 8 -40.5 13t-51 2t-41 -16.5t-12.5 -39.5q14 -16 38 -40t46.5 -51.5t39.5 -54t21 -47.5q4 -25 5 -65q0 -39 -5.5 -85t-16.5 -91t-30.5 -78t-48.5 -48q-13 -6 -28 -6q-17 0 -37 9q-12 -10 -53 -15q-31 -5 -65 -5q-12 0 -25 1 q-48 2 -91 8.5t-57 18.5q-55 43 -93 127t-57.5 189.5t-22.5 224.5q-1 22 -1 44q0 95 11 188q13 114 43 215.5t74 170t102 96.5q27 14 58 14q33 0 70 -16q29 22 60 22q17 0 34 -6q48 -18 94 -62t88 -106.5t75.5 -118.5t58 -98t35.5 -46q18 10 34.5 54t27.5 105.5t17 129.5 q3 37 3 71q0 29 -3 55q-4 60 -19 100t-44 44q-106 -53 -157 -64q-25 -6 -44 -6q-21 0 -34 6q-27 13 -46.5 38.5t-60.5 43.5q-38 16 -108 16h-12q-79 -2 -226 -38q-35 -8 -57.5 -38t-49.5 -46q-84 -51 -137 -100.5t-86 -105.5t-51 -125t-37 -157q-6 -25 -16.5 -47t-22.5 -46 t-21.5 -48.5t-11.5 -54.5z" />
<glyph unicode="H" horiz-adv-x="1693" d="M113 102q0 -29 13 -50t34.5 -37.5t47 -25.5t50.5 -13.5t39 0t27.5 8.5t27.5 4t39 -13l182 48q31 -19 62 -27q10 -2 20 -3q22 0 45 11q40 -11 74 -11q26 0 48 6q52 15 70 41q16 26 -8 46q-16 13 -58 14q-21 0 -48 -4q-31 16 -52 64.5t-34.5 112t-17.5 133.5q-2 28 -2 56 q0 40 4 78q6 64 21.5 112t41.5 67q25 16 64 23.5t82 7.5t83 -8.5t64 -22.5q23 4 45.5 13t45 14.5t44 4.5t41.5 -20q27 -25 40.5 -75t15.5 -114v-20q0 -54 -8 -114q-10 -70 -29 -132.5t-46.5 -111.5t-62.5 -70q-26 2 -47 2q-31 0 -49 -5q-30 -9 -34.5 -26.5t12 -37t44 -32.5 t62.5 -15q4 0 8 -1q30 0 57 17q29 -9 54 -9q16 0 30 4q37 9 82 25q37 -8 77 -10q27 -1 54 -1h28q42 1 83 4t78 3l37 62q-2 35 -30 50t-64.5 40.5t-74.5 77t-57 157.5q-4 23 -4 72q0 51 1 115.5t4.5 137.5t5.5 142.5t3 129.5v38q0 36 -1 62q-2 25 -4.5 49t8.5 47 q14 33 39.5 66.5t50 68.5t44 70t21.5 71q2 27 -26.5 41.5t-74.5 19.5q-38 4 -83 4h-18q-56 -1 -109 -5t-95 -6t-61 0q-10 2 -31.5 -3.5t-43 -14.5t-37 -20t-10.5 -24q45 -41 89 -83t83 -91q16 -23 25 -81t9 -126q0 -66 -8 -125t-26 -80q-29 -36 -75 -38q-14 -1 -27 0 q-33 0 -66 4q-47 6 -87 11t-57 -11q-21 -3 -39 -3q-54 -1 -91 25q-50 34 -77.5 95t-33.5 133q-2 26 -3 52q-1 44 7 84q12 64 35.5 108t56.5 46q20 -16 50 -11t54.5 21.5t39 41t7.5 49.5q-8 35 -41.5 48t-64.5 13q-18 0 -31.5 -8t-27 -18.5t-26.5 -19.5t-32 -11 q-10 -1 -21 -1q-48 0 -109 14q-75 18 -149.5 35t-140.5 21q-8 1 -17 1q-55 0 -93 -27q-31 -24 -31 -45q-1 -9 5 -17q20 -26 65 -49.5t95 -45t66 -44.5q16 -25 32 -88t27 -137t18 -142.5t9 -101.5q0 -12 -1 -60t-5 -112.5t-8 -137.5t-9 -135.5t-8 -104.5t-5 -44 q-29 -47 -61 -65.5t-64.5 -23.5t-63.5 -1t-55.5 1t-38.5 -17.5t-14 -55.5z" />
<glyph unicode="I" horiz-adv-x="868" d="M74 1476.5q-8 -32.5 13.5 -59t63.5 -43t85 -16.5q16 -16 37.5 -30.5t37.5 -31.5q2 -57 10.5 -150t15.5 -202.5t11 -228.5q2 -48 2 -93q0 -68 -4 -132q-6 -106 -23.5 -189.5t-52.5 -126.5h-6q-32 0 -60 -18q-30 -20 -67 -21q-14 -23 -18 -52.5t18 -49.5q31 -4 69 -10.5 t74 -9.5q12 -1 23 -1q25 0 49 4q35 6 62 27q39 -10 71.5 -14t64.5 -5h32h34q34 1 74 1q27 0 47.5 15t28.5 35.5t1 41t-34 33.5l-45 -17q-47 23 -71.5 77t-34.5 126q-7 53 -6 110v44q4 82 12 160.5t17 146t11 108.5q1 12 1 26q0 29 -3 67q-4 58 -6 118q-1 20 -1 39q0 38 3 73 q4 52 23 79q10 14 34.5 28.5t54.5 29.5t56.5 31.5t42 36t13.5 41t-33 48.5q-14 12 -46 15t-71 3q-37 0 -74 1t-61 7q-18 -6 -78.5 -11t-129.5 -6h-45q-44 0 -82 1q-58 2 -73 8q-59 -31 -67 -63.5z" />
<glyph unicode="J" horiz-adv-x="1310" d="M119 293v-7q0 -69 35 -138q36 -72 117 -140.5t216 -120.5q25 25 61 35t73.5 16.5t77.5 13.5t75 25l43 -22q20 2 35.5 17.5t28 36t26 40t29.5 29.5q18 35 40.5 68.5t43.5 68.5q27 49 32 143q3 58 3 124q0 40 -1 82q-3 114 -8 238q-3 57 -3 110q0 63 3 122q7 107 31.5 190 t79.5 113q29 16 56.5 27.5t46 27t25.5 40.5q3 11 3 24q0 20 -6 45q-6 29 -47 32q-12 1 -25 1q-31 0 -67 -5q-51 -7 -97.5 -18.5t-64.5 -11.5q-16 0 -30.5 6t-28 14.5t-26.5 14.5t-28 4q-57 -6 -117.5 -23.5t-115.5 -31.5q-51 23 -87 23h-12q-40 -5 -58.5 -23.5t-15.5 -43 t25 -38.5q27 -18 61 -23.5t67.5 -11.5t64.5 -18.5t55 -42.5q8 -12 18.5 -71.5t18.5 -144.5t16.5 -181.5t12.5 -182.5t4 -150q0 -61 -4 -77q-4 -12 -15.5 -35t-13.5 -35q-2 -22 -2 -46q0 -43 7 -92q8 -55 8 -104q0 -17 -1 -34q-2 -35 -22.5 -60.5t-50 -41t-64.5 -23t-63 -7.5 q-14 -12 -34 -21t-41.5 -11t-42 5t-32.5 25q-19 30 -19 77q0 49 11 110q10 55 22 111q9 49 9 90v14q-2 47 -23.5 77.5t-77.5 34.5h-15q-59 0 -106 -28q-53 -31 -83.5 -85t-32.5 -126z" />
<glyph unicode="K" horiz-adv-x="1636" d="M111 1442q0 -49 28.5 -59.5t65.5 -14.5t73.5 -23.5t53.5 -87.5q6 -27 12 -111.5t9 -199.5t6 -241.5t5 -234.5q1 -40 0 -76q0 -60 -2 -104q-2 -72 -4 -75q-29 -39 -59.5 -58.5t-61 -32.5t-60.5 -28.5t-54 -46.5l43 -55q14 -4 28 -4q22 0 42 9q34 15 63 26q18 6 56 2 t85 -11q46 -8 96 -15q38 -5 72 -5h19q41 2 68.5 17.5t29.5 52.5q0 8 -19.5 32.5t-43.5 62.5t-42 90q-17 47 -16 106v13q2 66 34 147t110 175l32 -6q25 -33 63 -81t74.5 -100t66.5 -101.5t40 -86.5q16 -59 30.5 -81.5t17.5 -37t-11 -35t-55 -75.5q-14 -20 5 -33.5t51 -21.5 t63.5 -10.5t43.5 2.5l39 -11q37 20 64 20q8 0 15 -2q32 -7 62.5 -18.5t65.5 -13.5h4q34 0 82 33q16 -10 34.5 -16.5t35 -4.5t28 13t15.5 36q2 14 -31 39t-74 52.5t-78.5 55.5t-48.5 46q-12 25 -38.5 80t-56.5 115.5t-57.5 111.5t-43.5 70q-18 18 -35.5 34.5t-33 33t-29 36 t-19.5 45.5q-14 55 -23.5 112.5t-27.5 111.5q39 53 72.5 107t68.5 110h10q49 47 94.5 70.5t92.5 64.5q24 -1 42 -1t30 1q24 2 39.5 14t27.5 37t35 68q-2 37 -35 50t-77 15q-22 1 -44.5 1t-45.5 -1h-18q-34 0 -59 6l-43 -18q-68 8 -103.5 17t-66.5 9q-29 0 -64.5 -10 t-103.5 -41q-68 23 -131 23t-121.5 -5t-112.5 -7q-6 0 -13 -1q-48 0 -93 17q-27 -8 -62 -8q-11 0 -22 1q-29 2 -58 2q-19 0 -37 -1q-46 -2 -77.5 -17.5t-31.5 -64.5zM601 1088q1 52 7 98.5t15.5 84.5t21.5 54q16 25 34.5 36t38 19.5t39 16.5t38.5 24q27 24 58 24q9 0 17 -2 q40 -9 77.5 -40t66.5 -73t39 -73q-37 -37 -48.5 -59t-14.5 -40.5t-7 -39t-22 -55.5q-25 0 -51.5 -26.5t-54.5 -59.5t-59.5 -64.5t-66.5 -44.5q-14 -4 -37.5 -13t-36.5 1q-20 16 -31.5 52t-17.5 82q-5 39 -5 84v14z" />
<glyph unicode="L" horiz-adv-x="1482" d="M18.5 1423.5q-24.5 -22.5 2 -37t100.5 -29t184 -40.5q71 -53 89 -122q12 -48 13 -99q-1 -22 -3 -44q-8 -74 -23 -152q-12 -56 -12 -107q0 -19 2 -37q6 -76 14 -144t10 -134v-26q0 -54 -6 -109q-8 -69 -37 -144q-10 -25 -35.5 -41.5t-57.5 -29.5t-63.5 -25.5t-50.5 -28.5 q-10 -31 9.5 -45.5t56.5 -17.5q22 -2 48 -2q17 0 37 1q48 2 97 4q20 1 38 1q28 0 53 -2q42 -3 65 -15q50 6 112 6h31q80 -2 166 -6l172 -8q49 -2 95 -2q34 0 66 1q75 3 134 15t92 39q6 6 11.5 54t8.5 116q2 34 1.5 69.5t-1.5 73.5q-3 74 -14 133.5t-31 92t-51 14.5 q-18 -10 -34.5 -61.5t-33 -113t-33.5 -116.5t-36 -74q-23 -20 -67.5 -38.5t-98.5 -30.5t-112 -14q-10 0 -21 -1q-46 -1 -85 9q-48 12 -79.5 39.5t-33.5 76.5q-2 43 -6.5 124t-9.5 179.5t-9 204t-6 198.5q-1 37 -1 71q0 49 2 91q3 70 11 95q18 51 44 67.5t58 17.5h9 q27 0 57 -5q21 -4 43 -4q14 0 29 2q37 5 51 33q12 23 12 50q0 6 -1 12q-3 34 -18.5 63.5t-35.5 35.5q-17 4 -58 4h-30q-66 -2 -131 -2q-51 0 -92 1t-82 1h-80t-92 -2q-25 -1 -48 -1h-23q-34 1 -64 1q-31 0 -57.5 -3.5t-49.5 -16.5q-86 -43 -110.5 -65.5z" />
<glyph unicode="M" horiz-adv-x="1955" d="M129 66q6 -39 44 -54.5t95 -15.5t125 10t132.5 21.5t117.5 19.5q42 6 69 6h13q6 10 -7 23.5t-32.5 29t-39 30t-25.5 24.5q-27 45 -45 97q-13 39 -13 78q0 13 2 27q8 61 8 120q0 34 -3 68q-7 92 -14 181.5t-8 177.5v8q0 84 21 173l56 -15q41 -47 72.5 -117.5t56 -154.5 t45 -176t39 -179.5t36 -166t37.5 -136.5q17 -49 55 -64q10 -4 19 -4q29 0 57 34q10 12 15 54t6 89q0 49 -3 94t-5 64q12 37 26.5 84t30.5 94t34.5 92t37.5 78q-6 12 9 46t36.5 73t43 75.5t25.5 55.5l9 -9l94 46q18 -180 18 -353q0 -172 -16 -350q-6 -59 -10 -88t-14.5 -48.5 t-33 -38.5t-65.5 -58q-12 -12 -19.5 -26.5t9.5 -29.5q14 -12 62 -19t111.5 -11.5t137.5 -5.5h42q51 -1 99 1q66 2 117 6.5t74 8.5q6 11 6 21q-1 20 -21 38q-30 28 -73 56t-81 60t-38 69q0 129 -5 253q-2 56 -2 113q0 69 3 139q3 50 3 101v26q0 32 -1 64q0 33 1 65 q1 64 5 128.5t21 125.5q4 16 29.5 37t57 41.5t63.5 42t48.5 42t11 41t-48.5 36.5q-16 6 -61 8q-22 1 -48 1q-25 0 -55 -1q-58 -2 -122 -7t-119 -11t-93 -14.5t-46 -16.5q-4 -4 -13.5 -32.5t-19.5 -67.5t-21.5 -85t-19.5 -86t-13.5 -69t-3.5 -33l5 -12q-16 -37 -35 -86 t-39.5 -99.5t-43 -95.5t-46.5 -75l-43 4q-25 27 -50.5 89t-52 141t-51 165t-46 158.5t-38 122t-24.5 55.5q-8 4 -49.5 14t-100.5 19.5t-131 17.5t-140 10q-17 0 -33 1q-48 0 -90 -5q-56 -6 -87 -24.5t-29 -50t53 -80.5q10 -12 27.5 -13.5t38 -0.5t39.5 1q20 0 37 -8 q33 -18 59.5 -52t48 -74t36.5 -81t28 -74q-20 -82 -26.5 -149.5t-8.5 -135t-2 -138.5q0 -72 -8 -160q-4 -41 -24.5 -87t-29.5 -89q-8 -47 -33.5 -72t-58.5 -39t-67.5 -22.5t-62 -21.5t-43.5 -37q-10 -16 -10 -42q0 -13 3 -28z" />
<glyph unicode="N" horiz-adv-x="1683" d="M143 1446v-11q1 -43 15 -63q16 -24 42.5 -33.5t60.5 -10.5t66.5 -5t60.5 -17.5t40 -48.5q23 -59 45.5 -122.5t28.5 -128.5q1 -9 1 -18q0 -38 -13.5 -75.5t-13.5 -75.5q0 -9 1 -18q2 -27 10.5 -67.5t13.5 -84.5t6 -84t-9 -61q-14 -33 -20.5 -50t-8.5 -31.5t-1 -33t1 -53.5 v-8q1 -40 -19 -64q-22 -26 -55 -39.5t-71.5 -22.5t-72.5 -23.5t-56.5 -41t-22.5 -75.5q0 -31 51 -49.5t129 -26.5q57 -6 120 -6q24 0 48 1q90 3 170 15.5t134.5 36t58.5 56t-8.5 45t-35 18.5t-50 11t-55 21.5t-50 49.5t-33.5 96q-4 23 -10 76t-12 120.5t-11.5 141.5 t-5.5 135q0 63 6.5 106.5t20.5 51.5q23 12 46.5 14t43.5 -16q18 -18 62.5 -75.5t99.5 -136.5t115.5 -169t112.5 -172t90 -146.5t46 -93.5q4 -16 29 -57t56.5 -78t62.5 -53t49 18q10 22 14 94q3 57 3 132v38q-1 98 -6 212t-10 217.5t-9 185.5t-6 121q0 31 3 73.5t12 87 t24.5 84t35.5 62.5q16 18 49 33.5t65 33t54.5 40t16.5 53.5q-10 55 -38 67q-19 9 -43 9q-9 1 -21 -1q-36 -6 -78 -16q-19 -5 -36 -5q-21 0 -42 7q-18 -10 -57.5 -9t-86.5 5t-93 6h-22q-31 0 -55 -4q-32 -6 -44 -26q-4 -6 -5 -15q0 -18 17 -45q23 -39 65.5 -59.5t83.5 -40.5 q41 -18 71 -44q28 -24 27 -67v-6q-12 -179 -16 -363q-1 -33 -1 -67q0 -150 15 -299q0 -10 -5 -2t-11 22.5t-12 29.5l-8 20q-6 14 -17.5 41.5t-25 55t-26.5 52.5t-26 33q-6 4 -36.5 47t-73.5 103.5t-91.5 130t-89 131t-68.5 104.5t-30 51q-4 10 -4 41t-5 61.5t-15.5 53 t-30.5 16.5l-49 -18q-43 33 -88 46t-91 14h-14q-40 0 -78 -5q-45 -6 -88 -10q-9 -1 -18 -1q-26 0 -52 9q-36 12 -67 13t-52.5 -18.5t-23.5 -82.5z" />
<glyph unicode="O" horiz-adv-x="1595" d="M166 850q-7 -39 -7 -74q0 -48 13 -90q14 -47 17.5 -98t8.5 -102.5t18 -100.5t48 -88q18 -23 42 -39t42 -41q39 -53 60.5 -88t48 -56.5t66.5 -29.5t116 -8q107 -70 209 -81q25 -3 48 -3q76 1 146 27q92 34 173 105t143.5 166t104.5 205q41 110 59 222q11 68 11 135 q0 43 -4 83q-11 106 -56 191q-66 125 -165.5 215.5t-207.5 176.5q-23 16 -63 30.5t-85 24.5t-88 16t-71 6q-76 0 -157 -44t-158 -116.5t-142.5 -165.5t-109.5 -189.5t-60 -188.5zM514 658q-2 45 -2 87q0 43 2 81q4 78 12 128q6 41 19.5 96.5t31 113t38 109.5t42.5 85 q18 27 53 40t75 20t81 10.5t70 9.5q14 2 32.5 -6.5t38 -20.5t37 -26.5t29.5 -22.5q43 -33 65.5 -103.5t35 -152.5t17.5 -162t11 -131q6 -59 20 -117q7 -30 8 -60q0 -29 -7 -58q-12 -47 -17.5 -98.5t-11.5 -101.5t-14.5 -100.5t-26.5 -95.5q-18 -51 -45 -74q-28 -22 -60 -28 q-24 -4 -52 -4h-19q-20 1 -40.5 1t-41.5 -1q-47 -4 -89 -14q-13 -3 -27 -4q-29 0 -60 16q-53 27 -90 88t-61.5 142t-37 172.5t-16.5 181.5z" />
<glyph unicode="P" horiz-adv-x="1572" d="M100 1378q26 -14 68.5 -21t86.5 -21.5t81 -42t49 -81.5q10 -41 14 -89t4 -99q0 -50 -1 -100v-16q0 -41 4 -77q0 -16 -1.5 -64t-3.5 -111.5t-6 -134t-9 -131t-9 -103.5t-8 -49q-14 -27 -43 -45.5t-61 -35t-63.5 -30.5t-52 -28.5t-24.5 -33t18 -42.5q18 -23 45 -31t56 -15 q20 -4 39.5 0.5t38 10.5t38.5 13t40 9q7 1 16 1q20 0 52 -3q48 -4 108 -8t124 -5h16q54 0 100 6q52 7 85 25.5t33 53.5q-20 12 -48 30.5t-56.5 38t-53 40t-37.5 38.5q-12 16 -14 36t0 38t2 35q0 18 -8 33q-56 94 -56 192v3q1 100 54 196q30 -3 60 -3q71 1 139 17 q96 24 190 57q23 8 58.5 11.5t73.5 7.5t71 11.5t51 23.5q102 96 133 184q18 50 18 96q-1 35 -11 68q-24 76 -89 136.5t-155 102.5q-89 40 -190 60q-77 15 -151 15q-23 0 -45 -1q-39 -4 -68.5 -22.5t-64.5 -28.5q-66 23 -101.5 33t-66.5 10q-29 0 -65.5 -7t-100.5 -18 q-10 -2 -21 -2q-22 1 -48 9q-38 12 -76 19q-21 4 -42 4q-18 0 -35 -3q-38 -6 -68 -45q-40 -52 -40 -77q0 -26 27 -40zM679 1100v19q0 83 23 165q8 25 16.5 50.5t22 46t34 32.5t52.5 12q23 0 44.5 7.5t43.5 13.5q15 4 31 4q32 0 64 -16q48 -24 86 -74q40 -50 62 -116 q22 -63 21 -128v-6q-1 -68 -31.5 -130t-100.5 -103q-20 -12 -63.5 -22.5t-91.5 -18t-93 -10.5q-19 -1 -35 -1q-21 0 -35 2q-6 23 -16.5 44.5t-14.5 43.5q-16 93 -19 185z" />
<glyph unicode="Q" horiz-adv-x="1630" d="M154 756q0 -96 31.5 -180t79.5 -162t104.5 -149.5t103.5 -141.5q55 -80 116.5 -105.5t122.5 -29.5q40 -3 78 -3q19 0 38 1h8q50 0 92 -23q43 -23 60.5 -49.5t25.5 -54t16 -56t33 -53.5q29 -31 71 -55.5t76 -56.5q35 0 97.5 4t122 22.5t101.5 55.5q37 31 37 87q0 9 -1 17 q0 12 -20.5 21.5t-45 15.5t-49.5 10t-35 8q-72 23 -99 76q-26 49 -26 115v10q0 49 39 127t89 173t94.5 203.5t57.5 222.5q4 31 4 62q0 83 -26 166q-34 113 -145 217q-41 39 -61.5 72t-44 63.5t-61.5 62.5t-114 69q-90 44 -188 44h-22q-111 -6 -218.5 -52t-206 -125.5 t-173 -181t-118.5 -216.5t-44 -231zM503 712q-3 49 -3 97t3 94q5 92 20.5 167t43.5 114q35 49 84 100t107.5 86t121.5 45q16 2 31 2q49 0 99 -24q117 -57 164 -149.5t58 -201.5q7 -66 7 -134q0 -44 -3 -88q-3 -54 -3 -105q0 -59 4 -115q4 -27 14.5 -48t14.5 -46 q2 -10 -4.5 -47t-14.5 -78t-18 -73t-17 -34q-29 -6 -54 8.5t-49 34t-47.5 36t-43.5 16.5q-39 23 -102 23q-1 1 -3 1l-121 -15q-63 -16 -115 -46.5t-69 -69.5q-29 31 -50 101.5t-35.5 159.5t-19.5 189zM662 213q4 16 35.5 37.5t71.5 42t77 34t49 13.5q29 0 42 -15.5t32 -29.5 q4 -18 10 -51t10 -69q3 -29 3 -54v-13q-1 -31 -9 -45q-6 -10 -16.5 -18t-20.5 -16q-23 4 -62.5 27.5t-82.5 53t-82 58.5t-57 45z" />
<glyph unicode="R" horiz-adv-x="1662" d="M106 1477q2 -39 16.5 -55.5t35 -22.5t46 -7t52.5 -8.5t51.5 -28t42.5 -65.5q20 -47 31.5 -121.5t16.5 -164.5q4 -89 6 -186q1 -48 1 -96q-1 -47 -1 -93q-2 -92 -4.5 -173t-2.5 -137q0 -39 -19.5 -75.5t-49 -64t-66.5 -43.5q-33 -14 -67 -13h-9l-16 -39q2 -12 17.5 -30.5 t36 -35t40 -25.5t31.5 -1q41 29 109 30h19q60 0 125 -6q74 -6 146 -11q17 -1 33 -1q50 0 84 12l33 45q0 23 -20.5 36.5t-47 27.5t-53.5 35.5t-37 58.5q-10 39 -10 107q0 70 5 145.5t14.5 145t14.5 112.5q2 0 21 -2t47.5 -7t50.5 -11q41 -12 84 -13q43 0 77 -11t56.5 -43 t24.5 -105q0 -59 4 -125t15.5 -131.5t32 -127t57.5 -108.5q57 -18 87.5 -31.5t49 -20.5t32 -8t36 5t59.5 18t102 31q12 18 38 45t43.5 55.5t16.5 56t-40 50.5l-93 -51q-59 14 -95 75.5t-70.5 142.5t-78.5 168t-120 156l-19 23q0 8 42 44t95.5 78t100.5 80.5t57 51.5 q23 27 28 85q2 19 2 39q0 38 -7 80q-10 62 -33.5 113t-58.5 64q-25 10 -49.5 14t-53.5 14q-37 12 -67.5 23.5t-59 23t-58.5 20.5t-69 17q-35 6 -64.5 16.5t-58 16.5t-57.5 5t-59 -15q-18 10 -46 6t-44 -14q-16 4 -66 9t-112 7q-42 1 -86 1h-44q-68 -1 -125 -7t-94 -19.5 t-35 -35.5zM654 1176q-4 14 -5 30q-1 18 5 39q10 39 56 98q20 27 45 50.5t60 23.5q18 0 33.5 -6t32.5 -16q18 -10 39.5 -16.5t43 -12.5t44 -15.5t41.5 -23.5q66 -51 92 -107q23 -49 23 -101q0 -7 -1 -15q-4 -60 -34.5 -118.5t-79.5 -111.5q-25 2 -47.5 -1t-45 -9t-47 -12 t-53.5 -8q-31 -3 -57 -3h-13q-30 1 -63 -1q2 6 -4 24.5t-14.5 40t-15.5 42t-7 34.5q0 16 3 32.5t3 33.5q0 41 -13 70t-21 59z" />
<glyph unicode="S" horiz-adv-x="1249" d="M154 1145v-12q0 -33 9 -74q11 -49 31.5 -101.5t51 -100.5t68.5 -82t82 -47q18 -5 38 -5q27 0 55 10q63 -20 136 -40.5t143 -46t129 -59.5t93 -82q34 -47 36 -113v-6q0 -64 -43 -148q-115 -82 -210 -94q-22 -3 -43 -3q-70 0 -129 31q-77 41 -136 128t-98 204 q-6 18 -14.5 49t-21 57.5t-31.5 42t-48 2.5q-18 -8 -31.5 -52t-23 -106.5t-14.5 -136.5t-6 -140v-32q0 -46 2 -86q3 -52 9 -71l11 -35q2 -8 10 -13.5t16 -5.5q23 0 50.5 24t63.5 46.5t84 32.5q14 3 30 3q38 0 84 -17q31 -55 75 -77q42 -21 90 -21h4q52 1 105 20.5t102.5 47 t91.5 59.5t68 57q4 27 29.5 74.5t50.5 105.5q25 56 39 118q7 29 6 56q0 31 -8 61q-16 51 -43 96.5t-35 98.5l-149 139q-14 8 -35 8h-45q-25 0 -54.5 5.5t-64.5 23.5q-14 8 -33.5 12t-39 8.5t-36 8.5t-26.5 12q-16 12 -24.5 30.5t-29.5 28.5q-23 10 -42 9.5t-38.5 0.5t-38 11 t-34.5 47q-37 74 -37 123q0 13 3 25q13 54 61.5 81t117 32t135.5 5q66 -53 109 -82.5t71.5 -63.5t47 -84t35.5 -143q4 -23 5 -33t29 -10q23 0 42.5 38t32.5 96q14 56 20 126q6 60 5 116v16q-1 62 -9.5 109.5t-26.5 62.5q-33 0 -60.5 -16.5t-56 -33t-60.5 -24.5 q-12 -3 -24 -3q-22 0 -47 9q-18 6 -27.5 21.5t-17.5 32t-17.5 30.5t-25.5 20q-27 9 -64 9q-30 0 -65 -6q-80 -13 -158 -45.5t-141 -81t-82 -101.5q-4 -10 -13 -37.5t-20.5 -59.5t-20.5 -58.5t-9 -30.5z" />
<glyph unicode="T" horiz-adv-x="1441" d="M124 1020q3 -35 17 -47q15 -14 29 -14q16 0 30 16q28 31 54.5 87t56 122.5t66.5 109.5t83 46h4q45 0 103 -66q23 -29 40.5 -116t27.5 -203.5t12 -245.5q1 -43 1 -84q0 -82 -3 -157q-4 -112 -16.5 -190.5t-30.5 -91.5q-12 -8 -44 -14t-68.5 -12t-72.5 -14.5t-57.5 -21.5 t-20.5 -32.5t36 -48.5q76 -61 135 -65q9 -1 18 0q48 0 88 16q47 18 81 37.5t59 3.5q16 -10 57 -19.5t93 -14.5t108 -5q57 0 101 10q43 10 69 32q19 16 20 41q0 8 -2 17q-10 43 -27.5 57.5t-41 13.5t-50 -8t-53.5 -7t-51.5 14t-42.5 59q-4 10 -8 49t-7.5 92.5t-6.5 116 t-4 118.5t-2 100t-1 63q0 118 -10 242q-4 48 -4 95q0 74 10 146q2 20 24.5 43t51.5 38t56.5 19.5t41.5 -10.5q29 -33 57.5 -85t56 -105t54.5 -97t51 -63l35 8q12 8 21.5 41t15.5 78t10 97.5t6 100.5t2 85q0 39 2 57q-18 25 -34.5 47.5t-37 34.5t-46.5 12q-25 0 -62 -20 q-37 4 -68 4h-21q-40 -2 -77 -8t-74.5 -11.5t-80.5 -5.5q-121 0 -243 -2q-41 -1 -81 -1q-81 0 -162 3q-10 0 -34.5 4.5t-50 8.5t-47 6t-27.5 0l-72 -33q-23 -10 -29 -45t-6 -78q0 -41 4 -81t4 -60t-6 -57t-9 -77q-2 -20 -2 -38.5t2 -36.5z" />
<glyph unicode="U" horiz-adv-x="1423" d="M116 1344q20 -14 52.5 -21.5t61 -25t44.5 -54.5q10 -23 11 -61q0 -23 -4 -52q-8 -55 -15.5 -140t-11.5 -183q-3 -65 -3 -134q0 -35 1 -69q2 -104 12 -198.5t31.5 -169t56.5 -113.5q8 -10 39 -26.5t72 -35t88 -37t89 -31.5t73.5 -21.5t42.5 -4.5q33 12 65 13 q33 0 60.5 -3.5t48 -5.5t31.5 4q121 80 185 175.5t92 201.5q28 108 29 222v30q1 100 -5 202q-6 118 -10 236v33q0 102 16 201q6 37 18 52t27.5 19.5t32 2.5t31 2t23.5 20t11 55q2 43 -5 61.5t-22.5 27t-37 10.5t-50.5 8q-25 6 -79 6q-55 0 -114 -7t-111 -23.5t-70.5 -41 t2 -51t53.5 -54.5t66.5 -57.5t43.5 -60.5q8 -27 13 -105q4 -80 5 -184v-52q0 -80 -2 -168q-3 -116 -10.5 -216t-18.5 -172t-25 -86q-43 -41 -98.5 -75.5t-119.5 -34.5q-84 0 -133 38.5t-75.5 101t-34.5 140.5t-8 156q0 80 3 152q1 31 1 57q0 35 -2 63q-6 86 -21.5 174 t-15.5 174q0 31 14 58.5t36.5 48t52.5 32t59 9.5q27 -4 35 5t14 34q8 29 7 55.5t-11.5 41.5t-32 13t-53.5 -32q-10 0 -17.5 6t-14.5 14t-14.5 15.5t-17.5 9.5q-20 -14 -61 -15q-39 0 -86 6.5t-99.5 13.5t-97.5 8h-8q-40 -1 -72 -9q-35 -10 -49 -35q-34 -64 -34 -96 q-1 -32 21 -47z" />
<glyph unicode="V" horiz-adv-x="1622" d="M127 1442q0 -12 7 -32.5t17.5 -41t21.5 -38t22 -23.5q20 -12 44.5 -17.5t41.5 -15.5q10 -6 33.5 -43t52 -89t60.5 -112.5t58.5 -115t45 -97.5t20.5 -57q18 -82 51 -169t68 -167t63.5 -148.5t36.5 -113.5q2 -14 11.5 -48t24.5 -68t33.5 -56.5t39.5 -12.5q39 18 65.5 92 t50 162t49 168t64.5 111l51 135l-18 66q25 68 47 138.5t48 139t57.5 133t74.5 123.5q10 14 41 28.5t66.5 32t72.5 38.5q38 20 60 44q25 26 25 54q0 26 -31 57q-14 14 -66 23q-50 10 -120 14q-40 2 -82 2q-32 0 -65 -1q-77 -3 -141 -15q-63 -14 -105 -36q-40 -21 -40 -51 q0 -44 24.5 -62.5t55.5 -33t60.5 -35t41.5 -65.5q4 -16 4 -36q1 -40 -15 -99q-24 -88 -60.5 -184.5t-77.5 -183.5t-64 -130l-41 -6q-37 61 -69.5 140t-61 163t-52 166t-42.5 154q-8 37 12.5 55t50 31.5t59.5 28t38 40.5q4 13 4 25q0 35 -34 61q-46 35 -115.5 53.5 t-141.5 19.5h-11q-64 0 -93 -11q-25 -10 -70 -10h-90q-45 0 -83 -1.5t-48 -11.5q-14 -6 -25.5 -25.5t-11.5 -35.5z" />
<glyph unicode="W" horiz-adv-x="2068" d="M131 1370q16 -16 31.5 -21.5t38.5 -9.5q39 -6 78.5 -40.5t76.5 -87t69 -116t55.5 -126t39 -117.5t19.5 -90q10 -94 38.5 -183.5t62.5 -176.5t65.5 -173t48.5 -174q2 -20 6 -49t33 -31q20 -2 37.5 27t32 69t26.5 78.5t22 59.5q16 27 22.5 62.5t9.5 74.5t8 77t20 71 q18 47 34.5 95t16.5 99q37 27 63.5 66t42.5 80q10 -25 30 -102t45.5 -176t56 -204.5t64.5 -190.5t68 -132q24 -33 48 -33q10 0 20 6q20 12 48 88t57.5 181.5t57.5 225t51.5 221t37.5 171t17 72.5q55 78 90.5 156.5t97.5 150.5l61 14q14 -4 42 22.5t46 63.5q17 33 17 67v7 q-2 37 -47 51q-59 19 -138 31q-48 8 -96 7q-31 0 -61 -3q-78 -8 -144.5 -40t-99.5 -102q-35 25 -96.5 51.5t-132.5 46.5q-70 22 -142 30q-27 3 -52 3q-42 1 -80 -9q-58 -14 -94 -56q-34 -39 -34 -113v-8l-102 170q-16 -2 -40 -2t-56 2q-64 4 -137.5 9.5t-149.5 6.5h-10 q-69 -1 -125 -13q-60 -14 -92 -45q-25 -24 -25 -64q0 -12 2 -25zM704 1148q-3 33 -3 61q-1 34 3 63q6 53 31 67q6 4 33 5.5t57.5 0t58 -4.5t36.5 -5q35 -12 63.5 -64t49 -116.5t32.5 -129t14 -97.5q2 -20 -5 -44t-19.5 -47.5t-26.5 -45t-29 -33.5l-8 4q-12 -12 -30.5 -39 t-40 -50.5t-44 -35.5t-38.5 4q-18 18 -40 72.5t-41.5 127t-33 154.5t-19.5 153zM1322 1174q1 38 10 75t29.5 63.5t57.5 26.5q20 0 41 -5t41 -5q104 0 140 -40q32 -36 32 -122v-20q-2 -41 -11 -99.5t-23.5 -119t-33 -115.5t-38.5 -92q-6 -10 -19.5 -29.5t-30 -35t-34 -19.5 t-29.5 14q-18 27 -29.5 66t-17.5 81t-12 83t-17 75q-12 39 -30.5 75t-22.5 77q-3 22 -3 51v15z" />
<glyph unicode="X" horiz-adv-x="1443" d="M88 1370q16 -23 46 -32t60.5 -13t57.5 -8t37 -14q27 -27 46 -64t37.5 -76t37 -79t47.5 -72l108 -127q4 -33 4 -64q0 -29 25 -57q45 -53 51 -83t-9 -56.5t-41 -55t-42 -77.5q-8 -25 -26.5 -55.5t-42 -63.5t-45 -66t-36.5 -59q-18 -14 -61 -32.5t-87 -40t-80 -43t-42 -40.5 q-5 -16 -5 -29q0 -21 14 -35q24 -22 69 -30q36 -6 81 -6h22q58 2 114.5 7t104 12t69.5 9q18 25 0 43.5t-48 40t-59.5 48t-31.5 65.5l45 76l12 4l146 244l59 26q23 -23 36 -52.5t17 -59.5q2 -16 23.5 -50t46 -73t45 -81t23 -77t-22.5 -56.5t-90 -21.5q-39 0 -54.5 -13 t-12.5 -30.5t20.5 -36t41 -27.5t51.5 -5t52 28q23 -8 72 -8h100q53 0 100.5 -4t65.5 -23q18 8 51 10.5t63.5 7.5t51 20.5t12.5 50.5q-6 25 -27.5 40t-47 25t-53 17.5t-46.5 17.5q-10 6 -18 19.5t-15.5 30.5t-13.5 33.5t-14 26.5l-238 355q-20 31 -54 61.5t-38 71.5 q-4 35 -4 62q0 30 5 50q9 38 29.5 63.5t48 53t56.5 78.5q31 53 45.5 84t31.5 51.5t44 40t80 51.5l24 21q18 -6 28.5 -8t19 1t15.5 10t17 21q10 12 29.5 16.5t39 9.5t34 17.5t16.5 43.5q2 20 -13.5 39.5t-37 31.5t-46 16.5t-42.5 -4.5q-30 9 -94 17q-52 7 -106 6h-26 q-68 -2 -122 -18.5t-62 -57.5q-6 -29 8.5 -49t36 -37.5l43 -35t31.5 -42.5q4 -10 -4 -36.5t-23.5 -61.5t-35 -74t-38 -71.5t-35 -55t-24.5 -24.5q-16 -4 -39.5 15.5t-50 52t-53.5 73.5t-48.5 81t-34.5 72.5t-13 49.5l51 74l47 10q18 -18 40.5 -3t35 42.5t5.5 53.5t-52 30 q-20 2 -45 2q-23 0 -39 -10q-23 0 -70 1q-24 0 -50 1q-25 0 -55 -1q-58 -1 -120 -3.5t-113 -9.5t-85 -20.5t-36 -33.5z" />
<glyph unicode="Y" horiz-adv-x="1470" d="M70.5 1444q-13.5 -14 11.5 -45q49 -63 84 -79q31 -15 57 -15h7q28 2 52.5 5t53.5 -20q10 -8 38.5 -53t64.5 -108.5t74 -137t70.5 -140.5t55.5 -118t25 -67q10 -70 18 -139.5t10 -141.5q0 -51 -6 -113.5t-47 -101.5q-16 -16 -41 -21.5t-48.5 -11.5t-38.5 -18.5t-13 -42.5 q4 -63 30 -83q20 -16 50 -16q7 0 14 1q39 4 87 22t98 32q41 11 81 11q9 0 18 -1q48 -3 87 -42q23 0 40 11.5t39 15.5q14 2 25.5 -2.5t23 -9.5t25.5 -6t39 7l12 60l-59 22q-74 90 -98 200q-15 72 -15 145q0 39 5 79q12 113 56 222.5t105 199.5q14 20 22.5 70.5t14.5 107 t13.5 108.5t19.5 76.5t39.5 35t61.5 18.5t67.5 17.5t58.5 27.5q8 27 -11.5 46t-49 31.5t-63.5 15.5t-52 -3q-49 33 -100 35h-16q-44 0 -89 -10q-53 -11 -106 -26t-105 -17q-26 -2 -51 -2q-32 0 -61 3q-54 5 -123 7q-55 2 -103.5 9t-92.5 11q-25 2 -51 2q-19 0 -39 -1 q-46 -3 -99 -21q-25 -8 -63 -11.5t-68.5 -9.5t-44 -20zM704 1231q5 29 22 43t47 20t73 13q10 2 16 24.5t11.5 50t11.5 50t16 22.5q8 0 9 -15.5t0 -35t-2 -37.5t5.5 -22.5t21.5 -12.5t31.5 -17t31 -17.5t20.5 -12.5q53 -47 76 -110q14 -37 14 -77q0 -27 -6 -55 q-10 -47 -31.5 -91t-40.5 -89q-12 -29 -12 -61q0 -31 -10 -60q-16 -46 -41 -46h-5q-28 5 -55.5 36t-49 73t-28.5 62q-12 45 -31.5 75t-38 58.5t-33.5 62.5t-22 87q-3 29 -3 50q0 19 3 32z" />
<glyph unicode="Z" horiz-adv-x="1259" d="M135 100q0 -6 1 -22.5t4 -33.5t7.5 -31.5t10.5 -14.5q16 -2 92 -2t181.5 1t221.5 1q119 0 219.5 1t166 2t67.5 1q29 12 50.5 59.5t33.5 108.5t16 130q1 21 1 41q0 45 -6 86q-9 58 -31.5 96t-59.5 40q-25 -55 -54.5 -125.5t-70.5 -136t-92 -117t-119 -69.5q-16 -4 -36 -4 t-44 4q-47 8 -91 21.5t-75 25.5l-30 12q2 2 23.5 47t60.5 123t85 168t94 185.5t90 175t71.5 135t40.5 67.5q41 47 84 123t78.5 147.5t47.5 96.5l35 78l-51 -1t-127 -3.5t-164 -5.5t-161 -7q-26 -2 -55.5 -2t-60.5 2q-63 4 -123 9.5t-116 8.5q-24 1 -47 1q-29 0 -54 -2 q-44 -4 -69.5 -17.5t-25.5 -44.5q0 -23 -7.5 -89t-11.5 -139q-2 -29 -2 -56q0 -40 4 -74q6 -56 33 -58q8 4 35.5 34t65.5 72t81 91t79 92t61.5 74t27.5 37h80q59 0 121.5 -1t112.5 -2l49 -1l-25 -41q-24 -41 -55 -97.5t-60.5 -113t-37.5 -86.5q-12 -45 -24.5 -83t-30 -80 t-43 -93t-67.5 -122t-102.5 -165t-144.5 -221q-20 -25 -47 -51.5t-50.5 -56t-41 -61.5t-19.5 -67z" />
<glyph unicode="[" horiz-adv-x="671" d="M225 1342.5q4 -52.5 13.5 -102.5t9.5 -81q0 -10 -1 -79.5t-2 -177t-2 -241t0 -271.5t2 -270t5 -237.5t10 -172t16 -75.5q12 -8 42 -17t67 -16.5t78 -10.5t73.5 1.5t54 16.5t21.5 37t-25.5 33t-58 21t-63.5 43t-41 95q-23 129 -24 259t4.5 261t8.5 262.5t-12 260.5 q-4 51 7.5 101t7.5 101q-4 43 -11.5 96.5t-4.5 104.5t23.5 93t74.5 61q43 14 72.5 33.5t35.5 37t-18.5 28.5t-87.5 11q-55 0 -116.5 -3t-109.5 -36q-35 -23 -44 -68.5t-5 -98z" />
<glyph unicode="\" horiz-adv-x="538" d="M-6 1469.5q-6 -46.5 31 -150.5q35 -96 73.5 -200.5t74.5 -213t64.5 -217t43.5 -209.5q6 -45 23.5 -99t39 -110.5t43 -112t33.5 -102.5q14 -55 43 -77.5t55.5 -17.5t39.5 36t-3 86q-37 129 -71.5 262t-71.5 266t-80 263.5t-99 252.5q-16 37 -27 78t-21.5 84t-21.5 85 t-30 79q-16 33 -49 55.5t-58.5 15.5t-31.5 -53.5z" />
<glyph unicode="]" horiz-adv-x="628" d="M96.5 1521.5q-18.5 -20.5 5 -48t61.5 -64.5t72.5 -86t36.5 -115q0 -18 1 -96t1 -184q0 -104 1 -223t1 -220v-166q0 -66 0 -65q-14 -53 -4.5 -110.5t23.5 -116t25.5 -115.5t3.5 -111q-12 -8 -42 -27.5t-61 -42t-54.5 -44t-23.5 -33.5q-2 -12 21.5 -27.5t60.5 -27t79 -14.5 t77 6.5t58.5 36t19.5 75.5q-2 41 -3 138.5t-1 228.5v288v314t-1 305t-3 264t-7.5 189.5t-13.5 80.5q-18 18 -65.5 30.5t-101.5 15t-101 -6t-65.5 -29z" />
<glyph unicode="^" d="M96 711q-2 -14 13.5 -44t39 -47.5t50 -8t47.5 74.5q14 49 39.5 97t51 97.5t47.5 97.5t32 97q10 53 40.5 116.5t53.5 115.5q66 -152 138.5 -307.5t127.5 -313.5q14 -43 42 -56.5t54.5 -7t44 27.5t13.5 48q-2 8 -27.5 70.5t-63.5 151t-83 189.5t-84 187t-65.5 145.5 t-31.5 63.5q-27 29 -63.5 36t-60.5 -28q-8 -12 -26.5 -51t-42.5 -92t-48.5 -113.5t-46 -116t-38 -98.5t-22.5 -61q-10 -35 -30.5 -68.5t-41 -67.5t-38 -68t-21.5 -66z" />
<glyph unicode="_" d="M-39 -418.5q2 -21.5 18.5 -38t45.5 -16.5q59 0 121.5 -3t126 -5t125 -1t120.5 11q49 8 100.5 7t102.5 -5t102.5 -7t100.5 3q35 4 51 22.5t15 40t-18.5 41t-47.5 27.5q-29 8 -62 8q-31 0 -62.5 -3t-63 -7t-62.5 -2q-55 4 -105.5 10t-101.5 9t-102.5 1t-106.5 -14 q-29 -6 -57.5 -3t-58 6t-58.5 4t-59 -9q-37 -12 -51.5 -33.5t-12.5 -43z" />
<glyph unicode="`" horiz-adv-x="620" d="M137 1483q-10 -35 1.5 -58.5t29.5 -44t36.5 -39t26.5 -43.5q8 -23 13.5 -48t21.5 -44q14 -14 35 -23t31 -24q12 -16 37.5 -49t50 -51.5t40 -9.5t9.5 81q0 6 -3 27t-5 25q-6 23 -21.5 46t-25.5 44q-25 49 -43.5 90t-41 76t-54 66.5t-82.5 60.5q-16 -16 -33 -38t-23 -44z " />
<glyph unicode="a" horiz-adv-x="1095" d="M111 218q2 -75 47 -181q8 -23 24.5 -35t36 -22.5t40 -18.5t36.5 -20q80 10 166 38.5t147 81.5q10 10 27.5 25.5t34.5 11.5q51 -14 74.5 -29.5t35 -28.5t19.5 -25.5t28.5 -19.5t61.5 -8h13q40 0 108 5q12 14 36.5 67.5t43.5 111.5q20 59 26 107q1 8 0 14q0 35 -24 38 q-29 4 -46.5 -12.5t-27.5 -42t-17.5 -55.5t-15.5 -52.5t-22.5 -31.5t-38.5 5q-18 10 -26.5 62.5t-11.5 126t-3 162.5q0 88 -4.5 172t-15.5 154.5t-34 109.5q-16 29 -35.5 56.5t-37.5 55.5q-25 4 -49.5 -1t-47.5 5q-60 27 -125 27q-10 0 -22 -1q-76 -5 -142.5 -35.5 t-118.5 -80.5q-51 -52 -73 -110q-12 -33 -13 -65q0 -26 8 -53q17 -60 85 -112q12 -1 22 -1q36 1 56 17q26 22 38.5 56.5t18.5 76.5t23 79q16 36 48 60q29 22 85 22h10q39 -2 69 -44q32 -42 42 -100q4 -22 4 -45q0 -35 -10 -71q-16 -60 -70 -95q-8 -14 -30.5 -17t-51.5 -6 t-58.5 -10.5t-50.5 -31.5q-92 -31 -159.5 -68t-101.5 -90q-32 -50 -31 -120v-8zM370 282q8 48 33 90t60 56q18 8 38.5 19.5t40 18.5t40 9t43.5 -10q45 -25 57 -65q6 -21 6 -43q0 -20 -5 -41q-11 -44 -41 -87t-68 -73q-37 -28 -78 -40q-15 -4 -29 -5q-25 -1 -47 13 q-34 20 -46 65q-7 25 -7 52q-1 20 3 41z" />
<glyph unicode="b" horiz-adv-x="1169" d="M78 1389q-1 -12 -1 -22q0 -38 12 -52q15 -17 39 -20t49.5 -6t41.5 -36q4 -10 13.5 -42.5t17.5 -69.5t13 -70t5 -43q-4 -41 -15 -81t-15 -81q-3 -16 -3 -32q0 -30 10 -60q15 -45 15 -92q0 -59 3 -145q3 -85 5 -177q1 -46 1 -90t-1 -85q-2 -83 -14 -132l74 -45 q25 35 43 47.5t33.5 10t30 -13.5t29.5 -23.5t34.5 -18.5t44.5 2q70 -49 121 -61q26 -6 50 -6t48 6q47 12 97 40.5t116 61.5q47 96 98.5 203t61.5 213q0 6 -9.5 46t-24 95.5t-31.5 118t-32.5 116.5t-28 90t-14.5 40q-20 20 -48.5 31.5t-55.5 19.5q-35 46 -82 60q-29 8 -60 9 q-19 1 -39 -3q-52 -8 -104.5 -32t-95.5 -48q-8 20 -14.5 63t-11.5 96.5t-13 110.5t-19.5 104.5t-28.5 77t-44 29.5q-29 0 -79 -1t-98 -10t-85 -30.5t-39 -62.5zM473 578q2 86 9 161.5t19.5 132t30.5 74.5q6 6 32 19.5t36 17.5q14 -8 26.5 -1t20.5 17q23 8 40.5 16.5 t43.5 8.5q6 -16 20.5 -33.5t29 -34t26.5 -31t16 -26.5q6 -16 6 -35q0 -18 5 -37q14 -82 34.5 -147.5t32.5 -129.5q12 -62 12 -131q-1 -3 -1 -5q0 -72 -29 -166q-6 -23 -10.5 -39t-10.5 -31.5t-15 -30t-26 -30.5q-23 -20 -55 -37t-66 -25q-23 -5 -45 -5q-11 0 -23 1 q-34 4 -61 25q-8 35 -22 63.5t-35 57.5q-16 23 -25.5 82t-13.5 136q-3 51 -3 107q0 27 1 56z" />
<glyph unicode="c" horiz-adv-x="1009" d="M104 625q-3 -37 -3 -72q0 -387 372 -551q8 -4 22.5 -11t31 -15.5t30.5 -13.5t23 -1l247 102q18 8 47 49.5t52.5 91.5t33.5 98q3 16 3 28q0 26 -13 39q-23 20 -47 33.5t-51 -9.5q-23 -18 -41 -52t-37.5 -69.5t-40 -67.5t-43.5 -44q-58 -34 -105 -34q-13 0 -25 3 q-56 12 -96 56t-64 114q-26 71 -38 143q-12 67 -11 129v9q1 66 11 110q4 18 12.5 50t20 64t26.5 58.5t34 34.5q25 9 59 17q26 6 52 6h14q34 -2 61 -17.5t33 -50.5q6 -29 -3 -62.5t-15 -67.5q-5 -26 -5 -51v-15q2 -32 31 -58q34 -29 68 -30h3q32 0 62 16q31 16 54.5 45.5 t33.5 64.5q4 15 5 36q0 28 -9 66q-14 66 -45 130.5t-72 111.5t-84 47q-53 0 -103 -10t-99.5 -25.5t-97.5 -34t-97 -32.5q-14 -16 -23.5 -33.5t-17.5 -36.5q-16 -41 -40.5 -72.5t-49.5 -63.5t-43 -67.5t-23 -84.5z" />
<glyph unicode="d" horiz-adv-x="1204" d="M144 410q10 -106 40.5 -190.5t81.5 -123.5q104 -80 171 -100q45 -13 83 -13q19 -1 36 3q52 10 102.5 30.5t123.5 22.5q2 0 42 -15.5t93.5 -34t109.5 -33.5t91 -15q27 0 45.5 15t27.5 36.5t10 47.5t-7 46q-10 25 -31.5 31t-46 12t-46 25.5t-30.5 72.5q-4 34 -4 69v24 q2 48 5 93.5t5 91.5v10q0 41 -12 83q-8 38 -8 100v26q2 81 8 178q6 96 10 198q1 30 1 58q-1 68 -7 129q-8 85 -33.5 142.5t-76.5 65.5q-59 10 -125 10h-123q-37 0 -57.5 -17.5t-22.5 -42t16.5 -51t55.5 -44.5q14 -6 32.5 -21.5t39 -35t39 -38l30.5 -30.5q2 -35 5 -65 t0 -57.5t-15 -54t-39 -53.5h-12q-31 1 -63 9q-38 10 -77 22t-81 22q-35 9 -71 10q-7 0 -14 -1q-86 -4 -147 -66.5t-99 -156.5t-52 -206q-8 -66 -7 -129q-1 -45 3 -89zM378 516v19q0 97 9 190q2 20 14.5 53t27.5 68t31.5 67.5t26.5 55.5h19q32 0 59 5q35 7 62.5 4t50 -23.5 t43.5 -77.5q14 -39 39 -80q12 -20 22.5 -76.5t15.5 -129.5t5 -155q0 -80 -5 -148.5t-17.5 -117.5t-32.5 -59q-16 6 -34 -3.5t-36.5 -21.5t-40 -24.5t-45.5 -12.5q-61 0 -99 21.5t-58.5 56.5t-30 82t-15.5 98q-10 102 -11 209z" />
<glyph unicode="e" horiz-adv-x="1060" d="M133 540.5q2 -22.5 10.5 -41t18.5 -39t14 -50.5q12 -90 36 -167t68 -132.5t112.5 -88t170.5 -32.5q33 0 67 -17.5t70 -25.5q13 -3 28 -3q25 0 52 9q43 14 99 78q14 16 41.5 54t54 80t45 82t16.5 60q-4 29 -25.5 50.5t-49.5 -1.5q-25 -2 -40.5 -24.5t-32 -56t-39 -71.5 t-61 -68t-100.5 -46q-38 -10 -87 -10q-31 0 -66 4q-37 4 -67 58q-30 52 -41 120q-6 34 -5 68q0 34 5 66q11 66 56 93q41 0 88 -1h15q38 0 73 4q23 4 40.5 14t41.5 12q14 1 28 1q45 0 85 -10q45 -11 77 -11h10q36 2 56.5 36.5t22.5 139.5v12q0 46 -14 89q-16 48 -52 87 q-23 23 -27.5 51.5t-21.5 53.5q-43 57 -132 87q-74 25 -156 26q-17 0 -33 -1q-100 -6 -189.5 -53t-130.5 -141q-33 -74 -62.5 -140.5t-58.5 -144.5q-12 -37 -10 -59.5zM421 687q-3 16 -3 33q0 20 4 41q8 40 24 73q14 27 37 65.5t47 54.5q28 17 56 17q16 -1 34 -7 q46 -16 80 -55t52 -90q14 -39 13 -71q0 -11 -1 -21q-6 -49 -45 -70.5t-84 -21.5q-29 0 -53.5 -12.5t-53.5 -14.5h-8q-46 0 -68 22q-24 24 -31 57z" />
<glyph unicode="f" horiz-adv-x="854" d="M57 41q2 -16 8.5 -23.5t14.5 -7.5q10 0 21.5 4t21.5 9q31 10 56.5 -7.5t49.5 -31.5q27 -15 72 -15q5 0 9 1q52 1 114.5 7.5t125.5 7.5h8q59 0 106 -16q35 -10 48 13.5t-16 46.5q-37 31 -85 56.5t-91 57.5q-29 80 -46 175.5t-21 195.5q-1 25 -1 50q0 74 9 148 q12 97 41 177q20 55 49 63.5t58.5 4t57 -3.5t44.5 44q8 22 8 37q0 17 -11 22q-22 11 -59 13t-75.5 10t-51.5 49q-4 12 -6 45q-1 9 -1 19q0 23 4 46q5 32 16.5 55.5t33.5 21.5q2 0 25.5 -18.5t57.5 -40t73 -38.5q31 -13 57 -13q7 0 12 1q31 4 50 38q13 26 13 76q0 17 -1 36 q-6 66 -42 104.5t-88 53.5q-41 13 -88 13q-12 0 -24 -1q-61 -4 -117.5 -22.5t-100.5 -47.5t-60 -61q-35 -66 -71 -139.5t-66 -139.5q-10 -23 -31 -35t-39 -22t-31.5 -22.5t-7.5 -35.5q10 -35 29.5 -47t41 -21t41 -28.5t29.5 -70.5q6 -35 12.5 -111t9.5 -160t3 -157 q0 -74 -6 -105q-8 -33 -11 -69.5t-20 -65.5q-10 -18 -38.5 -30.5t-57.5 -25t-49.5 -27.5t-16.5 -42z" />
<glyph unicode="g" horiz-adv-x="1058" d="M115 248q0 -80 11 -111t27.5 -43t33 -22.5t26.5 -48.5q8 -33 -2 -55.5t-27.5 -44t-36 -44t-27.5 -53.5q-5 -17 -5 -39q0 -16 3 -35q7 -43 40 -104q6 -12 49 -28.5t104.5 -34t133 -31t137.5 -20.5q43 -4 79 -4q21 0 41 1q52 4 72 23q39 33 63.5 53t40 38.5t22.5 44 t13 72.5q25 25 48.5 63t36.5 80q10 36 10 72v12q-2 42 -25 74q-8 10 -27.5 29t-42 38.5t-43 34.5t-32.5 19q-8 2 -26.5 2t-47.5 -2q-59 -4 -134 -9t-155 -6h-13q-72 0 -125 10q-58 11 -84 38q-11 12 -11 27q0 21 20 49q12 18 30.5 28.5t37 18.5t35 20.5t24.5 36.5 q72 -59 127 -69q18 -4 36 -4q35 0 68 14q50 22 96 66.5t99 93.5q16 16 25.5 65t12.5 107.5t3 117.5t-2 95.5t-2 38.5q0 -2 10 -28t31.5 -56.5t52.5 -41.5q10 -4 20 -4q24 0 54 18q43 26 94 114q14 23 14 43q0 11 -4 21q-14 28 -47 45.5t-77 23.5q-33 5 -63 5q-9 0 -19 -1 q-29 -2 -52.5 -27.5t-54.5 -39.5q-17 -8 -37 -8q-18 0 -38 6q-44 12 -113 83q-23 2 -55.5 7t-67.5 8h-24q-22 0 -42 -2q-31 -5 -47 -21q-59 -57 -111.5 -91t-88 -74t-51.5 -100q-8 -32 -8 -78q0 -41 7 -93q2 -20 12.5 -44t21.5 -48.5t20.5 -46t9.5 -37.5q0 -33 -13.5 -65 t-29 -59.5t-28.5 -49t-13 -33.5zM256 -131q4 59 49 90q28 19 60 19q20 0 41 -7q18 -6 56 -11t85 -10t97 -10.5t93 -10.5t74 -11t37 -14q6 -6 9 -21.5t6 -32t5 -34t2 -25.5q0 -6 -12 -24.5t-29.5 -37t-35 -32.5t-23.5 -16q-29 -4 -47 -6.5t-43 -20.5q-8 -6 -43 -10 q-23 -3 -52 -3q-15 0 -31 1q-48 2 -102.5 12t-98.5 35.5t-73 68.5q-24 38 -24 95v16zM348 573q-4 8 0 38t10.5 64t12.5 66.5t6 49.5q0 33 5 66.5t20.5 55t43.5 23.5h3q27 0 65 -25q51 -35 76.5 -59.5t35.5 -51.5q8 -25 8 -57v-7q-1 -36 -1 -93q0 -53 1 -85t-7.5 -58.5 t-30 -52t-61.5 -64.5q-18 4 -38 16.5t-39.5 27.5t-38 31.5t-32.5 28.5q-6 23 -17.5 43.5t-21.5 42.5z" />
<glyph unicode="h" horiz-adv-x="1191" d="M64 1384q0 -26 34 -57q53 -14 88 -72.5t54.5 -147.5t25.5 -197q4 -72 4 -148q0 -37 -1 -75q-3 -114 -14 -223.5t-25.5 -198.5t-31 -148.5t-30.5 -73.5q-3 -13 -3 -23q-1 -24 15 -36q22 -18 58 -22q8 -1 15 -1q27 1 56 9q37 10 56 28q16 -10 36.5 -19.5t43 -14.5t44 -4 t39.5 13q22 15 22 55v4q-1 42 -16.5 101.5t-37 131t-38 146t-21.5 147.5q-1 15 -1 30q0 56 15 104q8 29 35.5 71t64.5 80q37 37 78 63q38 24 68 24h5q49 -4 83 -59.5t51.5 -139.5t21.5 -183q1 -33 1 -65q0 -65 -5 -127q-8 -92 -27.5 -163.5t-48.5 -98.5q-10 -35 9.5 -55.5 t55.5 -30.5t81 -14q36 -3 70 -3h17q42 1 74.5 4t42.5 3q27 20 26 41.5t-14.5 42t-29.5 41t-18 41.5q-6 41 -7 117q0 76 -2 167t-5 188t-14 181t-31.5 146.5t-53.5 83.5q-41 25 -88 29.5t-90 21.5q-41 -10 -74 -18.5t-62.5 -20.5t-58 -29.5t-63.5 -46.5q-27 -23 -41 -13 q-13 10 -16 42q-2 24 -2 57v23q1 48 3 103q1 27 1 54t-1 55q-2 54 -13 98t-34.5 71.5t-66.5 29.5q-18 0 -55 -3t-80 -11t-83 -23q-41 -14 -65 -34q-26 -22 -26 -48z" />
<glyph unicode="i" horiz-adv-x="632" d="M94 997q0 -2 20.5 -21.5t46 -47t50.5 -60t33 -59.5q2 -6 4 -37t4 -75t5 -95t4 -97t2 -79t1 -41q-2 -16 -8 -36.5t-12 -42t-9.5 -41t1.5 -34.5q-10 -33 -21.5 -73.5t-38.5 -63.5q-16 -14 -34.5 -27.5t-14.5 -37.5q4 -29 27.5 -42.5t54.5 -16.5t61.5 3.5t48.5 16.5 q20 10 62.5 2t86.5 -12q9 -1 17 0q34 0 61 12q34 14 36 69q0 33 -14.5 48.5t-33 34t-34 52t-15.5 103.5q0 41 -15 81t-15 81q2 31 11 59.5t11 59.5q0 29 -7 54t-5 54q0 31 8 61.5t8 61.5q-2 29 -14 52.5t-12 51.5v48t-6.5 46t-21.5 36.5t-46 17.5q-12 1 -24 1q-26 0 -51 -6 q-36 -9 -73 -14q-18 -2 -42.5 2.5t-47.5 4.5q-20 0 -34.5 -11.5t-14.5 -42.5zM220 1442q-7 -21 -7 -45q0 -39 20 -84q39 -85 85 -97q13 -4 27 -3q31 0 59 22q38 31 62 89q20 47 20 94q0 11 -1 22q-2 25 -15 41t-26 37q-24 38 -71 38h-2q-49 0 -90 -29t-61 -85z" />
<glyph unicode="j" horiz-adv-x="737" d="M6 -276q-2 -9 -2 -19q0 -38 26 -72q31 -43 91.5 -73.5t131.5 -38.5q18 -2 36 -2q53 0 105 17q71 24 122 89q37 47 56.5 104.5t48.5 110.5q4 6 6 57.5t2 131.5v182t-2 204.5t-4 205t-5.5 180.5t-7.5 131t-8 57q-33 47 -54.5 63.5t-44 17.5t-50 -6t-72.5 -7q-35 0 -53.5 9 t-35 14t-36.5 -1t-55 -37q-23 -16 -32 -32.5t13 -40.5q29 -31 72 -49.5t85 -41t71.5 -55t31.5 -88.5v-35q0 -150 -15 -298q-17 -166 -17 -332q0 -39 8 -95.5t8 -111.5t-14.5 -100.5t-59.5 -61.5l-33 -16q-12 8 -22 28.5t-21.5 44t-28 46t-40.5 36.5q-23 12 -38 14.5 t-28.5 -3t-27 -15.5t-31.5 -22q-68 -41 -76 -90zM367 1415q-1 -8 -1 -15q0 -31 13 -60q16 -37 45 -60t66 -26h6q33 0 67 26q18 14 29.5 31.5t30.5 31.5q25 20 32 32.5t7 47.5v12q0 64 -20 87q-21 24 -53 22t-69 -15t-65 -13q-35 0 -59.5 -35t-28.5 -66z" />
<glyph unicode="k" horiz-adv-x="1259" d="M100 1412q28 -38 77.5 -59.5t96.5 -30.5l48 -9q0 -4 4 -32t8 -67.5t4 -60.5q0 -88 4 -200.5t8 -229.5t5 -225v-24q0 -93 -7 -163q-8 -78 -37.5 -117.5t-62.5 -61t-57.5 -34t-22.5 -32.5q0 -14 7 -32t15 -28q20 -33 38 -38t34.5 1t34.5 17.5t43 11.5q39 0 91 -5 q43 -4 87 -4h18q52 1 99 12t78 42q20 4 35.5 -5t31 -22.5t31.5 -23.5t41 -10q80 4 154 9q41 3 86 3q35 0 71 -2l101 57q0 2 -26 28.5t-65.5 69.5t-87 96.5t-91.5 108t-76.5 103.5t-43.5 82q-5 17 -5 37q-1 24 7 54q14 54 46 106t73 91t80 45q12 2 47 15.5t67 31t50 38 t-2 38.5q-16 14 -61.5 26.5t-103.5 21t-120 9.5h-14q-53 0 -97 -6q-50 -8 -79 -26.5t-21 -50.5q6 -25 24.5 -42.5t37 -34t32 -38t11.5 -51.5q-2 -25 -26.5 -68t-59.5 -80t-73 -55q-17 -8 -32 -8q-18 0 -32 12q-31 27 -46.5 85t-21.5 134q-5 57 -5 119q0 21 1 42q2 85 6 165 q4 79 7 147q1 29 1 53q0 32 -2 54q-2 25 -32.5 48.5t-76.5 41.5t-100.5 31.5t-104.5 17.5q-17 1 -32 1q-31 0 -56 -5q-38 -8 -52 -29q-21 -32 -21 -58q0 -20 12 -37zM549 287q-2 25 3 61.5t10 60t5 27.5l49 -13q48 -13 106 -49t107.5 -101t53.5 -169q0 -16 -18.5 -30.5 t-46 -23.5t-57.5 -11t-48 4q-16 6 -35 7t-37 3t-34.5 7.5t-28.5 19.5q-10 14 -15.5 40.5t-8.5 57.5t-3 60q0 31 -2 49z" />
<glyph unicode="l" horiz-adv-x="643" d="M74 1462q-8 -25 4 -43t31.5 -33.5t42 -30t34.5 -28.5q25 -29 39.5 -88t22.5 -136t10 -163t2 -168q0 -80 -1 -148.5t-1 -107.5q0 -41 -12 -79q-10 -31 -11 -63q0 -8 1 -16q2 -27 9 -51t7 -51q0 -53 -33 -86t-67.5 -57.5t-55 -45t3.5 -47.5q4 -6 50.5 -15t107.5 -16t129 -8 h11q61 0 105 10q47 11 67 37q7 9 7 21q0 21 -22 51q-25 35 -55.5 71t-30.5 83q0 18 5 28.5t8 19.5t3 20q0 10 -12 28q-2 2 -5 54.5t-7 129t-7 168t-7.5 174t-6.5 146t-2 84.5q0 29 8 85q9 57 15 117q5 52 5 96v15q-1 51 -20 70q-37 37 -99 38h-8q-59 1 -115 -13 q-60 -14 -105 -32t-45 -20z" />
<glyph unicode="m" horiz-adv-x="1871" d="M137 987q0 -25 24.5 -44t54.5 -41.5t55.5 -50.5t29.5 -65q3 -44 3 -88q0 -22 -1 -43q-2 -65 -22 -127q35 -70 37 -130v-10q0 -54 -16 -102q-17 -52 -47 -95.5t-55.5 -77t-42 -57t-5.5 -38.5q14 -20 27.5 -37.5t41.5 -21.5q9 -1 19 -1q25 0 54 7q40 10 83 19.5t86 11.5h9 q38 0 73 -16q23 -12 48 -7.5t42 27.5q23 33 8.5 52.5t-42.5 34.5t-55.5 28.5t-33.5 36.5q-8 38 -11 110q-1 31 -1 64q0 45 2 96q4 88 18.5 180t39 168t62 125t91.5 51q31 0 60.5 -17.5t52 -44t37 -58t11.5 -60.5q-1 -24 -1 -49q1 -48 5 -103q8 -84 13 -170q5 -64 5 -126 q0 -20 -1 -40q-2 -80 -29 -141q-8 -20 -27.5 -33.5t-36 -25.5t-24.5 -25.5t8 -34.5q18 -27 45 -27.5t55.5 3.5t55.5 5t47 -19q14 0 29.5 4t25.5 14q27 0 53.5 -5t52.5 -9t52.5 -2t50.5 14q37 16 47 43q2 5 1 9q0 21 -39 36q-12 18 -25 18q-12 0 -23.5 -5t-23.5 -4t-27 24 q-37 59 -50 136q-12 72 -12 147v12q1 82 10 161.5t13 145.5q2 27 18.5 67.5t41.5 76.5q24 35 56 57q21 14 41 14q11 0 22 -4q29 -10 60.5 -22.5t55.5 -33.5q18 -16 32.5 -65t24 -115.5t14.5 -143.5q5 -78 6 -148v-34q0 -50 -2 -92q-3 -56 -9 -81q-8 -31 -37 -58.5 t-57.5 -52.5t-45 -48.5t0.5 -45.5q14 -18 22 -19.5t27 9.5q12 6 49 4t84 -6.5t100 -9.5q44 -4 85 -4h15q48 1 84 9t48 31q20 34 20 58v6q-4 26 -22.5 46.5t-44 38t-46.5 42.5q-41 47 -47 115q-3 37 -4 76q0 32 3 68q5 78 13 161q3 35 3 68q-1 47 -7 94q-10 79 -48 150.5 t-126 125.5q-25 14 -52 19t-55 7t-57.5 4t-56.5 15q-12 -8 -56 -32t-94 -48.5t-91 -44t-48 -19.5q-47 70 -94 98.5t-93 30.5h-10q-41 0 -80 -15q-44 -17 -84 -37.5t-76 -38.5q-32 -17 -60 -17h-6q-35 25 -70 50.5t-74 47.5q-16 10 -59 6t-88 -17t-79 -33.5t-34 -41.5z" />
<glyph unicode="n" horiz-adv-x="1224" d="M117 39q-1 -8 -1 -15q0 -34 16 -52q20 -20 52 -22h6q30 0 67 9q40 10 76 24.5t63.5 25.5t33.5 11q29 -4 38 -18t28 -14q27 0 51 9t20 44q-2 20 -12 28.5t-23.5 15.5t-28 19.5t-24.5 43t-11 62.5t-1 64q0 33 -1 66t-11 66q-4 8 2 41.5t16 79.5t22.5 100.5t23.5 106.5 t17 98q5 36 5 60v13q25 16 76 33.5t103 21.5q12 1 23 2q38 0 70 -12q41 -16 47 -65q2 -33 5 -84t5 -112.5t3 -125t3.5 -119t5.5 -95.5t5 -54q4 -19 4 -37q-1 -34 -15 -66q-22 -48 -49.5 -84t-41 -62t17.5 -40q39 -17 74 -17h11q40 3 82 7q17 2 35 2q27 0 55 -4 q48 -6 107 -45q45 -2 57.5 18.5t2.5 53t-34 71.5t-48.5 78t-44 70.5t-17.5 50.5q2 23 4.5 71t5.5 109t4 128t1 124t-3 99t-12 55q-66 109 -125 161q-60 52 -126 58q-10 1 -19 1q-58 0 -125 -30q-78 -35 -176 -100q-25 20 -47.5 41.5t-46 40t-51 30t-60.5 11.5q-25 0 -69 -12 q-45 -12 -76 -32q-33 -21 -33 -46q0 -24 59 -46q47 -18 70 -58t30 -93q4 -31 4 -64q0 -23 -2 -49q-5 -60 -13.5 -120t-16.5 -113.5t-8 -89.5q0 -29 9 -53.5t7 -53.5q-2 -66 -24.5 -92.5t-49 -41.5t-50 -30.5t-27.5 -56.5z" />
<glyph unicode="o" horiz-adv-x="1169" d="M140.5 648q-1.5 -25 0.5 -51t6.5 -51.5t4.5 -51.5q0 -86 21.5 -164t64.5 -142.5t107.5 -110.5t150.5 -65q25 -43 50 -54t53 -6t56.5 18.5t59.5 19.5q23 4 43 1t39 -3q18 0 36.5 5t36.5 23q43 43 89.5 101.5t84 125t61 135.5t23.5 132q0 39 -11 77t-15 76.5t-12.5 85 t-32.5 78.5q-18 25 -44 42.5t-44 41.5q-12 16 -37 43t-53.5 52.5t-57 44t-49.5 16.5q-31 -2 -52.5 2t-39.5 10t-36.5 11.5t-43.5 5.5q-80 0 -150.5 -37t-128 -93.5t-100.5 -127t-69 -138.5q-10 -27 -11.5 -52zM370 368q4 46 13 99q2 29 3 71l2 84t7 80.5t21 61.5 q8 14 31.5 44t50 62.5t51 58t39.5 29.5q20 6 34.5 8.5t32.5 -8.5q29 -16 59.5 -27t53.5 -36q29 -33 45 -78t24.5 -94t8.5 -98t-4 -90t-4 -74v-21q1 -27 1 -53v-25q-1 -38 -10.5 -78t-35.5 -96q-10 -23 -24.5 -43t-34 -35.5t-42 -21.5t-49.5 2q-29 8 -46 0t-31.5 -14t-30 -1 t-37.5 40q-14 23 -31.5 37t-34.5 34q-14 18 -17 43t-16 45q-29 41 -29 82q-1 6 0 12z" />
<glyph unicode="p" horiz-adv-x="1224" d="M59.5 1012.5q-8.5 -19.5 10.5 -49.5q12 -23 42.5 -38.5t63.5 -30.5t60.5 -31.5t33.5 -41.5q14 -59 16 -106q1 -16 1 -31q0 -31 -3 -60l-10 -88q-4 -25 -4 -55q0 -21 2 -45q4 -74 12.5 -148.5t15.5 -150.5t9 -153q1 -19 1 -38q0 -56 -5 -112q-4 -59 -29.5 -94t-55.5 -56.5 t-53.5 -35t-25.5 -27.5q-2 -27 25 -41t70 -20t94 -6q53 0 102 2t88 4t55 2h6q45 0 45 34q0 30 -20 76q-22 49 -54 110.5t-50 119.5q-13 37 -13 70q0 17 3 33q10 46 71 65q27 -18 56.5 -32.5t60.5 -27.5q2 -14 24.5 -22t51 -11.5t56.5 -2.5t40 1q35 2 68.5 26t62.5 56.5 t48.5 70.5t25.5 69q6 33 26.5 72.5t45 83.5t46 90t31.5 93q6 25 6 50q0 23 -4 45q-10 47 -47 92q-25 29 -50.5 79t-54 100t-61 90t-69.5 48q-72 14 -120 32q-44 17 -84 17q-3 0 -6 -1q-42 -1 -86 -27.5t-106 -97.5q-49 33 -102 59.5t-107 50.5q-14 -4 -41.5 -5t-61.5 -2 t-66.5 -6t-55 -16.5t-31 -31zM511 580v17q0 52 5 85q6 45 14 87q5 23 5 48q0 20 -3 41q59 84 138 94q12 2 25 2q67 0 143 -45q27 -16 53.5 -77.5t44.5 -144.5t24 -178q2 -27 2 -53q0 -65 -12 -123q-16 -81 -59 -137.5t-121 -62.5q-8 -1 -16 -1q-45 0 -90 20q-52 22 -84 71 q-23 33 -37.5 95.5t-22.5 130t-9 131.5z" />
<glyph unicode="q" horiz-adv-x="1153" d="M150 666q-6 -45 -6 -92q0 -57 10 -118q16 -110 60 -214.5t115.5 -172t170.5 -79.5q14 -2 29 -2q87 0 194 63l55 -20q23 -80 36 -127q11 -41 11 -75v-10q-2 -38 -24.5 -80t-71.5 -112q0 -18 29.5 -36.5t74 -34t97.5 -25.5t103 -11h10q44 0 79 8q38 9 52 34q16 27 10 48 t-23.5 35.5t-43 22.5t-46.5 13q-37 74 -48 189q-9 89 -9 191q0 28 1 57q3 134 14 276.5t19 267.5q6 111 6 203v25q-1 101 -24 152q-6 16 -18.5 29.5t-28.5 18.5q-16 2 -32.5 -10.5t-32 -31t-26.5 -38t-20 -29.5q-8 -12 -25.5 -13t-35.5 5t-33.5 17t-21.5 22 q-18 37 -60.5 58.5t-91.5 28.5q-26 4 -53 4l-45 -3q-49 -6 -82 -25q-59 -31 -92 -54.5t-49.5 -43t-22.5 -36.5t-10 -34.5t-12.5 -39t-30.5 -50.5q-43 -53 -57 -151zM399 397v28q0 75 9 151q10 92 25.5 168.5t31.5 129t27 62.5q39 31 57 47t31.5 17t32 -13t57.5 -43 q63 -47 92 -106.5t39 -125t12 -131t12 -124.5q5 -28 5 -54q0 -19 -3 -37q-6 -42 -21 -82t-35.5 -80t-39.5 -83q-89 -52 -151 -52h-6q-64 3 -102 46t-54.5 118.5t-18.5 163.5z" />
<glyph unicode="r" horiz-adv-x="876" d="M99 64.5q-7 -29.5 1.5 -50t42.5 -22.5l160 -10q10 0 40 1t61.5 3t59.5 5t36 7q37 16 44 28.5t-2.5 26t-29.5 28.5t-41.5 37.5t-38 52.5t-16.5 73q0 76 14 148.5t16 146.5q0 37 -5 98q-4 51 -4 103v20q1 62 17.5 116t59.5 76q6 2 16.5 -10t20.5 -29.5t20.5 -33t16.5 -17.5 q20 -35 57 -51t78 -17h6q38 0 74 11q39 12 65 37q26 24 32 59q1 7 1 15q0 29 -20 65q-12 23 -47 38t-58 28q-23 10 -38 27.5t-42 17.5q-29 0 -59.5 -12.5t-59 -27t-52 -26.5t-38.5 -12q-16 0 -34.5 9t-38 21.5t-38 21.5t-34.5 9q-25 0 -48.5 -8.5t-45.5 2.5q-23 -6 -44.5 -9 t-43.5 6q-23 -12 -39.5 -23t-18.5 -39q0 -14 7.5 -24.5t17.5 -19t21.5 -16.5t17.5 -16q25 -31 41 -92q17 -62 23 -130q4 -40 3 -80q1 -28 -1 -54q-4 -64 -19 -99q-12 -31 -10 -51.5t7 -36.5t10 -33.5t-1 -44.5q-4 -14 -19.5 -42.5t-36 -63.5t-39 -71t-25.5 -65.5z" />
<glyph unicode="s" horiz-adv-x="919" d="M104 809q2 -143 31 -215t85 -106.5t142.5 -50t204.5 -48.5q39 -10 72 -38.5t68 -49.5q14 -8 29.5 -20.5t8.5 -26.5q-49 -113 -100 -158t-102 -46h-4q-49 0 -97 26q-50 28 -100 61q-10 23 -20.5 43.5t-24.5 38.5q-8 10 -21.5 33.5t-26.5 49.5t-24.5 45.5t-17.5 19.5 q-20 4 -30.5 -15.5t-13.5 -51.5q-2 -24 -2 -53v-20q1 -41 1 -82q0 -39 -3 -74.5t-16 -56.5q-10 -18 -4 -34.5t20.5 -20.5t33 11.5t30.5 60.5q29 -4 55.5 3t53.5 11q31 -31 60.5 -50.5t62 -28.5t71.5 -11t86 -2q49 0 89 25.5t70 65.5t50.5 90t33.5 100.5t20.5 96.5t7.5 79 q0 29 -38 69.5t-90.5 76.5t-106.5 60q-43 20 -74 20q-8 0 -15 -1q-11 -2 -23 -2q-25 0 -52 9q-40 13 -74.5 38t-63.5 56.5t-41 66.5q-8 21 -8 39q1 20 11 36q20 30 57.5 49t84 26.5t76.5 7.5q10 0 34 -27t49.5 -61.5t46 -67.5t26.5 -45q-6 -35 -6 -52q0 -12 4 -14 q8 -4 25.5 27t40 84t42 104.5t34.5 88.5l14 38q-18 31 -38 33t-41.5 -6t-44 -20.5t-44.5 -12.5q-20 0 -67.5 18.5t-104 36t-114.5 21.5h-14q-49 0 -87 -25q-39 -27 -72 -52t-56.5 -56t-36 -70t-12.5 -94z" />
<glyph unicode="t" horiz-adv-x="782" d="M0 1028q0 -55 31.5 -84t70.5 -41t71 -13l32 -1l-9 -63q-10 -62 -17 -158t-9 -210v-29q0 -99 12 -189q14 -104 49 -184.5t101 -106.5q18 -8 30.5 -13.5t23.5 -6.5t24.5 2t31.5 12q31 12 59.5 14t56.5 4t53.5 12.5t47.5 40.5q18 25 34 81.5t23 118.5q4 36 4 70q0 24 -2 46 q-5 54 -28 78q-27 23 -39 5t-20 -57t-16.5 -89t-24.5 -93q-18 -44 -46 -70q-20 -18 -48 -18q-13 0 -29 4q-35 8 -56.5 61.5t-31.5 131t-11 169.5v24q0 80 6 154q7 85 22.5 153.5t37.5 97.5h26q100 -1 160 27q68 32 74 74q1 4 1 8q0 38 -53 76q-58 42 -191 60q-35 4 -47.5 38 t-15.5 78q-2 26 -2 53q0 18 1 36v17q0 33 -6 57q-12 45 -34.5 49t-47.5 -13.5t-44 -47t-26 -54.5q-4 -18 -4 -43q0 -23 1 -48t0 -49.5t-7 -43.5q-6 -20 -41 -26.5t-75 -15.5t-71.5 -26.5t-31.5 -58.5z" />
<glyph unicode="u" horiz-adv-x="1200" d="M86 996q-5 -5 -5 -13q0 -22 38 -63q14 -16 26.5 -44t32.5 -36q31 -31 41 -90.5t10 -135.5q0 -74 -5 -156q-3 -52 -3 -101q0 -29 1 -57q3 -75 19.5 -136.5t57.5 -93.5q75 -59 137 -83q50 -19 97 -19q12 0 24 1q59 6 121.5 40t134.5 91q6 -14 17.5 -38.5t24.5 -47t30.5 -37 t38.5 -10.5q25 6 65 6q41 0 81 7.5t69.5 27t29.5 64.5q0 23 -22.5 31t-36.5 18q-20 14 -31.5 33.5t-19.5 42t-13.5 46t-13.5 44.5q-11 27 -11 75q0 14 1 28q4 68 13 150.5t17 169.5q6 59 7 112q0 26 -2 48q-4 72 -25.5 123t-73.5 60q-31 6 -90 9q-15 1 -29 1q-43 0 -85 -7 q-54 -9 -84 -38q-15 -15 -14 -36q0 -21 14 -50q18 -35 39.5 -49.5t43 -27.5t38 -36.5t22.5 -77.5q6 -59 6 -116v-27q-2 -70 -8 -138t-11 -136q-4 -49 -4 -100q0 -21 1 -42q-31 -41 -77 -66.5t-93 -41.5q-76 29 -117 67.5t-59.5 86.5t-18.5 102q0 53 6 110.5t14.5 116.5 t8.5 119q0 25 -3 73t-9.5 100t-12.5 99t-12 72q-12 49 -43 56q-13 3 -27 3q-20 0 -41 -6q-37 -10 -74.5 -29.5t-66.5 -21.5q-66 -6 -86 -26z" />
<glyph unicode="v" horiz-adv-x="1200" d="M82 1004q-11 -23 -11 -41q0 -20 13 -35q25 -29 65.5 -52.5t83.5 -48t60 -63.5q14 -35 31.5 -65.5t35.5 -63.5q16 -29 33 -89.5t33 -135t33.5 -155.5t36 -148.5t40 -114.5t44.5 -55q18 -6 40.5 2t43 25.5t37 38t20.5 38.5l133 479q8 27 22.5 50.5t30 47t29.5 46t22 51.5 q8 33 38 62.5t67 59t72 57t55 56.5q21 28 21 48q1 12 -7 20q-20 22 -70 30q-41 7 -94 7h-26q-68 -2 -133.5 -8.5t-116.5 -13.5t-66 -7l-14 -104q-18 0 -28.5 18t-19.5 41t-19.5 42t-26.5 24h-449q-12 -2 -33.5 -17.5t-25.5 -25.5zM539 764q2 43 26.5 76.5t60.5 53.5 q36 22 74 26q9 1 18 1q28 1 53 -11q32 -14 47 -51q8 -20 8 -47q0 -22 -5 -48q-16 -68 -33.5 -131.5t-46.5 -124.5q-4 -10 -16 -42t-27.5 -63.5t-32 -54t-28.5 -16.5q-18 10 -34.5 55t-29 100.5t-18.5 106.5t-6 74q0 25 -5 48t-5 48z" />
<glyph unicode="w" horiz-adv-x="1650" d="M101 975q1 -29 49 -72q10 -10 18 -10q10 0 20.5 -3t23.5 -18.5t32 -54.5q31 -63 61.5 -126.5t57 -130t43 -136.5t16.5 -145q0 -27 10 -43.5t23.5 -28.5t25 -24.5t13.5 -32.5q2 -16 2 -44q0 -27 3 -53t12 -48.5t28 -31.5q10 -4 19 -4q24 0 44 25q28 35 51 95.5t44.5 134 t46 139t52 109.5t62.5 44q27 0 48.5 -45t39 -111.5t35.5 -142.5t39.5 -136.5t48.5 -96.5q19 -24 41 -24q10 0 20 5q10 4 35 56.5t54.5 130t63.5 169t63.5 175.5t52 149.5t31.5 87.5q23 59 67.5 101.5t82.5 77t58 66.5q8 13 7 27q0 21 -17 44q-37 51 -93 61q-18 3 -36 3 q-40 0 -82 -15q-25 -8 -49.5 -13.5t-46 -15.5t-35.5 -27.5t-16 -50.5q-4 -29 14.5 -52.5t24.5 -51.5q1 -4 1 -11q0 -20 -10 -60q-12 -54 -32.5 -116.5t-42 -125t-35.5 -99.5t-16 -41q-2 2 -14.5 39t-32 96.5t-38 119t-32 109.5t-13.5 68q0 23 7.5 36t15.5 26.5t14 32t4 49.5 q-2 37 -19 42t-48 9h-8q-48 0 -92 -42q-48 -46 -90 -120t-75.5 -160t-59 -159.5t-39.5 -123.5l-13 -50l-41 10q0 4 -8 63.5t-23.5 152.5t-34 182t-41 155.5t-47.5 70.5q-18 4 -61 7.5t-92 3.5q-47 0 -93 -7.5t-73 -23.5t-26 -45z" />
<glyph unicode="x" horiz-adv-x="1169" d="M82 1008q0 -35 27 -52q20 -12 38.5 -13t35 -2t33.5 -8t40 -30q37 -39 83 -84t89 -95t75 -103.5t38 -108.5q2 -25 -10.5 -61.5t-33 -73.5t-45 -67.5t-44.5 -43.5l-283 -170q-13 -27 -13 -48q0 -22 17 -36q31 -26 87 -30q18 -1 37 -2q39 0 83 6q64 10 107.5 20t48.5 10 q16 16 20 50q3 27 3 58v16q-1 40 -3 83v21q0 31 4 57q6 35 23.5 57.5t54.5 22.5q23 0 38 -16.5t30 -30.5q16 -18 32.5 -45t27.5 -55.5t13 -58.5t-10 -54q-8 -14 -23.5 -34.5t-7.5 -37.5q8 -18 42 -28.5t81 -14.5t101 -4q55 0 101 3t78.5 10.5t39.5 15.5q12 16 1.5 34.5 t-29.5 36t-42 29.5t-35 19q-14 6 -39.5 36.5t-55.5 73.5t-59.5 94.5t-55 98.5t-41 83.5t-15.5 53.5q0 63 38 115.5t91 96.5t111.5 81t100.5 69q41 30 57 58q5 9 5 18q0 19 -22 39q-16 2 -28.5 0t-25 -3t-26.5 -1q-12 0 -31 8q-62 26 -125 26q-17 -1 -35 -3q-80 -10 -137 -84 q-4 -6 4.5 -32t16.5 -61.5t14 -73.5q3 -16 3 -31q0 -18 -5 -34q-8 -28 -34 -40q-10 -4 -25 -4q-23 0 -56 11q-31 10 -42 31t-12 46.5t4 55t7 57.5t-4 51.5t-30 39.5q-18 12 -62.5 20.5t-100 13.5t-114.5 5t-108.5 -6t-81 -18.5t-31.5 -32.5z" />
<glyph unicode="y" horiz-adv-x="1079" d="M93 -330q11 -59 50 -103t105 -44q88 0 148.5 40t100.5 100.5t64.5 133t39.5 139t26.5 117.5t27.5 70q53 61 69.5 124.5t26 129t26 134.5t71.5 140q16 20 30.5 60.5t27 81.5t24.5 76.5t24 50.5q23 25 51.5 44t45 36.5t12.5 33t-43 29.5q-35 12 -77 22.5t-83 10.5 t-79 -13.5t-64 -50.5q-12 -16 -6 -27.5t18 -23.5l27.5 -27.5t25.5 -40.5q12 -31 14 -69q1 -13 1 -25q0 -27 -3 -56q-6 -42 -19 -84t-34 -75q-10 -16 -27.5 -60t-36 -94.5t-33.5 -95.5t-21 -65q-10 -31 -17.5 -7.5t-13.5 67.5t-12.5 91t-16.5 60q-31 37 -50 90t-30.5 112.5 t-13.5 119.5q-1 14 -1 29q0 42 5 79q2 23 13.5 43t23.5 36.5t19.5 28t5.5 15.5q-16 18 -69 25q-42 5 -90 5h-28q-63 -2 -119.5 -10t-78.5 -18q-33 -16 -47.5 -38t-0.5 -56q6 -12 20.5 -18.5t31 -9.5t33 -8t24.5 -18q53 -84 90 -198.5t59 -249.5q10 -57 33 -103.5t49.5 -89.5 t51 -85t38.5 -93q7 -26 7 -53q0 -9 -1 -19v-10q0 -31 17 -57q-4 -23 -19.5 -55.5t-38 -64.5t-48 -55.5t-50.5 -23.5q-18 0 -40.5 32t-52.5 64.5t-66 49.5q-12 7 -26 7q-25 0 -52 -20q-47 -35 -64 -95q-9 -36 -9 -71q0 -24 4 -47z" />
<glyph unicode="z" horiz-adv-x="978" d="M104 96q-6 -21 -6 -39q0 -30 17 -51q16 -18 33.5 -35.5t42 -15.5t45 13.5t43.5 15.5q72 10 143.5 12t142.5 8q4 0 18.5 -12t28.5 -12l116 -8q12 -1 23 0q45 0 83 10q48 14 79 53t31 123q0 10 -9 41.5t-23.5 62.5t-31 50.5t-30.5 6.5q-33 -29 -76 -82t-93 -100 q-49 -47 -105 -71q-23 -10 -47 -9q-33 0 -66 19q-29 16 -31 49v9q0 30 12 66q14 42 36 89t46.5 92t44 83t23.5 60q6 33 15 47.5t19.5 21.5t24 14t25.5 26q41 59 66.5 121.5t72.5 119.5q10 14 19.5 47t9.5 68t-10.5 61.5t-38.5 26.5q-41 0 -86 -2t-91 -3h-31q-31 0 -61 1 q-45 2 -84 8q-33 6 -65.5 6t-63.5 -6q-63 -12 -122 -41q-35 -16 -57 -72q-22 -55 -28 -115q-3 -24 -2 -47q0 -32 6 -60q10 -48 40 -48q8 0 29.5 23.5t49 57.5t61.5 71t68.5 64.5t68.5 39t60 -7.5q37 -24 45 -64q3 -17 3 -36q1 -23 -5 -47q-10 -43 -25 -87t-22 -77 q-4 -14 -39.5 -57t-86 -101.5t-104.5 -126t-94.5 -133t-56.5 -121.5z" />
<glyph unicode="{" horiz-adv-x="731" d="M78 666q104 -29 156.5 -89.5t75 -138.5t22.5 -166q0 -86 -2 -169t3 -153.5t37.5 -114.5t102.5 -56.5t197 24.5q6 31 0 40.5t-21.5 10.5t-36.5 1q-20 0 -42.5 10t-43 37.5t-32.5 87.5q-10 39 -5 99.5t11 129t5 139t-22.5 132t-69.5 107.5t-137 67q10 20 33 26t39 15 q33 14 57.5 39.5t49.5 50.5q23 23 33 66.5t12 97t-2 112.5t-7.5 114.5t-4.5 102.5t8 76q12 47 39.5 73.5t58.5 40t58.5 18.5t39.5 8t5 10.5t-48 27.5q-35 -6 -67.5 2t-67.5 6q-63 -2 -102 -37.5t-60.5 -91t-29 -126t-9.5 -141.5t-2 -136q0 -66 -6 -113q-8 -57 -26.5 -94 t-48 -62.5t-67.5 -44t-83 -38.5z" />
<glyph unicode="|" horiz-adv-x="538" d="M209 803q0 -109 1 -219.5t3 -215t5 -186.5t8 -134t12 -56q8 -27 21 -36t27.5 -5t29 16.5t26.5 28.5q14 20 23.5 67.5t13.5 108.5t4 131t-2 133.5t-6 115.5t-8 81q-12 92 -5 206.5t15 230.5t6 223.5t-33 185.5q-10 27 -33.5 42t-52.5 15q-27 0 -38 -37t-14 -84t-2 -92 t1 -63v-95q0 -66 -1 -159t-1 -203z" />
<glyph unicode="}" horiz-adv-x="733" d="M88 1509q-10 -18 1 -23t29.5 -4t36 4t23.5 3q18 0 38 -16.5t36 -39t29.5 -47t17.5 -38.5q10 -37 7 -117t-5 -167t5 -163t38 -106q27 -25 49.5 -49.5t55.5 -40.5q16 -8 32.5 -16.5t24.5 -24.5l-82 -39q-18 -45 -47 -73t-66 -54q-12 -8 -17 -48t-5 -98q0 -55 1 -120.5 t3 -125t2 -106.5q0 -49 -4 -68q-6 -31 -23.5 -45t-39 -20t-44 -7t-41 -4t-28 -14.5t-2.5 -38.5q55 -16 110.5 -21t102.5 7t79.5 49t43.5 107q4 35 15 72.5t-1 70.5q-12 29 -11 65.5t7 75.5t12 76t6 66q-16 23 -5 63.5t37 81.5t56.5 76t50.5 45q8 0 23.5 -1t31 1t26 9.5 t8.5 19.5q-4 27 -19.5 37t-36 13t-41 5t-35.5 12q-23 14 -36 44t-21 63.5t-13 67.5t-7 57q-4 31 -10.5 76.5t-11.5 95t-5 94.5q0 47 12 76q-16 6 -20 24.5t-6 32.5q-2 23 -14.5 47.5t-30 47t-38 42t-36.5 35.5q-29 4 -57.5 7t-57.5 13q-14 -6 -33.5 -8t-39 -5t-36 -10 t-24.5 -24z" />
<glyph unicode="~" horiz-adv-x="1079" d="M147 485q4 -45 33 -46t66 15.5t71.5 37t51.5 20.5q20 -2 38.5 -4t38.5 0q49 4 71 -4t36 -20.5t29.5 -26t50.5 -17.5t65.5 -11t61.5 -11t61.5 -1t65.5 17q33 14 66.5 52t48 79t2 77t-69.5 46q-18 -14 -43 -28.5t-52.5 -24.5t-55 -16.5t-50.5 -6.5q-33 2 -60.5 15.5 t-58.5 17.5q-43 6 -82.5 24.5t-82.5 20.5q-88 4 -152 -26.5t-119 -96.5q-16 -16 -25.5 -37.5t-5.5 -44.5z" />
<glyph unicode="&#xa1;" horiz-adv-x="653" d="M208 -158.5q-5 -72.5 1 -101.5q8 -59 47 -88t82 -35t81 5t46 36q27 84 29 169t-10.5 170t-32 170t-35 169t-21.5 168t13 166q45 20 68.5 63t17 91t-45 93.5t-114.5 69.5q-41 12 -66.5 -11.5t-37 -65.5t-8.5 -92t17.5 -89t41 -58.5t63.5 1.5q-10 -33 -25.5 -105.5 t-33 -166t-32.5 -198t-27.5 -196.5t-17.5 -164.5z" />
<glyph unicode="&#xa2;" horiz-adv-x="786" d="M104 844q-16 -80 1.5 -141.5t53.5 -110.5t81 -89t85 -76t67.5 -72t27.5 -76v-31q0 -14 5 -26.5t15.5 -16.5t30.5 4q23 8 29 27.5t8 42t3 45t13 38.5q23 29 57.5 44.5t66.5 31t55.5 41t23.5 74.5q0 61 -31.5 65.5t-71.5 -18t-74 -52.5t-36 -36q-2 37 -1 111.5t1 152.5 q0 80 -2 147.5t-10 90.5q10 -4 18 -23.5t22.5 -41t36 -39t60.5 -13.5q20 2 38.5 13.5t35 28.5t28 38t17.5 39q16 59 -5.5 98t-60.5 64.5t-86 44t-82 37.5q-18 10 -20 32.5t-3 46t-9.5 39t-40.5 11.5q-10 -2 -22.5 -25t-23 -52.5t-18.5 -58t-12 -41.5q-31 4 -42 -8t-30 -28 q-55 -53 -88 -81t-52.5 -57.5t-31.5 -71.5t-27 -122zM292 789.5q-3 50.5 0 102.5t16.5 97t43.5 74q21 19 27 -8q6 -23 7 -90.5t0 -146.5t-5 -150.5t-6 -98.5q-27 4 -33 22.5t-14 39.5q-8 16 -20.5 33.5t-12.5 37.5q0 37 -3 87.5z" />
<glyph unicode="&#xa3;" horiz-adv-x="980" d="M137 166q0 -27 5 -51.5t18 -32.5q63 -51 109 -73.5t84 -28t71 2t68.5 16.5t78.5 15t103 -2q41 -31 88 -29.5t90 21t77 50t50 61t10 53.5t-45 27q-12 0 -36.5 -17.5t-53.5 -37t-59.5 -33t-57.5 -3.5q-31 12 -37 45t-3 72t12.5 78t9.5 61q0 12 -9.5 39t-15.5 54.5t-5 48 t24 22.5q33 2 64.5 7.5t64.5 9.5q18 -20 38.5 -16.5t32 19t9.5 36t-29 34.5q-33 18 -69 21.5t-71.5 2.5t-70.5 -2t-66 9q-33 10 -72.5 68.5t-72.5 131.5t-52.5 142.5t-10.5 104.5q8 29 34.5 58.5t60.5 48t68 18.5q37 0 62 -31q16 -23 15 -48.5t-2 -53t5 -54t37 -51.5 q27 -20 54.5 1t43 60t13.5 82t-33 68q-29 23 -48.5 37t-31.5 23.5t-20.5 14.5t-16.5 7q-16 2 -41.5 3t-93.5 15q-10 -6 -29.5 -16t-42 -22.5t-41 -22.5t-24.5 -17q-33 -33 -51.5 -83t-23.5 -106t1 -111.5t25 -96.5q14 -35 37.5 -64.5t27.5 -66.5q2 -31 -25.5 -45t-58 -23.5 t-50 -17.5t0.5 -25q31 -23 52.5 -26.5t39 -0.5t32.5 6t32 -5l22 8q43 -16 79 -52t55.5 -81t17.5 -93t-35 -89q-12 -14 -24.5 -6t-28 22t-32.5 29.5t-40 15.5q-63 2 -98 0t-52.5 -5t-24.5 -8t-16.5 -12.5t-25.5 -13.5t-55 -12q-10 -10 -15.5 -33.5t-5.5 -50.5zM273 137.5 q-3 18.5 14 28.5q12 6 22 5t23 1q8 0 14 2t14 4q12 0 29 -2t30 -8t22.5 -17.5t7.5 -29.5q-4 -23 -22.5 -27t-35.5 -12q-29 -12 -54.5 -4t-43 24.5t-20.5 35z" />
<glyph unicode="&#xa4;" horiz-adv-x="1382" d="M-27 558.5q2 -21.5 16.5 -37t39.5 -15.5h143q55 -170 180 -304t279 -220q20 -12 58 -9.5t80 11t80 18.5t62 16q72 14 102.5 24.5t48 25t37 41t68.5 75.5l9 -4q35 2 61.5 45t38.5 97.5t10 103.5t-22 61q-16 -12 -34 -44.5t-33 -71.5t-26.5 -76t-13.5 -57 q-86 -84 -162.5 -120t-143.5 -34t-123 38t-98 94t-71 134t-41 160h19h63q49 0 112.5 -1t134.5 -2t134 -2t111 -1q47 0 63 2q31 2 48.5 19.5t18.5 39t-14.5 42t-46.5 30.5q-12 4 -57 5t-109 1q-61 0 -131.5 -1t-134 -2t-110 -2t-58.5 -1h-51q0 37 4 74t10 71l2 6q96 0 209 -1 t209 -1h164q68 0 72 2q37 12 52 34t15 42t-11 34.5t-28 14.5l-690 2q-8 45 -11 90.5t17 88.5q49 104 105.5 171.5t123 92t147.5 1t181 -98.5q2 -23 13.5 -41.5t26 -36t29.5 -33.5t26 -35q10 -16 10 -37q0 -18 10 -35q35 -61 57.5 -54t36 53t16.5 118t-2.5 142.5t-16.5 127 t-30 68.5h-36q-18 -14 -38 -36.5t-36.5 -49.5t-31.5 -54.5t-25 -47.5q-51 41 -94.5 85t-88.5 78.5t-99 55t-130 16.5q-18 -12 -59 -33.5t-92.5 -52.5t-104.5 -70.5t-92 -87t-65.5 -95.5t-45 -96t-33 -96t-28.5 -93q-29 2 -56.5 3t-52.5 -3q-35 -4 -50 -20.5t-15 -39.5 q0 -20 15 -40.5t46 -31.5q14 -4 37.5 -5t52.5 1q-4 -68 8 -145h-82q-31 0 -34 -2q-29 -12 -42.5 -34.5t-11.5 -44z" />
<glyph unicode="&#xa5;" horiz-adv-x="1419" d="M69.5 1395q6.5 -41 30.5 -74q39 -55 70 -71.5t57.5 -20.5t52 -6t55.5 -25.5t66.5 -80t85.5 -169.5h-61q-39 0 -76 -4t-65.5 -17.5t-30.5 -39.5q-6 -37 10.5 -51.5t48.5 -24.5q27 -6 62 -5t69.5 3t64.5 3t44 -5q12 -33 31.5 -60.5t29.5 -62.5q-37 -4 -76.5 -3t-78.5 1 t-77 -2t-75 -12q-33 -10 -49 -23.5t-12 -52.5q4 -31 57 -44t121 -16.5t133.5 1t93.5 6.5q10 -76 -1 -125t-34.5 -84t-52 -60.5t-54.5 -52.5t-42 -59.5t-14 -81.5q2 -63 26.5 -83t63.5 -15.5t87 23.5t99 31.5t99.5 9.5t86.5 -42q25 0 42.5 11.5t39.5 15.5q16 2 26.5 -2.5 t22 -9.5t25.5 -6t39 7l12 60q-57 18 -97 72.5t-62.5 122t-26.5 138t10 123.5q170 0 255 24t90 51.5t-69.5 46t-224.5 10.5q10 35 16.5 76.5t35.5 70.5q109 0 169 20.5t69 46t-33 46t-138 20.5q27 39 30 81t8 84t26.5 84t87.5 81q61 37 99 78t41 73.5t-37 53t-134 16.5 q-49 33 -101.5 35t-104.5 -9.5t-105.5 -26.5t-104.5 -17q-59 -4 -120.5 9t-116.5 40q-41 20 -92.5 18t-103.5 -9t-101 -13t-86 4q-51 14 -82 -4.5t-43.5 -52t-6 -74.5zM658.5 1227.5q5.5 29.5 21.5 45t46 23t75 11.5q20 2 38.5 14t41.5 10q14 -2 23 -9t19.5 -15.5t25 -10.5 t24.5 -12q53 -49 76.5 -109.5t7.5 -132.5q-10 -47 -31.5 -91t-40.5 -89q-12 -29 -12 -61q0 -31 -10 -60q-18 -51 -46 -46t-55.5 36t-49 73t-28.5 62q-12 45 -35.5 82t-52.5 74q-23 29 -27.5 60.5l-9.5 66.5q-6 49 -0.5 78.5z" />
<glyph unicode="&#xa7;" horiz-adv-x="964" d="M143.5 669.5q-24.5 -91.5 11 -172.5t112.5 -154t160 -144.5t155.5 -144t97.5 -152.5q14 -47 -7.5 -99.5t-62.5 -89.5t-92 -48t-94 24q-23 18 -25 48t3.5 62.5t9.5 65.5t-6.5 56.5t-41 33.5t-94.5 0q-10 -2 -17 -15.5t-11 -31t-6.5 -35.5t-2.5 -27q0 -29 6.5 -71.5 t24 -77.5t45 -54.5t68.5 -0.5q6 2 17.5 -3.5t24.5 -11.5t30.5 -11t35.5 -3q279 20 335.5 164.5t-81.5 382.5q-18 33 -2.5 55.5t45 41.5t59 37.5t38.5 45.5q10 29 16 55.5t18 53.5q23 49 16 106t-35 116.5t-71 119t-90 110.5t-93 93t-81 69q-16 2 -41.5 20.5t-53.5 46 t-54.5 61.5t-44 65.5t-24.5 59t5 42.5l78 108l108 19q39 -23 52.5 -43.5t13.5 -42.5q0 -20 -7 -43t-7 -49q0 -25 12 -52.5t51 -58.5q51 -10 91 11.5t60.5 59.5t19.5 84t-30 83q-43 55 -121.5 84.5t-160.5 29.5t-151.5 -35.5t-92.5 -111.5q-29 -98 -13.5 -178t38 -144.5 t33 -116t-32.5 -90.5q-119 -111 -143.5 -202.5zM242 702q4 8 16 30t26.5 45.5t26 43t15.5 21.5q2 2 20 2h41t42.5 -2t25.5 -2q35 -4 83 -34t95 -75t87 -99t56.5 -107.5t3 -98.5t-72.5 -72q-16 -8 -50 -8q-31 0 -65.5 4t-66 11.5t-48.5 13.5q-33 12 -72.5 52t-75.5 89 t-61.5 100.5t-25.5 85.5z" />
<glyph unicode="&#xa8;" horiz-adv-x="1167" d="M231.5 1313q10.5 -43 51.5 -80t85 -47t77.5 13t27.5 101q-2 20 -2 39q0 20 -10 39q-35 57 -80 70.5t-82 -2.5t-57.5 -53t-10 -80zM749.5 1374q-18.5 -53 0.5 -102q4 -10 32.5 -37t64.5 -45.5t69.5 -13t48.5 58.5q6 23 17 58.5t3 58.5q-43 92 -91 109.5t-87 -8.5 t-57.5 -79z" />
<glyph unicode="&#xa9;" horiz-adv-x="1460" d="M94.5 764q-12.5 -80 1 -149.5t46 -133t75.5 -126t90 -127t86 -138.5q18 -35 46 -46t58.5 -12t63.5 -2t64 -14q135 -59 231 -57t174 46t152 120t164 164q-6 51 9 108.5t36.5 122t40 134t20.5 146.5t-22.5 158.5t-90.5 169.5q-43 57 -69.5 116t-58 111t-81 95t-135.5 70 q-72 23 -164 10.5t-186 -43.5t-181 -75t-145 -87q-70 -51 -91 -95t-26 -88t-8.5 -93.5t-35.5 -110.5q-51 -94 -63.5 -174zM273.5 740q13.5 130 58.5 250t119.5 219.5t171.5 154.5q68 -10 130 -13t121.5 -10.5t119 -24.5t120.5 -56q70 -45 120 -139.5t72.5 -213.5t12.5 -247 t-60.5 -238.5t-145.5 -191t-241 -101.5q-78 -10 -150.5 -18.5t-148.5 22.5q-121 49 -190.5 144.5t-96 214t-13 248.5zM364.5 744.5q4.5 -91.5 36 -176.5t86 -156.5t119 -115.5t131 -52t123.5 30q41 0 75 5.5t56 48.5q31 2 49.5 26.5t29.5 57t18.5 67.5t17.5 58l-4 24l-17 14 q-12 -12 -19 -27.5t-12 -31.5t-11.5 -32.5t-18.5 -28.5q-4 -33 -23.5 -54.5t-44.5 -40.5q-41 0 -73.5 -11t-65.5 -14t-69.5 10t-81.5 63q-18 20 -31.5 68t-21 102.5t-7.5 105.5t6 80q14 61 7 93t-10 57.5t9.5 58.5t67.5 100q16 23 26.5 40t41.5 22q33 6 59.5 2t49 -10.5 t45 -11.5t48.5 -5q-6 -10 8.5 -39t36 -62.5t43 -64.5t29.5 -41l19 2q8 16 14 63.5t6 98.5q0 53 -7 97t-24 57h-24q-16 -10 -32.5 -32t-20.5 -40q-16 25 -41 38t-52.5 22.5t-56.5 16.5t-53 19q-29 -6 -64 -5t-59 -7q-14 -4 -30.5 -20.5t-29.5 -26.5q-55 -45 -74.5 -56.5 t-28.5 -19.5t-19.5 -30.5t-46.5 -92.5q-10 -16 -25.5 -33.5t-24.5 -33.5q-39 -84 -34.5 -175.5z" />
<glyph unicode="&#xaa;" horiz-adv-x="759" d="M59 682q-2 -35 11.5 -46t46.5 -18q39 -8 116.5 -10t162.5 0t163 8.5t117 14.5q27 6 39 14t10 37q0 41 -33 57q-12 6 -51 8.5t-92 1.5t-114.5 -4.5t-118 -6.5t-102.5 -5t-67 -4h-30t-26.5 -3t-21 -13.5t-10.5 -30.5zM74 952q6 -33 16 -52t24.5 -31.5t34 -22.5t44.5 -25 q53 16 106 28.5t96 51.5q6 6 18.5 17.5t22.5 7.5q20 -6 39 -20.5t37 -30t35.5 -25.5t36.5 -8q10 10 37.5 11t40.5 3q10 16 14 31.5t14 32.5q8 2 17.5 22.5t15.5 47t5 52t-11 37.5q-18 2 -31.5 -12t-23 -35.5t-16.5 -44t-11 -35.5h-31q-23 29 -27 83.5t-1.5 120t4.5 135 t-9.5 127t-43 94t-95.5 38.5l-35 23q-20 -6 -40.5 -1t-41.5 7q-33 -20 -69.5 -35.5t-67.5 -36t-48 -49t-13 -76.5q2 -20 2 -36q0 -14 4 -27.5t13 -26t30 -26.5q33 -2 50 13t27.5 41t15.5 54.5t16.5 52t32 37t57.5 6.5q25 -4 45 -32.5t28 -66.5t-2 -76t-47 -58 q-4 -10 -17.5 -13t-23.5 -3q-23 0 -36 -4.5t-24.5 -9.5t-24.5 -11t-33.5 -14t-48 -37t-52.5 -65t-42 -71.5t-13 -56.5zM240 1028q2 27 11 52.5t19 41.5q4 6 17.5 14.5t31 16.5t33 14.5t21.5 10.5q16 -2 35.5 -13.5t27.5 -23.5q10 -39 3 -86t-38 -76q-6 -6 -24.5 -14.5 t-39 -14.5t-38.5 -8t-27 2q-23 12 -28.5 34.5t-3.5 49.5z" />
<glyph unicode="&#xab;" horiz-adv-x="1124" d="M219 549q-2 -47 38 -102.5t92 -108.5t103.5 -100.5t69.5 -77.5q20 -29 40 -54.5t42 -54.5q31 18 28 54t-24.5 81t-55.5 95.5t-62.5 100.5t-47 96t-10.5 79q2 12 26.5 49t56.5 84t63.5 99.5t50 96.5t17.5 73.5t-36 31.5q-31 -37 -67.5 -70.5t-74.5 -67.5t-73 -68.5 t-59 -75.5q-8 -12 -27.5 -35t-39 -48.5t-35 -47t-15.5 -29.5zM625 508q0 -8 15 -29.5t34.5 -47t39 -48.5t27.5 -35q25 -41 60 -75.5t72.5 -68.5t74.5 -67.5t68 -70.5q35 2 36 31.5t-17.5 73.5t-50.5 96t-63.5 99.5t-56 83t-26.5 50.5q-8 33 10 79t47 96t62.5 100t55 95 t24.5 81t-27 55q-23 -29 -42.5 -54.5t-39.5 -54.5q-18 -31 -69.5 -78t-104 -100t-92 -109.5t-37.5 -101.5z" />
<glyph unicode="&#xac;" horiz-adv-x="1079" d="M164 688q-6 -33 10 -57.5t82 -20.5q23 2 42 -4t40 -4q25 2 48.5 10.5t47.5 3.5q29 -4 50.5 -9t42 -8t43 -2t53.5 9q25 6 48 -1t46 -5q33 2 64.5 6t64.5 0l6 -8q-8 -72 -3 -146.5t-3 -146.5q-6 -51 13.5 -74.5t46 -27.5t50 4t27.5 18q4 12 7 78t5 145.5t3.5 153t5.5 100.5 q-4 6 -9.5 16.5t-12.5 22t-14 18.5t-16 5q-12 8 -30 8t-35 -2q-129 -20 -266.5 -15t-268.5 13q-33 2 -70.5 7t-68.5 1q-6 0 -24.5 -27.5t-24.5 -60.5z" />
<glyph unicode="&#xad;" horiz-adv-x="665" d="M74 584q-2 -37 6 -40t43 -12q29 -8 97.5 -12t144.5 -4q78 0 145.5 4t96 14.5t33.5 15.5t3 34q-2 51 -22.5 84.5t-75.5 38.5q-45 4 -89 -6.5t-89 -10.5q-33 0 -82 2t-95.5 -6t-80 -30.5t-35.5 -71.5z" />
<glyph unicode="&#xae;" horiz-adv-x="1486" d="M118.5 677.5q-12.5 -56.5 0.5 -116.5q6 -31 20.5 -58.5t32.5 -53t36.5 -51t33.5 -52.5q20 -41 36.5 -87t37 -89t48 -80t72.5 -59q12 -6 51 -13.5t91.5 -13.5t112 -11t112.5 -7t93 -1t54 7q53 23 101.5 53.5t103.5 46.5q35 8 72 8q39 0 67 25q25 20 50.5 76.5t49 131.5 t42 161t32 164.5t18.5 144t-1 102.5q-2 12 -14.5 45t-30 76t-39 91t-42 90t-36.5 75t-23 43q-27 37 -95 84t-149 85t-159 56.5t-121 -0.5q-35 -14 -71.5 -20t-74.5 -10t-74 -13.5t-67 -29.5q-47 -33 -78.5 -80t-70.5 -88q-25 -27 -43 -36t-31.5 -19.5t-25 -29t-21.5 -61.5 q-23 -92 -44 -185t-36 -187q-8 -57 -20.5 -113.5zM260 676q-6 70 6.5 136.5t12.5 135.5q0 4 19 46t44 93.5t46.5 95.5t25.5 52q49 23 91 57.5t95 50.5q176 55 316.5 11.5t237.5 -149t145.5 -253t40 -300t-77 -290t-205.5 -223.5q-98 -61 -192.5 -71.5t-180.5 17.5t-159.5 88 t-129 140t-90.5 174.5t-45 188.5zM408.5 1170.5q-9.5 -15.5 23.5 -52.5q55 2 86 -45t45.5 -119.5t14.5 -160.5q0 -86 -6.5 -161t-15.5 -127t-11 -54q-16 -14 -34.5 -32t-39.5 -24l-20 4q-10 -10 -6 -26.5t16 -28.5t31.5 -16t39.5 8q37 -2 73 0t73 10q10 -4 31.5 -10t42.5 -6 q23 0 39 7t16 28q0 10 -10.5 17t-24.5 14t-28.5 20.5t-22.5 36.5q-6 20 -8 71t1 108.5t9 106.5t18 68l-22 78q10 25 3 39t-13 37q-12 12 -10.5 34.5t13 46t25 45t21.5 31.5l35 15q39 -16 79.5 -34t69.5 -44.5t38 -63.5t-11 -94q-2 -4 -8.5 -14.5t-14.5 -22.5t-16 -23.5 t-12 -13.5q-12 2 -41 -2t-50.5 -13t-28.5 -22.5t23 -27.5q10 -6 23.5 -11.5t25.5 -9.5q31 -12 44.5 -61t20.5 -109.5t17.5 -121t34.5 -93.5q23 -6 40 -17t38 -22q31 6 60.5 15.5t58.5 19.5q8 10 21.5 26.5t22.5 33t7.5 33t-21.5 26.5l-49 -29q-27 6 -44 21.5t-17 44.5 q-20 35 -35.5 79t-24.5 83q-16 16 -33.5 45.5t-41.5 36.5l-11 10l9 14q14 0 30.5 16.5t33 37t31.5 39t28 22.5q29 8 38 42t5.5 73.5t-17.5 73.5t-35 42q-12 6 -32.5 19.5t-42 27t-38 24.5t-22.5 11q-23 0 -40 -1t-33.5 -2t-35 0t-44.5 7q-20 -8 -41 -6t-41 -6q-27 10 -64 8 t-63 -6l-27 10q-16 -6 -51 -6q-33 0 -60.5 -6t-37 -21.5z" />
<glyph unicode="&#xaf;" horiz-adv-x="1013" d="M197 1313q-4 -43 7 -58.5t52 -25.5q20 -4 67.5 -7t108 -5.5t125.5 -2.5q68 0 128 2.5t106.5 5.5t64.5 9q35 10 42 29.5t3 52.5q-4 59 -37 81.5t-86 26.5q-45 2 -108.5 -1t-133 -8t-135 -11t-112.5 -10q-45 -4 -67.5 -15.5t-24.5 -62.5z" />
<glyph unicode="&#xb0;" horiz-adv-x="827" d="M130.5 1253.5q-11.5 -32.5 10.5 -77.5q10 -23 47 -66t82 -83t90.5 -65.5t71.5 -9.5q86 49 143.5 115t61.5 170q0 31 -10.5 56.5t-24.5 48t-27.5 46t-19.5 52.5q-16 18 -44 45.5t-50 38.5q-31 12 -78 5t-93 -25.5t-81 -48.5t-41 -64q-4 -18 -2 -31.5t-6 -32.5 q-18 -41 -29.5 -73.5zM265 1188.5q1 23.5 4 52.5t6.5 52.5t7.5 29.5q10 18 29.5 38.5t33.5 37.5q10 -8 23.5 -14.5t27.5 -6.5q20 20 41 -3t36 -63t20 -84.5t-7 -64.5q-18 -33 -48.5 -52t-63.5 -21.5t-62.5 14t-46.5 55.5q-2 6 -1 29.5z" />
<glyph unicode="&#xb1;" d="M88 66q0 -20 15.5 -42t43.5 -32q18 -6 52 -5t72 4t74 5t58 0q12 -2 51.5 -3t89.5 -2t105 -1h105h82t36 2q37 14 52.5 35.5t15.5 42.5q0 20 -12.5 35.5t-26.5 15.5l-547 2q-47 0 -101 4t-101 0q-33 -4 -48.5 -21.5t-15.5 -39.5zM115 604q0 -20 20 -33q72 -2 158 -7t158 11 q0 -55 11 -110t1 -109q-4 -20 -6 -46.5t2 -50t19.5 -38t47.5 -10.5q25 2 36 51t13.5 110.5t-3 120t-11.5 80.5q10 -4 41 -6t72 -1t85 4t81 9.5t61.5 17t26.5 26.5q2 20 -28 36.5t-69.5 26.5t-77.5 12t-53 -6q-33 4 -67.5 10.5t-67.5 2.5q8 68 4 135t-4 135q0 27 -18.5 43 t-40 17t-38.5 -13t-13 -49q4 -66 5 -136.5t-5 -136.5q-31 -16 -64 -18t-66.5 1t-67.5 8t-64 1q-16 -2 -36 -16t-31 -32.5t-11 -39.5z" />
<glyph unicode="&#xb4;" horiz-adv-x="694" d="M214 1159.5q-3 -18.5 3 -29.5q12 -20 29.5 -18t37 18.5t40 41t39 49t34 44t23.5 25.5q20 12 30.5 24.5t17.5 26t14 26.5t20 24q18 14 36.5 36.5t27.5 47t7 51t-22 49.5q-27 31 -51.5 33t-46 -12.5t-41 -42t-36 -56.5t-30.5 -53.5t-27 -34.5q-35 -29 -49 -62.5t-24 -76.5 q-2 -12 -9.5 -31.5t-13.5 -40t-9 -39z" />
<glyph unicode="&#xb5;" horiz-adv-x="1181" d="M84 966.5q6 -18.5 35 -46.5q55 -57 77.5 -127t28.5 -145t1 -151.5t-6 -149.5t9.5 -137.5t44.5 -115.5q-20 -29 -34.5 -82t-20.5 -115.5t-2 -124t20.5 -107.5t46 -67.5t74.5 -0.5q31 12 61 52t49 87t20 93t-25 73q-14 12 -21.5 20t-10.5 15.5t-5 17.5t-6 29 q20 -6 60 -10.5t82 -3.5t78 10.5t46 31.5q20 2 36.5 16.5t23 29t0.5 20.5t-31 -6q-25 10 -51.5 12t-52 5t-49 12.5t-44.5 33.5q-31 37 -60.5 80t-29.5 94q0 92 8 181.5t12.5 177.5t0 175t-24.5 177q-12 49 -43 56t-68 -4t-74.5 -29.5t-66.5 -20.5q-31 -4 -53.5 -9 t-31.5 -16.5t-3 -30zM670 932q18 -35 39.5 -49.5t43 -27.5t38 -36.5t22.5 -77.5q2 -27 6 -58.5t7 -64t3 -65.5q0 -31 -2 -57q-4 -31 -12 -85.5t-14 -112.5t-6 -112q0 -51 12 -75q8 -16 19.5 -42t25.5 -49.5t32.5 -40t39.5 -12.5q16 2 28.5 0t23.5 -4t21 -2q12 0 27 8 q20 12 45 16.5t47.5 11.5t37.5 23.5t15 51.5q0 23 -22.5 31t-36.5 18q-20 14 -31.5 33.5t-19.5 42t-13.5 46t-13.5 44.5q-14 35 -10 103.5t13 150.5t17.5 169t4.5 159.5t-25.5 123.5t-73.5 60q-31 6 -90 9t-113.5 -6t-84 -38t-0.5 -86z" />
<glyph unicode="&#xb6;" horiz-adv-x="1298" d="M117.5 1131.5q-13.5 -101.5 13.5 -206t88.5 -190.5t155.5 -141t219 -59q8 -166 -5.5 -341.5t-17.5 -340.5q-2 -57 -13 -85t-28.5 -39.5t-39 -15.5t-42 -11t-38 -25.5t-27.5 -61.5q12 -18 41 -22.5t60.5 -3.5t62.5 1q33 0 55 -8q47 37 84 33t71 -16.5t69.5 -15.5t82.5 34 q6 -10 35 -15t62.5 -7.5t63.5 -1.5t38 6q20 10 49 5t56.5 -9.5t50 2t30.5 36.5q4 16 -9 36t-32.5 39.5t-40 36.5t-28.5 30q-31 47 -42.5 134t-14.5 184t-2 189.5t-5 149.5q-8 86 -6 180.5t8 189.5t12.5 189t6.5 185q0 68 33.5 109.5t69.5 72.5t56.5 58.5t-4.5 64.5 q-4 6 -48 13t-108.5 12t-138 8.5t-139 4.5t-111.5 0t-53 -8q-43 -4 -89 -5t-92 -4t-91 -12t-84 -30q-100 -53 -155.5 -140t-69 -188.5zM355 1038.5q-1 51.5 0 96.5t6.5 77.5t15.5 44.5q12 14 34.5 40t50 49.5t54.5 40t45 12.5q8 -31 8 -68q0 -35 -3 -67.5t-7 -58t-2 -34.5 q31 -117 31 -239v-240l-56 -4q-33 14 -50 25.5t-30.5 24t-25.5 30.5t-37 49q-10 12 -16 46t-11.5 79t-6.5 96.5zM779 625.5q-5 199.5 0 397.5t36 388q16 0 28.5 4t22.5 4t19.5 -6t19.5 -24q4 -6 7 -59.5t6.5 -138.5t5.5 -192.5t4 -223.5t3 -229.5t2 -209.5t2 -167.5 t1 -100.5q0 -94 -15.5 -185.5t-11.5 -185.5q-29 18 -51 27.5t-38.5 21.5t-25 33.5t-6.5 64.5q8 188 2 385t-11 396.5z" />
<glyph unicode="&#xb7;" horiz-adv-x="634" d="M187 536.5q-1 -24.5 3 -36.5q0 -2 6.5 -10.5t13.5 -16.5t13 -16t8 -11q16 -16 18.5 -26t5.5 -15.5t13 -8.5t45 -5q70 -6 111 13.5t60.5 54.5t18.5 79t-16.5 86t-42 75.5t-59.5 49t-68.5 6t-70.5 -54.5q-4 -8 -13.5 -14t-15.5 -14q-8 -12 -14 -36t-10.5 -49.5t-5.5 -50z " />
<glyph unicode="&#xb8;" horiz-adv-x="837" d="M217 -379q-20 -35 18.5 -61.5t98 -43t119 -21.5t82.5 5q31 14 41 24.5t11 20t2 19.5t13 22q8 8 12 23.5t4 34.5q0 18 -1 34.5t-1 28.5q-4 51 -24.5 79t-46 46t-54 35.5t-49.5 50.5q-4 6 -8 18.5t-8 24.5t-10 21.5t-15 9.5q-6 4 -9 -2t-5 -15.5t-4 -17.5t-2 -10 q-2 -10 -7 -23.5t-11.5 -27t-8.5 -26.5t2 -22q10 -20 24.5 -27t29 -12.5t25.5 -13.5t18 -33q4 -18 10 -42.5t2 -43.5q-4 -16 -12.5 -28.5t-24.5 -16.5q-6 -2 -30.5 -6t-51.5 -8t-49.5 -7t-24.5 -3q-10 4 -28.5 14t-26.5 0z" />
<glyph unicode="&#xba;" horiz-adv-x="761" d="M80 682q-2 -35 10 -46t45 -18q39 -8 117 -10t164 0t163.5 8.5t116.5 14.5q27 6 39 14t10 37q-2 20 -8 33.5t-24 23.5q-18 8 -94 9.5t-166.5 -3t-172 -9.5t-114.5 -7h-31q-14 0 -26.5 -3t-19.5 -13.5t-9 -30.5zM105 1198q8 -70 34.5 -137.5t69.5 -116.5t96 -51 q14 0 24.5 -9.5t21.5 -18.5t24.5 -15t32.5 -4q20 2 30.5 11t26.5 13q35 8 59.5 11.5t44 11.5t34.5 27.5t32 60.5q33 16 52.5 73.5t23.5 123t-5 127t-32 86.5q-12 14 -27.5 24t-28.5 25q-35 45 -63.5 69.5t-89.5 24.5q-23 0 -36 10t-36 10q-14 0 -37.5 -6t-48 -15t-46 -20.5 t-32.5 -21.5q-8 -8 -25.5 -32.5t-35.5 -53.5t-33.5 -55.5t-19.5 -38.5q-18 -43 -10 -113zM255 1078.5q-1 11.5 0 28.5t4 44t3 72q0 57 8.5 87.5t22.5 52t37.5 44.5t54.5 63l25 7q23 -10 46.5 -19.5t39.5 -27.5t27.5 -61.5t16.5 -97.5t3 -113.5t-12.5 -109t-30 -81 t-47.5 -31.5q-8 -8 -16.5 -6t-16.5 6q-18 6 -29.5 0t-20 -10t-17.5 -1t-23 25q-27 41 -42.5 63.5t-23.5 38t-9 27z" />
<glyph unicode="&#xbb;" horiz-adv-x="1120" d="M169 958.5q-1 -28.5 17.5 -72.5t50 -96.5t63.5 -99.5t56.5 -84t26.5 -49q8 -35 -10.5 -80t-47 -95t-62.5 -100.5t-55.5 -95.5t-24.5 -80.5t28 -54.5q23 29 42 54.5t40 54.5q18 31 69.5 78t103.5 100t92 108.5t38 102.5q0 8 -15.5 29.5t-36 47t-39 48t-26.5 35.5 q-25 41 -59.5 75.5t-72.5 68.5t-74.5 67.5t-67.5 70.5q-35 -4 -36 -32.5zM574 97.5q1 -29.5 36 -31.5q31 37 68 70.5t75 67.5t72.5 68.5t59.5 75.5q8 12 26.5 35t39 48.5t35.5 47t15 29.5q2 45 -37.5 101.5t-92 109.5t-103.5 100t-70 78q-20 29 -39.5 54.5t-42.5 54.5 q-31 -18 -27.5 -54.5t25 -81.5t55 -95t62.5 -100t47.5 -96.5t9.5 -78.5q-2 -14 -26.5 -50t-56 -83.5t-63.5 -99.5t-50.5 -96t-17.5 -73.5z" />
<glyph unicode="&#xbf;" horiz-adv-x="911" d="M165 -75.5q-1 -30.5 13 -78.5q14 -49 51 -101t86.5 -92t106.5 -61.5t113 -13.5q27 4 56.5 1t59 -4t57 6t50.5 30q18 20 29.5 45.5t23.5 48.5q35 66 7.5 126t-95.5 83q-61 20 -92 -3.5t-45.5 -67.5t-19.5 -96t-13 -85q-68 12 -98.5 41t-42 70t-9 88t-0.5 96 q-4 117 22 186.5t59.5 122.5t67.5 105.5t48 132.5q2 14 9 35.5t16.5 44t18.5 43t18 32.5q47 8 74.5 40t36.5 74t1 87t-31.5 81t-61.5 55.5t-87 7.5q-68 -16 -99.5 -68.5t-29.5 -112t37 -110.5t100 -66l-53 -41q-6 -45 -37 -82t-73 -71.5t-88 -71.5t-84 -80t-60.5 -97 t-16.5 -122q2 -33 -4 -55.5t-13 -47t-8 -55z" />
<glyph unicode="&#xc0;" horiz-adv-x="1796" d="M121 67.5q6 -32.5 30.5 -57t65.5 -22.5q90 4 176 -4.5t172 -8.5q33 0 81 10.5t98.5 22.5t93.5 21.5t65 5.5q31 -6 57.5 -11.5t59.5 -7.5q16 -18 47 -16t64.5 11t66.5 20.5t55 11.5l252 -37q18 -10 37 -6t37 10t39.5 9.5t46.5 -11.5q18 -10 48 1t54.5 32.5t34.5 50 t-10 53.5q-18 20 -50 26.5t-69 6.5t-73.5 -2t-61.5 4t-50.5 49t-49 107.5t-46 139.5t-44 145.5t-40 127t-32.5 82.5q-27 45 -39 94.5t-18.5 100.5t-10.5 102.5t-12 100.5q-4 29 -17.5 56.5t-29.5 54t-32.5 54t-26.5 58.5q-12 35 -37 59.5t-54.5 33.5t-59.5 -1t-52 -45 q-25 -39 -43.5 -88t-31.5 -102.5t-22.5 -106.5t-15.5 -98q-31 -39 -65.5 -112.5t-71.5 -162t-74 -181.5t-71.5 -172t-67.5 -135t-62 -71q-20 -10 -46.5 -19t-53 -19.5t-51.5 -20.5t-41 -21q-33 -20 -44 -55t-5 -67.5zM647 262q0 18 1 36.5t2 36t1 30.5q0 23 16.5 46t40 42.5 t50 32t47.5 12.5q14 0 25.5 -6.5t23.5 -6.5q10 0 17.5 4.5t13.5 10.5t14 10t21 4q57 0 102 -5t76.5 -25.5t48 -58.5t16.5 -106q0 -74 -10 -107.5t-32.5 -44.5t-60.5 -10t-95 -5q-16 -2 -23.5 -8.5t-13.5 -13.5t-17.5 -12t-36.5 -1q-20 2 -55 14t-68.5 28.5t-62.5 37 t-37 41.5q-4 8 -4 24zM702 2038q-10 -41 0.5 -67.5t26.5 -46t33.5 -37t23.5 -42.5q6 -23 9.5 -49.5t19.5 -44.5q14 -16 32.5 -26.5t29.5 -26.5q6 -8 21 -35t33.5 -50.5t38.5 -33t34 17.5t11 64t-15.5 74t-31 71.5t-32.5 57t-14 47.5q0 27 -17 49q-10 14 -25.5 38.5t-35 49.5 t-40 45.5t-40 24.5t-35.5 -13.5t-27 -66.5zM751 700.5q-1 12.5 5 28.5t16 37l4 20q4 21 10.5 45.5t10.5 45t4 22.5q16 18 27.5 48t26.5 49.5t36.5 17.5t58.5 -47q4 -35 20.5 -73t26 -76t2 -71.5t-48.5 -58.5q-16 -10 -43.5 -20.5t-46.5 -12.5q-4 0 -26.5 4.5t-28.5 4.5 q-29 6 -41 15t-13 21.5z" />
<glyph unicode="&#xc1;" horiz-adv-x="1796" d="M121 67.5q6 -32.5 30.5 -57t65.5 -22.5q90 4 176 -4.5t172 -8.5q33 0 81 10.5t98.5 22.5t93.5 21.5t65 5.5q31 -6 57.5 -11.5t59.5 -7.5q16 -18 47 -16t64.5 11t66.5 20.5t55 11.5l252 -37q18 -10 37 -6t37 10t39.5 9.5t46.5 -11.5q18 -10 48 1t54.5 32.5t34.5 50 t-10 53.5q-18 20 -50 26.5t-69 6.5t-73.5 -2t-61.5 4t-50.5 49t-49 107.5t-46 139.5t-44 145.5t-40 127t-32.5 82.5q-27 45 -39 94.5t-18.5 100.5t-10.5 102.5t-12 100.5q-4 29 -17.5 56.5t-29.5 54t-32.5 54t-26.5 58.5q-12 35 -37 59.5t-54.5 33.5t-59.5 -1t-52 -45 q-25 -39 -43.5 -88t-31.5 -102.5t-22.5 -106.5t-15.5 -98q-31 -39 -65.5 -112.5t-71.5 -162t-74 -181.5t-71.5 -172t-67.5 -135t-62 -71q-20 -10 -46.5 -19t-53 -19.5t-51.5 -20.5t-41 -21q-33 -20 -44 -55t-5 -67.5zM647 262q0 18 1 36.5t2 36t1 30.5q0 23 16.5 46t40 42.5 t50 32t47.5 12.5q14 0 25.5 -6.5t23.5 -6.5q10 0 17.5 4.5t13.5 10.5t14 10t21 4q57 0 102 -5t76.5 -25.5t48 -58.5t16.5 -106q0 -74 -10 -107.5t-32.5 -44.5t-60.5 -10t-95 -5q-16 -2 -23.5 -8.5t-13.5 -13.5t-17.5 -12t-36.5 -1q-20 2 -55 14t-68.5 28.5t-62.5 37 t-37 41.5q-4 8 -4 24zM751 700.5q-1 12.5 5 28.5t16 37l4 20q4 21 10.5 45.5t10.5 45t4 22.5q16 18 27.5 48t26.5 49.5t36.5 17.5t58.5 -47q4 -35 20.5 -73t26 -76t2 -71.5t-48.5 -58.5q-16 -10 -43.5 -20.5t-46.5 -12.5q-4 0 -26.5 4.5t-28.5 4.5q-29 6 -41 15t-13 21.5z M834.5 1654.5q-3.5 -18.5 3.5 -28.5q18 -31 46.5 -13.5t58.5 53.5t56.5 74t40.5 46q20 12 30.5 24.5t17 25.5t13.5 26.5t19 23.5q18 14 37 37t29 47.5t7.5 51t-22.5 49.5q-29 31 -53 32.5t-45.5 -12.5t-41 -42t-36 -56.5t-31 -53t-26.5 -34.5q-35 -29 -48 -63t-24 -77 q-4 -12 -10 -31.5t-12 -40t-9.5 -39z" />
<glyph unicode="&#xc2;" horiz-adv-x="1796" d="M121 67.5q6 -32.5 30.5 -57t65.5 -22.5q90 4 176 -4.5t172 -8.5q33 0 81 10.5t98.5 22.5t93.5 21.5t65 5.5q31 -6 57.5 -11.5t59.5 -7.5q16 -18 47 -16t64.5 11t66.5 20.5t55 11.5l252 -37q18 -10 37 -6t37 10t39.5 9.5t46.5 -11.5q18 -10 48 1t54.5 32.5t34.5 50 t-10 53.5q-18 20 -50 26.5t-69 6.5t-73.5 -2t-61.5 4t-50.5 49t-49 107.5t-46 139.5t-44 145.5t-40 127t-32.5 82.5q-27 45 -39 94.5t-18.5 100.5t-10.5 102.5t-12 100.5q-4 29 -17.5 56.5t-29.5 54t-32.5 54t-26.5 58.5q-12 35 -37 59.5t-54.5 33.5t-59.5 -1t-52 -45 q-25 -39 -43.5 -88t-31.5 -102.5t-22.5 -106.5t-15.5 -98q-31 -39 -65.5 -112.5t-71.5 -162t-74 -181.5t-71.5 -172t-67.5 -135t-62 -71q-20 -10 -46.5 -19t-53 -19.5t-51.5 -20.5t-41 -21q-33 -20 -44 -55t-5 -67.5zM647 262q0 18 1 36.5t2 36t1 30.5q0 23 16.5 46t40 42.5 t50 32t47.5 12.5q14 0 25.5 -6.5t23.5 -6.5q10 0 17.5 4.5t13.5 10.5t14 10t21 4q57 0 102 -5t76.5 -25.5t48 -58.5t16.5 -106q0 -74 -10 -107.5t-32.5 -44.5t-60.5 -10t-95 -5q-16 -2 -23.5 -8.5t-13.5 -13.5t-17.5 -12t-36.5 -1q-20 2 -55 14t-68.5 28.5t-62.5 37 t-37 41.5q-4 8 -4 24zM662 1585q6 -16 18 -14t25.5 11t25.5 21.5t17 18.5q8 12 25.5 27.5t36.5 33t35.5 32t20.5 22.5q6 14 18.5 29.5t29 27.5t34 16.5t33.5 -4.5q8 -4 32.5 -29.5t54.5 -57t63.5 -65.5t63.5 -54.5t50.5 -22.5t26.5 29q2 14 -14.5 54t-45 90t-64.5 104.5 t-71 99.5t-65.5 73.5t-46.5 28.5q-37 0 -67 -26.5t-53.5 -63.5t-42 -76t-36.5 -65q-10 -14 -29.5 -48t-38 -72t-31 -72t-5.5 -48zM751 700.5q-1 12.5 5 28.5t16 37l4 20q4 21 10.5 45.5t10.5 45t4 22.5q16 18 27.5 48t26.5 49.5t36.5 17.5t58.5 -47q4 -35 20.5 -73t26 -76 t2 -71.5t-48.5 -58.5q-16 -10 -43.5 -20.5t-46.5 -12.5q-4 0 -26.5 4.5t-28.5 4.5q-29 6 -41 15t-13 21.5z" />
<glyph unicode="&#xc3;" horiz-adv-x="1796" d="M121 67.5q6 -32.5 30.5 -57t65.5 -22.5q90 4 176 -4.5t172 -8.5q33 0 81 10.5t98.5 22.5t93.5 21.5t65 5.5q31 -6 57.5 -11.5t59.5 -7.5q16 -18 47 -16t64.5 11t66.5 20.5t55 11.5l252 -37q18 -10 37 -6t37 10t39.5 9.5t46.5 -11.5q18 -10 48 1t54.5 32.5t34.5 50 t-10 53.5q-18 20 -50 26.5t-69 6.5t-73.5 -2t-61.5 4t-50.5 49t-49 107.5t-46 139.5t-44 145.5t-40 127t-32.5 82.5q-27 45 -39 94.5t-18.5 100.5t-10.5 102.5t-12 100.5q-4 29 -17.5 56.5t-29.5 54t-32.5 54t-26.5 58.5q-12 35 -37 59.5t-54.5 33.5t-59.5 -1t-52 -45 q-25 -39 -43.5 -88t-31.5 -102.5t-22.5 -106.5t-15.5 -98q-31 -39 -65.5 -112.5t-71.5 -162t-74 -181.5t-71.5 -172t-67.5 -135t-62 -71q-20 -10 -46.5 -19t-53 -19.5t-51.5 -20.5t-41 -21q-33 -20 -44 -55t-5 -67.5zM627 1686q2 -41 33.5 -40t71.5 19t79 41t57 27 q27 4 46.5 -10.5t37 -32t37 -30.5t47.5 -7q25 4 43.5 -7.5t41 -22.5t52 -12t76.5 23q27 14 55.5 53t41 82t2 80t-59.5 47q-72 -61 -119 -73.5t-88 0t-86 38t-114 37.5q-8 2 -33 -5t-52.5 -17t-51 -21.5t-27.5 -17.5q-8 -12 -11.5 -21.5t-6.5 -16.5t-10 -15t-21 -19 q-18 -12 -30.5 -34.5t-10.5 -44.5zM647 262q0 18 1 36.5t2 36t1 30.5q0 23 16.5 46t40 42.5t50 32t47.5 12.5q14 0 25.5 -6.5t23.5 -6.5q10 0 17.5 4.5t13.5 10.5t14 10t21 4q57 0 102 -5t76.5 -25.5t48 -58.5t16.5 -106q0 -74 -10 -107.5t-32.5 -44.5t-60.5 -10t-95 -5 q-16 -2 -23.5 -8.5t-13.5 -13.5t-17.5 -12t-36.5 -1q-20 2 -55 14t-68.5 28.5t-62.5 37t-37 41.5q-4 8 -4 24zM751 700.5q-1 12.5 5 28.5t16 37l4 20q4 21 10.5 45.5t10.5 45t4 22.5q16 18 27.5 48t26.5 49.5t36.5 17.5t58.5 -47q4 -35 20.5 -73t26 -76t2 -71.5t-48.5 -58.5 q-16 -10 -43.5 -20.5t-46.5 -12.5q-4 0 -26.5 4.5t-28.5 4.5q-29 6 -41 15t-13 21.5z" />
<glyph unicode="&#xc4;" horiz-adv-x="1798" d="M133 67.5q6 -32.5 30.5 -57t65.5 -22.5q90 4 176.5 -4.5t172.5 -8.5q33 0 81 10.5t98 22.5t93 21.5t65 5.5q31 -6 57.5 -11.5t59.5 -7.5q16 -18 47 -16t65 11t66.5 20.5t55.5 11.5l252 -37q18 -10 36.5 -6t37 10t40 9.5t45.5 -11.5q18 -10 48 1t54.5 32.5t34.5 50 t-10 53.5q-18 20 -50 26.5t-68 6.5q-37 0 -74 -2t-61.5 4t-50 49t-49.5 107.5t-46.5 139.5t-44 145.5t-38.5 127t-34 82.5q-27 45 -39 94.5t-18 100.5t-10 102.5t-13 100.5q-4 29 -17 56.5t-29.5 54t-33 54t-26.5 58.5q-12 35 -37 59.5t-54.5 33.5t-59 -1t-52.5 -45 q-25 -39 -43 -88t-31.5 -102.5t-22.5 -106.5t-16 -98q-31 -39 -65.5 -112.5t-71.5 -162t-73.5 -181.5t-71.5 -172t-68 -135t-61 -71q-20 -10 -47 -19t-53.5 -19.5t-51 -20.5t-41.5 -21q-33 -20 -44 -55t-5 -67.5zM647 1782q14 -55 56 -90t85 -42.5t75 20t26 99.5q0 20 -1 40 t-11 38q-35 57 -79 70.5t-81 -3t-58.5 -53t-11.5 -79.5zM659 262q0 18 1.5 36.5t2.5 36t1 30.5q0 23 16 46t39.5 42.5t50.5 32t47 12.5q14 0 25.5 -6.5t23.5 -6.5q10 0 17.5 4.5t13.5 10.5t14.5 10t20.5 4q57 0 102 -5t77 -25.5t48.5 -58.5t16.5 -106q0 -74 -10.5 -107.5 t-33 -44.5t-60.5 -10t-95 -5q-16 -2 -23.5 -8.5t-13.5 -13.5t-17.5 -12t-35.5 -1q-20 2 -55 14t-69 28.5t-62.5 37t-36.5 41.5q-4 8 -5 24zM763 700.5q-1 12.5 5 28.5t16 37l4 20q5 21 11 45.5t10 45t4 22.5q16 18 27.5 48t27 49.5t37 17.5t58.5 -47q4 -35 20 -73t25.5 -76 t2.5 -71.5t-48 -58.5q-16 -10 -44 -20.5t-47 -12.5q-4 0 -26.5 4.5t-28.5 4.5q-29 6 -41 15t-13 21.5zM1075 1741q4 -10 33 -37t64.5 -45.5t69.5 -13t48 58.5q6 23 17.5 58.5t1.5 58.5q-43 92 -91.5 109.5t-86 -8.5t-56 -79t-0.5 -102z" />
<glyph unicode="&#xc5;" horiz-adv-x="1798" d="M133 67.5q6 -32.5 30.5 -57t65.5 -22.5q90 4 176.5 -4.5t172.5 -8.5q33 0 81 10.5t98 22.5t93 21.5t65 5.5q31 -6 57.5 -11.5t59.5 -7.5q16 -18 47 -16t65 11t66.5 20.5t55.5 11.5l252 -37q18 -10 36.5 -6t37 10t40 9.5t45.5 -11.5q18 -10 48 1t54.5 32.5t34.5 50 t-10 53.5q-18 20 -50 26.5t-68 6.5q-37 0 -74 -2t-61.5 4t-50 49t-49.5 107.5t-46.5 139.5t-44 145.5t-38.5 127t-34 82.5q-27 45 -39 94.5t-18 100.5t-10 102.5t-13 100.5q-4 29 -17 56.5t-29.5 54t-33 54t-26.5 58.5q-12 35 -37 59.5t-54.5 33.5t-59 -1t-52.5 -45 q-25 -39 -43 -88t-31.5 -102.5t-22.5 -106.5t-16 -98q-31 -39 -65.5 -112.5t-71.5 -162t-73.5 -181.5t-71.5 -172t-68 -135t-61 -71q-20 -10 -47 -19t-53.5 -19.5t-51 -20.5t-41.5 -21q-33 -20 -44 -55t-5 -67.5zM659 262q0 18 1.5 36.5t2.5 36t1 30.5q0 23 16 46t39.5 42.5 t50.5 32t47 12.5q14 0 25.5 -6.5t23.5 -6.5q10 0 17.5 4.5t13.5 10.5t14.5 10t20.5 4q57 0 102 -5t77 -25.5t48.5 -58.5t16.5 -106q0 -74 -10.5 -107.5t-33 -44.5t-60.5 -10t-95 -5q-16 -2 -23.5 -8.5t-13.5 -13.5t-17.5 -12t-35.5 -1q-20 2 -55 14t-69 28.5t-62.5 37 t-36.5 41.5q-4 8 -5 24zM763 700.5q-1 12.5 5 28.5t16 37l4 20q5 21 11 45.5t10 45t4 22.5q16 18 27.5 48t27 49.5t37 17.5t58.5 -47q4 -35 20 -73t25.5 -76t2.5 -71.5t-48 -58.5q-16 -10 -44 -20.5t-47 -12.5q-4 0 -26.5 4.5t-28.5 4.5q-29 6 -41 15t-13 21.5zM780 1839 q-4 -18 4.5 -51t23.5 -65.5t33.5 -61.5t37.5 -37q23 2 49 -2t49 -10q23 6 48.5 11t50 11t47 18.5t36.5 35.5q18 31 25.5 69.5t3.5 80.5t-18.5 80t-36.5 64q-14 18 -34 25.5t-39.5 12.5t-40 9.5t-34.5 16.5q-98 -4 -142 -59.5t-63 -147.5zM884 1837q3 27 1 41q6 14 19.5 17 t19.5 14q4 4 5 11t9 9q35 8 65.5 -5t52 -38.5t29 -58.5t-2 -62.5t-39.5 -49t-85 -19.5q-4 10 -16 26.5t-24.5 33t-21.5 29.5t-11 17q-4 8 -1 35z" />
<glyph unicode="&#xc6;" horiz-adv-x="1808" d="M121 31q0 -2 41 -9.5t97 -14.5t117.5 -8t105.5 8t57.5 35t-25.5 73q-66 8 -94.5 39.5t-32.5 73.5t12.5 90.5t40 89.5t51 69.5t46.5 34.5q39 12 86 14t96 1t98 -4t92 -1q39 -61 51.5 -94t11.5 -59.5t-10.5 -59.5t-9.5 -94q0 -18 -20.5 -36.5t-48 -38t-55 -37t-42 -34 t-8.5 -30.5t47 -27q16 -4 85 -8t162 -6t200.5 -3t201 0t160 3t80.5 4q35 8 49.5 43t17.5 78t-1 87t-4 71q0 14 -1 55t-4.5 84t-8.5 79t-15 44q-12 10 -28.5 -19.5t-34 -72.5t-32 -86t-24.5 -60q-35 -61 -90 -99t-117.5 -54.5t-129 -11.5t-124.5 30q-2 20 -7 65.5t-9 103.5 t-6 120.5t0 116t10 91.5t25 46q43 23 71.5 20.5t46 -19t28.5 -43t21.5 -55t22.5 -54t33 -40.5h51q6 10 10 52t4 100q0 57 -1 122.5t-5 123t-10 99.5t-12 52l-51 -45q-16 -55 -49 -90t-87 -59q-49 -23 -77.5 6.5t-40 86t-7 127t20.5 133t44 103.5t62 37q115 -12 188 -30.5 t121 -59.5t79.5 -111.5t64.5 -187.5q12 -10 20.5 -1t13.5 25.5t6 33t1 22.5q0 74 14.5 145.5t5.5 145.5q-2 16 -11 56t-24.5 72.5t-38 45t-48.5 -24.5q-41 4 -112 3t-156 -4t-173 -6t-162.5 -5t-129 0t-68.5 10q-14 -4 -41 -12t-47.5 -20.5t-24.5 -30t27 -39.5l41 6l22 -68 q4 -10 -9 -44t-35.5 -81t-51.5 -101t-55.5 -104.5t-46 -91.5t-27.5 -61q-12 -37 -45 -88t-67.5 -104.5t-63.5 -102.5t-33 -82q-2 -16 -18.5 -54t-37 -80t-41 -77t-32.5 -47q-14 -14 -43 -35.5t-54.5 -46t-39.5 -52.5t-2 -52zM598 664q-6 33 7 63.5t31.5 60t38 59.5t27.5 60 q4 14 27 57.5t50.5 88.5t54 79.5t40.5 34.5q16 0 25.5 -26.5t15 -66.5t7.5 -89t2 -96q0 -45 1 -82t3 -51q8 -59 -25 -83t-82 -30t-103 -3t-91 1q-16 -2 -20.5 2t-8.5 21z" />
<glyph unicode="&#xc7;" horiz-adv-x="1355" d="M147.5 674.5q10.5 -113.5 51.5 -220t103.5 -195.5t140 -155.5t159.5 -101.5t162 -33t147 49q25 0 64 2.5t70.5 15.5t47 41t-7.5 75q-59 6 -114.5 -12.5t-112.5 -26t-117.5 13t-130.5 100.5q-35 39 -56.5 112t-31.5 154.5t-9 160.5t11 128q8 39 2 78t-12 79t-7 79t17 76 q10 20 28.5 50t40 61.5t44 59t39.5 46.5q16 16 38.5 23t47 10.5t50.5 4.5t46 7q57 14 68.5 47t-15 65.5t-87 56t-146.5 19.5q-14 -10 -44 -28.5t-67 -43t-75.5 -51t-72.5 -50t-58.5 -43t-30.5 -28.5q-12 -18 -18.5 -39.5t-11.5 -43t-12 -43t-20 -39.5q-76 -111 -103.5 -229 t-17 -231.5zM529.5 -421q13.5 -19 43 -34.5t70.5 -28t82 -17.5t74 -5q35 0 49 6q31 14 40 24.5t10 20t2 19.5t13 22q8 8 12.5 23.5t5.5 34t0 35t-3 28.5q-4 53 -30 85t-54.5 53.5t-55 37t-32.5 35.5q-4 10 1 14.5t13 10.5v4q-20 10 -36.5 2t-30 -25.5t-21.5 -39t-12 -36.5 q10 -20 24.5 -27t27.5 -12.5t24.5 -14.5t17.5 -32q2 -12 7 -33.5t6 -41t-7 -36t-29 -20.5q-6 -2 -30.5 -6t-52 -8t-50 -7t-24.5 -3q-8 4 -26.5 14t-27.5 0q-14 -23 -0.5 -42zM1085.5 1293.5q-8.5 -31.5 2 -57.5t36 -52.5t52.5 -69.5q2 -4 9 -28.5t20.5 -49t30.5 -39t38 6.5 q6 6 13 21t12.5 31.5t7.5 33t2 26.5q-2 27 -3 84t-5.5 118.5t-14.5 113t-29 65.5h-36q-29 -20 -40.5 -33.5t-15.5 -25t-9 -24.5t-21 -34q-41 -55 -49.5 -86.5zM1156 225q-5 -43 20 -45q31 -4 49 18.5t28.5 54.5t15.5 64.5t9 53.5q4 14 9 28.5t9 26.5q4 23 -6 37t-26 24 q-16 -12 -41 -61t-43.5 -103.5t-23.5 -97.5z" />
<glyph unicode="&#xc8;" horiz-adv-x="1531" d="M96 1442q0 -59 19.5 -72.5t46.5 -13.5q29 0 61.5 1t57.5 -26q25 -29 42 -121t27 -215t11 -260t-5 -257t-19 -205t-33.5 -103t-44 -23.5t-49.5 -10.5t-51.5 -16t-49.5 -40q-4 -43 31.5 -59.5t83.5 -14.5t97.5 15.5t71.5 31.5q39 -10 102.5 -20t132 -15.5t129 1t93.5 30.5 l47 -18q27 4 71 6t91 2q49 0 95 -1t75 -3q18 -2 30.5 -14.5t25.5 -24.5t32.5 -19.5t52.5 0.5q8 20 27.5 74.5t38 123.5t32 141.5t9.5 129t-32 86t-87 15.5q-29 -53 -53.5 -99.5t-50 -88.5t-56.5 -84t-70 -85q-20 -6 -45.5 -13t-51 -17t-49.5 -22.5t-40 -24.5q-20 4 -52 2 t-63.5 -4t-60.5 1t-43 17q-29 27 -52.5 92.5t-39 143t-18.5 155.5t10.5 134.5t46 77t88.5 -16.5h55q8 -10 33.5 -35t55.5 -51.5t54.5 -48t34.5 -27.5l53 8q2 37 -1 72t-8 67.5t-9 65.5t-4 68q2 31 12 79t16.5 97t2.5 92t-35 63q-29 20 -46.5 -9.5t-28.5 -75.5t-20.5 -91 t-23.5 -55q-18 -12 -55 -34.5t-76 -37t-71.5 -11.5t-39.5 40q-29 147 -32.5 249.5t40.5 159t147 67.5t288 -21q41 -53 87 -102.5t87 -102.5q12 -16 19 -39t14.5 -45.5t16.5 -45t26 -40.5q4 -4 12 -9.5t17.5 -8.5t16.5 0.5t11 13.5q2 10 3 50t-1 94t-5 115.5t-7 115t-10.5 89 t-10.5 42.5q-39 37 -66.5 45t-53 1.5t-52 -16.5t-63.5 -8q-20 0 -41 7t-41.5 15.5t-41 12.5t-42.5 -2q-53 -14 -103.5 -25.5t-98.5 -12.5t-96 10t-95 42q-25 -4 -70 -4h-98t-109.5 -2t-102.5 -11t-76 -28.5t-30 -54.5zM590 2011q-10 -35 1 -58.5t29.5 -44t38 -39t27.5 -42.5 q8 -23 12 -48.5t21 -43.5q14 -14 34.5 -23.5t30.5 -23.5q8 -10 23.5 -30t32 -38t34 -32.5t29.5 -14.5t18.5 19.5t0.5 66.5q0 6 -2 26.5t-7 24.5q-6 23 -21 46.5t-26 43.5q-23 49 -41 90t-41.5 76t-55.5 66.5t-83 60.5q-16 -16 -32.5 -37.5t-22.5 -44.5z" />
<glyph unicode="&#xc9;" horiz-adv-x="1531" d="M96 1442q0 -59 19.5 -72.5t46.5 -13.5q29 0 61.5 1t57.5 -26q25 -29 42 -121t27 -215t11 -260t-5 -257t-19 -205t-33.5 -103t-44 -23.5t-49.5 -10.5t-51.5 -16t-49.5 -40q-4 -43 31.5 -59.5t83.5 -14.5t97.5 15.5t71.5 31.5q39 -10 102.5 -20t132 -15.5t129 1t93.5 30.5 l47 -18q27 4 71 6t91 2q49 0 95 -1t75 -3q18 -2 30.5 -14.5t25.5 -24.5t32.5 -19.5t52.5 0.5q8 20 27.5 74.5t38 123.5t32 141.5t9.5 129t-32 86t-87 15.5q-29 -53 -53.5 -99.5t-50 -88.5t-56.5 -84t-70 -85q-20 -6 -45.5 -13t-51 -17t-49.5 -22.5t-40 -24.5q-20 4 -52 2 t-63.5 -4t-60.5 1t-43 17q-29 27 -52.5 92.5t-39 143t-18.5 155.5t10.5 134.5t46 77t88.5 -16.5h55q8 -10 33.5 -35t55.5 -51.5t54.5 -48t34.5 -27.5l53 8q2 37 -1 72t-8 67.5t-9 65.5t-4 68q2 31 12 79t16.5 97t2.5 92t-35 63q-29 20 -46.5 -9.5t-28.5 -75.5t-20.5 -91 t-23.5 -55q-18 -12 -55 -34.5t-76 -37t-71.5 -11.5t-39.5 40q-29 147 -32.5 249.5t40.5 159t147 67.5t288 -21q41 -53 87 -102.5t87 -102.5q12 -16 19 -39t14.5 -45.5t16.5 -45t26 -40.5q4 -4 12 -9.5t17.5 -8.5t16.5 0.5t11 13.5q2 10 3 50t-1 94t-5 115.5t-7 115t-10.5 89 t-10.5 42.5q-39 37 -66.5 45t-53 1.5t-52 -16.5t-63.5 -8q-20 0 -41 7t-41.5 15.5t-41 12.5t-42.5 -2q-53 -14 -103.5 -25.5t-98.5 -12.5t-96 10t-95 42q-25 -4 -70 -4h-98t-109.5 -2t-102.5 -11t-76 -28.5t-30 -54.5zM715 1623q-6 -42 6 -54q12 -14 26.5 -13.5t27.5 10 t24.5 23t17.5 23.5q6 6 16.5 24.5t21.5 41t24.5 43t25.5 30.5q18 14 26.5 27.5t14.5 27t12.5 26.5t18.5 28q16 16 32.5 40.5t24.5 51t4.5 53.5t-26.5 45q-47 39 -80 21.5t-57.5 -59.5t-43 -89t-36.5 -65q-12 -12 -29.5 -55.5t-31 -90.5t-19.5 -89z" />
<glyph unicode="&#xca;" horiz-adv-x="1531" d="M96 1442q0 -59 19.5 -72.5t46.5 -13.5q29 0 61.5 1t57.5 -26q25 -29 42 -121t27 -215t11 -260t-5 -257t-19 -205t-33.5 -103t-44 -23.5t-49.5 -10.5t-51.5 -16t-49.5 -40q-4 -43 31.5 -59.5t83.5 -14.5t97.5 15.5t71.5 31.5q39 -10 102.5 -20t132 -15.5t129 1t93.5 30.5 l47 -18q27 4 71 6t91 2q49 0 95 -1t75 -3q18 -2 30.5 -14.5t25.5 -24.5t32.5 -19.5t52.5 0.5q8 20 27.5 74.5t38 123.5t32 141.5t9.5 129t-32 86t-87 15.5q-29 -53 -53.5 -99.5t-50 -88.5t-56.5 -84t-70 -85q-20 -6 -45.5 -13t-51 -17t-49.5 -22.5t-40 -24.5q-20 4 -52 2 t-63.5 -4t-60.5 1t-43 17q-29 27 -52.5 92.5t-39 143t-18.5 155.5t10.5 134.5t46 77t88.5 -16.5h55q8 -10 33.5 -35t55.5 -51.5t54.5 -48t34.5 -27.5l53 8q2 37 -1 72t-8 67.5t-9 65.5t-4 68q2 31 12 79t16.5 97t2.5 92t-35 63q-29 20 -46.5 -9.5t-28.5 -75.5t-20.5 -91 t-23.5 -55q-18 -12 -55 -34.5t-76 -37t-71.5 -11.5t-39.5 40q-29 147 -32.5 249.5t40.5 159t147 67.5t288 -21q41 -53 87 -102.5t87 -102.5q12 -16 19 -39t14.5 -45.5t16.5 -45t26 -40.5q4 -4 12 -9.5t17.5 -8.5t16.5 0.5t11 13.5q2 10 3 50t-1 94t-5 115.5t-7 115t-10.5 89 t-10.5 42.5q-39 37 -66.5 45t-53 1.5t-52 -16.5t-63.5 -8q-20 0 -41 7t-41.5 15.5t-41 12.5t-42.5 -2q-53 -14 -103.5 -25.5t-98.5 -12.5t-96 10t-95 42q-25 -4 -70 -4h-98t-109.5 -2t-102.5 -11t-76 -28.5t-30 -54.5zM510 1585q6 -16 19.5 -14t26.5 11t25.5 21.5t16.5 18.5 q6 12 24.5 27.5t38 33t36 32t20.5 22.5q6 14 18.5 29.5t27.5 27.5t33.5 16.5t34.5 -4.5q8 -4 32 -29.5t54.5 -57t64.5 -65.5t62.5 -54.5t50 -22.5t27.5 29q2 14 -15 54t-46 90t-64.5 104.5t-70.5 99.5t-66 73.5t-47 28.5q-37 0 -66.5 -26.5t-52 -63.5t-42 -76t-38.5 -65 q-10 -14 -29.5 -48t-38 -72t-30.5 -72t-6 -48z" />
<glyph unicode="&#xcb;" horiz-adv-x="1531" d="M96 1442q0 -59 19.5 -72.5t46.5 -13.5q29 0 61.5 1t57.5 -26q25 -29 42 -121t27 -215t11 -260t-5 -257t-19 -205t-33.5 -103t-44 -23.5t-49.5 -10.5t-51.5 -16t-49.5 -40q-4 -43 31.5 -59.5t83.5 -14.5t97.5 15.5t71.5 31.5q39 -10 102.5 -20t132 -15.5t129 1t93.5 30.5 l47 -18q27 4 71 6t91 2q49 0 95 -1t75 -3q18 -2 30.5 -14.5t25.5 -24.5t32.5 -19.5t52.5 0.5q8 20 27.5 74.5t38 123.5t32 141.5t9.5 129t-32 86t-87 15.5q-29 -53 -53.5 -99.5t-50 -88.5t-56.5 -84t-70 -85q-20 -6 -45.5 -13t-51 -17t-49.5 -22.5t-40 -24.5q-20 4 -52 2 t-63.5 -4t-60.5 1t-43 17q-29 27 -52.5 92.5t-39 143t-18.5 155.5t10.5 134.5t46 77t88.5 -16.5h55q8 -10 33.5 -35t55.5 -51.5t54.5 -48t34.5 -27.5l53 8q2 37 -1 72t-8 67.5t-9 65.5t-4 68q2 31 12 79t16.5 97t2.5 92t-35 63q-29 20 -46.5 -9.5t-28.5 -75.5t-20.5 -91 t-23.5 -55q-18 -12 -55 -34.5t-76 -37t-71.5 -11.5t-39.5 40q-29 147 -32.5 249.5t40.5 159t147 67.5t288 -21q41 -53 87 -102.5t87 -102.5q12 -16 19 -39t14.5 -45.5t16.5 -45t26 -40.5q4 -4 12 -9.5t17.5 -8.5t16.5 0.5t11 13.5q2 10 3 50t-1 94t-5 115.5t-7 115t-10.5 89 t-10.5 42.5q-39 37 -66.5 45t-53 1.5t-52 -16.5t-63.5 -8q-20 0 -41 7t-41.5 15.5t-41 12.5t-42.5 -2q-53 -14 -103.5 -25.5t-98.5 -12.5t-96 10t-95 42q-25 -4 -70 -4h-98t-109.5 -2t-102.5 -11t-76 -28.5t-30 -54.5zM498 1806q-10 -23 2 -58.5t18 -57.5q14 -53 48 -58.5 t70 13t64.5 45t32.5 36.5q18 49 0 102.5t-57 79t-87 8t-91 -109.5zM884 1847.5q-1 -10.5 1 -25t0 -34.5q-6 -31 0 -49.5t18 -31.5t30.5 -25.5t37 -31t47.5 -7t56.5 34t48 52.5t22.5 48q4 45 -17.5 75.5t-55.5 46t-75 14.5t-73 -22q-23 -14 -31 -24t-9 -20.5z" />
<glyph unicode="&#xcc;" horiz-adv-x="868" d="M92.5 1473.5q-10.5 -31.5 11 -58t65.5 -42t89 -15.5q18 -16 38.5 -30.5t39.5 -31.5q2 -57 10 -150t15.5 -202.5t10.5 -228.5t-2 -224.5t-22.5 -189.5t-52.5 -127q-35 2 -66.5 -16.5t-66.5 -22.5q-16 -23 -19.5 -52.5t19.5 -49.5q31 -4 67.5 -10.5t73.5 -9.5t72 3.5 t61 26.5q41 -10 74 -14t64.5 -5t65.5 0t75 1q27 0 47 15t27.5 35.5t0 41t-33.5 33.5l-45 -17q-47 23 -72 77t-34 126t-5 153.5t11 160.5t16.5 146.5t13.5 108.5q2 35 -2 92.5t-6 118t2 112.5t22 79q10 14 35 28.5t54.5 29.5t56 31.5t42 36t12.5 41t-34 48.5q-12 12 -45 15 t-71 3q-37 0 -74 1t-62 7q-12 -4 -43.5 -8t-73.5 -6t-89.5 -3t-88 0t-71.5 3t-41 6q-61 -35 -71.5 -66.5zM289 2034q-10 -37 1 -61.5t29.5 -44t38 -38t27.5 -43.5q8 -23 12 -49t21 -45q14 -14 33.5 -23.5t31.5 -23.5q6 -8 23.5 -33.5t38 -48t41 -31t32.5 22.5 q12 29 7.5 64.5t-19 72.5t-34 69.5t-35.5 57.5q-16 23 -18.5 46.5t-18.5 45.5q-20 25 -49 64t-60 61.5t-58.5 13t-43.5 -76.5z" />
<glyph unicode="&#xcd;" horiz-adv-x="868" d="M92.5 1473.5q-10.5 -31.5 11 -58t65.5 -42t89 -15.5q18 -16 38.5 -30.5t39.5 -31.5q2 -57 10 -150t15.5 -202.5t10.5 -228.5t-2 -224.5t-22.5 -189.5t-52.5 -127q-35 2 -66.5 -16.5t-66.5 -22.5q-16 -23 -19.5 -52.5t19.5 -49.5q31 -4 67.5 -10.5t73.5 -9.5t72 3.5 t61 26.5q41 -10 74 -14t64.5 -5t65.5 0t75 1q27 0 47 15t27.5 35.5t0 41t-33.5 33.5l-45 -17q-47 23 -72 77t-34 126t-5 153.5t11 160.5t16.5 146.5t13.5 108.5q2 35 -2 92.5t-6 118t2 112.5t22 79q10 14 35 28.5t54.5 29.5t56 31.5t42 36t12.5 41t-34 48.5q-12 12 -45 15 t-71 3q-37 0 -74 1t-62 7q-12 -4 -43.5 -8t-73.5 -6t-89.5 -3t-88 0t-71.5 3t-41 6q-61 -35 -71.5 -66.5zM413 1655q-5 -43 5 -56q23 -29 49.5 -6t53 62t48 79t33.5 48q18 12 26.5 26.5t14.5 27.5t12.5 27.5t18.5 26.5q45 45 56 87t-1 72t-41 41t-63.5 -4t-70.5 -62.5 t-62 -135.5q-14 -10 -32 -52t-30 -90t-17 -91z" />
<glyph unicode="&#xce;" horiz-adv-x="864" d="M67.5 1473.5q-10.5 -31.5 11 -58t65.5 -42t89 -15.5q18 -16 39 -30.5t39 -31.5q2 -57 10.5 -150t15.5 -202.5t10 -228.5t-2 -224.5t-22.5 -189.5t-52.5 -127q-35 2 -66.5 -16.5t-66.5 -22.5q-16 -23 -19 -52.5t19 -49.5q31 -4 68 -10.5t73.5 -9.5t71.5 3.5t62 26.5 q41 -10 73.5 -14t64.5 -5t65.5 0t74.5 1q27 0 47.5 15t27.5 35.5t0 41t-34 33.5l-45 -17q-47 23 -71.5 77t-34 126t-5 153.5t11.5 160.5t17 146.5t12 108.5q2 35 -2 92.5t-6 118t2 112.5t23 79q10 14 34.5 28.5t54.5 29.5t56.5 31.5t42 36t12.5 41t-34 48.5q-12 12 -45 15 t-72 3q-37 0 -74 1t-61 7q-12 -4 -44 -8t-74 -6t-89 -3t-88 0t-71.5 3t-41.5 6q-61 -35 -71.5 -66.5zM145 1585q6 -16 19.5 -14t27 11t24.5 21.5t15 18.5q8 12 25.5 27.5t37 33t36 32t20.5 22.5q6 14 18.5 29.5t29 27.5t35 16.5t34.5 -4.5q8 -4 31.5 -29.5t54.5 -57 t64.5 -65.5t62.5 -54.5t50.5 -22.5t25.5 29q2 14 -14.5 54t-45 90t-64.5 104.5t-71 99.5t-65.5 73.5t-46.5 28.5q-37 0 -67 -26.5t-53.5 -63.5t-42 -76t-36.5 -65q-10 -14 -29.5 -48t-38 -72t-31 -72t-6.5 -48z" />
<glyph unicode="&#xcf;" horiz-adv-x="864" d="M67.5 1473.5q-10.5 -31.5 11 -58t65.5 -42t89 -15.5q18 -16 39 -30.5t39 -31.5q2 -57 10.5 -150t15.5 -202.5t10 -228.5t-2 -224.5t-22.5 -189.5t-52.5 -127q-35 2 -66.5 -16.5t-66.5 -22.5q-16 -23 -19 -52.5t19 -49.5q31 -4 68 -10.5t73.5 -9.5t71.5 3.5t62 26.5 q41 -10 73.5 -14t64.5 -5t65.5 0t74.5 1q27 0 47.5 15t27.5 35.5t0 41t-34 33.5l-45 -17q-47 23 -71.5 77t-34 126t-5 153.5t11.5 160.5t17 146.5t12 108.5q2 35 -2 92.5t-6 118t2 112.5t23 79q10 14 34.5 28.5t54.5 29.5t56.5 31.5t42 36t12.5 41t-34 48.5q-12 12 -45 15 t-72 3q-37 0 -74 1t-61 7q-12 -4 -44 -8t-74 -6t-89 -3t-88 0t-71.5 3t-41.5 6q-61 -35 -71.5 -66.5zM136 1778.5q1 -15.5 5 -30.5t9.5 -30.5t9.5 -27.5q14 -53 48 -58.5t69.5 13t64.5 45t33 36.5q18 49 -0.5 102.5t-57 79t-87 8t-91.5 -109.5q-4 -12 -3 -27.5zM525 1847.5 q-1 -10.5 1 -25t0 -34.5q-6 -31 0 -49.5t18.5 -31.5t31 -25.5t37 -31t48 -7t57 34t47 52.5t21.5 48q6 45 -15 75.5t-56 46t-76 14.5t-74 -22q-23 -14 -31 -24t-9 -20.5z" />
<glyph unicode="&#xd1;" horiz-adv-x="1685" d="M119 1446q-2 -51 14.5 -74.5t43 -33t60 -10.5t66.5 -5t60.5 -17.5t39.5 -48.5q23 -59 45.5 -122.5t28.5 -128.5l-4 -330q0 -39 8 -78t-8 -76q-14 -31 -21.5 -48t-8.5 -32.5t0 -34t1 -53.5q2 -47 -19.5 -72.5t-54 -39t-71.5 -22.5t-72.5 -23.5t-56.5 -41t-23 -75.5 q0 -31 51.5 -49.5t129.5 -26.5t168 -5t169.5 15.5t134 36t58.5 56t-8 46t-34.5 18.5t-50.5 10t-55.5 21.5t-50 49.5t-32.5 96q-4 23 -10.5 76t-12.5 120.5t-11 140.5t-5 136t6 106.5t20 51.5q23 12 46.5 14t44.5 -16q14 -14 53 -65.5t89 -121t104.5 -149.5t100.5 -151.5 t78.5 -127t39 -76t41 -61.5t77.5 -75.5t83 -50t56 17.5q10 20 13.5 84.5t2.5 153.5t-6 189.5t-10.5 193.5t-9.5 167t-4 109q0 31 3 73.5t12.5 87t23.5 84t37 62.5q16 18 49 33.5t64.5 34t54 40t16.5 52.5q-10 55 -37.5 67.5t-64.5 7t-78 -15.5t-78 2q-18 -10 -57 -9t-86 4 t-93 6t-78 -3t-44.5 -25.5t12.5 -60.5q23 -39 66 -59.5t84 -40t70.5 -45t27.5 -72.5q-4 -61 -5 -117.5t0 -110t4 -109.5t9 -118q2 -18 -16.5 -26t-43 -9.5t-48 3t-33.5 10.5q-25 14 -51.5 53t-55 87t-61.5 96t-70 79q-18 16 -25.5 32.5t-9.5 32t-5 32t-15 32.5 q-12 18 -26.5 30.5t-28 25t-24.5 28t-17 39.5q-8 25 -7.5 60.5t-5.5 65.5t-25.5 41t-66.5 -13q-47 37 -95 49t-95 12q-45 0 -88 -7t-80 -9q-35 -2 -72 9t-67.5 12t-51 -18.5t-22.5 -82.5zM547 1704q6 -45 31.5 -46t56.5 16.5t59.5 39t38.5 21.5q27 -4 59.5 -1t57.5 -5 q16 -6 26.5 -16.5t20.5 -21t23.5 -19.5t35.5 -13q29 -6 55.5 -13.5t52.5 -10.5t51.5 -1t53.5 19q27 14 55.5 53t41 82t2 80t-59.5 47q-47 -49 -96 -60.5t-101.5 -3t-105.5 29t-104 36.5q-49 -18 -78 -21.5t-50.5 -10.5t-43 -26.5t-56.5 -68.5q-31 -39 -26 -86z" />
<glyph unicode="&#xd2;" horiz-adv-x="1587" d="M157.5 839q-14.5 -89 14.5 -153q12 -27 15 -77t9.5 -108.5t20.5 -113.5t47 -90q18 -23 43 -39t41 -41q33 -53 55.5 -88t50 -55.5t69.5 -29.5t116 -9q109 -72 212 -82t196.5 24.5t173 107.5t141 169t102.5 207.5t57.5 223.5t5.5 215t-54 185q-47 88 -90.5 140.5 t-88.5 90.5t-92 72.5t-102 88.5q-16 14 -57.5 28.5t-89.5 25.5t-93 17t-67 6q-74 0 -157 -46t-161 -121.5t-145.5 -170t-112.5 -191.5t-59.5 -186zM514 658.5q-4 89.5 0 167t12 128.5q8 45 21.5 99.5t30 109t37 104.5t42.5 91q18 31 55.5 43t78 16t80.5 6t65 15 q10 4 28.5 -5.5t40 -22.5t40 -27.5t28.5 -20.5q39 -27 63.5 -99.5t38 -158.5t18.5 -167t9 -124q2 -25 8.5 -56.5t11.5 -63t6 -62t-5 -53.5q-14 -49 -20.5 -99.5t-11.5 -100.5t-13.5 -99.5t-24.5 -96.5q-18 -51 -45 -73.5t-60.5 -28.5t-71.5 -4t-81 0q-25 0 -46.5 -5 t-42 -8.5t-42 -2.5t-45.5 14q-53 27 -90 89t-61.5 142t-37 172t-16.5 181.5zM596 2011q-10 -35 1 -58.5t29.5 -44t38 -39t27.5 -42.5q8 -23 12.5 -48.5t22.5 -43.5q12 -14 32.5 -23.5t31.5 -23.5q8 -10 23 -30t31.5 -38t34 -32.5t29.5 -14.5t18.5 19.5t2.5 66.5 q-2 6 -4 26.5t-4 24.5q-8 23 -23.5 46.5t-26.5 43.5q-23 49 -41 90t-40.5 76t-54 66.5t-83.5 60.5q-16 -16 -33.5 -37.5t-23.5 -44.5z" />
<glyph unicode="&#xd3;" horiz-adv-x="1587" d="M157.5 839q-14.5 -89 14.5 -153q12 -27 15 -77t9.5 -108.5t20.5 -113.5t47 -90q18 -23 43 -39t41 -41q33 -53 55.5 -88t50 -55.5t69.5 -29.5t116 -9q109 -72 212 -82t196.5 24.5t173 107.5t141 169t102.5 207.5t57.5 223.5t5.5 215t-54 185q-47 88 -90.5 140.5 t-88.5 90.5t-92 72.5t-102 88.5q-16 14 -57.5 28.5t-89.5 25.5t-93 17t-67 6q-74 0 -157 -46t-161 -121.5t-145.5 -170t-112.5 -191.5t-59.5 -186zM514 658.5q-4 89.5 0 167t12 128.5q8 45 21.5 99.5t30 109t37 104.5t42.5 91q18 31 55.5 43t78 16t80.5 6t65 15 q10 4 28.5 -5.5t40 -22.5t40 -27.5t28.5 -20.5q39 -27 63.5 -99.5t38 -158.5t18.5 -167t9 -124q2 -25 8.5 -56.5t11.5 -63t6 -62t-5 -53.5q-14 -49 -20.5 -99.5t-11.5 -100.5t-13.5 -99.5t-24.5 -96.5q-18 -51 -45 -73.5t-60.5 -28.5t-71.5 -4t-81 0q-25 0 -46.5 -5 t-42 -8.5t-42 -2.5t-45.5 14q-53 27 -90 89t-61.5 142t-37 172t-16.5 181.5zM744.5 1654.5q-3.5 -18.5 3.5 -28.5q12 -20 29.5 -18t37 18t39.5 41t38.5 49.5t34 44t23.5 25.5q20 12 30.5 24.5t18 25.5t13.5 26.5t20 23.5q18 14 36.5 37t28 47.5t7 51t-22.5 49.5 q-27 31 -51 32.5t-45.5 -12.5t-41 -42t-36 -56.5t-31 -53t-26.5 -34.5q-35 -29 -49.5 -63t-24.5 -77q-2 -12 -9 -31.5t-13 -40t-9.5 -39z" />
<glyph unicode="&#xd4;" horiz-adv-x="1587" d="M157.5 839q-14.5 -89 14.5 -153q12 -27 15 -77t9.5 -108.5t20.5 -113.5t47 -90q18 -23 43 -39t41 -41q33 -53 55.5 -88t50 -55.5t69.5 -29.5t116 -9q109 -72 212 -82t196.5 24.5t173 107.5t141 169t102.5 207.5t57.5 223.5t5.5 215t-54 185q-47 88 -90.5 140.5 t-88.5 90.5t-92 72.5t-102 88.5q-16 14 -57.5 28.5t-89.5 25.5t-93 17t-67 6q-74 0 -157 -46t-161 -121.5t-145.5 -170t-112.5 -191.5t-59.5 -186zM514 658.5q-4 89.5 0 167t12 128.5q8 45 21.5 99.5t30 109t37 104.5t42.5 91q18 31 55.5 43t78 16t80.5 6t65 15 q10 4 28.5 -5.5t40 -22.5t40 -27.5t28.5 -20.5q39 -27 63.5 -99.5t38 -158.5t18.5 -167t9 -124q2 -25 8.5 -56.5t11.5 -63t6 -62t-5 -53.5q-14 -49 -20.5 -99.5t-11.5 -100.5t-13.5 -99.5t-24.5 -96.5q-18 -51 -45 -73.5t-60.5 -28.5t-71.5 -4t-81 0q-25 0 -46.5 -5 t-42 -8.5t-42 -2.5t-45.5 14q-53 27 -90 89t-61.5 142t-37 172t-16.5 181.5zM535 1585q6 -16 18 -14t25.5 11t25.5 21.5t17 18.5q8 12 25.5 27.5t36.5 33t35.5 32t20.5 22.5q6 14 18.5 29.5t29 27.5t34 16.5t33.5 -4.5q8 -4 31.5 -29.5t54.5 -57t64.5 -65.5t62.5 -54.5 t50.5 -22.5t27.5 29q2 14 -15.5 54t-46 90t-64.5 104.5t-71 99.5t-65.5 73.5t-46.5 28.5q-37 0 -67 -26.5t-52.5 -63.5t-41 -76t-36.5 -65q-10 -14 -29.5 -48t-38 -72t-31 -72t-5.5 -48z" />
<glyph unicode="&#xd5;" horiz-adv-x="1587" d="M157.5 839q-14.5 -89 14.5 -153q12 -27 15 -77t9.5 -108.5t20.5 -113.5t47 -90q18 -23 43 -39t41 -41q33 -53 55.5 -88t50 -55.5t69.5 -29.5t116 -9q109 -72 212 -82t196.5 24.5t173 107.5t141 169t102.5 207.5t57.5 223.5t5.5 215t-54 185q-47 88 -90.5 140.5 t-88.5 90.5t-92 72.5t-102 88.5q-16 14 -57.5 28.5t-89.5 25.5t-93 17t-67 6q-74 0 -157 -46t-161 -121.5t-145.5 -170t-112.5 -191.5t-59.5 -186zM506 1686q2 -41 33.5 -40t70.5 19t78 41t57 27q27 4 46.5 -10.5t37 -32t37 -30.5t47.5 -7q25 4 43.5 -7.5t41 -22.5t52 -12 t76.5 23q29 14 56.5 53t40 82t2 80t-57.5 47q-49 -41 -84.5 -58t-65.5 -20t-56.5 6t-55 22.5t-63.5 28.5t-82 23q-8 2 -34 -5t-53.5 -17t-50 -21.5t-26.5 -17.5q-16 -25 -19.5 -38t-29.5 -34q-18 -12 -31.5 -34.5t-9.5 -44.5zM514 658.5q-4 89.5 0 167t12 128.5 q8 45 21.5 99.5t30 109t37 104.5t42.5 91q18 31 55.5 43t78 16t80.5 6t65 15q10 4 28.5 -5.5t40 -22.5t40 -27.5t28.5 -20.5q39 -27 63.5 -99.5t38 -158.5t18.5 -167t9 -124q2 -25 8.5 -56.5t11.5 -63t6 -62t-5 -53.5q-14 -49 -20.5 -99.5t-11.5 -100.5t-13.5 -99.5 t-24.5 -96.5q-18 -51 -45 -73.5t-60.5 -28.5t-71.5 -4t-81 0q-25 0 -46.5 -5t-42 -8.5t-42 -2.5t-45.5 14q-53 27 -90 89t-61.5 142t-37 172t-16.5 181.5z" />
<glyph unicode="&#xd6;" horiz-adv-x="1566" d="M157.5 839q-14.5 -89 14.5 -153q12 -27 15 -77t9.5 -108.5t20.5 -113.5t47 -90q18 -23 43 -39t41 -41q33 -53 55.5 -88t50 -55.5t69.5 -29.5t116 -9q109 -72 212 -82t196.5 24.5t173 107.5t141 169t102.5 207.5t57.5 223.5t5.5 215t-54 185q-47 88 -90.5 140.5 t-88.5 90.5t-92 72.5t-102 88.5q-16 14 -57.5 28.5t-89.5 25.5t-93 17t-67 6q-74 0 -157 -46t-161 -121.5t-145.5 -170t-112.5 -191.5t-59.5 -186zM514 658.5q-4 89.5 0 167t12 128.5q8 45 21.5 99.5t30 109t37 104.5t42.5 91q18 31 55.5 43t78 16t80.5 6t65 15 q10 4 28.5 -5.5t40 -22.5t40 -27.5t28.5 -20.5q39 -27 63.5 -99.5t38 -158.5t18.5 -167t9 -124q2 -25 8.5 -56.5t11.5 -63t6 -62t-5 -53.5q-14 -49 -20.5 -99.5t-11.5 -100.5t-13.5 -99.5t-24.5 -96.5q-18 -51 -45 -73.5t-60.5 -28.5t-71.5 -4t-81 0q-25 0 -46.5 -5 t-42 -8.5t-42 -2.5t-45.5 14q-53 27 -90 89t-61.5 142t-37 172t-16.5 181.5zM559 1806q-10 -23 2 -58.5t19 -57.5q14 -53 48 -58.5t69.5 13t63.5 45t32 36.5q18 49 0.5 102.5t-56.5 79t-87 8t-91 -109.5zM944 1788q-4 -31 1 -49.5t18.5 -31.5t31 -25.5t37.5 -30.5 q18 -18 47 -7t56.5 33.5t48 52.5t22.5 48q4 45 -17.5 75.5t-55 46t-74.5 14.5t-74 -22q-23 -14 -31 -24t-9 -20.5t1 -25t-2 -34.5z" />
<glyph unicode="&#xd8;" horiz-adv-x="1589" d="M156 788q0 -51 9 -96t3 -98q-6 -57 15.5 -116.5t56 -117t73.5 -110.5t68 -98q-70 -94 -80 -159t13.5 -83.5t69.5 15.5t89 138q20 -10 47 -14t50.5 -6t42 -3t26.5 -5q41 -23 90 -45.5t101.5 -35.5t106.5 -12t103 25q88 45 167 112.5t140.5 150.5t100.5 178.5t45 193.5 q2 33 12.5 66.5t19.5 67.5t12 67.5t-9 66.5q-18 51 -23.5 109.5t-31.5 105.5q-41 70 -95.5 126.5t-91.5 119.5q74 111 81 171.5t-22.5 71.5t-80 -27t-88.5 -124q-51 25 -94.5 48.5t-86.5 42t-92 29.5t-110 11q-72 0 -147 -38.5t-145.5 -102t-134 -144.5t-110.5 -167 t-73.5 -168t-26.5 -146zM520.5 666.5q-6.5 119.5 4 237.5t42 231.5t90.5 222.5q12 25 48 37t79 18t85 11.5t67 13.5q14 4 39.5 -9.5t53.5 -35t49.5 -45t27.5 -35.5q-45 -68 -89 -134.5t-93 -131.5q-29 -35 -44.5 -76t-39.5 -78q-41 -59 -80 -119.5t-84 -120.5 q-41 -53 -67.5 -112.5t-63.5 -112.5q-18 119 -24.5 238.5zM582 248q14 18 37.5 52t53 75t59.5 86t56.5 86t45 73.5t24.5 51.5q14 43 54 103.5t87.5 124t93.5 122.5t74 98q8 -8 14.5 -46t12.5 -93t11 -118.5t8.5 -121t5.5 -102.5t4 -61q0 -2 -5.5 -31t-12.5 -71t-15 -92 t-16.5 -94t-13.5 -74t-7 -34q-18 -53 -57 -76.5t-88.5 -31.5t-102.5 -8t-98 -7q-43 -6 -77 11.5t-61.5 46t-49 63.5t-37.5 68z" />
<glyph unicode="&#xd9;" horiz-adv-x="1429" d="M95 1389.5q1 -31.5 21.5 -47t52.5 -23.5t60.5 -25.5t45 -54.5t6.5 -109q-8 -55 -15.5 -139t-11.5 -183t-2 -203.5t12 -199t31.5 -169t56.5 -113.5q8 -10 39 -26.5t72 -35t88 -37t89 -31.5t73.5 -21.5t42.5 -4.5q33 12 65 13q33 0 60.5 -3.5t48 -5.5t31.5 4 q121 80 185 175.5t92 202t29 221t-5.5 232.5t-9.5 236.5t16 233.5q6 37 18 52t27.5 19.5t32 2.5t31 2t23.5 20t11 55q2 43 -5 61.5t-22.5 27t-37 10.5t-50.5 8q-25 6 -79 6q-55 0 -114 -7t-111 -23.5t-70.5 -41t2 -51t53.5 -54.5t66.5 -57.5t43.5 -60.5q8 -27 12.5 -105.5 t5.5 -183t-2 -220t-10.5 -216t-18.5 -172.5t-25 -86q-43 -41 -98.5 -75.5t-119.5 -34.5q-84 0 -133 38.5t-75.5 101t-34.5 140.5t-8 156q0 80 3 151.5t-1 120.5q-6 86 -21.5 174t-15.5 174q0 31 14 58.5t36.5 48t52.5 32t59 9.5q27 -4 35 5t14 34q8 29 7 55.5t-11.5 41.5 t-32 13t-53.5 -32q-10 0 -17.5 6t-14.5 14t-14.5 15.5t-17.5 9.5q-20 -14 -61 -15q-39 0 -86 6.5t-99.5 13.5t-97.5 8t-80 -8.5t-49 -35.5q-35 -66 -34 -97.5zM528 2034q-10 -37 1.5 -61.5t30 -44t37.5 -38t28 -43.5q8 -23 12 -49t22 -45q14 -14 33 -23.5t33 -23.5 q6 -8 23.5 -33.5t38 -48t41 -31t32.5 22.5q12 29 7 64.5t-20.5 72.5t-34.5 69.5t-36 57.5q-16 23 -18 46.5t-19 45.5q-20 25 -48.5 64t-58.5 61.5t-57.5 13t-46.5 -76.5z" />
<glyph unicode="&#xda;" horiz-adv-x="1429" d="M95 1389.5q1 -31.5 21.5 -47t52.5 -23.5t60.5 -25.5t45 -54.5t6.5 -109q-8 -55 -15.5 -139t-11.5 -183t-2 -203.5t12 -199t31.5 -169t56.5 -113.5q8 -10 39 -26.5t72 -35t88 -37t89 -31.5t73.5 -21.5t42.5 -4.5q33 12 65 13q33 0 60.5 -3.5t48 -5.5t31.5 4 q121 80 185 175.5t92 202t29 221t-5.5 232.5t-9.5 236.5t16 233.5q6 37 18 52t27.5 19.5t32 2.5t31 2t23.5 20t11 55q2 43 -5 61.5t-22.5 27t-37 10.5t-50.5 8q-25 6 -79 6q-55 0 -114 -7t-111 -23.5t-70.5 -41t2 -51t53.5 -54.5t66.5 -57.5t43.5 -60.5q8 -27 12.5 -105.5 t5.5 -183t-2 -220t-10.5 -216t-18.5 -172.5t-25 -86q-43 -41 -98.5 -75.5t-119.5 -34.5q-84 0 -133 38.5t-75.5 101t-34.5 140.5t-8 156q0 80 3 151.5t-1 120.5q-6 86 -21.5 174t-15.5 174q0 31 14 58.5t36.5 48t52.5 32t59 9.5q27 -4 35 5t14 34q8 29 7 55.5t-11.5 41.5 t-32 13t-53.5 -32q-10 0 -17.5 6t-14.5 14t-14.5 15.5t-17.5 9.5q-20 -14 -61 -15q-39 0 -86 6.5t-99.5 13.5t-97.5 8t-80 -8.5t-49 -35.5q-35 -66 -34 -97.5zM670 1654.5q-2 -18.5 4 -28.5q18 -31 47 -13.5t58.5 53.5t56 74t38.5 46q20 12 30.5 24.5t18 25.5t14.5 26.5 t19 23.5q18 14 37 37t29 47.5t8 51t-22 49.5q-29 31 -53.5 32.5t-46 -12.5t-41 -42t-36 -56.5t-31 -53t-26.5 -34.5q-35 -29 -48 -63t-24 -77q-4 -12 -11 -31.5t-13 -40t-8 -39z" />
<glyph unicode="&#xdb;" horiz-adv-x="1429" d="M95 1389.5q1 -31.5 21.5 -47t52.5 -23.5t60.5 -25.5t45 -54.5t6.5 -109q-8 -55 -15.5 -139t-11.5 -183t-2 -203.5t12 -199t31.5 -169t56.5 -113.5q8 -10 39 -26.5t72 -35t88 -37t89 -31.5t73.5 -21.5t42.5 -4.5q33 12 65 13q33 0 60.5 -3.5t48 -5.5t31.5 4 q121 80 185 175.5t92 202t29 221t-5.5 232.5t-9.5 236.5t16 233.5q6 37 18 52t27.5 19.5t32 2.5t31 2t23.5 20t11 55q2 43 -5 61.5t-22.5 27t-37 10.5t-50.5 8q-25 6 -79 6q-55 0 -114 -7t-111 -23.5t-70.5 -41t2 -51t53.5 -54.5t66.5 -57.5t43.5 -60.5q8 -27 12.5 -105.5 t5.5 -183t-2 -220t-10.5 -216t-18.5 -172.5t-25 -86q-43 -41 -98.5 -75.5t-119.5 -34.5q-84 0 -133 38.5t-75.5 101t-34.5 140.5t-8 156q0 80 3 151.5t-1 120.5q-6 86 -21.5 174t-15.5 174q0 31 14 58.5t36.5 48t52.5 32t59 9.5q27 -4 35 5t14 34q8 29 7 55.5t-11.5 41.5 t-32 13t-53.5 -32q-10 0 -17.5 6t-14.5 14t-14.5 15.5t-17.5 9.5q-20 -14 -61 -15q-39 0 -86 6.5t-99.5 13.5t-97.5 8t-80 -8.5t-49 -35.5q-35 -66 -34 -97.5zM481 1585q6 -16 18.5 -14t26 11t25.5 21.5t16 18.5q8 12 25.5 27.5t37 33t36 32t20.5 22.5q6 14 18.5 29.5 t29 27.5t33.5 16.5t34 -4.5q8 -4 31.5 -29.5t54.5 -57t64.5 -65.5t62 -54.5t50.5 -22.5t28 29q2 14 -15.5 54t-46.5 90t-64.5 104.5t-70.5 99.5t-64.5 73.5t-46.5 28.5q-39 0 -67.5 -26.5t-52 -63.5t-42 -76t-36.5 -65q-10 -14 -29.5 -48t-38 -72t-31 -72t-6.5 -48z" />
<glyph unicode="&#xdc;" horiz-adv-x="1429" d="M95 1389.5q1 -31.5 21.5 -46t52.5 -21.5t60.5 -24.5t45 -54.5t6.5 -113q-8 -55 -15.5 -140t-11.5 -183t-2 -202.5t12 -199t31.5 -169t56.5 -113.5q8 -10 39 -26.5t72 -35t88 -37t89 -31.5t73.5 -21.5t42.5 -4.5q33 12 65 13q33 0 60.5 -3.5t48 -5.5t31.5 4 q121 80 185 175.5t92 202t29 221t-5.5 232.5t-9.5 236.5t16 233.5q6 37 18 52t27.5 19.5t32 2.5t31 2t23.5 20t11 55q2 43 -5 61.5t-22.5 27t-37 10.5t-50.5 8q-25 6 -79 6q-55 0 -114 -7t-111 -23.5t-70.5 -41t2 -51t53.5 -54.5t66.5 -57.5t43.5 -60.5q8 -27 12.5 -105.5 t5.5 -183t-2 -220t-10.5 -216t-18.5 -172.5t-25 -86q-43 -41 -98.5 -75.5t-119.5 -34.5q-84 0 -133 38.5t-75.5 101t-34.5 140.5t-8 156q0 80 3 151.5t-1 120.5q-6 86 -21.5 174t-15.5 174q0 31 14 58.5t36.5 48t52.5 32t59 9.5q27 -4 35 5t14 34q8 29 7 55.5t-11.5 41.5 t-32 13t-53.5 -32q-10 0 -17.5 6t-14.5 14t-14.5 15.5t-17.5 9.5q-20 -14 -61 -15q-39 0 -86 6.5t-99.5 13.5t-97.5 8t-80 -8.5t-49 -35.5q-35 -66 -34 -97.5zM457 1786q-8 -33 4 -63.5t36.5 -51t55.5 -28t60.5 5t53 48t31.5 101.5q8 63 -22.5 93t-73.5 28t-86 -36t-59 -97z M884 1724.5q17 -53.5 56 -79t87 -8t91 109.5q10 23 -1 58.5t-17 58.5q-10 35 -28.5 48t-42 11t-48.5 -15.5t-45.5 -28.5t-34.5 -30.5t-16 -21.5q-18 -49 -1 -102.5z" />
<glyph unicode="&#xdf;" horiz-adv-x="1112" d="M42.5 10q12.5 -22 50.5 -37.5t92.5 -21.5t109.5 -1t103 25.5t71 55.5q2 2 3 54t2 134t1 187v217t-1 219t-3 196t-4 148.5t-4 75.5q-4 27 4 47t22.5 38.5t32 37t29.5 38.5q27 14 41 17.5t26.5 0.5t25.5 -9.5t38 -8.5q57 -6 83 -43t32 -85t0 -99t-13 -90 q-4 -25 -33.5 -55.5t-59 -64.5t-47 -71.5t2.5 -78.5q10 -18 30.5 -58.5t48.5 -90.5t57.5 -103.5t58 -100.5t51 -79.5t35.5 -41.5q-2 -29 -1 -54t3 -51t2 -52q0 -27 -4 -60q-35 -37 -57.5 -54t-43.5 -17q-20 0 -42.5 14t-57.5 43q2 106 -19.5 156.5t-52 60.5t-63.5 -11.5 t-53.5 -61t-23.5 -90t27.5 -95.5t101.5 -76.5t196 -36.5q41 -2 77.5 24t67.5 56.5t51.5 57t26.5 30.5l7 26t16.5 55.5t17.5 55t10 27.5q-14 57 -29.5 106.5t-36 93.5t-46 89t-58.5 94q-8 2 -10 -3t0 -10t6 -7t6 6q-4 12 -12 36.5t-19.5 50.5t-24.5 47.5t-24 27.5 q-29 72 -33 112.5t7.5 67.5t33 46t45 48t42 74t22.5 125q4 74 -51 129t-135 86t-165 35t-140 -27q-102 -55 -150.5 -162.5t-64 -241t-8.5 -277.5t18.5 -275t14.5 -233.5t-21 -149.5q-16 -33 -44 -49.5t-59 -27.5t-61.5 -23.5t-55.5 -35.5q-31 -29 -18.5 -51z" />
<glyph unicode="&#xe0;" horiz-adv-x="1095" d="M125 165q-14 -73 33 -128q29 -35 65.5 -52.5t71.5 -43.5q80 10 166 38.5t147 81.5q10 10 27.5 25.5t34.5 11.5q51 -14 74.5 -29.5t35 -28.5t19.5 -25.5t28.5 -19.5t61.5 -8t121 5q12 14 36.5 67.5t44 111.5t25 106.5t-23.5 52.5t-45.5 -12.5t-27.5 -42t-17.5 -55.5 t-15.5 -52.5t-23.5 -31.5t-38.5 5q-18 10 -26.5 61.5t-10.5 126t-3 163t-5.5 171t-14.5 154.5t-35 111q-16 29 -35.5 56.5t-37.5 55.5q-25 4 -49.5 -1t-47.5 5q-70 31 -146.5 26t-143 -35.5t-118.5 -81t-73.5 -109t-4.5 -118.5t85 -112q53 -6 78.5 15.5t38 56.5t18.5 77 t22.5 79t48.5 60.5t95 21.5q39 -2 69.5 -44t41 -99.5t-6 -117t-69.5 -94.5q-8 -14 -30.5 -17t-51.5 -6t-58.5 -10.5t-50.5 -31.5q-51 -16 -112.5 -71.5t-106.5 -125t-59 -142.5zM358.5 1508q-4.5 -35 14 -61t46 -48.5t38.5 -55.5q18 -55 24 -71.5t12.5 -19.5t18.5 -8t41 -38 q6 -6 22.5 -30.5t35 -46t37 -31t28.5 15.5q12 27 7 61.5t-20.5 70.5t-35 69t-33.5 53q-14 23 -16.5 47.5t-18.5 45t-30.5 39t-26.5 40.5q-16 27 -42 37t-48 25q-49 -59 -53.5 -94zM370.5 281.5q8.5 48.5 33 90.5t59.5 56q18 8 38.5 19.5t40 18.5t40 9t43.5 -10 q45 -25 57 -65t1 -84t-41 -87t-67.5 -72.5t-78.5 -41t-76 9t-46.5 64.5t-3 92.5z" />
<glyph unicode="&#xe1;" horiz-adv-x="1095" d="M125 165q-14 -73 33 -128q29 -35 65.5 -52.5t71.5 -43.5q80 10 166 38.5t147 81.5q10 10 27.5 25.5t34.5 11.5q51 -14 74.5 -29.5t35 -28.5t19.5 -25.5t28.5 -19.5t61.5 -8t121 5q12 14 36.5 67.5t44 111.5t25 106.5t-23.5 52.5t-45.5 -12.5t-27.5 -42t-17.5 -55.5 t-15.5 -52.5t-23.5 -31.5t-38.5 5q-18 10 -26.5 61.5t-10.5 126t-3 163t-5.5 171t-14.5 154.5t-35 111q-16 29 -35.5 56.5t-37.5 55.5q-25 4 -49.5 -1t-47.5 5q-70 31 -146.5 26t-143 -35.5t-118.5 -81t-73.5 -109t-4.5 -118.5t85 -112q53 -6 78.5 15.5t38 56.5t18.5 77 t22.5 79t48.5 60.5t95 21.5q39 -2 69.5 -44t41 -99.5t-6 -117t-69.5 -94.5q-8 -14 -30.5 -17t-51.5 -6t-58.5 -10.5t-50.5 -31.5q-51 -16 -112.5 -71.5t-106.5 -125t-59 -142.5zM370.5 281.5q8.5 48.5 33 90.5t59.5 56q18 8 38.5 19.5t40 18.5t40 9t43.5 -10q45 -25 57 -65 t1 -84t-41 -87t-67.5 -72.5t-78.5 -41t-76 9t-46.5 64.5t-3 92.5zM427 1161.5q-3 -18.5 3 -26.5q16 -29 44 -9.5t57.5 55.5t55 72.5t38.5 42.5q20 10 30.5 23.5t16.5 26t13 25.5t22 24q18 14 34.5 35.5t26.5 45t8 48t-20 47.5q-41 45 -75 28.5t-61.5 -55.5t-50 -84 t-39.5 -57q-35 -29 -48 -61.5t-23 -73.5q-2 -12 -9.5 -30.5t-13.5 -38t-9 -38z" />
<glyph unicode="&#xe2;" horiz-adv-x="1101" d="M125 158.5q-14 -72.5 33 -127.5q29 -35 65.5 -52.5t71.5 -44.5q80 10 166 39t147 82q10 10 27.5 25.5t34.5 11.5q51 -14 74.5 -29.5t35 -29t19.5 -25.5t28.5 -19t61.5 -8t121 5q12 14 36.5 67t44 111.5t25 107t-23.5 52.5t-45.5 -12.5t-27.5 -42t-17.5 -55.5t-15.5 -52.5 t-23.5 -31.5t-38.5 5q-18 10 -26.5 61.5t-10.5 126t-3 162.5t-5.5 171t-14.5 155t-35 111q-16 29 -35.5 56.5t-37.5 55.5q-25 4 -49.5 -1t-47.5 5q-70 31 -146.5 26t-143 -36t-118.5 -81t-73.5 -108.5t-4.5 -119t85 -111.5q53 -6 78.5 15.5t38 56.5t18.5 77t22.5 78.5 t48.5 60.5t95 22q39 -2 69.5 -44.5t41 -99.5t-6 -116.5t-69.5 -94.5q-8 -14 -30.5 -17t-51.5 -6t-58.5 -10.5t-50.5 -31.5q-51 -16 -112.5 -71.5t-106.5 -125.5t-59 -142.5zM252 1108q6 -16 19.5 -14t26.5 11t25.5 21.5t16.5 18.5q6 12 24.5 27.5t38 33t36 31.5t20.5 23 q6 14 18 29.5t27.5 27.5t34 16t34.5 -4q8 -4 32 -29.5t54.5 -57.5t64.5 -65.5t62.5 -54t50 -23t27.5 28.5q2 14 -15.5 54.5t-46 90.5t-64.5 104.5t-70.5 99.5t-65.5 73.5t-47 28.5q-37 0 -66.5 -26.5t-52 -63.5t-42 -76t-38.5 -65q-10 -14 -29.5 -48t-38 -72t-30.5 -72 t-6 -48zM370.5 275.5q8.5 48.5 33 90.5t59.5 56q18 8 38.5 19.5t40 18.5t40 9t43.5 -10q45 -25 57 -65t1 -84t-41 -87t-67.5 -72.5t-78.5 -41t-76 9t-46.5 64.5t-3 92.5z" />
<glyph unicode="&#xe3;" horiz-adv-x="1112" d="M125 165q-14 -73 33 -128q29 -35 65.5 -52.5t71.5 -43.5q80 10 166 38.5t147 81.5q10 10 27.5 25.5t34.5 11.5q51 -14 74.5 -29.5t35 -28.5t19.5 -25.5t28.5 -19.5t61.5 -8t121 5q12 14 36.5 67.5t44 111.5t25 106.5t-23.5 52.5t-45.5 -12.5t-27.5 -42t-17.5 -55.5 t-15.5 -52.5t-23.5 -31.5t-38.5 5q-18 10 -26.5 61.5t-10.5 126t-3 163t-5.5 171t-14.5 154.5t-35 111q-16 29 -35.5 56.5t-37.5 55.5q-25 4 -49.5 -1t-47.5 5q-70 31 -146.5 26t-143 -35.5t-118.5 -81t-73.5 -109t-4.5 -118.5t85 -112q53 -6 78.5 15.5t38 56.5t18.5 77 t22.5 79t48.5 60.5t95 21.5q39 -2 69.5 -44t41 -99.5t-6 -117t-69.5 -94.5q-8 -14 -30.5 -17t-51.5 -6t-58.5 -10.5t-50.5 -31.5q-51 -16 -112.5 -71.5t-106.5 -125t-59 -142.5zM195 1237q6 -45 31.5 -46t56 16.5t59.5 39t39 21.5q27 -4 59.5 -1t57.5 -5q16 -6 26.5 -16.5 t20.5 -21t23.5 -19.5t35.5 -13q29 -6 55.5 -13.5t51 -10.5t51 -1t55.5 19q27 14 55.5 53t41 82t2 80t-59.5 47q-47 -49 -96 -60.5t-101.5 -3t-105.5 29t-104 36.5q-49 -18 -78 -21.5t-50.5 -10.5t-43 -26.5t-58.5 -68.5q-12 -18 -19 -40.5t-5 -45.5zM370.5 281.5 q8.5 48.5 33 90.5t59.5 56q18 8 38.5 19.5t40 18.5t40 9t43.5 -10q45 -25 57 -65t1 -84t-41 -87t-67.5 -72.5t-78.5 -41t-76 9t-46.5 64.5t-3 92.5z" />
<glyph unicode="&#xe4;" horiz-adv-x="1134" d="M125 165q-14 -73 33 -128q29 -35 65.5 -52.5t71.5 -43.5q80 10 166 38.5t147 81.5q10 10 27.5 25.5t34.5 11.5q51 -14 74.5 -29.5t35 -28.5t19.5 -25.5t28.5 -19.5t61.5 -8t121 5q12 14 36.5 67.5t44 111.5t25 106.5t-23.5 52.5t-45.5 -12.5t-27.5 -42t-17.5 -55.5 t-15.5 -52.5t-23.5 -31.5t-38.5 5q-18 10 -26.5 61.5t-10.5 126t-3 163t-5.5 171t-14.5 154.5t-35 111q-16 29 -35.5 56.5t-37.5 55.5q-25 4 -49.5 -1t-47.5 5q-70 31 -146.5 26t-143 -35.5t-118.5 -81t-73.5 -109t-4.5 -118.5t85 -112q53 -6 78.5 15.5t38 56.5t18.5 77 t22.5 79t48.5 60.5t95 21.5q39 -2 69.5 -44t41 -99.5t-6 -117t-69.5 -94.5q-8 -14 -30.5 -17t-51.5 -6t-58.5 -10.5t-50.5 -31.5q-51 -16 -112.5 -71.5t-106.5 -125t-59 -142.5zM174 1313q10 -43 51 -80t85 -47t77 13t27 101q0 20 -1 40t-12 38q-35 57 -78.5 70.5 t-80.5 -2.5t-58.5 -53t-9.5 -80zM370.5 281.5q8.5 48.5 33 90.5t59.5 56q18 8 38.5 19.5t40 18.5t40 9t43.5 -10q45 -25 57 -65t1 -84t-41 -87t-67.5 -72.5t-78.5 -41t-76 9t-46.5 64.5t-3 92.5zM692 1272q4 -10 33 -37t64.5 -45.5t69.5 -13t48 58.5q6 23 17.5 58.5 t1.5 58.5q-43 92 -91.5 109.5t-86 -8.5t-56 -79t-0.5 -102z" />
<glyph unicode="&#xe5;" horiz-adv-x="1101" d="M125 165q-14 -73 33 -128q29 -35 65.5 -52.5t71.5 -43.5q80 10 166 38.5t147 81.5q10 10 27.5 25.5t34.5 11.5q51 -14 74.5 -29.5t35 -28.5t19.5 -25.5t28.5 -19.5t61.5 -8t121 5q12 14 36.5 67.5t44 111.5t25 106.5t-23.5 52.5t-45.5 -12.5t-27.5 -42t-17.5 -55.5 t-15.5 -52.5t-23.5 -31.5t-38.5 5q-18 10 -26.5 61.5t-10.5 126t-3 163t-5.5 171t-14.5 154.5t-35 111q-16 29 -35.5 56.5t-37.5 55.5q-25 4 -49.5 -1t-47.5 5q-70 31 -146.5 26t-143 -35.5t-118.5 -81t-73.5 -109t-4.5 -118.5t85 -112q53 -6 78.5 15.5t38 56.5t18.5 77 t22.5 79t48.5 60.5t95 21.5q39 -2 69.5 -44t41 -99.5t-6 -117t-69.5 -94.5q-8 -14 -30.5 -17t-51.5 -6t-58.5 -10.5t-50.5 -31.5q-51 -16 -112.5 -71.5t-106.5 -125t-59 -142.5zM343 1368q-9 -39 1 -63q6 -14 14.5 -21.5t10.5 -23.5q8 -35 15 -60.5t40 -48.5q23 0 48.5 -8 t47.5 -17q25 8 50.5 9.5t50 4.5t47 11t41.5 31q23 27 34 65.5t10 80.5t-11.5 81t-30.5 68q-12 18 -33 29.5t-41.5 19.5t-38.5 15t-29 18q-20 2 -50 3t-48 -8q-25 -10 -51.5 -39.5t-47 -68.5t-29.5 -78zM370.5 281.5q8.5 48.5 33 90.5t59.5 56q18 8 38.5 19.5t40 18.5t40 9 t43.5 -10q45 -25 57 -65t1 -84t-41 -87t-67.5 -72.5t-78.5 -41t-76 9t-46.5 64.5t-3 92.5zM446 1327q-2 12 1.5 25.5t5.5 25.5q0 4 -1 10.5t-1 10.5q0 2 1 4t1 0q8 12 22 14t21 13q4 4 6 11t10 7q57 4 94 -35t42 -86t-26.5 -84t-111.5 -31q-10 31 -32.5 55.5t-31.5 59.5z " />
<glyph unicode="&#xe6;" horiz-adv-x="1529" d="M134 183.5q1 -58.5 25.5 -107.5t69.5 -82t101 -35q104 -6 168.5 13.5t106.5 47t71 52t65.5 29.5t90 -18.5t143.5 -92.5q10 0 28.5 -5t39 -9.5t37 -5.5t24.5 5q8 8 8 21q0 12 -6 24.5t-15.5 23.5t-17.5 15q-27 12 -56.5 49t-53 85.5t-38 101.5t-13.5 99t21.5 78t67.5 38 q61 8 103.5 15t81.5 9.5t83 -1t109 -15.5q14 -4 20.5 -9t12.5 -8t14 -3q9 0 27 10q51 27 52 89t-21.5 132t-55 133.5t-47.5 91.5q-4 8 -23.5 24.5t-42 34t-45 34t-32.5 26.5q-29 -6 -62.5 0t-67.5 12.5t-64.5 7.5t-53.5 -14q-16 -10 -33.5 -16t-37.5 -8q-23 -16 -40.5 -43 t-48.5 -29q-4 0 -41.5 14.5t-81.5 30.5t-81 29.5t-41 13.5q-29 -4 -55.5 -16.5t-55.5 -16.5q-35 -4 -63.5 2.5t-57.5 6.5t-59.5 -13.5t-69.5 -56.5q-49 -53 -57 -119.5t8 -124t49 -93.5t70 -30q41 8 57.5 35t19.5 61.5t3 73.5q0 41 10 78t40 65.5t91 39.5l53 -23 q16 -37 43 -92t40.5 -111.5t1 -106.5t-69.5 -77q-25 -12 -53.5 -19.5t-57.5 -3.5l-43 -51q-106 -27 -170.5 -75t-94.5 -105t-29 -115.5zM367 270q2 51 26.5 93.5t58 68t72.5 33.5t71 -6.5t50 -53t14 -106.5q-4 -66 -28.5 -114t-58 -76.5t-71.5 -35.5t-69 10t-50.5 63.5 t-14.5 123.5zM929 729q3 33 5 66q2 23 5 39t19 32q18 16 24.5 29.5t19 36t34.5 22.5h47q43 0 73 -20.5t48.5 -52t27.5 -69.5t11 -73q0 -23 -9 -41t-15 -41q-8 -33 -31 -44t-50.5 -12t-58 3t-55.5 4q-45 0 -65.5 17.5t-26.5 44t-3 59.5zM1208 -14q0 -25 23 -37q12 -6 19 4 t10.5 26.5t3.5 32.5q0 17 -2 23q-6 23 -19.5 16.5t-24 -25t-10.5 -40.5zM1268.5 61.5q3.5 -14.5 26 -12.5t56 19.5t67.5 42t58.5 56t26.5 64.5q2 20 -1 39t-12 29t-24.5 11t-38.5 -15q-16 -12 -24 -29.5t-13.5 -36t-12.5 -37t-23 -32.5q-14 -12 -29.5 -21.5t-28.5 -25.5 q-31 -37 -27.5 -51.5z" />
<glyph unicode="&#xe7;" horiz-adv-x="1009" d="M104 625q-37 -444 369 -623q8 -4 22.5 -11t31 -15.5t30.5 -13.5t23 -1l247 102q18 8 47 49.5t52.5 91.5t33.5 97.5t-10 67.5q-23 20 -47 33.5t-51 -9.5q-23 -18 -41 -52t-37.5 -69.5t-40 -67.5t-43.5 -44q-74 -43 -130 -31t-96 56t-64.5 114t-37 142.5t-11.5 139 t11 109.5q4 18 12.5 50t20 64t26.5 58.5t34 34.5q25 10 58.5 17.5t67 5.5t60.5 -17.5t33 -50.5q6 -29 -3 -62.5t-15.5 -67.5t-4.5 -66.5t31 -57.5q33 -29 67.5 -30t65.5 15.5t54.5 46t33.5 64.5q10 37 -4 102.5t-45 130t-72 111.5t-84 47q-53 0 -103 -10t-99.5 -25.5 t-97.5 -34t-97 -32.5q-14 -16 -23.5 -33.5t-17.5 -36.5q-16 -41 -40.5 -72.5t-49.5 -63.5t-43 -67.5t-23 -84.5zM331 -421q13 -19 42.5 -34.5t70.5 -28t82 -17.5t74 -5t49 6q31 14 40 24.5t10 20t2 19.5t14 22q8 8 12 23.5t5 34t0 35t-3 28.5q-4 51 -29.5 84t-54.5 55.5 t-55.5 39t-32.5 32.5q-4 6 -7 18.5t-7 24.5t-11.5 21.5t-17.5 9.5q-10 8 -20.5 -10.5t-17.5 -45t-9 -53t2 -35.5q12 -20 26.5 -27t28 -12.5t24.5 -13.5t17 -33q4 -18 10.5 -42.5t2.5 -43.5q-4 -16 -11.5 -28.5t-23.5 -16.5q-6 -2 -31 -6t-52.5 -8t-50 -7t-24.5 -3 q-8 4 -27.5 14t-25.5 0q-14 -23 -1 -42z" />
<glyph unicode="&#xe8;" horiz-adv-x="1060" d="M133 540.5q2 -22.5 10.5 -41t18.5 -39t14 -50.5q12 -90 36 -167t68 -132.5t112.5 -88t170.5 -32.5q33 0 67 -17.5t70.5 -25.5t79.5 6t99 78q14 16 41.5 54t54 80t45 82t16.5 60q-4 29 -25.5 50.5t-49.5 -1.5q-25 -2 -40.5 -24.5t-32 -56t-39 -71.5t-61 -68t-100 -46 t-153.5 -6q-37 4 -67 57.5t-41 121t0 133t56 93.5q41 0 88 -1t88 4q23 4 40.5 14t41.5 12q61 4 112.5 -9t87.5 -11t56.5 36.5t22.5 139.5q2 53 -13.5 101t-52.5 87q-23 23 -27.5 51.5t-21.5 53.5q-43 57 -132 87.5t-188.5 24.5t-189.5 -53t-131 -141q-33 -74 -62.5 -140.5 t-58.5 -144.5q-12 -37 -10 -59.5zM364.5 1508q-4.5 -35 14 -61t46.5 -48.5t38 -55.5q18 -55 24.5 -71.5t12.5 -19.5t18 -8t43 -38q6 -6 21.5 -30.5t34 -46t37 -31t30.5 15.5q12 27 6 61.5t-20.5 70.5t-34 69t-33.5 53q-16 23 -18 47.5t-18.5 45t-31 39t-26.5 40.5 q-14 27 -40 37t-50 25q-49 -59 -53.5 -94zM421 687q-7 34 1 74t24 73q14 27 37 65.5t47 54.5q45 27 90.5 10.5t79 -55.5t52 -90t12.5 -92q-6 -49 -45 -70.5t-84 -21.5q-29 0 -53.5 -12.5t-53.5 -14.5q-51 -2 -75.5 21.5t-31.5 57.5z" />
<glyph unicode="&#xe9;" horiz-adv-x="1034" d="M123 536.5q2 -22.5 10 -41t18.5 -39t14.5 -50.5q12 -90 35.5 -167t67.5 -132.5t113 -88t171 -32.5q33 0 66.5 -17.5t70.5 -26t80 6t98 78.5q14 16 42 54t54.5 80t45 82t16.5 60q-4 29 -25.5 50.5t-50.5 -1.5q-25 -2 -40 -24.5t-31.5 -56t-39 -71.5t-61.5 -68t-100.5 -46 t-153.5 -6q-37 4 -66.5 57t-40.5 121t0 133.5t56 93.5q41 0 88 -1t88 3q23 4 40.5 14.5t41.5 12.5q61 4 112.5 -9t87.5 -11t56.5 36.5t22.5 139.5q2 53 -13.5 101t-52.5 87q-23 23 -28 51.5t-21 53.5q-43 57 -132 87.5t-188.5 24.5t-189.5 -53t-131 -141 q-33 -74 -62.5 -140.5t-58.5 -144.5q-12 -37 -10 -59.5zM410.5 683q-7.5 34 1 74t24.5 72q14 27 37 66t47 55q45 27 90 10.5t79 -55.5t52.5 -90t12.5 -92q-6 -49 -45 -70.5t-84 -21.5q-29 0 -53.5 -12.5t-53.5 -14.5q-51 -2 -75.5 21.5t-32 57.5zM423 1161.5 q-3 -18.5 3 -26.5q16 -29 44 -9.5t57.5 55.5t55 72.5t38.5 42.5q20 10 30.5 23.5t16.5 26t13 25.5t21 24q18 14 35 35.5t26 45t7 48t-20 47.5q-27 29 -50.5 31t-44 -13.5t-40 -43t-36 -56.5t-29.5 -53.5t-26 -32.5q-35 -29 -47 -61.5t-22 -73.5q-4 -12 -10.5 -30.5 t-12.5 -38t-9 -38z" />
<glyph unicode="&#xea;" horiz-adv-x="1054" d="M121 540.5q2 -22.5 10 -41t18.5 -39t14.5 -50.5q12 -90 35.5 -167t67.5 -132.5t113 -88t171 -32.5q33 0 66.5 -17.5t70.5 -25.5t80 6t98 78q14 16 42 54t54.5 80t45 82t16.5 60q-4 29 -25.5 50.5t-50.5 -1.5q-25 -2 -40 -24.5t-31.5 -56t-39 -71.5t-61.5 -68t-99.5 -46 t-154.5 -6q-37 4 -66.5 57.5t-41 121t0 133t56.5 93.5q41 0 88 -1t88 4q23 4 40.5 14t41.5 12q61 4 112.5 -9t87.5 -11t56.5 36.5t22.5 139.5q2 53 -13.5 101t-52.5 87q-23 23 -28 51.5t-21 53.5q-43 57 -132 87.5t-188.5 24.5t-189.5 -53t-131 -141q-33 -74 -62.5 -140.5 t-58.5 -144.5q-12 -37 -10 -59.5zM264 1102q6 -16 18.5 -14t26 11t25.5 21.5t16 18.5q8 12 25.5 27.5t37 33t36 31.5t20.5 22q6 14 18.5 29.5t28.5 28t33.5 16.5t34.5 -4q8 -4 31.5 -29.5t54 -57.5t64.5 -65.5t62.5 -54t50 -23t27.5 28.5q2 14 -15 54.5t-46 90.5t-64.5 104 t-70.5 99.5t-65.5 74t-47.5 28.5q-37 0 -66.5 -26.5t-52 -63.5t-41 -76t-36.5 -66q-10 -14 -30 -47.5t-38 -71.5t-30.5 -72t-6.5 -48zM408.5 687q-7.5 34 1 74t24.5 73q14 27 37 65.5t47 54.5q45 27 90 10.5t79 -55.5t52.5 -90t12.5 -92q-6 -49 -45 -70.5t-84 -21.5 q-29 0 -53.5 -12.5t-53.5 -14.5q-51 -2 -75.5 21.5t-32 57.5z" />
<glyph unicode="&#xeb;" horiz-adv-x="1060" d="M133 540.5q2 -22.5 10.5 -41t18.5 -39t14 -50.5q12 -90 36 -167t68 -132.5t112.5 -88t170.5 -32.5q33 0 67 -17.5t70.5 -25.5t79.5 6t99 78q14 16 41.5 54t54 80t45 82t16.5 60q-4 29 -25.5 50.5t-49.5 -1.5q-25 -2 -40.5 -24.5t-32 -56t-39 -71.5t-61 -68t-100 -46 t-153.5 -6q-37 4 -67 57.5t-41 121t0 133t56 93.5q41 0 88 -1t88 4q23 4 40.5 14t41.5 12q61 4 112.5 -9t87.5 -11t56.5 36.5t22.5 139.5q2 53 -13.5 101t-52.5 87q-23 23 -27.5 51.5t-21.5 53.5q-43 57 -132 87.5t-188.5 24.5t-189.5 -53t-131 -141q-33 -74 -62.5 -140.5 t-58.5 -144.5q-12 -37 -10 -59.5zM190 1313q12 -43 53.5 -80t85.5 -47t76.5 13t26.5 101q-2 20 -2 39q0 20 -10 39q-35 57 -80 70.5t-82 -2.5t-57.5 -53t-10.5 -80zM421 687q-7 34 1 74t24 73q14 27 37 65.5t47 54.5q45 27 90.5 10.5t79 -55.5t52 -90t12.5 -92 q-6 -49 -45 -70.5t-84 -21.5q-29 0 -53.5 -12.5t-53.5 -14.5q-51 -2 -75.5 21.5t-31.5 57.5zM709.5 1374q-17.5 -53 1.5 -102q2 -10 30.5 -37t64.5 -45.5t69.5 -13t48.5 58.5q6 23 18 58.5t2 58.5q-43 92 -91 109.5t-87 -8.5t-56.5 -79z" />
<glyph unicode="&#xec;" horiz-adv-x="595" d="M94 997q0 -2 20.5 -21.5t46 -47t50.5 -60t33 -59.5q2 -6 4 -37t4 -75t5 -95t4 -97t2 -79t1 -41q-2 -16 -8 -36.5t-12 -42t-9.5 -41t1.5 -34.5q-10 -33 -21.5 -73.5t-38.5 -63.5q-16 -14 -34.5 -27.5t-14.5 -37.5q4 -29 27.5 -42.5t54.5 -16.5t61.5 3.5t48.5 16.5 q20 10 62.5 2t86.5 -11.5t78 11t36 69.5q0 33 -14.5 48.5t-33 34t-34 52t-15.5 103.5q0 41 -15 81t-15 81q2 31 11 59.5t11 59.5q0 29 -7 54t-5 54q0 31 8 61.5t8 61.5q-2 29 -14 52.5t-12 51.5v48t-6.5 46t-21.5 36.5t-46 17.5q-39 4 -75 -5t-73 -14q-18 -2 -42.5 2.5 t-47.5 4.5q-20 0 -34.5 -11.5t-14.5 -42.5zM141 1538q-10 -35 1.5 -58.5t29.5 -44t37.5 -39t28.5 -42.5q8 -23 12 -48.5t20 -43.5q14 -14 35 -23.5t31 -24.5q8 -10 23.5 -29.5t32 -38t33.5 -32.5t30 -14q12 0 18 19.5t0 66.5q0 6 -2 26.5t-6 24.5q-6 23 -21.5 46.5 t-25.5 43.5q-23 49 -41.5 90t-42 76t-55 66.5t-82.5 60.5q-16 -16 -33 -37.5t-23 -44.5z" />
<glyph unicode="&#xed;" horiz-adv-x="632" d="M94 997q0 -2 20.5 -21.5t46 -47t50.5 -60t33 -59.5q2 -6 4 -37t4 -75t5 -95t4 -97t2 -79t1 -41q-2 -16 -8 -36.5t-12 -42t-9.5 -41t1.5 -34.5q-10 -33 -21.5 -73.5t-38.5 -63.5q-16 -14 -34.5 -27.5t-14.5 -37.5q4 -29 27.5 -42.5t54.5 -16.5t61.5 3.5t48.5 16.5 q20 10 62.5 2t86.5 -11.5t78 11t36 69.5q0 33 -14.5 48.5t-33 34t-34 52t-15.5 103.5q0 41 -15 81t-15 81q2 31 11 59.5t11 59.5q0 29 -7 54t-5 54q0 31 8 61.5t8 61.5q-2 29 -14 52.5t-12 51.5v48t-6.5 46t-21.5 36.5t-46 17.5q-39 4 -75 -5t-73 -14q-18 -2 -42.5 2.5 t-47.5 4.5q-20 0 -34.5 -11.5t-14.5 -42.5zM224 1161.5q-3 -18.5 3 -26.5q16 -29 44 -9.5t57.5 55.5t55.5 72.5t38 42.5q20 10 30.5 23.5t16.5 26t13 25.5t22 24q18 14 34.5 35.5t25.5 45t8 48t-19 47.5q-41 45 -75 28.5t-61.5 -55.5t-50 -84t-38.5 -57q-35 -29 -48.5 -61.5 t-23.5 -73.5q-2 -12 -9 -30.5t-13.5 -38t-9.5 -38z" />
<glyph unicode="&#xee;" horiz-adv-x="618" d="M23 1096q6 -16 19 -14.5t26.5 11t25.5 21.5t17 19q6 12 24.5 27.5t38 32.5t35.5 31.5t20 22.5q6 14 18.5 29.5t28 28t34 16.5t34.5 -4q8 -4 31.5 -29.5t54.5 -57.5t64.5 -66t62.5 -54t50.5 -22.5t27.5 28.5q2 14 -15.5 54t-46 90.5t-64.5 104.5t-71 99t-65.5 74t-46.5 29 q-37 0 -67 -27t-52.5 -63.5t-42 -75.5t-37.5 -66q-10 -14 -29.5 -48t-38 -71.5t-31 -71.5t-5.5 -48zM94 997q0 -2 20.5 -21.5t46 -47t50.5 -60t33 -59.5q0 -6 3 -37t5 -75t4 -95t4 -97t3 -79t-1 -41q0 -16 -7 -36.5t-13 -42t-9.5 -41t0.5 -34.5q-10 -33 -20 -73.5t-39 -63.5 q-16 -14 -34.5 -27.5t-14.5 -37.5q4 -29 27.5 -42.5t54.5 -16.5t62.5 3.5t49.5 16.5q20 10 62.5 2t86.5 -11.5t77 11t35 69.5q2 33 -12.5 48.5t-33 34t-34 52t-15.5 103.5q0 41 -16 81t-14 81q0 31 10 59.5t10 59.5q2 29 -5 54t-7 54q2 31 10 61.5t6 61.5q-2 29 -13 52.5 t-11 51.5v48t-6.5 46t-21.5 36.5t-46 17.5q-39 4 -75 -5t-75 -14q-18 -2 -41.5 2.5t-46.5 4.5q-20 0 -34.5 -11.5t-14.5 -42.5z" />
<glyph unicode="&#xef;" horiz-adv-x="614" d="M-23 1313q12 -43 53.5 -80t85.5 -47t76.5 13t26.5 101q-2 20 -2 39q0 20 -10 39q-35 57 -80 70.5t-82 -2.5t-57.5 -53t-10.5 -80zM90 997q0 -2 20.5 -21.5t46 -47t50 -60t33.5 -59.5q2 -6 4 -37t4 -75t5 -95t4 -97t2 -79t1 -41q-2 -16 -8 -36.5t-13.5 -42t-10.5 -41 t1 -34.5q-10 -33 -20 -73.5t-39 -63.5q-16 -14 -33.5 -27.5t-13.5 -37.5q4 -29 27.5 -42.5t53 -16.5t61.5 3.5t50 16.5q20 10 62.5 2t86.5 -11.5t76.5 11t34.5 69.5q2 33 -12 48.5t-32.5 34t-34 52t-15.5 103.5q0 41 -16 81t-14 81q0 31 10 59.5t10 59.5q2 29 -5 54t-7 54 q2 31 10 61.5t6 61.5q-2 29 -13 52.5t-11 51.5v48t-6.5 46t-21.5 36.5t-46 17.5q-39 4 -75 -5t-73 -14q-18 -2 -42.5 2.5t-47.5 4.5q-20 0 -34.5 -11.5t-14.5 -42.5zM389 1272q2 -10 31 -37t64.5 -45.5t70.5 -13t49 58.5q6 23 17.5 58.5t1.5 58.5q-43 92 -91.5 109.5 t-86 -8.5t-56 -79t-0.5 -102z" />
<glyph unicode="&#xf1;" horiz-adv-x="1224" d="M117 39q-4 -47 15.5 -66.5t52 -21.5t73.5 9t77 24.5t62.5 26t32.5 9.5q29 -4 38 -18t28 -14q27 0 51 9t20 44q-2 20 -12 28.5t-23.5 15.5t-28 19.5t-24.5 42.5q-27 84 -25.5 169t16.5 170t35.5 170t31.5 167q127 111 198.5 133.5t105 -14.5t40 -118t2.5 -176t-7.5 -191.5 t11.5 -161.5q12 -55 -10.5 -102.5t-50 -84t-41 -62.5t17.5 -40q45 -20 85 -17t82 7t90 -2t107 -45q45 -2 57.5 18.5t2.5 53t-34 71.5t-48.5 78t-44 70.5t-17.5 50.5q2 23 4.5 71t5.5 109t4 128t1 124t-3 99t-12 55q-23 37 -44 74.5t-49.5 68.5t-64.5 52.5t-85 23.5 q-84 4 -124 -6.5t-63.5 -34t-46 -58t-67.5 -79.5q-4 20 -14.5 32.5t-24 23.5t-27.5 20.5t-27 23.5q-33 37 -76.5 51t-87.5 13t-81 -14t-54.5 -32.5t-10.5 -42t52 -39.5q45 -18 69 -58t30 -93t2 -113.5t-12.5 -120t-16.5 -113t-8 -89.5q0 -29 9 -53.5t7 -53.5 q-2 -66 -24.5 -92.5t-49 -41.5t-50 -30.5t-27.5 -56.5zM309 1249q6 -45 32 -46t57.5 16.5t59 39t38.5 21.5q29 -4 60.5 -1t55.5 -5q16 -6 26.5 -16.5t21 -20.5t23.5 -19.5t36 -13.5q29 -6 55.5 -13t52 -10t51 -1t54.5 18q27 14 55.5 53t40.5 82t2 80t-59 47 q-47 -49 -96.5 -60t-101.5 -3t-105.5 28.5t-104.5 36.5q-49 -18 -77.5 -21t-50 -10.5t-43 -27t-56.5 -68.5q-31 -39 -27 -86z" />
<glyph unicode="&#xf2;" horiz-adv-x="1165" d="M126 496.5q13 -111.5 63.5 -212t130 -176t176.5 -96.5q16 -31 70.5 -40t116.5 -5t116.5 18.5t70.5 30.5q80 80 130.5 151t77 144.5t31.5 158.5t-7 194q-4 41 -12.5 85t-32.5 78q-18 25 -44 42.5t-44 41.5q-23 27 -47.5 55.5t-53 51t-62.5 35t-73 8.5q6 35 -7 100.5 t-41 137t-63.5 138t-71.5 103.5t-67.5 33t-52.5 -74q-6 -20 6.5 -56t36 -79t53 -89t59 -88t55.5 -75t40 -47q-92 33 -174 9.5t-149.5 -80t-120 -135.5t-84.5 -159q-39 -92 -26 -203.5zM370.5 367.5q4.5 46.5 12.5 99.5q2 29 3 71l2 84t7 80.5t21 61.5q8 14 31.5 44t50 62.5 t51 58t39.5 29.5q20 6 34.5 8.5t32.5 -8.5q29 -16 59.5 -27t53.5 -36q29 -33 45 -78t24.5 -94t8.5 -98t-4 -90q-6 -55 -4 -95.5t1 -78t-10.5 -77.5t-35.5 -96q-10 -23 -24.5 -43t-34 -35.5t-42 -21.5t-49.5 2q-29 8 -46 0t-31.5 -14t-30 -1t-37.5 40q-14 23 -31.5 37 t-34.5 34q-14 18 -17 43t-16 45q-33 47 -28.5 93.5z" />
<glyph unicode="&#xf3;" horiz-adv-x="1169" d="M140.5 648q-1.5 -25 0.5 -51t6.5 -51.5t4.5 -51.5q0 -86 21.5 -164t64.5 -142.5t107.5 -110.5t150.5 -65q25 -43 50 -54t53 -6t56.5 18.5t59.5 19.5q23 4 43 1t39 -3q18 0 36.5 5t36.5 23q43 43 89.5 101.5t84 125t61 135.5t23.5 132q0 39 -11 77t-15 76.5t-12.5 85 t-32.5 78.5q-18 25 -44 42.5t-44 41.5q-12 16 -37 43t-53.5 52.5t-57 44t-49.5 16.5q-31 -2 -52.5 2t-39.5 10t-36.5 11.5t-43.5 5.5q-80 0 -150.5 -37t-128 -93.5t-100.5 -127t-69 -138.5q-10 -27 -11.5 -52zM370.5 367.5q4.5 46.5 12.5 99.5q2 29 3 71l2 84t7 80.5 t21 61.5q8 14 31.5 44t50 62.5t51 58t39.5 29.5q20 6 34.5 8.5t32.5 -8.5q29 -16 59.5 -27t53.5 -36q29 -33 45 -78t24.5 -94t8.5 -98t-4 -90q-6 -55 -4 -95.5t1 -78t-10.5 -77.5t-35.5 -96q-10 -23 -24.5 -43t-34 -35.5t-42 -21.5t-49.5 2q-29 8 -46 0t-31.5 -14t-30 -1 t-37.5 40q-14 23 -31.5 37t-34.5 34q-14 18 -17 43t-16 45q-33 47 -28.5 93.5zM548 1161.5q-3 -18.5 3 -26.5q16 -29 44 -9.5t57.5 55.5t55 72.5t37.5 42.5q20 10 30.5 23.5t17 26t13.5 25.5t21 24q18 14 35 35.5t27 45t8 48t-20 47.5q-41 45 -75 28.5t-61.5 -55.5t-50 -84 t-39.5 -57q-35 -29 -48 -61.5t-23 -73.5q-2 -12 -9.5 -30.5t-13.5 -38t-9 -38z" />
<glyph unicode="&#xf4;" horiz-adv-x="1165" d="M140.5 648q-1.5 -25 0.5 -51t6.5 -51.5t4.5 -51.5q0 -86 21.5 -164t64.5 -142.5t107.5 -110.5t150.5 -65q25 -43 50 -54t53 -6t56.5 18.5t59.5 19.5q23 4 43 1t39 -3q18 0 36.5 5t36.5 23q43 43 89.5 101.5t84 125t61 135.5t23.5 132q0 39 -11 77t-15 76.5t-12.5 85 t-32.5 78.5q-18 25 -44 42.5t-44 41.5q-12 16 -37 43t-53.5 52.5t-57 44t-49.5 16.5q-31 -2 -52.5 2t-39.5 10t-36.5 11.5t-43.5 5.5q-80 0 -150.5 -37t-128 -93.5t-100.5 -127t-69 -138.5q-10 -27 -11.5 -52zM313 1096q6 -16 19.5 -14.5t27 11t24.5 21.5t15 19 q8 12 26.5 27.5t38 32.5t36 31.5t20.5 22.5q6 14 18.5 29.5t28 28t33.5 16.5t35 -4q8 -4 31.5 -29.5t54.5 -57.5t64.5 -66t62.5 -54t50.5 -22.5t27.5 28.5q2 14 -15.5 54t-46 90.5t-64.5 104.5t-71 99t-65.5 74t-47.5 29q-37 0 -66.5 -27t-53 -63.5t-42 -75.5t-36.5 -66 q-10 -14 -29.5 -48t-38 -71.5t-31 -71.5t-6.5 -48zM370.5 367.5q4.5 46.5 12.5 99.5q2 29 3 71l2 84t7 80.5t21 61.5q8 14 31.5 44t50 62.5t51 58t39.5 29.5q20 6 34.5 8.5t32.5 -8.5q29 -16 59.5 -27t53.5 -36q29 -33 45 -78t24.5 -94t8.5 -98t-4 -90q-6 -55 -4 -95.5 t1 -78t-10.5 -77.5t-35.5 -96q-10 -23 -24.5 -43t-34 -35.5t-42 -21.5t-49.5 2q-29 8 -46 0t-31.5 -14t-30 -1t-37.5 40q-14 23 -31.5 37t-34.5 34q-14 18 -17 43t-16 45q-33 47 -28.5 93.5z" />
<glyph unicode="&#xf5;" horiz-adv-x="1165" d="M140.5 648q-1.5 -25 0.5 -51t6.5 -51.5t4.5 -51.5q0 -86 21.5 -164t64.5 -142.5t107.5 -110.5t150.5 -65q25 -43 50 -54t53 -6t56.5 18.5t59.5 19.5q23 4 43 1t39 -3q18 0 36.5 5t36.5 23q43 43 89.5 101.5t84 125t61 135.5t23.5 132q0 39 -11 77t-15 76.5t-12.5 85 t-32.5 78.5q-18 25 -44 42.5t-44 41.5q-12 16 -37 43t-53.5 52.5t-57 44t-49.5 16.5q-31 -2 -52.5 2t-39.5 10t-36.5 11.5t-43.5 5.5q-80 0 -150.5 -37t-128 -93.5t-100.5 -127t-69 -138.5q-10 -27 -11.5 -52zM279 1237q4 -45 30.5 -46t57 16.5t58.5 39t38 21.5 q29 -4 60.5 -1t56.5 -5q16 -6 26 -16.5t20.5 -21t24 -19.5t35.5 -13q29 -6 55.5 -13.5t52 -10.5t51 -1t54.5 19q29 14 56.5 53t40 82t2 80t-57.5 47q-47 -49 -97 -60.5t-101.5 -3t-104.5 29t-105 36.5q-51 -18 -79.5 -21.5t-50 -10.5t-42 -26.5t-57.5 -68.5 q-12 -18 -20.5 -40.5t-3.5 -45.5zM370.5 367.5q4.5 46.5 12.5 99.5q2 29 3 71l2 84t7 80.5t21 61.5q8 14 31.5 44t50 62.5t51 58t39.5 29.5q20 6 34.5 8.5t32.5 -8.5q29 -16 59.5 -27t53.5 -36q29 -33 45 -78t24.5 -94t8.5 -98t-4 -90q-6 -55 -4 -95.5t1 -78t-10.5 -77.5 t-35.5 -96q-10 -23 -24.5 -43t-34 -35.5t-42 -21.5t-49.5 2q-29 8 -46 0t-31.5 -14t-30 -1t-37.5 40q-14 23 -31.5 37t-34.5 34q-14 18 -17 43t-16 45q-33 47 -28.5 93.5z" />
<glyph unicode="&#xf6;" horiz-adv-x="1169" d="M140.5 648q-1.5 -25 0.5 -51t6.5 -51.5t4.5 -51.5q0 -86 21.5 -164t64.5 -142.5t107.5 -110.5t150.5 -65q25 -43 50 -54t53 -6t56.5 18.5t59.5 19.5q23 4 43 1t39 -3q18 0 36.5 5t36.5 23q43 43 89.5 101.5t84 125t61 135.5t23.5 132q0 39 -11 77t-15 76.5t-12.5 85 t-32.5 78.5q-18 25 -44 42.5t-44 41.5q-12 16 -37 43t-53.5 52.5t-57 44t-49.5 16.5q-31 -2 -52.5 2t-39.5 10t-36.5 11.5t-43.5 5.5q-80 0 -150.5 -37t-128 -93.5t-100.5 -127t-69 -138.5q-10 -27 -11.5 -52zM236 1313q10 -43 51 -80t85 -47t76.5 13t26.5 101q0 20 -1 40 t-11 38q-35 57 -79 70.5t-81 -2.5t-58.5 -53t-8.5 -80zM370.5 367.5q4.5 46.5 12.5 99.5q2 29 3 71l2 84t7 80.5t21 61.5q8 14 31.5 44t50 62.5t51 58t39.5 29.5q20 6 34.5 8.5t32.5 -8.5q29 -16 59.5 -27t53.5 -36q29 -33 45 -78t24.5 -94t8.5 -98t-4 -90q-6 -55 -4 -95.5 t1 -78t-10.5 -77.5t-35.5 -96q-10 -23 -24.5 -43t-34 -35.5t-42 -21.5t-49.5 2q-29 8 -46 0t-31.5 -14t-30 -1t-37.5 40q-14 23 -31.5 37t-34.5 34q-14 18 -17 43t-16 45q-33 47 -28.5 93.5zM753.5 1374q-18.5 -53 0.5 -102q2 -10 30.5 -37t64.5 -45.5t70.5 -13t49.5 58.5 q6 23 17 58.5t1 58.5q-43 92 -91 109.5t-86 -8.5t-56.5 -79z" />
<glyph unicode="&#xf7;" horiz-adv-x="1079" d="M156 553q-2 -29 19.5 -51.5t78.5 -18.5q20 2 39.5 -3t42.5 -5q23 2 46.5 10.5t45.5 3.5q20 -4 44 -10t48.5 -12t48 -8t45.5 4q25 8 61 9t76 0t80 -1q41 0 76 6t59.5 20.5t30.5 45.5q6 27 -9 52.5t-40 35.5q-23 8 -47 8q-23 0 -46.5 -3t-47 -7t-47.5 0q-33 4 -61.5 16 t-61.5 17q-20 2 -54 -0.5t-71 -5.5t-69.5 -8t-53.5 -11q-45 -10 -88 2t-88 2q-20 -4 -37.5 -31.5t-19.5 -56.5zM451 221q14 -55 55 -90t84 -42t74.5 20.5t25.5 99.5q0 20 -1 39.5t-11 38.5q-35 57 -79 70.5t-81 -3t-58.5 -53.5t-8.5 -80zM457 846q18 -53 56 -79t86 -8.5 t91 109.5q10 23 -1 59t-17 58q-14 53 -48 58.5t-70 -13t-64.5 -46.5t-32.5 -36q-18 -49 0 -102z" />
<glyph unicode="&#xf8;" horiz-adv-x="1165" d="M137 565q2 -37 5 -72.5t3 -66.5q0 -47 19.5 -90t47.5 -84t56.5 -80t48.5 -78q-12 -18 -30.5 -51t-25.5 -63.5t4 -51t61 -12.5q18 2 27 17.5t14.5 34t10.5 37t15 30.5q8 -4 24.5 -5t32 -3t29 -5.5t17.5 -9.5q33 -43 57.5 -54t48 -6t50 18.5t63.5 19.5q23 4 43 1t39 -3 q18 0 36.5 5t36.5 23q43 43 89.5 101.5t84 125t61 135.5t23.5 132q0 39 -11 77t-15 77q-4 41 -12.5 85t-32.5 78q-23 31 -52.5 54.5t-54.5 52.5q27 45 34 82t-3 53t-39 6t-76 -61q-27 23 -41 33t-28.5 13t-31.5 2t-50 -1q-31 0 -56.5 17.5t-58.5 17.5q-41 0 -90 -15.5 t-95 -41t-83 -60.5t-51 -74q-10 -29 -27.5 -54.5t-36 -49t-36 -48t-30 -53t-14.5 -63.5t0 -72zM371 373q0 23 4 81t10 122.5t14.5 119t16.5 68.5q16 27 39.5 59.5t51.5 62t58.5 52.5t61.5 31q18 -6 42.5 -15.5t48 -21.5t41 -28.5t23.5 -39.5q-31 -29 -52 -66.5t-39.5 -77.5 t-36 -80t-42.5 -75q-53 -78 -106 -154.5t-92 -164.5q-10 18 -17.5 32.5t-13.5 27.5t-9 28.5t-3 38.5zM475 147q59 98 117.5 196.5t118.5 197.5q14 25 23 52.5t26 49.5q20 29 44 52.5t40 52.5q8 -61 11 -148.5t-6 -176.5t-32.5 -169t-71.5 -127q-27 -29 -44 -38t-58 1 q-43 12 -58.5 1t-26.5 -18t-26.5 4t-56.5 70z" />
<glyph unicode="&#xf9;" horiz-adv-x="1200" d="M92 996.5q-20 -19.5 33 -76.5q14 -16 26.5 -44t32.5 -36q31 -31 41.5 -90.5t10.5 -135.5q0 -74 -5.5 -156.5t-2.5 -157.5t19.5 -136.5t57.5 -93.5q74 -59 136.5 -83t122 -18t122 40t133.5 91q6 -14 17.5 -38.5t24.5 -47t30.5 -37t38.5 -10.5q25 6 65 6q41 0 81 7.5t70 27 t30 64.5q0 23 -23 31t-37 18q-20 14 -31.5 33.5t-19.5 42t-13 46t-14 44.5q-14 35 -10 103.5t13.5 150.5t17.5 169t4 159.5t-25.5 123.5t-72.5 60q-31 6 -90.5 9t-113.5 -6t-84 -38t-1 -86q18 -35 39.5 -49.5t43 -27.5t38 -36.5t22.5 -77.5q8 -74 6 -143.5t-8 -137t-11 -136 t-3 -142.5q-31 -41 -77 -66.5t-93 -41.5q-76 29 -117 67.5t-59.5 86.5t-18.5 102q0 53 6.5 110.5t14.5 116.5t8 119q0 25 -3 73t-9 100t-12.5 99t-12.5 72q-12 49 -43 56t-67.5 -3t-74.5 -29.5t-67 -21.5q-66 -6 -86 -25.5zM309 1528q-8 -37 2.5 -60.5t28.5 -42t37.5 -37 t28.5 -45.5q8 -23 12 -48t22 -44q14 -14 34 -23t30 -24q25 -29 60.5 -61.5t61 -44t33 14.5t-23.5 114q-20 55 -41 114.5t-49.5 112.5t-71.5 95t-106 61q-12 2 -21.5 -7.5t-16.5 -23.5t-12.5 -28.5t-7.5 -22.5z" />
<glyph unicode="&#xfa;" horiz-adv-x="1200" d="M86 996.5q-20 -19.5 33 -76.5q14 -16 26.5 -44t32.5 -36q31 -31 41 -90.5t10 -135.5q0 -74 -5 -156.5t-2 -157.5t19.5 -136.5t57.5 -93.5q74 -59 136.5 -83t121.5 -18t121.5 40t134.5 91q6 -14 17.5 -38.5t24.5 -47t30.5 -37t38.5 -10.5q25 6 65 6q41 0 81 7.5t69.5 27 t29.5 64.5q0 23 -22.5 31t-36.5 18q-20 14 -31.5 33.5t-19.5 42t-13.5 46t-13.5 44.5q-14 35 -10 103.5t13 150.5t17.5 169t4.5 159.5t-25.5 123.5t-73.5 60q-31 6 -90 9t-113.5 -6t-84 -38t-0.5 -86q18 -35 39.5 -49.5t43 -27.5t38 -36.5t22.5 -77.5q8 -74 6 -143.5 t-8 -137t-11 -136t-3 -142.5q-31 -41 -77 -66.5t-93 -41.5q-76 29 -117 67.5t-59.5 86.5t-18.5 102q0 53 6 110.5t14.5 116.5t8.5 119q0 25 -3 73t-9.5 100t-12.5 99t-12 72q-12 49 -43 56t-68 -3t-74.5 -29.5t-66.5 -21.5q-66 -6 -86 -25.5zM590 1130.5q4 -30.5 26.5 -27.5 t67.5 56q27 31 42 71t50 64q18 12 27.5 25.5t15.5 27t12.5 26.5t20.5 28q18 18 34.5 40.5t25 48.5t5.5 51t-28 48q-33 33 -69 19.5t-70.5 -54.5t-65.5 -101t-53.5 -121.5t-33.5 -116t-7 -85z" />
<glyph unicode="&#xfb;" horiz-adv-x="1200" d="M86 996.5q-20 -19.5 33 -76.5q14 -16 26.5 -44t32.5 -36q31 -31 41 -90.5t10 -135.5q0 -74 -5 -156.5t-2 -157.5t19.5 -136.5t57.5 -93.5q74 -59 136.5 -83t121.5 -18t121.5 40t134.5 91q6 -14 17.5 -38.5t24.5 -47t30.5 -37t38.5 -10.5q25 6 65 6q41 0 81 7.5t69.5 27 t29.5 64.5q0 23 -22.5 31t-36.5 18q-20 14 -31.5 33.5t-19.5 42t-13.5 46t-13.5 44.5q-14 35 -10 103.5t13 150.5t17.5 169t4.5 159.5t-25.5 123.5t-73.5 60q-31 6 -90 9t-113.5 -6t-84 -38t-0.5 -86q18 -35 39.5 -49.5t43 -27.5t38 -36.5t22.5 -77.5q8 -74 6 -143.5 t-8 -137t-11 -136t-3 -142.5q-31 -41 -77 -66.5t-93 -41.5q-76 29 -117 67.5t-59.5 86.5t-18.5 102q0 53 6 110.5t14.5 116.5t8.5 119q0 25 -3 73t-9.5 100t-12.5 99t-12 72q-12 49 -43 56t-68 -3t-74.5 -29.5t-66.5 -21.5q-66 -6 -86 -25.5zM319 1120q6 -16 19.5 -14t27 11 t25.5 21.5t17 18.5q6 12 24.5 27.5t37.5 33t35.5 32t20.5 22.5q6 14 18.5 29.5t28 27.5t34 16.5t34.5 -4.5q8 -4 31.5 -29.5t54.5 -57t64.5 -65.5t62.5 -54.5t50.5 -22.5t27.5 29q2 14 -15.5 54t-46 90t-64.5 104.5t-71 99.5t-65.5 73.5t-46.5 28.5q-37 0 -67 -26.5 t-52.5 -63.5t-42 -76t-37.5 -65q-10 -14 -29.5 -48t-38 -72t-31 -71.5t-6.5 -48.5z" />
<glyph unicode="&#xfc;" horiz-adv-x="1200" d="M86 996.5q-20 -19.5 33 -76.5q14 -16 26.5 -44t32.5 -36q31 -31 41 -90.5t10 -135.5q0 -74 -5 -156.5t-2 -157.5t19.5 -136.5t57.5 -93.5q74 -59 136.5 -83t121.5 -18t121.5 40t134.5 91q6 -14 17.5 -38.5t24.5 -47t30.5 -37t38.5 -10.5q25 6 65 6q41 0 81 7.5t69.5 27 t29.5 64.5q0 23 -22.5 31t-36.5 18q-20 14 -31.5 33.5t-19.5 42t-13.5 46t-13.5 44.5q-14 35 -10 103.5t13 150.5t17.5 169t4.5 159.5t-25.5 123.5t-73.5 60q-31 6 -90 9t-113.5 -6t-84 -38t-0.5 -86q18 -35 39.5 -49.5t43 -27.5t38 -36.5t22.5 -77.5q8 -74 6 -143.5 t-8 -137t-11 -136t-3 -142.5q-31 -41 -77 -66.5t-93 -41.5q-76 29 -117 67.5t-59.5 86.5t-18.5 102q0 53 6 110.5t14.5 116.5t8.5 119q0 25 -3 73t-9.5 100t-12.5 99t-12 72q-12 49 -43 56t-68 -3t-74.5 -29.5t-66.5 -21.5q-66 -6 -86 -25.5zM233 1313q12 -43 53.5 -80 t85.5 -47t76.5 13t26.5 101q-2 20 -2 39q0 20 -10 39q-35 57 -80 70.5t-82 -2.5t-57.5 -53t-10.5 -80zM752.5 1374q-17.5 -53 1.5 -102q2 -10 30.5 -37t64.5 -45.5t69.5 -13t48.5 58.5q6 23 18 58.5t2 58.5q-43 92 -91 109.5t-87 -8.5t-56.5 -79z" />
<glyph unicode="&#xff;" horiz-adv-x="1042" d="M86 -276.5q12 -53.5 51 -92.5t103 -39q78 0 134 21.5t97 95.5q8 16 23.5 43t29 55.5t21.5 56.5t2 46q-27 -4 -38 -9t-16.5 -13.5t-10.5 -21.5t-17 -32q-14 -6 -21.5 -12t-13.5 -11.5t-14 -8.5t-25 -3q-16 0 -39.5 31t-54.5 61.5t-66.5 46t-76.5 -13.5q-49 -35 -64.5 -91 t-3.5 -109.5zM94.5 919.5q14.5 -34.5 46 -77.5t65.5 -91.5t65.5 -97.5t47.5 -98q18 -55 30.5 -90t22 -59.5t17.5 -44t19.5 -43t30 -57.5t46.5 -85q10 -20 20.5 -58t23 -75t28.5 -59.5t41 -12.5q14 6 18.5 29t6.5 50.5t6 54t18 42.5q90 90 118 162t33 130.5t6 105.5t36 90 q12 16 47 58t71.5 88t65.5 84t29 48q6 45 -17.5 74t-62.5 43t-88 14q-47 0 -90 -11t-74 -33.5t-37 -55.5q-4 -18 19.5 -55t46 -85t29.5 -103.5t-27 -112.5q-10 -18 -24.5 -48t-32 -55.5t-39 -41t-48.5 -7.5q-25 8 -43 44t-32.5 81t-23.5 88t-13 66q-6 33 4 76t20 85 t15.5 76.5t-9.5 51.5q-10 12 -51 20t-93 10t-109.5 -2t-102.5 -17.5t-67.5 -37t-8 -58zM260 1317q-18 -49 0.5 -102.5t57 -79t87 -8t91.5 109.5q8 23 -3.5 58.5t-17.5 58.5q-14 53 -48 58t-69.5 -13.5t-64.5 -46t-33 -35.5zM653.5 1344q-14.5 -50 3 -99t63.5 -85t116 -32 q8 18 18 28.5t21.5 22t20.5 24.5t15 38q8 33 -10 71t-49 67.5t-66.5 43t-64.5 -1.5q-53 -27 -67.5 -77z" />
<glyph unicode="&#x152;" horiz-adv-x="2349" d="M202 644.5q1 -105.5 28.5 -196t82.5 -151.5q18 -23 43 -39t41 -41q31 -49 45.5 -75.5t32 -44t46 -31t87.5 -33.5q23 10 51.5 1t65.5 -25.5t85 -32t108.5 -16.5t135 17.5t167.5 71.5q39 -6 103.5 -17.5t131 -15.5t125.5 2.5t92 30.5l47 -18q33 6 62.5 3t57.5 -7t56.5 -3 t61.5 15q20 -4 54 -16.5t70 -23.5t66.5 -18.5t44.5 -3.5q8 20 28 74.5t38 123.5t31.5 141.5t9.5 129t-31.5 87t-87.5 14.5q-29 -53 -53.5 -99.5t-50 -88.5t-56 -84t-69.5 -85q-43 -10 -97.5 -29.5t-89.5 -47.5q-20 4 -52 2t-63.5 -4t-60 1t-43.5 17q-29 27 -52.5 92.5 t-38.5 143t-18 155.5t10 134.5t45 77t89 -16.5h55q41 -45 84 -88t97 -74l51 8q2 16 2 66q0 51 -1 116.5t-2 138t-5 134t-9.5 103.5t-11.5 46q-29 20 -46 -9.5t-28.5 -75.5t-20.5 -91t-24 -55q-18 -12 -55 -34.5t-76 -37t-71.5 -11.5t-38.5 40q-4 25 -11.5 66.5t-10.5 90 t-3 99.5t9.5 94t30 75t54.5 40q147 39 238.5 24.5t156 -69t112.5 -141.5t110 -193q16 -29 31.5 -26t27.5 22.5t18.5 45.5t6.5 40q0 41 -17.5 76.5t-15.5 76.5q0 14 1 55.5t1 84.5t-4 78.5t-16 42.5l-109 51q-35 -4 -81 -3t-90 3t-78 4t-42 0q-55 -14 -105 -25.5t-97.5 -12.5 t-95.5 10t-97 42q-29 -6 -88 -6q-57 0 -120.5 1t-117 -1t-69.5 -10q-127 25 -235.5 -1t-199 -89.5t-161 -154.5t-117.5 -197.5t-71.5 -220t-23.5 -219zM559 768q-2 25 5 80t19.5 121.5t30 139.5t40 133.5t46 101t50.5 47.5q29 6 52 13t45.5 12t46.5 7t52 -2q25 -4 33 5.5 t14 15.5t17.5 1t42.5 -36q55 -55 82.5 -128t38 -152.5t10.5 -159.5v-152q0 -160 -7.5 -325.5t-50.5 -319.5q-16 -59 -31.5 -79.5t-35 -21.5t-47 6t-68.5 1q-45 -6 -89 -15.5t-87 13.5q-72 37 -112 124t-60.5 189t-26.5 205.5t-10 175.5z" />
<glyph unicode="&#x153;" horiz-adv-x="1789" d="M193.5 601q-19.5 -132 10 -253t110.5 -213t223 -123q25 -45 92 -51t143 13.5t143.5 60.5t94.5 88q33 -43 61.5 -68.5t61 -40t71.5 -19.5t92 -5q39 0 72 -17.5t69 -25.5t77.5 6t97.5 78q14 16 40.5 54t53.5 80t45 82t16 60q-4 29 -25.5 50.5t-49.5 -1.5 q-25 -2 -40.5 -24.5t-31.5 -56t-38.5 -71.5t-61.5 -68t-100.5 -46t-153.5 -6q-39 4 -68 57.5t-40 121t1 133t55 93.5q72 2 132.5 13.5t126.5 15.5q61 4 112 -9t87 -11t56.5 36.5t22.5 139.5q2 88 -34 163.5t-97 131t-140 85t-162 27.5t-164 -43t-144 -127q-53 74 -109.5 112 t-144.5 38q-31 0 -56.5 17.5t-58.5 17.5q-123 0 -217 -72t-152.5 -181.5t-78 -241.5zM411.5 367.5q4.5 46.5 12.5 99.5q2 29 3 71l2 84t7 80.5t21 61.5q8 14 31.5 44t50 62.5t51 58t39.5 29.5q20 6 34.5 8.5t32.5 -8.5q29 -16 59.5 -27t53.5 -36q29 -33 45 -78t24.5 -94 t8.5 -98t-4 -90q-6 -55 -4 -95.5t1 -78t-10.5 -77.5t-35.5 -96q-10 -23 -24.5 -43t-34 -35.5t-42 -21.5t-49.5 2q-29 8 -46 0t-31.5 -14t-30 -1t-37.5 40q-14 23 -32 37t-34 34q-14 18 -17 43t-16 45q-33 47 -28.5 93.5zM1152 687q-7 34 1 74t25 73q14 27 36.5 65.5 t47.5 54.5q45 27 90 10.5t78.5 -55.5t52 -90t12.5 -92q-6 -49 -45 -70.5t-84 -21.5q-29 0 -53.5 -12.5t-52.5 -14.5q-51 -2 -76 21.5t-32 57.5z" />
<glyph unicode="&#x178;" horiz-adv-x="1378" d="M56 1394q7 -42 32 -73q49 -61 81 -78.5t56.5 -18.5t46 1t50.5 -21q27 -23 65.5 -82t78.5 -138t77 -169t62.5 -174t34.5 -152.5t-7 -103.5q-18 -41 -51 -76t-66 -69.5t-55.5 -73.5t-20.5 -90q4 -63 29 -83t64.5 -15.5t88 22.5t98.5 31.5t98 10.5t85 -42q25 0 42.5 11.5 t39.5 15.5q14 2 25.5 -2.5t22.5 -9.5t25.5 -6t39.5 7l12 60l-59 22q-74 92 -98.5 202t-11.5 222.5t57 222t106 199.5q14 20 19 49t8.5 59.5t8.5 60.5t17 54.5t42 57t67 66.5t73.5 65t59.5 49q8 27 -10.5 46t-48 31.5t-63.5 15.5t-52 -3q-43 29 -88 33t-93.5 -4t-100.5 -22.5 t-110.5 -20.5t-123 2t-138.5 43q-41 20 -92 18t-103 -9t-101.5 -13t-86.5 4q-51 14 -82.5 -4.5t-44 -52t-5.5 -75.5zM489.5 1780q10.5 -43 51.5 -80t85 -47.5t77.5 13t27.5 101.5q-2 20 -2 39q0 20 -10 39q-35 57 -80 70.5t-82 -3t-57.5 -53t-10 -79.5zM646 1227.5 q5 29.5 21.5 45t46 23t74.5 11.5q20 2 39 14t41 10q14 -2 23.5 -9t20 -15.5t24.5 -10.5t25 -12q53 -49 76 -109.5t7 -132.5q-10 -47 -31.5 -91t-39.5 -89q-12 -29 -12 -61q0 -31 -11 -60q-18 -51 -45.5 -46t-55.5 36t-49.5 73t-27.5 62q-12 45 -35.5 82t-52.5 74 q-23 29 -28 60.5t-9 66.5q-6 49 -1 78.5zM911 1739q2 -10 31 -37t64.5 -45.5t70.5 -13t49 58.5q6 23 17.5 58.5t1.5 58.5q-43 92 -91 109.5t-86 -8.5t-56.5 -79t-0.5 -102z" />
<glyph unicode="&#x2c6;" horiz-adv-x="870" d="M164 1112q6 -16 19.5 -14t26.5 11t25.5 21.5t16.5 18.5q6 12 24.5 27.5t38 33t36 31.5t20.5 23q6 14 18 29.5t27.5 27.5t34 16t34.5 -4q8 -4 32 -29.5t54.5 -57.5t64.5 -65.5t62.5 -54t50 -22.5t27.5 29q2 14 -15.5 54t-46 90t-64.5 104.5t-70.5 99.5t-65.5 73.5 t-47 28.5q-37 0 -66.5 -26.5t-52 -63.5t-42 -76t-38.5 -65q-10 -14 -29.5 -48t-38 -72t-30.5 -72t-6 -48z" />
<glyph unicode="&#x2dc;" horiz-adv-x="1200" d="M279 1249q4 -45 30.5 -46t57 16.5t59.5 39t39 21.5q27 -4 59.5 -1t57.5 -5q16 -6 26 -16.5t20.5 -20.5t24 -19.5t35.5 -13.5q29 -6 55.5 -13t51 -10t51 -1t55.5 18q27 14 55.5 53t41 82t2 80t-59.5 47q-47 -49 -96 -60t-101.5 -3t-105.5 28.5t-105 36.5 q-49 -18 -77.5 -21t-50 -10.5t-43 -27t-58.5 -68.5q-12 -18 -20.5 -40.5t-3.5 -45.5z" />
<glyph unicode="&#x2000;" horiz-adv-x="1059" />
<glyph unicode="&#x2001;" horiz-adv-x="2118" />
<glyph unicode="&#x2002;" horiz-adv-x="1059" />
<glyph unicode="&#x2003;" horiz-adv-x="2118" />
<glyph unicode="&#x2004;" horiz-adv-x="706" />
<glyph unicode="&#x2005;" horiz-adv-x="529" />
<glyph unicode="&#x2006;" horiz-adv-x="353" />
<glyph unicode="&#x2007;" horiz-adv-x="353" />
<glyph unicode="&#x2008;" horiz-adv-x="264" />
<glyph unicode="&#x2009;" horiz-adv-x="423" />
<glyph unicode="&#x200a;" horiz-adv-x="117" />
<glyph unicode="&#x2010;" horiz-adv-x="665" d="M74 584q-2 -37 6 -40t43 -12q29 -8 97.5 -12t144.5 -4q78 0 145.5 4t96 14.5t33.5 15.5t3 34q-2 51 -22.5 84.5t-75.5 38.5q-45 4 -89 -6.5t-89 -10.5q-33 0 -82 2t-95.5 -6t-80 -30.5t-35.5 -71.5z" />
<glyph unicode="&#x2011;" horiz-adv-x="665" d="M74 584q-2 -37 6 -40t43 -12q29 -8 97.5 -12t144.5 -4q78 0 145.5 4t96 14.5t33.5 15.5t3 34q-2 51 -22.5 84.5t-75.5 38.5q-45 4 -89 -6.5t-89 -10.5q-33 0 -82 2t-95.5 -6t-80 -30.5t-35.5 -71.5z" />
<glyph unicode="&#x2012;" horiz-adv-x="665" d="M74 584q-2 -37 6 -40t43 -12q29 -8 97.5 -12t144.5 -4q78 0 145.5 4t96 14.5t33.5 15.5t3 34q-2 51 -22.5 84.5t-75.5 38.5q-45 4 -89 -6.5t-89 -10.5q-33 0 -82 2t-95.5 -6t-80 -30.5t-35.5 -71.5z" />
<glyph unicode="&#x2013;" horiz-adv-x="1220" d="M94 598q-2 -29 10.5 -46t33 -26.5t45 -11.5t46.5 0q29 4 56.5 -4t56.5 -6q33 2 62.5 12t62.5 6q70 -10 129 -18t115.5 -11.5t118 1t135.5 18.5q33 6 76.5 -1t84.5 -8t75 15.5t46 69.5q8 35 -12.5 67.5t-53 43t-64.5 9.5t-64.5 -5.5t-65.5 -8.5t-65 0q-43 4 -83 20.5 t-85 20.5q-27 2 -73 1t-97.5 -6t-98.5 -12t-73 -13q-29 -6 -58.5 -4.5t-60.5 7t-60.5 7.5t-60.5 -4q-35 -8 -54.5 -44t-23.5 -69z" />
<glyph unicode="&#x2014;" horiz-adv-x="2328" d="M152 631.5q12 -21.5 42.5 -36.5t74.5 -26.5t86 -17.5t77 -8t49 -2h305q152 0 306 16q78 8 176 7t205.5 -7t218 -12t213 -7t190.5 7t152 30q35 12 56 41t21 66q0 35 -50 49t-114.5 18.5t-127 2.5t-84.5 -2q-41 0 -133.5 1t-217.5 1h-272t-295.5 -1t-289 -3.5t-253 -5.5 t-187.5 -9t-91 -14t-27.5 -14.5t-21.5 -22.5q-20 -29 -8 -50.5z" />
<glyph unicode="&#x2018;" horiz-adv-x="468" d="M144.5 1251.5q-5.5 -63.5 2 -119t27 -89t50 -39t71.5 31.5q18 16 40 31.5t32 40.5q16 41 12 69.5t-21.5 51t-44 41t-53.5 41.5q-29 25 -16.5 47t37 44.5t46 46.5t7.5 48q-31 57 -59.5 50t-59.5 -54q-31 -51 -48 -114.5t-22.5 -127z" />
<glyph unicode="&#x2019;" horiz-adv-x="466" d="M127 1456q-14 -37 2 -76t40 -75.5t43 -69.5t13 -57q-6 -31 -21.5 -49.5t-30.5 -35t-26.5 -35t-9.5 -46.5q2 -43 31 -49.5t64.5 17.5t68.5 74t45 122q4 31 11.5 59t9.5 61q2 39 -3.5 93.5t-25 95.5t-56 57.5t-96.5 -16.5q-41 -23 -59 -70z" />
<glyph unicode="&#x201a;" horiz-adv-x="540" d="M150.5 -313.5q-5.5 -22.5 17.5 -30.5q10 -4 30.5 -5t30.5 3q37 12 62.5 45t56.5 55q33 23 46.5 40.5t18.5 35.5t5 41t6 57q4 31 14.5 74t16.5 88t3.5 87t-22.5 71q-16 23 -38.5 41t-49.5 28q-14 4 -38.5 -3t-49 -19t-45 -28.5t-27.5 -30.5q-10 -31 -22 -53.5t-8 -57.5 q2 -29 15 -52.5t28.5 -46t28 -46t14.5 -48.5q2 -29 -5.5 -57.5t-7.5 -56.5q-6 -10 -24.5 -34t-34.5 -49.5t-21.5 -48z" />
<glyph unicode="&#x201c;" horiz-adv-x="849" d="M123 1171q0 -31 9 -68.5t28.5 -67t49.5 -43t69 4.5q18 10 34.5 19.5t28.5 25.5q20 29 34.5 82t2.5 88q-6 16 -12 17q-4 0 -11.5 -2t-17.5 1t-25 23q-12 16 -11 39t10.5 45.5t20.5 44t21 35.5q12 20 14.5 42t-6 38t-27 22.5t-44.5 -6.5q-25 -41 -41.5 -61t-29.5 -32.5 t-22.5 -23t-17.5 -28.5t-16 -49t-19 -86q-4 -16 -13 -28.5t-9 -31.5zM551 1226q-4 -52 6 -103.5t45 -98.5q20 -29 47 -29q29 0 55.5 18.5t48 50.5t27.5 68.5t-6 72.5t-51 63q-27 16 -31 33.5t10 46.5q12 25 32 57.5t36 52.5q16 18 6 43t-32.5 35t-51 0t-49.5 -59 q-8 -23 -18.5 -28t-16.5 -19q-20 -49 -36.5 -100.5t-20.5 -103.5z" />
<glyph unicode="&#x201d;" horiz-adv-x="954" d="M123 1406.5q-2 -22.5 11 -41.5t36 -34.5t44.5 -35t36.5 -42t15 -53.5q0 -16 -11 -32.5t-25.5 -34t-28 -37t-17.5 -37.5q-6 -31 2.5 -43t22.5 -12q16 0 35.5 10t31.5 24q10 4 23.5 32t24.5 40q37 43 65.5 78t38.5 94q6 41 1 88t-23.5 85t-53.5 63.5t-86 23.5 q-14 0 -23.5 -5t-19.5 -13q-20 -14 -37.5 -29.5t-33.5 -34.5q-27 -31 -29 -53.5zM578.5 1451q-0.5 -28 14.5 -53.5t37.5 -53t32 -66.5t-5 -92t-71.5 -131q2 -35 25.5 -32t51 21.5t53 43t32.5 34.5q10 18 23 31.5t28.5 26t29 25t23.5 28.5t11 40t5 42q16 68 -12.5 117 t-74.5 74.5t-94 28.5t-69 -17q-39 -39 -39.5 -67z" />
<glyph unicode="&#x201e;" horiz-adv-x="995" d="M201 159q-6 -46 10 -91t57 -74q33 -23 37 -42.5t-6 -38.5t-25.5 -38.5t-23.5 -44.5q-10 -27 -15.5 -34t-21.5 -27.5t-9 -43t25.5 -38t43 -19.5t42.5 13q25 23 41.5 50t28.5 57t22.5 59.5t24.5 58.5q12 27 22.5 73t12.5 98t-4 103t-24.5 87t-51.5 49.5t-82 -9.5 q-45 -20 -71.5 -61t-32.5 -87zM607 106.5q-1 -26.5 7 -47.5q4 -12 22.5 -16t35 -12t27 -25.5t-0.5 -60.5q-4 -16 -17 -42t-26.5 -53.5t-22.5 -51t-5 -36.5q2 -6 6 -19t10 -25.5t14.5 -20.5t20.5 -4q10 4 18.5 10t18.5 10q35 55 62.5 84t49 56.5t38 65.5t28.5 112 q4 20 11 37.5t7 37.5q-2 35 -13 79t-33.5 79t-56.5 50.5t-79 -7.5q-23 -10 -41 -21.5t-33 -31.5q-12 -18 -22 -43t-17.5 -51.5t-8.5 -53z" />
<glyph unicode="&#x2022;" horiz-adv-x="778" d="M166 643q6 -43 35.5 -84t71.5 -73.5t90.5 -52t89.5 -21.5q35 -2 64.5 16t55.5 37q33 23 44.5 41t14.5 36.5t4 40t15 48.5q10 20 12.5 35.5t-1.5 38.5q-6 39 -25 74.5t-39 68.5q-23 35 -42 69.5t-60 53.5q-37 16 -85.5 7t-92.5 -33.5t-77.5 -61.5t-39.5 -76 q-6 -45 -24.5 -81t-10.5 -83z" />
<glyph unicode="&#x2026;" horiz-adv-x="1927" d="M309 77q6 -40 25.5 -73t52.5 -39q20 -4 37.5 -9t34 -7t33 2t36.5 16q31 20 44.5 59.5t11.5 84.5t-17.5 88t-42 70.5t-62.5 32.5t-79 -28q-35 -25 -41 -59q-23 -18 -31 -58t-2 -80zM921 70.5q1 -35.5 19 -70.5q10 -20 45 -37.5t57 -25.5q47 8 63.5 10t22 8t11.5 20.5 t30 42.5q6 2 9.5 12.5t6.5 23t4 24.5t1 18q2 29 -16.5 72t-47 77t-62.5 45t-63 -24q-23 -27 -42 -58.5t-29 -66.5t-9 -70.5zM1507 147.5q2 -24.5 2 -34.5q4 -43 20.5 -82t42 -63.5t63.5 -31t85 16.5q23 10 28 29.5t17 35.5q18 20 27.5 55.5t7.5 71t-15 68.5t-38 49 q-16 10 -46 19.5t-52 13.5q-10 -4 -18.5 -7t-18.5 -7q-35 -10 -63.5 -37t-39.5 -66q-4 -6 -2 -30.5z" />
<glyph unicode="&#x202f;" horiz-adv-x="423" />
<glyph unicode="&#x2039;" horiz-adv-x="718" d="M190 549q-2 -47 38 -102.5t93.5 -108.5t103.5 -100.5t71 -77.5q18 -29 38.5 -54.5t40.5 -54.5q31 18 29 54t-24.5 81t-55 95.5t-62.5 100.5t-48.5 96t-10.5 79q2 12 27 49t56.5 84t64.5 99.5t51.5 96.5t17.5 73.5t-38 31.5q-31 -37 -68 -70.5t-74 -67.5t-71.5 -68.5 t-61.5 -75.5q-6 -12 -25.5 -35t-39 -48.5t-36 -47t-16.5 -29.5z" />
<glyph unicode="&#x203a;" horiz-adv-x="712" d="M140 958.5q-1 -28.5 17.5 -72.5t51.5 -96.5t64.5 -99.5t56 -84t26.5 -49q8 -35 -10 -80t-48 -95t-62.5 -100.5t-55 -95.5t-24.5 -80.5t28 -54.5q20 29 41 54.5t39 54.5q20 31 70.5 78t104 100t93 108.5t37.5 102.5q0 8 -16 29.5t-35.5 47t-39 48t-25.5 35.5 q-27 41 -62 75.5t-71.5 68.5t-73.5 67.5t-68 70.5q-37 -4 -38 -32.5z" />
<glyph unicode="&#x205f;" horiz-adv-x="529" />
<glyph unicode="&#x2122;" horiz-adv-x="1703" d="M166 1304.5q2 -36.5 6 -53.5l31 -2q20 25 29.5 55.5t21.5 58.5t32.5 46t63.5 18q43 -29 55.5 -71.5t12.5 -91.5q0 -47 -2 -96.5t12 -92.5q-6 -18 -7 -53t-3 -71t-8.5 -65.5t-24.5 -37.5q-6 -4 -34.5 -6t-52.5 -9.5t-29 -21.5t36 -41q18 6 27.5 -2t25.5 -12q10 -2 26.5 2 t33 10t33 11t26.5 3q2 -4 25.5 -8t55.5 -8t64.5 -3t54 8t27 24.5t-21.5 46.5q-10 14 -34.5 7t-39.5 -11q-20 12 -34.5 27.5t-12.5 41.5q-2 4 -4 38t-4 84t-3 108.5t-1 109.5v92t2 50q4 27 21.5 31.5t35.5 15.5l29 -2q29 -41 52.5 -91.5t58.5 -85.5l18 5q4 4 10 38.5 t10.5 75.5t7.5 76t1 39q-16 29 -48 37t-68 5t-73 -9t-63 -6q-18 0 -48 6t-46 -2q-25 2 -61 6t-75 4t-72.5 -4t-54.5 -17q-8 -16 -13 -52t-7 -77t0 -77.5zM755.5 794.5q2.5 -14.5 24 -22.5t56 -9t70.5 0t65.5 5t38.5 6q14 4 31.5 -2t23.5 4q2 6 -4 13.5t-15.5 14.5t-19.5 13 t-14 12q-12 20 -21.5 50t-7.5 55q0 10 2 38.5t2 65.5t-2 75t-8 68.5t-15.5 47t-25.5 8.5q-10 -23 -9 -40t15 -38q0 -23 -3 -63.5t-10 -83.5t-18.5 -81t-25.5 -52q-16 -16 -27.5 -20.5t-22 -5.5t-21.5 -3t-28 -14q-33 -27 -30.5 -41.5zM779.5 1478q0.5 -28 21.5 -38 q12 -6 29.5 -1t33.5 -5q37 -23 60.5 -71t33.5 -89q10 10 25.5 19.5t30.5 -3.5q14 -14 30.5 -54t33 -94.5t31.5 -113.5t29.5 -110.5t27 -87t22.5 -42.5q25 6 35 27t11 47.5t-2 52t-3 43.5q-2 18 10 33t21 31q6 12 6 25q0 12 1 24t6 27t21 35l-12 14q-35 -25 -55.5 -8.5 t-32.5 50.5t-19.5 72.5t-17.5 61.5q-16 35 -22.5 72t-18.5 64.5t-37.5 40.5t-77.5 1q-27 16 -53 17q-25 0 -47 12q-27 -8 -53.5 -7t-52.5 -3q-16 -14 -15.5 -42zM1329 1313q4 -16 10.5 -31.5t16.5 -28.5q10 8 21.5 15.5t25.5 7.5q10 -29 11 -58.5t-2 -59.5t-6 -59.5 t-1 -58.5q2 -45 3 -75.5t-5 -56t-22.5 -50t-49.5 -57.5q-6 -6 -1 -13.5t14.5 -12.5t20.5 -8t15 -3q29 4 57.5 2t57.5 -2q14 -14 35 -14q23 0 44 4t44 10t41 6q2 14 -8.5 26.5t-25.5 22.5t-30.5 20.5t-23.5 20.5q-10 12 -16.5 59.5t-7.5 111t2 133t9.5 129t14.5 100.5t18 45 q18 8 47 4q31 35 26 53t-30.5 25.5t-64.5 5.5t-79 -7.5t-73 -11.5t-43 -8q-12 -14 -18 -38.5t-9.5 -51.5t-6.5 -52.5t-11 -43.5z" />
<glyph unicode="&#x25fc;" horiz-adv-x="1095" d="M0 0v1096h1096v-1096h-1096z" />
</font>
</defs>
</svg>
