<?xml version="1.0" encoding="UTF-8" standalone="no"?>
<svg
   xmlns:dc="http://purl.org/dc/elements/1.1/"
   xmlns:cc="http://creativecommons.org/ns#"
   xmlns:rdf="http://www.w3.org/1999/02/22-rdf-syntax-ns#"
   xmlns:svg="http://www.w3.org/2000/svg"
   xmlns="http://www.w3.org/2000/svg"
   xmlns:sodipodi="http://sodipodi.sourceforge.net/DTD/sodipodi-0.dtd"
   xmlns:inkscape="http://www.inkscape.org/namespaces/inkscape"
   version="1.0"
   width="69pt"
   height="175pt"
   viewBox="0 0 69 175"
   preserveAspectRatio="xMidYMid meet"
   id="svg14"
   sodipodi:docname="pingoe trials.svg"
   inkscape:version="0.92.4 (5da689c313, 2019-01-14)">
  <defs
     id="defs18" />
  <sodipodi:namedview
     pagecolor="#ffffff"
     bordercolor="#666666"
     borderopacity="1"
     objecttolerance="10"
     gridtolerance="10"
     guidetolerance="10"
     inkscape:pageopacity="0"
     inkscape:pageshadow="2"
     inkscape:window-width="1680"
     inkscape:window-height="987"
     id="namedview16"
     showgrid="false"
     inkscape:pagecheckerboard="false"
     inkscape:zoom="0.78666667"
     inkscape:cx="200"
     inkscape:cy="150"
     inkscape:window-x="-8"
     inkscape:window-y="-8"
     inkscape:window-maximized="1"
     inkscape:current-layer="g12" />
  <metadata
     id="metadata2">
Created by potrace 1.10, written by Peter Selinger 2001-2011
<rdf:RDF>
  <cc:Work
     rdf:about="">
    <dc:format>image/svg+xml</dc:format>
    <dc:type
       rdf:resource="http://purl.org/dc/dcmitype/StillImage" />
    <dc:title></dc:title>
  </cc:Work>
</rdf:RDF>
</metadata>
  <g
     transform="matrix(0.1,0,0,-0.1,0,175)"
     id="g12"
     style="fill:#ffffff;stroke:none">
    <g
       id="g3756"
       transform="translate(-2078.3898,-76.271186)">
      <path
         id="path6"
         d="m 2403,1740 c -32,-19 -77,-69 -97,-109 -27,-52 -107,-335 -126,-445 -45,-266 -54,-359 -54,-591 -1,-244 6,-296 56,-402 29,-61 59,-75 138,-62 35,5 78,16 98,24 76,32 224,156 207,173 -3,4 -18,-8 -32,-26 -29,-38 -152,-123 -201,-140 -18,-6 -59,-14 -91,-18 -52,-6 -60,-4 -80,17 -30,32 -58,115 -77,222 -36,205 16,716 106,1033 49,171 79,239 127,286 34,33 35,33 151,39 64,3 127,2 140,-2 32,-12 29,-44 -5,-47 -50,-4 -152,-59 -163,-87 -19,-50 -12,-73 28,-99 51,-32 86,-101 119,-232 23,-93 27,-130 26,-254 0,-133 -2,-154 -32,-253 -50,-172 -97,-253 -220,-379 -85,-88 -92,-117 -8,-36 120,117 189,230 238,393 33,106 34,116 34,280 0,146 -3,183 -24,260 -29,112 -75,201 -118,229 -33,21 -42,51 -27,91 8,21 70,52 137,69 55,14 66,29 43,61 -12,17 -28,20 -139,21 -104,2 -130,-1 -154,-16 z"
         inkscape:connector-curvature="0" />
      <path
         id="path8"
         d="m 2321,1332 c -26,-52 -95,-305 -109,-402 -18,-123 -22,-348 -6,-361 19,-16 59,27 95,104 35,76 59,221 64,392 2,66 8,147 15,181 16,82 11,118 -17,122 -17,3 -27,-6 -42,-36 z m 46,-34 c -3,-35 -10,-139 -16,-233 -13,-218 -31,-320 -72,-398 -65,-128 -72,-121 -64,66 8,195 16,253 61,418 35,130 68,209 87,209 5,0 6,-28 4,-62 z"
         inkscape:connector-curvature="0" />
    </g>
  </g>
</svg>
