<?xml version="1.0" encoding="UTF-8" standalone="no"?>
<!-- Created with Inkscape (http://www.inkscape.org/) -->

<svg
   xmlns:dc="http://purl.org/dc/elements/1.1/"
   xmlns:cc="http://creativecommons.org/ns#"
   xmlns:rdf="http://www.w3.org/1999/02/22-rdf-syntax-ns#"
   xmlns:svg="http://www.w3.org/2000/svg"
   xmlns="http://www.w3.org/2000/svg"
   xmlns:sodipodi="http://sodipodi.sourceforge.net/DTD/sodipodi-0.dtd"
   xmlns:inkscape="http://www.inkscape.org/namespaces/inkscape"
   width="33mm"
   height="63mm"
   viewBox="0 0 33 63"
   version="1.1"
   id="svg3740"
   inkscape:version="0.92.4 (5da689c313, 2019-01-14)"
   sodipodi:docname="pingoe-trials2.svg">
  <defs
     id="defs3734" />
  <sodipodi:namedview
     id="base"
     pagecolor="#ffffff"
     bordercolor="#666666"
     borderopacity="1.0"
     inkscape:pageopacity="0.0"
     inkscape:pageshadow="2"
     inkscape:zoom="0.35"
     inkscape:cx="400"
     inkscape:cy="560"
     inkscape:document-units="mm"
     inkscape:current-layer="layer1"
     showgrid="false"
     inkscape:window-width="1680"
     inkscape:window-height="987"
     inkscape:window-x="-8"
     inkscape:window-y="-8"
     inkscape:window-maximized="1" />
  <metadata
     id="metadata3737">
    <rdf:RDF>
      <cc:Work
         rdf:about="">
        <dc:format>image/svg+xml</dc:format>
        <dc:type
           rdf:resource="http://purl.org/dc/dcmitype/StillImage" />
        <dc:title></dc:title>
      </cc:Work>
    </rdf:RDF>
  </metadata>
  <g
     inkscape:label="Layer 1"
     inkscape:groupmode="layer"
     id="layer1"
     transform="translate(0,-234)"
     style="fill:#ffffff;stroke:none">
    <g
       id="g3752"
       transform="translate(0,234.34524)">
      <path
         id="path4"
         d="m 25.259921,4.8513481 c -1.41111,0.84666 -1.72861,0.88194 -4.1275,0.67027 -2.29305,-0.21166 -2.75167,-0.17638 -3.81,0.49389 -1.44639,0.88195 -2.68111,3.175 -3.73944,6.9144499 -0.45861,1.55222 -1.27,4.02166 -1.79917,5.46805 -0.56444,1.44639 -1.37583,3.91584 -1.79917,5.46806 -0.42333,1.55222 -1.65805,5.60916 -2.78694,8.99583 -2.36361,7.05556 -2.96333,9.80722 -3.52778,15.62806 -0.42333,4.55083 -0.14111,7.05555 1.12889,9.525 0.98778,1.97555 1.16417,1.41111 0.21167,-0.67028 -0.74084,-1.55222 -0.81139,-2.25778 -0.77611,-6.49111 0.0353,-6.10306 0.67027,-9.38389 3.4925,-17.99167 1.23472,-3.77472 2.68111,-8.36083 3.175,-10.19528 0.52916,-1.83444 1.16416,-3.77472 1.41111,-4.30388 0.28222,-0.49389 0.81139,-2.11667 1.19944,-3.59834 1.12889,-4.09222 2.08139,-6.4558299 3.21028,-7.6552799 0.9525,-1.02305 1.05833,-1.05833 4.30389,-1.05833 2.68111,0 3.45722,-0.14111 4.33916,-0.70555 1.62278,-1.05834 4.02167,-0.81139 3.52778,0.38805 -0.21167,0.52917 -2.78694,2.32833 -4.65667,3.28083 -1.48166,0.74084 -2.32833,2.3988899 -2.11666,4.0569499 0.24694,1.76389 3.91583,14.64028 4.79778,16.89805 1.51694,3.84528 1.97555,6.70278 1.97555,12.41778 0,6.24417 -0.3175,7.23194 -2.96333,9.63083 -0.84667,0.74084 -1.23472,1.30528 -0.91722,1.30528 0.77611,0 2.92805,-2.43417 3.77472,-4.23333 1.72861,-3.73945 1.09361,-12.20611 -1.48167,-19.75556 -0.74083,-2.2225 -1.79917,-5.64444 -2.29305,-7.58472 -0.49389,-1.94028 -1.34056,-4.79778 -1.83445,-6.35 -0.84667,-2.68111 -0.84667,-2.92805 -0.35278,-4.1275 0.38806,-0.9525 0.98778,-1.5169399 2.25778,-2.1872199 1.79917,-0.91722 4.69195,-3.24556 4.69195,-3.77472 0,-0.35278 -1.86973,-1.37584 -2.54,-1.37584 -0.24695,0 -1.12889,0.42334 -1.97556,0.91723 z"
         inkscape:connector-curvature="0"
         style="stroke-width:0.03527778" />
      <path
         id="path10"
         d="m 13.441871,22.172738 c -0.28223,0.56444 -0.635,1.37583 -0.77612,1.86972 -0.24694,0.84666 -2.04611,5.53861 -4.62138,11.99444 -1.16417,2.99861 -2.25778,8.36083 -2.25778,11.21833 0,1.83445 0.84666,3.59834 1.72861,3.59834 1.94028,0 3.77472,-3.4925 6.0325,-11.46528 0.81139,-2.92806 1.97555,-6.84389 2.54,-8.78417 1.65805,-5.60916 1.23472,-9.38388 -1.12889,-9.38388 -0.77611,0 -1.16417,0.24694 -1.51694,0.9525 z m 2.57527,0.10583 c 0.9525,1.76389 0.81139,3.98639 -0.45861,8.32555 -0.67028,2.29306 -1.97555,6.73806 -2.89278,9.8425 -1.72861,5.99722 -2.99861,8.74889 -4.33916,9.63084 -0.81139,0.52916 -0.88195,0.49388 -1.34056,-0.10584 -0.59972,-0.81139 -0.635,-4.51555 -0.10583,-8.04333 0.35278,-2.2225 2.57528,-8.5725 5.08,-14.35806 0.45861,-1.05833 1.02305,-2.64583 1.23472,-3.52777 0.24695,-0.88195 0.59972,-1.79917 0.77611,-2.04611 0.56445,-0.67028 1.62278,-0.49389 2.04611,0.28222 z"
         inkscape:connector-curvature="0"
         style="stroke-width:0.03527778" />
    </g>
  </g>
</svg>
