<?xml version="1.0" encoding="UTF-8" standalone="no"?>
<svg
   xmlns:dc="http://purl.org/dc/elements/1.1/"
   xmlns:cc="http://creativecommons.org/ns#"
   xmlns:rdf="http://www.w3.org/1999/02/22-rdf-syntax-ns#"
   xmlns:svg="http://www.w3.org/2000/svg"
   xmlns="http://www.w3.org/2000/svg"
   xmlns:sodipodi="http://sodipodi.sourceforge.net/DTD/sodipodi-0.dtd"
   xmlns:inkscape="http://www.inkscape.org/namespaces/inkscape"
   version="1.0"
   width="530.000000pt"
   height="660.000000pt"
   viewBox="0 0 530.000000 660.000000"
   preserveAspectRatio="xMidYMid meet"
   id="svg72"
   sodipodi:docname="pingu.svg"
   inkscape:version="1.0.1 (3bc2e813f5, 2020-09-07)">
  <defs
     id="defs76">
    <marker
       style="overflow:visible"
       id="Arrow1Lstart"
       refX="0.0"
       refY="0.0"
       orient="auto"
       inkscape:stockid="Arrow1Lstart"
       inkscape:isstock="true">
      <path
         transform="scale(0.8) translate(12.5,0)"
         style="fill-rule:evenodd;stroke:none;stroke-width:1pt;stroke-opacity:1;fill:#000000;fill-opacity:1"
         d="M 0.0,0.0 L 5.0,-5.0 L -12.5,0.0 L 5.0,5.0 L 0.0,0.0 z "
         id="path2477" />
    </marker>
  </defs>
  <sodipodi:namedview
     pagecolor="#ffffff"
     bordercolor="#666666"
     borderopacity="1"
     objecttolerance="10"
     gridtolerance="10"
     guidetolerance="10"
     inkscape:pageopacity="0"
     inkscape:pageshadow="2"
     inkscape:window-width="2560"
     inkscape:window-height="1376"
     id="namedview74"
     showgrid="false"
     inkscape:zoom="1.3465909"
     inkscape:cx="247.74277"
     inkscape:cy="415.22442"
     inkscape:window-x="0"
     inkscape:window-y="27"
     inkscape:window-maximized="1"
     inkscape:current-layer="g70" />
  <metadata
     id="metadata62">
Created by potrace 1.16, written by Peter Selinger 2001-2019
<rdf:RDF>
  <cc:Work
     rdf:about="">
    <dc:format>image/svg+xml</dc:format>
    <dc:type
       rdf:resource="http://purl.org/dc/dcmitype/StillImage" />
  </cc:Work>
</rdf:RDF>
</metadata>
  <g
     transform="translate(0.000000,660.000000) scale(0.100000,-0.100000)"
     fill="#000000"
     stroke="none"
     id="g70">
    <path
       d="m 3624.0045,6099.0577 c -54.1131,7.1943 -138.0393,8.3732 -242.9859,5.1765 -87.5026,-4.0374 -244.2714,-46.4697 -378.2527,-103.7588 -194.3067,-82.6433 -468.9746,-314.9331 -638.0034,-537.9831 -30.2576,-40.2178 -63.5403,-83.7293 -74.9551,-98.1414 -11.1389,-13.4506 -29.982,-39.2566 -40.0254,-56.1423 -11.0047,-16.6101 -45.1212,-70.2857 -75.6615,-118.7448 -51.037,-80.0326 -89.1469,-144.0064 -177.3465,-302.8486 -68.5226,-122.8724 -187.4523,-385.2553 -297.5962,-653.2782 -166.4598,-410.0002 -392.589,-1165.955 -508.8985,-1705.8087 -15.4566,-75.671 -39.4578,-181.1411 -51.7341,-234.8374 -12.2763,-53.6963 -31.4573,-145.9843 -42.5035,-206.2751 -11.732,-59.0539 -27.3298,-138.8456 -35.1959,-177.1617 -32.2913,-156.1484 -71.24618,-386.3275 -102.90038,-594.6734 -47.82407,-311.9004 -47.29354,-331.81822 3.34986,-376.50868 26.62588,-23.23937 36.23843,-25.99575 156.41702,-38.61005 135.4243,-13.86515 301.7642,-17.86977 414.4078,-9.59813 38.1887,2.57347 183.6565,5.59412 324.1767,5.87228 140.7958,1.23943 317.3066,3.68105 391.6202,5.25856 75.2748,1.30186 141.347,3.16195 148.3515,2.19376 32.4142,-3.05284 376.233,2.38866 398.4902,7.44979 14.1503,2.18428 41.9133,19.19054 61.0251,38.67752 28.3213,26.2089 31.9121,36.56472 37.7173,52.08935 3.6111,17.1433 3.1834,13.2026 3.5366,25.5471 7.8019,39.3353 -51.2513,97.9199 -64.8433,104.9383 -14.2777,8.2552 -13.8518,11.7223 -44.8575,19.0796 -20.5275,4.8709 -36.6883,4.5198 -54.5694,4.2292 -1.6468,1.5125 -200.9592,-0.6327 -222.3895,-2.81 -67.726,-7.6276 -63.1746,11.8732 15.3084,64.2702 40.9588,26.7461 114.6354,80.5214 154.4987,110.7027 135.401,105.7761 308.5019,277.724 408.7601,406.0606 26.1301,33.079 55.8365,71.3742 66.9755,84.8249 77.2875,95.3921 269.8798,396.9897 304.9855,479.5101 7.1595,17.7126 22.1576,44.621 30.4128,58.8988 16.0935,23.4732 62.2039,122.6037 135.8501,288.7398 28.6317,63.5707 90.0433,219.6912 132.8737,336.4069 36.4976,101.8868 191.5154,652.2539 206.0423,722.1832 15.5823,68.2489 42.0728,186.6329 65.6643,294.3012 12.4175,57.8171 24.9764,119.7546 27.0539,137.8844 3.039,17.8538 7.7387,48.7555 11.0532,67.5708 21.2728,124.9778 28.7428,180.0525 55.8801,405.298 14.3387,149.437 38.5028,307.4179 43.7008,453.5231 8.0694,28.3339 9.916,27.3253 46.3373,49.131 57.7243,34.4224 240.241,141.2524 311.2955,182.2555 274.0473,157.5663 267.5872,153.1769 281.0934,200.2786 9.9229,34.6054 8.5655,51.6394 -6.7868,85.1701 -28.3688,52.3305 -73.0076,50.2672 -143.3347,73.3499 -67.8396,17.372 -191.2979,47.5716 -274.7934,68.3928 l -150.925,35.9948 -34.9876,41.2416 c -58.3129,68.736 -191.3144,174.4931 -263.6708,208.7647 -56.5663,27.6634 -249.2286,84.9891 -309.6608,91.9147 z m 465.4343,-517.3316 c 43.639,-43.7223 243.0699,-79.8227 273.4083,-80.4791 13.9967,-0.3034 26.364,-9.6404 37.758,-17.0689 18.6669,-14.7152 18.6669,-14.7152 -21.0482,-33.4958 -21.7128,-10.4188 -54.0066,-25.0856 -71.0475,-33.7231 -16.7654,-7.6761 -96.6125,-50.3193 -177.011,-94.8847 -101.15,-55.26 -176.0703,-117.0009 -176.9389,-163.5653 -1.1304,-32.9656 -32.8956,-357.7931 -38.7255,-421.6603 -23.0293,-285.6105 -100.1949,-561.6867 -145.4457,-844.6292 -5.1097,-28.7035 -36.2776,-159.1663 -70.6048,-289.7636 -59.5585,-229.473 -81.8783,-300.0549 -93.1792,-339.4667 -25.6343,-89.3974 -112.8145,-331.7557 -152.3234,-422.3761 -66.2181,-154.7424 -82.1772,-181.3751 -104.4831,-237.397 -14.3193,-35.4255 -31.9392,-75.1058 -41.4313,-90.069 -8.2552,-14.2776 -28.759,-53.1311 -45.4108,-85.8072 -32.618,-66.5888 -37.2969,-75.6502 -134.699,-233.9342 -99.1903,-160.892 -198.0774,-291.7025 -340.6726,-451.5917 -39.8773,-44.7416 -85.7977,-88.7905 -185.6043,-175.6447 -109.2919,-94.5373 -319.3112,-212.976 -344.0269,-223.8447 -19.5459,-8.5952 -115.3767,-63.5735 -128.4963,-67.1842 -15.6807,-6.0211 -29.9542,-10.1361 -59.3642,-25.6298 -42.7402,-22.0745 -137.7608,-35.7102 -219.0599,-53.0677 -197.4639,-36.6882 -634.5785,-101.3231 -637.271,27.0984 2.3741,40.9312 36.8835,211.3504 43.9777,266.3281 3.3274,25.7863 48.0384,294.0155 54.795,321.2065 7.8593,31.036 72.9957,475.6925 102.3283,600.2045 20.9857,103.7252 104.3982,448.6029 111.0204,478.9532 7.5836,30.0748 75.301,275.7672 77.2444,297.0563 2.3603,26.3708 142.8937,472.9338 216.8573,683.7118 21.2101,59.4569 46.8305,134.2941 57.8491,165.4644 71.403,182.3323 146.4876,376.625 229.9144,547.8498 19.818,40.0903 50.0965,102.1486 66.3384,137.0227 73.6392,158.8561 290.453,508.6443 384.2372,618.0314 171.4818,202.5808 293.4251,312.2157 452.0308,408.217 106.0447,61.8466 250.5383,115.8175 333.0873,131.2741 75.47,7.498 156.0233,11.931 226.0312,4.506 249.7644,-6.914 384.1331,-157.8566 519.9658,-301.6412 z"
       id="path64"
       sodipodi:nodetypes="ccccccccccsccccccccccccccsccccccccccccccccccsccccscccsccccccccscccccccsccccsccccccccccccc" />
    <path
       d="m 3578.1056,5645.1245 c -87.9126,-1.8392 -140.3771,-76.4897 -157.8412,-176.0233 7.7617,-27.0621 26.7972,-52.1206 34.8932,-61.5351 61.0015,-47.4058 31.068,-35.7017 61.0015,-47.4058 68.5183,-25.889 90.6343,-24.9487 139.149,2.752 75.4508,41.823 99.2761,106.7719 68.9951,186.1953 -21.6505,55.1021 -84.5216,97.0571 -146.1976,96.0169 z"
       id="path66"
       sodipodi:nodetypes="ccccccc" />
    <path
       d="m 2839.9651,4529.3609 c -35.8492,1.9571 -88.0815,-35.0805 -100.2028,-70.0959 -5.2369,-18.264 -14.509,-90.5068 -19.3847,-161.9297 -1.8461,-121.907 -40.7613,-246.595 -56.2483,-359.4191 -1.8092,-16.9653 -147.7693,-544.3567 -189.9072,-655.0292 -94.1917,-248.6704 -223.6604,-471.6206 -358.5519,-619.1548 -59.2645,-65.1897 -197.5354,-155.5786 -266.371,-174.3315 -47.5395,-13.416 -79.7128,-45.8025 -93.4946,-93.8655 -14.6088,-50.9469 22.2806,-114.58 74.1888,-129.4643 51.908,-14.8845 148.0897,15.7927 261.7501,82.0294 82.7378,49.0964 243.4628,206.9077 268.4904,236.1417 25.0275,29.2341 64.7772,84.415 88.4403,123.403 23.6633,38.988 50.0759,80.3083 58.7411,92.3877 69.7388,101.7178 173.3949,336.2311 238.9757,543.1709 15.0188,48.7488 55.8132,191.0155 85.992,292.6336 27.6981,92.9667 74.5054,346.9019 81.1345,384.5325 7.866,38.3161 14.2334,89.5454 16.0424,113.9939 1.6816,34.8882 24.7929,181.8234 29.9028,208.4847 6.5941,31.6134 0.5958,75.6181 -2.1398,87.8457 -3.4211,13.4646 -14.2549,41.0144 -20.7012,51.1853 -13.578,21.5786 -62.0442,44.8387 -96.6566,47.4816 z"
       id="path68"
       sodipodi:nodetypes="cccccccsscssccccccccc"
       style="stroke-width:0.99749999;stroke-miterlimit:4;stroke-dasharray:none;marker-start:url(#Arrow1Lstart)" />
  </g>
</svg>
