<?xml version="1.0" encoding="UTF-8" standalone="no"?>
<svg
   xmlns:dc="http://purl.org/dc/elements/1.1/"
   xmlns:cc="http://creativecommons.org/ns#"
   xmlns:rdf="http://www.w3.org/1999/02/22-rdf-syntax-ns#"
   xmlns:svg="http://www.w3.org/2000/svg"
   xmlns="http://www.w3.org/2000/svg"
   xmlns:sodipodi="http://sodipodi.sourceforge.net/DTD/sodipodi-0.dtd"
   xmlns:inkscape="http://www.inkscape.org/namespaces/inkscape"
   width="100%"
   height="100%"
   viewBox="0 0 493 522"
   version="1.1"
   xml:space="preserve"
   style="fill-rule:evenodd;clip-rule:evenodd;stroke-linejoin:round;stroke-miterlimit:2;"
   id="svg38"
   sodipodi:docname="pingu-newest.svg"
   inkscape:version="1.0.1 (3bc2e813f5, 2020-09-07)"><metadata
   id="metadata44"><rdf:RDF><cc:Work
       rdf:about=""><dc:format>image/svg+xml</dc:format><dc:type
         rdf:resource="http://purl.org/dc/dcmitype/StillImage" /><dc:title /></cc:Work></rdf:RDF></metadata><defs
   id="defs42" /><sodipodi:namedview
   pagecolor="#ffffff"
   bordercolor="#666666"
   borderopacity="1"
   objecttolerance="10"
   gridtolerance="10"
   guidetolerance="10"
   inkscape:pageopacity="0"
   inkscape:pageshadow="2"
   inkscape:window-width="2560"
   inkscape:window-height="1376"
   id="namedview40"
   showgrid="false"
   inkscape:zoom="1.3654476"
   inkscape:cx="40.868016"
   inkscape:cy="283.25158"
   inkscape:window-x="0"
   inkscape:window-y="27"
   inkscape:window-maximized="1"
   inkscape:current-layer="g35"
   inkscape:document-rotation="0"
   inkscape:pagecheckerboard="true" />
    <g
   id="g70"
   transform="matrix(0.1,0,0,-0.1,4.63455,610.591)">
        <g
   id="g35">
            <g
   id="path64"
   transform="matrix(0.999998,-0.0017503,0.00174598,0.997532,-46.2116,-91.4913)">
                <clipPath
   id="_clip1">
                    <rect
   x="-46.345"
   y="1056.34"
   width="4936.27"
   height="5049.57"
   id="rect2" />
                </clipPath>
                <g
   clip-path="url(#_clip1)"
   id="g7">
                    <path
   style="fill:none;fill-opacity:1;fill-rule:nonzero;stroke:#ffffff;stroke-width:100.12357564;stroke-miterlimit:2;stroke-dasharray:none;stroke-opacity:1"
   d="m 3252.3883,5984.3136 c -33.3091,4.4252 -111.9464,12.495 -165.7873,12.7471 -33.6388,0.1575 -153.7518,-5.3614 -220.7061,-17.9233 -130.1681,-26.4094 -179.3343,-45.9213 -268.7866,-87.4826 -194.31,-82.65 -468.98,-314.94 -638.01,-537.99 -30.25,-40.22 -63.54,-83.73 -74.95,-98.14 -11.14,-13.45 -29.98,-39.26 -40.03,-56.14 -11,-16.61 -45.12,-70.29 -75.66,-118.75 -51.04,-80.03 -89.14,-144 -177.35,-302.85 -68.52,-122.87 -187.45,-385.25 -297.59,-653.27 -166.46,-410 -392.59003,-1165.96 -508.90003,-1705.81 -30.09,-147.34 -67.13,-293.15 -94.24,-441.11 -11.73,-59.06 -27.33,-138.85 -35.19,-177.17 -32.29,-156.14 -63.17,-436.13 -94.824,-644.48 -2.984,-19.46 -10.588,-138.04 -46.126,-158.03997 -10.597,-5.96 -22.021,-9.74 -33.96,-11.95 277.7685,17.18927 1255.67493,-35.3765 1771.14003,-9 14.15,2.19 59.03,-11.6 0,0 -37.34,7.34 -129.79,17.7 -162.92,37.38997 -6,3.57 -41.33,41.09 37.16,93.49 40.95,26.75 114.63,80.52 154.49,110.7 135.41,105.78 302.88,277.73 403.14,406.06 26.13,33.08 55.83,71.38 66.97,84.83 77.29,95.39 269.88,396.99 304.99,479.51 7.16,17.71 22.15,44.62 30.41,58.9 16.09,23.47 62.2,122.6 135.85,288.74 28.63,63.57 90.04,219.69 132.87,336.4 36.5,101.89 191.52,652.26 206.05,722.19 15.58,68.25 42.07,186.63 65.66,294.3 12.42,57.82 24.98,119.75 27.05,137.88 3.04,17.86 7.74,48.76 11.06,67.57 21.27,124.98 28.74,180.06 55.88,405.3 14.34,149.44 38.5,307.42 43.7,453.52 8.07,28.34 9.92,27.33 46.34,49.13 57.72,34.43 240.24,141.26 311.29,182.26 52.62,30.25 105.22,60.53 157.64,91.14 21.19,12.38 104.28,67.99 112.37,80.13 5.23,7.85 35.56,48.26 -34.76,71.34 -67.84,17.37 -101.62,35.34 -185.12,56.16 l -311.76,112.5 -110.17,125.6 c -58.32,68.74 -151.7958,137.7707 -224.1458,172.0407 -56.57,27.67 -173.8866,80.1599 -273.0742,90.2781 z"
   id="path5" />
                </g>
            </g>
            <g
   transform="matrix(10,0,0,-10,-46.3455,6105.91)"
   id="g10">
            </g>
            <g
   transform="matrix(10,0,0,-10,-46.3455,6105.91)"
   id="g12">
            </g>
            <g
   transform="matrix(10,0,0,-10,-46.3455,6105.91)"
   id="g14">
            </g>
            <g
   transform="matrix(10,0,0,-10,-46.3455,6105.91)"
   id="g16">
            </g>
            <g
   transform="matrix(10,0,0,-10,-46.3455,6105.91)"
   id="g18">
            </g>
            <g
   transform="matrix(10,0,0,-10,-46.3455,6105.91)"
   id="g20">
            </g>
            <g
   transform="matrix(10,0,0,-10,-46.3455,6105.91)"
   id="g22">
            </g>
            <g
   transform="matrix(10,0,0,-10,-46.3455,6105.91)"
   id="g24">
            </g>
            <g
   transform="matrix(10,0,0,-10,-46.3455,6105.91)"
   id="g26">
            </g>
            <g
   id="path66"
   transform="matrix(0.699105,0,0,0.939666,780.58635,85.4581)">
                <path
   d="m 3509.06,5662.45 c -87.91,-1.84 -132.68,-79.91 -150.15,-179.44 7.77,-27.06 296.4,-120.1 296.4,-120.1 75.45,41.82 99.27,106.77 68.99,186.2 -21.65,55.1 -153.56,114.38 -215.24,113.34 z"
   style="fill:#ffffff;fill-opacity:1;fill-rule:nonzero;stroke:#ffffff;stroke-width:12.07px;stroke-opacity:1"
   id="path28" />
            </g>
            <g
   transform="matrix(4.7326636,-0.96084671,-1.0581209,-8.4747359,1428.1337,5911.8326)"
   id="g33">
                
            </g>
        <path
   style="fill:none;stroke:#ffffff;stroke-width:100;stroke-linecap:round;stroke-linejoin:round;stroke-miterlimit:2;stroke-dasharray:none;stroke-opacity:1;paint-order:stroke fill markers"
   d="M 2398.4126,3734.0393 C 2312.6171,3052.5664 2169.6212,2670.6562 1763.8528,2060.7885"
   id="path855"
   sodipodi:nodetypes="cc" /></g>
    </g>
</svg>
