<?xml version="1.0" encoding="UTF-8" standalone="no"?>
<svg
   xmlns:dc="http://purl.org/dc/elements/1.1/"
   xmlns:cc="http://creativecommons.org/ns#"
   xmlns:rdf="http://www.w3.org/1999/02/22-rdf-syntax-ns#"
   xmlns:svg="http://www.w3.org/2000/svg"
   xmlns="http://www.w3.org/2000/svg"
   xmlns:sodipodi="http://sodipodi.sourceforge.net/DTD/sodipodi-0.dtd"
   xmlns:inkscape="http://www.inkscape.org/namespaces/inkscape"
   width="72.354942pt"
   height="65.5019pt"
   viewBox="0 0 72.354943 65.5019"
   version="1.1"
   id="svg2985"
   inkscape:version="0.91 r13725"
   sodipodi:docname="pinguin-white-s.svg">
  <metadata
     id="metadata3010">
    <rdf:RDF>
      <cc:Work
         rdf:about="">
        <dc:format>image/svg+xml</dc:format>
        <dc:type
           rdf:resource="http://purl.org/dc/dcmitype/StillImage" />
        <dc:title />
      </cc:Work>
    </rdf:RDF>
  </metadata>
  <sodipodi:namedview
     pagecolor="#ffffff"
     bordercolor="#666666"
     borderopacity="1"
     objecttolerance="10"
     gridtolerance="10"
     guidetolerance="10"
     inkscape:pageopacity="0"
     inkscape:pageshadow="2"
     inkscape:window-width="1920"
     inkscape:window-height="1014"
     id="namedview3008"
     showgrid="false"
     inkscape:zoom="10.262017"
     inkscape:cx="27.217549"
     inkscape:cy="49.09261"
     inkscape:window-x="0"
     inkscape:window-y="27"
     inkscape:window-maximized="1"
     inkscape:current-layer="surface1"
     fit-margin-top="0"
     fit-margin-left="0"
     fit-margin-right="0"
     fit-margin-bottom="0" />
  <defs
     id="defs2987">
    <clipPath
       id="clip1">
      <path
         d="m 125,111 117,0 0,42.07031 -117,0 z m 0,0"
         id="path2990"
         inkscape:connector-curvature="0" />
    </clipPath>
    <clipPath
       id="clip2">
      <path
         d="m 0,0 164,0 0,153.07031 -164,0 z m 0,0"
         id="path2993"
         inkscape:connector-curvature="0" />
    </clipPath>
  </defs>
  <g
     id="surface1"
     transform="translate(-5.042269,-2.148578)">
    <g
       clip-path="url(#clip1)"
       id="g2996"
       style="clip-rule:nonzero" />
    <path
       style="fill:#ffffff;fill-opacity:1;stroke:#a4c9d2;stroke-width:0.1102484"
       d="m 5.095345,67.033544 0,-0.44886 9.674296,-6.4e-5 c 9.65717,-6.4e-5 12.384238,-0.07003 15.296965,-0.392496 1.528137,-0.169177 3.031831,-0.450725 3.031831,-0.567673 0,-0.03331 -0.651684,-1.406065 -1.448188,-3.050557 -2.19557,-4.533061 -2.473302,-5.293601 -2.596081,-7.109108 l -0.0698,-1.03217 -0.451114,0.05241 c -0.650334,0.07555 -5.886747,2.686702 -8.328391,4.152972 -1.118761,0.671845 -2.15046,1.221536 -2.292665,1.221536 -0.392363,0 -0.758756,-0.445172 -0.897025,-1.089901 -0.276313,-1.288397 -0.134176,-2.762511 0.760022,-7.882271 1.116566,-6.39294 2.429589,-11.549976 4.642947,-18.235672 1.398969,-4.225743 2.070109,-5.699952 4.025981,-8.84338 0.547065,-0.879232 1.580535,-2.574939 2.296598,-3.76824 1.596344,-2.660266 2.582135,-3.995388 4.402133,-5.962096 1.647717,-1.78054 2.666529,-2.671684 3.839621,-3.358472 0.468712,-0.274408 0.906077,-0.563837 0.971922,-0.643175 0.06585,-0.07934 0.167404,-0.480981 0.225688,-0.892539 0.127554,-0.900694 0.434678,-1.600173 1.209448,-2.754536 1.247315,-1.858427 1.867999,-2.388449 3.975995,-3.3952287 1.526999,-0.7292954 2.234519,-0.877359 3.88971,-0.814003 1.194091,0.045707 1.307988,0.071024 2.124285,0.472188 1.623568,0.797894 3.321714,2.8396847 3.62481,4.3583447 l 0.12102,0.606367 1.865809,0.1291 c 1.026193,0.071 2.982072,0.206471 4.346396,0.301036 3.322959,0.230322 3.682281,0.327976 3.616265,0.982802 -0.06558,0.650468 -0.477543,0.790598 -4.553376,1.548835 -1.152096,0.214327 -2.504924,0.448005 -3.006287,0.519285 -0.501361,0.07128 -0.933929,0.16578 -0.961259,0.210003 -0.117526,0.190161 1.767846,0.629285 4.516296,1.051895 0.604994,0.09303 1.144538,0.213685 1.198984,0.26813 0.05445,0.05445 0.06646,0.272443 0.02668,0.484436 -0.06895,0.367561 -0.08764,0.381045 -0.40275,0.290672 -0.181743,-0.05212 -0.954546,-0.175221 -1.717342,-0.273553 -1.732302,-0.22331 -3.075713,-0.560913 -4.593666,-1.154403 -1.262248,-0.493515 -1.468857,-0.677181 -1.251916,-1.112892 0.114908,-0.230783 0.242077,-0.280844 0.902415,-0.355239 1.314625,-0.148109 4.364508,-0.641754 5.288841,-0.856037 0.485093,-0.112456 1.314508,-0.263738 1.843146,-0.336182 0.528637,-0.07244 0.935006,-0.174032 0.903042,-0.22575 -0.03196,-0.05172 -0.464484,-0.0962 -0.961158,-0.09884 -0.496674,-0.0026 -1.423966,-0.05157 -2.06065,-0.108725 C 57.488138,8.864333 56.099008,8.766288 55.037867,8.703606 53.976727,8.640926 52.969748,8.534026 52.800138,8.466057 52.447139,8.324594 52.171904,7.864975 52.170332,7.414333 52.167732,6.679299 51.047359,4.963662 50.054187,4.173967 49.065571,3.3878942 48.42447,3.1514033 47.14671,3.1014489 45.662512,3.0434239 45.007682,3.1987089 43.451362,3.977756 41.840908,4.7839 41.090357,5.449025 40.145845,6.907047 39.373542,8.099231 39.05185,8.844755 39.05185,9.44239 c 0,0.562256 -0.405327,1.34891 -0.806095,1.564457 -1.627162,0.875148 -2.96764,2.026729 -5.066759,4.352767 -1.689337,1.871957 -1.761155,1.98053 -6.693567,10.119228 -1.183989,1.953634 -2.041573,3.908388 -3.075244,7.009635 -2.387574,7.163256 -3.75005,12.631672 -5.03413,20.204909 -0.413802,2.440529 -0.517275,3.315577 -0.530541,4.486706 -0.01044,0.921912 0.02742,1.498922 0.103351,1.57511 0.08644,0.08673 0.639419,-0.191642 1.984471,-0.998994 1.025552,-0.615575 3.225941,-1.789749 4.889753,-2.609276 2.673759,-1.316985 3.105212,-1.496478 3.714761,-1.545406 0.655349,-0.05261 0.706403,-0.0386 1.026516,0.281508 0.297225,0.297226 0.337321,0.412467 0.340714,0.979278 0.01029,1.718555 0.454767,3.024768 2.300695,6.761194 0.674024,1.364324 1.375889,2.841694 1.559702,3.283044 0.297358,0.713988 0.318513,0.835533 0.191889,1.102484 -0.254811,0.537194 -1.888181,0.925902 -5.268865,1.253885 -0.795336,0.07716 -5.42809,0.140981 -12.430506,0.171244 l -11.16265,0.04824 0,-0.448861 z"
       id="path4737"
       inkscape:connector-curvature="0" />
    <path
       style="fill:#ffffff;fill-opacity:1;stroke:#a4c9d2;stroke-width:0.1102484"
       d="M 45.693476,9.421545 C 45.273252,9.238912 45.115511,8.895196 45.115511,8.1621614 c 0,-0.6787891 0.334316,-1.1943441 0.988924,-1.5250423 0.534479,-0.2700101 0.833226,-0.3043161 1.254682,-0.1440786 0.214564,0.081577 0.301729,0.2301673 0.404557,0.6896517 0.234142,1.0462606 -0.244101,2.0561498 -1.084209,2.2894828 -0.509551,0.141524 -0.548454,0.139526 -0.985989,-0.05063 z"
       id="path4739"
       inkscape:connector-curvature="0" />
    <path
       style="fill:#ffffff;fill-opacity:1;stroke:#a4c9d2;stroke-width:0.1378105"
       d="m 49.228521,80.77813 c -1.464192,-1.3678 -1.483701,-1.136179 0.449098,-5.331986 0.471357,-1.023243 1.52968,-3.294191 2.351829,-5.04655 3.915903,-8.3465 5.203647,-12.80746 7.643259,-26.47751 0.874267,-4.898837 1.018623,-6.495336 1.02492,-11.335004 0.0057,-4.382951 -0.149911,-5.946296 -0.889923,-8.940498 -0.775034,-3.135904 -1.379355,-4.806608 -2.359098,-6.521955 -1.076024,-1.883918 -1.117317,-2.373204 -0.332055,-3.934586 0.60355,-1.200074 0.613763,-1.205673 1.27481,-0.698938 0.221382,0.169704 0.204643,0.248078 -0.241168,1.129174 -0.263485,0.520747 -0.478033,1.109886 -0.476774,1.309199 0.0013,0.199313 0.371674,1.009624 0.823145,1.80069 0.952955,1.669763 1.495345,3.088323 2.140897,5.599276 1.052007,4.091905 1.055676,4.121517 1.129893,9.121278 0.0768,5.173568 -0.06133,7.613306 -0.592643,10.467491 -0.194572,1.045233 -0.594687,3.264748 -0.889144,4.932255 -1.811744,10.25989 -3.541272,16.131474 -6.779088,23.014353 -0.606144,1.288528 -1.551388,3.335014 -2.100542,4.547746 -0.549155,1.212732 -1.215614,2.639071 -1.48102,3.169641 -0.749932,1.499181 -0.751585,1.575584 -0.04903,2.265091 l 0.603855,0.592637 10.520671,-0.02445 c 5.786369,-0.01345 14.753176,0.01986 19.926237,0.07402 l 9.405566,0.09847 0,0.526883 0,0.526881 -19.672448,-0.03151 c -10.819846,-0.01733 -19.828257,0.01248 -20.01869,0.06625 -0.297989,0.08414 -0.494849,-0.04106 -1.412558,-0.898348 z"
       id="path4741"
       inkscape:connector-curvature="0"
       transform="matrix(0.8,0,0,0.8,5.042269,2.148578)" />
  </g>
</svg>
